<svg id="Group_346" data-name="Group 346" xmlns="http://www.w3.org/2000/svg" width="22.665" height="22.491" viewBox="0 0 22.665 22.491">
  <path id="Path_3595" data-name="Path 3595" d="M2.471,12H7.529A2.485,2.485,0,0,0,10,9.529V4.471A2.485,2.485,0,0,0,7.529,2H2.471A2.525,2.525,0,0,0,0,4.471V9.529A2.485,2.485,0,0,0,2.471,12Z" transform="translate(0 -2)" fill="#f0a622"/>
  <path id="Path_3596" data-name="Path 3596" d="M2.471,33.2H7.529A2.486,2.486,0,0,0,10,30.729V25.671A2.485,2.485,0,0,0,7.529,23.2H2.471A2.485,2.485,0,0,0,0,25.671v5.059A2.486,2.486,0,0,0,2.471,33.2Z" transform="translate(0 -10.709)" fill="#f0a622"/>
  <path id="Path_3597" data-name="Path 3597" d="M21.5,4.471V9.529A2.485,2.485,0,0,0,23.971,12h5.059A2.485,2.485,0,0,0,31.5,9.529V4.471A2.485,2.485,0,0,0,29.029,2H23.971A2.485,2.485,0,0,0,21.5,4.471Z" transform="translate(-8.835 -2)" fill="#f0a622"/>
  <path id="Path_3598" data-name="Path 3598" d="M23.871,33.2h5.059A2.486,2.486,0,0,0,31.4,30.729V25.671A2.485,2.485,0,0,0,28.929,23.2H23.871A2.485,2.485,0,0,0,21.4,25.671v5.059A2.525,2.525,0,0,0,23.871,33.2Z" transform="translate(-8.797 -10.709)" fill="#f0a622"/>
</svg>
