<svg xmlns="http://www.w3.org/2000/svg" width="30.658" height="25.457" viewBox="0 0 30.658 25.457">
  <g id="doneaza_ba-01" transform="translate(-0.1 -58.666)">
    <g id="Group_295" data-name="Group 295" transform="translate(10.528 58.666)">
      <g id="Group_294" data-name="Group 294" transform="translate(0 0)">
        <path id="Path_3320" data-name="Path 3320" d="M189.561,73.414c.839-1.21,1.569-2.276,2.192-3.289,1.336-2.18,2.48-4.552,1.779-7.129a5.975,5.975,0,0,0-2.462-3.48,5.123,5.123,0,0,0-7.692,2.671c-.047.132-.09.257-.132.383-.1-.09-.2-.18-.306-.269a5.115,5.115,0,0,0-7.985,1.563,6,6,0,0,0-.371,4.248,6.116,6.116,0,0,0,.893,1.911,7.442,7.442,0,0,1,4.289,1.815,1.276,1.276,0,0,0,.8.306h3.252a2.958,2.958,0,0,1,2.109.868,3,3,0,0,1,.886,2.091v.042a2.965,2.965,0,0,1-.383,1.467.021.021,0,0,1,.012.006.949.949,0,0,0,.281.084Z" transform="translate(-174.356 -58.666)" fill="#adadad"/>
      </g>
    </g>
    <g id="Group_300" data-name="Group 300" transform="translate(0.1 71.192)">
      <g id="Group_297" data-name="Group 297" transform="translate(0 0.351)">
        <g id="Group_296" data-name="Group 296">
          <path id="Path_3321" data-name="Path 3321" d="M2.916,273.6H1a.9.9,0,0,0-.9.9v10.782a.9.9,0,0,0,.9.9H2.916a2.7,2.7,0,0,0,2.7-2.7V276.3a2.7,2.7,0,0,0-2.7-2.7Z" transform="translate(-0.1 -273.6)" fill="#adadad"/>
        </g>
      </g>
      <g id="Group_299" data-name="Group 299" transform="translate(7.308 0)">
        <g id="Group_298" data-name="Group 298" transform="translate(0)">
          <line id="Line_84" data-name="Line 84" x1="2.846" y2="3.283" transform="translate(15.479 2.219)" fill="none"/>
          <path id="Path_3322" data-name="Path 3322" d="M144.923,272.506l-4.313,5.75a6.3,6.3,0,0,1-5.032,2.516h-8.015a20.746,20.746,0,0,1-5.463-.737V268.978a6.3,6.3,0,0,1,7.746.413,2.477,2.477,0,0,0,1.581.593h3.252a1.8,1.8,0,0,1,1.8,1.779v.018a1.8,1.8,0,0,1-1.8,1.8H129.2a.9.9,0,1,0,0,1.8h6.972a2.651,2.651,0,0,0,1.977-.862l.126-.143,4.079-4.709a1.779,1.779,0,0,1,2.426-.179,1.646,1.646,0,0,1,.413.45A2.381,2.381,0,0,1,144.923,272.506Z" transform="translate(-122.1 -267.842)" fill="#adadad"/>
        </g>
      </g>
    </g>
  </g>
</svg>
