<svg xmlns="http://www.w3.org/2000/svg" viewBox="0 0 309.43 166.57"><defs><style>.cls-1{fill:#010101;}.cls-2{fill:#f0a622;}</style></defs><title>Logo_Beez</title><g id="Layer_2" data-name="Layer 2"><g id="Layer_1-2" data-name="Layer 1"><polygon class="cls-1" points="269.36 138.67 308.24 138.67 304.54 162.31 219.78 162.31 238.2 132 250.31 112.06 259.88 96.29 225.28 96.29 229.85 76.57 230.75 72.66 309.43 72.66 269.36 138.67"/><path class="cls-1" d="M125.6,33.94a5.53,5.53,0,0,1-10.38.45,3.34,3.34,0,0,1-.7-.14,42.39,42.39,0,0,0-53,27.88,3.72,3.72,0,1,1-7.11-2.21,49.84,49.84,0,0,1,62.31-32.77,4,4,0,0,1,.84.37,5.53,5.53,0,0,1,8,6.42Z"/><path class="cls-1" d="M91.8,4.3A5.53,5.53,0,0,1,83,9.88a3.78,3.78,0,0,1-.67.23,42.39,42.39,0,0,0-32,50.64,3.72,3.72,0,0,1-7.26,1.64A49.85,49.85,0,0,1,80.72,2.85a4.66,4.66,0,0,1,.9-.09A5.54,5.54,0,0,1,91.8,4.3Z"/><path class="cls-2" d="M241.87,101.54H219.64a17.2,17.2,0,0,1,.72,5v1.38l-38.86,1.19s0-.06,0-.08c1.09-5.86,3.5-10.47,7.25-13.75a20.1,20.1,0,0,1,12.76-4.85,11.66,11.66,0,0,1,1.34-.07,18,18,0,0,1,12.53,4.55,14.92,14.92,0,0,1,3.64,5l5.74-24.84.35-1.52a46.09,46.09,0,0,0-21.89-5c-.44,0-.87,0-1.3,0a49.85,49.85,0,0,0-35.23,14.86q-15,14.85-15,36.47,0,20.66,13.71,33.57,13.28,12.44,34.51,12.86c.54,0,1.07,0,1.63,0a77.94,77.94,0,0,0,10-.66l.29-.49,17.27-28.43a72.94,72.94,0,0,1-7.1,2.95A49.16,49.16,0,0,1,205.64,143c-.51,0-1,0-1.5,0a25.75,25.75,0,0,1-15.76-5.6,20.42,20.42,0,0,1-7.56-14.74l57.94-1.6,0-.09,1.48-2.4s0,0,0-.06a21.09,21.09,0,0,0,1.9-7.83c0-1.17.08-2.14.08-2.88A47.35,47.35,0,0,0,241.87,101.54Z"/><path class="cls-2" d="M83.78,84.37c-.24-.32-.51-.65-.8-1q-11.33-13-29.63-13a41.23,41.23,0,0,0-10.71,1.52,64.3,64.3,0,0,0-11.46,4.63V16L0,20.31V166.57l19.94-4.26L31.28,165c2.93.47,5.54.8,7.84,1a58.57,58.57,0,0,0,6.28.33c14.63,0,26.49-4.51,35.46-13.5.33-.33.64-.66,1-1-6.9-8.75-10.37-19.47-10.37-31.94C71.44,106.31,75.57,94.38,83.78,84.37ZM56.41,135.89c-4.11,5-9.2,7.47-15.31,7.47a25.05,25.05,0,0,1-4.22-.41c-1.56-.27-3.46-.68-5.7-1.3V98.74a47.69,47.69,0,0,1,7.51-3.54,16,16,0,0,1,18.73,5.17c3.44,4.21,5.13,9.75,5.13,16.65Q62.55,128.47,56.41,135.89Z"/><path class="cls-2" d="M83.78,84.37c-.24-.32-.51-.65-.8-1q-11.33-13-29.63-13a41.23,41.23,0,0,0-10.71,1.52,64.3,64.3,0,0,0-11.46,4.63V16L0,20.31V166.57l19.94-4.26L31.28,165c2.93.47,5.54.8,7.84,1a58.57,58.57,0,0,0,6.28.33c14.63,0,26.49-4.51,35.46-13.5.33-.33.64-.66,1-1-6.9-8.75-10.37-19.47-10.37-31.94C71.44,106.31,75.57,94.38,83.78,84.37ZM56.41,135.89c-4.11,5-9.2,7.47-15.31,7.47a25.05,25.05,0,0,1-4.22-.41c-1.56-.27-3.46-.68-5.7-1.3V98.74a47.69,47.69,0,0,1,7.51-3.54,16,16,0,0,1,18.73,5.17c3.44,4.21,5.13,9.75,5.13,16.65Q62.55,128.47,56.41,135.89Z"/><path class="cls-1" d="M160.86,82a31.92,31.92,0,0,0-2.45-2.49c-7.88-7.29-17.92-10.91-30.19-10.91q-21.5,0-36.53,14.88c-.39.39-.78.78-1.13,1.17A43.9,43.9,0,0,0,87,88.78Q76.65,102,76.68,119.94c0,10.86,2.87,20.15,8.59,27.8a38.81,38.81,0,0,0,3.43,4.1c.56.57,1.12,1.13,1.69,1.67q13.77,12.9,36.14,12.88a78.22,78.22,0,0,0,17.89-2.08,92.28,92.28,0,0,0,18-6.44l0,0,3.47-27.54a99.75,99.75,0,0,1-16.34,8.48c-.86.35-1.73.66-2.57,1A49.09,49.09,0,0,1,130.65,143q-10.41,0-17.29-5.64a20.52,20.52,0,0,1-7.55-14.74l40.69-1.13,20.41-.56a21.14,21.14,0,0,0,3.21-10.29c0-1.17.08-2.14.08-2.88Q170.2,92.31,160.86,82Zm-15.52,26-38.83,1.19c1.07-5.9,3.5-10.53,7.26-13.83a20.67,20.67,0,0,1,14.08-4.92,18,18,0,0,1,12.53,4.55,15.08,15.08,0,0,1,5,11.63Z"/></g></g></svg>