<svg xmlns="http://www.w3.org/2000/svg" width="103.69" height="66.716" viewBox="0 0 103.69 66.716">
  <g id="Layer_2" data-name="Layer 2" transform="translate(0 -0.03)">
    <g id="Layer_1" data-name="Layer 1" transform="translate(0 0.03)">
      <g id="Layer_1-2" data-name="Layer 1-2">
        <path id="Path_7910" data-name="Path 7910" d="M296.41,114.538h13l-1.237,7.9H279.8l6.16-10.135,4.054-6.686,3.211-5.291H281.643l1.527-6.607.29-1.316h26.377Z" transform="translate(-206.146 -68.085)" fill="#020202"/>
        <path id="Path_7911" data-name="Path 7911" d="M92.992,34.765a1.843,1.843,0,0,1-3.475.158.768.768,0,0,1-.237-.053,14.215,14.215,0,0,0-17.769,9.345,1.241,1.241,0,0,1-2.369-.737A16.7,16.7,0,0,1,90.017,32.5a1.411,1.411,0,0,1,.29.132,1.856,1.856,0,0,1,2.527.711,1.888,1.888,0,0,1,.158,1.421Z" transform="translate(-50.9 -23.401)" fill="#020202"/>
        <path id="Path_7912" data-name="Path 7912" d="M70,1.444a1.843,1.843,0,0,1-2.948,1.869l-.237.079A14.2,14.2,0,0,0,56.1,20.37a1.256,1.256,0,0,1-2.448.553h0A16.7,16.7,0,0,1,66.258.97a1.179,1.179,0,0,1,.29-.026A1.843,1.843,0,0,1,69.075.285,1.772,1.772,0,0,1,70,1.444Z" transform="translate(-39.224 -0.03)" fill="#020202"/>
        <path id="Path_7913" data-name="Path 7913" d="M223.1,98.32h-7.45a6.056,6.056,0,0,1,.237,1.685v.474l-13.03.395v-.026a7.9,7.9,0,0,1,2.422-4.607,6.72,6.72,0,0,1,4.264-1.632,2.554,2.554,0,0,1,.448-.026,5.931,5.931,0,0,1,4.185,1.527,4.841,4.841,0,0,1,1.211,1.685l1.922-8.318.105-.5a15.436,15.436,0,0,0-7.344-1.685h-.448A17.08,17.08,0,0,0,192.8,104.48a14.741,14.741,0,0,0,4.58,11.24c2.975,2.79,6.818,4.212,11.556,4.317h.553a28.144,28.144,0,0,0,3.343-.211l.105-.158,5.791-9.529c-.763.369-1.579.711-2.369,1a16.24,16.24,0,0,1-5.475,1.106h-.5a8.747,8.747,0,0,1-5.291-1.869,6.821,6.821,0,0,1-2.527-4.949l19.4-.526v-.026l.5-.816v-.026a6.9,6.9,0,0,0,.632-2.632c0-.395.026-.711.026-.974a9.371,9.371,0,0,0-.026-2.106Z" transform="translate(-142.048 -64.318)" fill="#f0a623"/>
        <path id="Path_7914" data-name="Path 7914" d="M28.088,43.2c-.079-.105-.158-.211-.263-.342A12.553,12.553,0,0,0,17.9,38.516a13.665,13.665,0,0,0-3.58.5,23.026,23.026,0,0,0-3.843,1.553V20.3L0,21.748V70.737l6.686-1.421,3.791.9c.974.158,1.869.263,2.632.342a18.8,18.8,0,0,0,2.106.105c4.9,0,8.871-1.5,11.872-4.528l.342-.342a16.776,16.776,0,0,1-3.475-10.714A18.219,18.219,0,0,1,28.088,43.2ZM18.9,60.47a6.329,6.329,0,0,1-5.133,2.5,8.654,8.654,0,0,1-1.421-.132,17.27,17.27,0,0,1-1.922-.448V48.019a13.867,13.867,0,0,1,2.527-1.185,5.365,5.365,0,0,1,6.265,1.737,8.514,8.514,0,0,1,1.711,5.581A9.441,9.441,0,0,1,18.9,60.47Z" transform="translate(0 -14.964)" fill="#f0a623"/>
        <path id="Path_7915" data-name="Path 7915" d="M28.088,43.2c-.079-.105-.158-.211-.263-.342A12.553,12.553,0,0,0,17.9,38.516a13.665,13.665,0,0,0-3.58.5,23.026,23.026,0,0,0-3.843,1.553V20.3L0,21.748V70.737l6.686-1.421,3.791.9c.974.158,1.869.263,2.632.342a18.8,18.8,0,0,0,2.106.105c4.9,0,8.871-1.5,11.872-4.528l.342-.342a16.776,16.776,0,0,1-3.475-10.714A18.219,18.219,0,0,1,28.088,43.2ZM18.9,60.47a6.329,6.329,0,0,1-5.133,2.5,8.654,8.654,0,0,1-1.421-.132,17.27,17.27,0,0,1-1.922-.448V48.019a13.867,13.867,0,0,1,2.527-1.185,5.365,5.365,0,0,1,6.265,1.737,8.514,8.514,0,0,1,1.711,5.581A9.441,9.441,0,0,1,18.9,60.47Z" transform="translate(0 -14.964)" fill="#f0a623"/>
        <path id="Path_7916" data-name="Path 7916" d="M125.965,91.7c-.263-.29-.526-.579-.816-.842A14.247,14.247,0,0,0,115.041,87.2,16.806,16.806,0,0,0,102.8,92.175a5.051,5.051,0,0,0-.369.395,15.06,15.06,0,0,0-1.185,1.4A16.225,16.225,0,0,0,97.8,104.416a15.32,15.32,0,0,0,2.869,9.319,11.382,11.382,0,0,0,1.158,1.369c.184.184.369.369.579.553q4.62,4.3,12.109,4.317a27.079,27.079,0,0,0,6-.684,30.469,30.469,0,0,0,6.028-2.159h0l1.158-9.24a34.8,34.8,0,0,1-5.475,2.843c-.29.105-.579.211-.869.342a16.874,16.874,0,0,1-5.475,1.079,8.812,8.812,0,0,1-5.791-1.9,6.821,6.821,0,0,1-2.527-4.949l13.636-.369,6.844-.184a7,7,0,0,0,1.079-3.448c0-.395.026-.711.026-.974A12.73,12.73,0,0,0,125.965,91.7Zm-5.212,8.713-13,.395a7.971,7.971,0,0,1,2.422-4.633,7.026,7.026,0,0,1,4.712-1.658,5.931,5.931,0,0,1,4.185,1.527,5.125,5.125,0,0,1,1.685,3.9Z" transform="translate(-72.054 -64.253)" fill="#020202"/>
      </g>
      <g id="Group_5409" data-name="Group 5409" transform="translate(0.029 60.729)" style="isolation: isolate">
        <path id="Path_7917" data-name="Path 7917" d="M1.637,232.293H.11v-.553H3.8v.553H2.266v3.9H1.637Z" transform="translate(-0.11 -231.474)"/>
        <path id="Path_7918" data-name="Path 7918" d="M19.576,233.507v1.937h-.611v-1.866c0-.663-.329-.987-.908-.987a1,1,0,0,0-1.066,1.119v1.735H16.38V230.73h.611v1.824a1.456,1.456,0,0,1,1.187-.508A1.3,1.3,0,0,1,19.576,233.507Z" transform="translate(-12.097 -230.73)"/>
        <path id="Path_7919" data-name="Path 7919" d="M35.025,237.628H32.287a1.142,1.142,0,0,0,1.221.984,1.256,1.256,0,0,0,.971-.408l.337.395a1.836,1.836,0,0,1-3.14-1.174,1.651,1.651,0,0,1,1.69-1.716,1.623,1.623,0,0,1,1.666,1.735A1.069,1.069,0,0,1,35.025,237.628Zm-2.738-.434h2.161a1.087,1.087,0,0,0-2.161,0Z" transform="translate(-23.366 -234.398)"/>
        <path id="Path_7920" data-name="Path 7920" d="M57.346,237.183v1.937h-.6v-1.866c0-.663-.329-.987-.908-.987a1,1,0,0,0-1.066,1.119v1.735H54.15v-3.367h.584v.508a1.445,1.445,0,0,1,1.219-.54A1.3,1.3,0,0,1,57.346,237.183Z" transform="translate(-39.925 -234.406)"/>
        <path id="Path_7921" data-name="Path 7921" d="M72.809,237.628H70.077a1.14,1.14,0,0,0,1.219.984,1.258,1.258,0,0,0,.974-.408l.337.395a1.836,1.836,0,0,1-3.14-1.174,1.651,1.651,0,0,1,1.69-1.716,1.623,1.623,0,0,1,1.666,1.735C72.823,237.5,72.815,237.575,72.809,237.628Zm-2.732-.44h2.161a1.087,1.087,0,0,0-2.161,0Z" transform="translate(-51.208 -234.398)"/>
        <path id="Path_7922" data-name="Path 7922" d="M88.766,235.828l-1.258,3.367h-.584l-.971-2.553-.985,2.553h-.584l-1.253-3.367h.579l.979,2.672,1.016-2.68h.526l1,2.693,1.006-2.693Z" transform="translate(-61.276 -234.48)"/>
        <path id="Path_7923" data-name="Path 7923" d="M115.31,237.13v2.032h-.579v-.432a1.248,1.248,0,0,1-1.106.484c-.761,0-1.245-.408-1.245-.992,0-.54.35-.985,1.353-.985h.966v-.121c0-.513-.3-.813-.9-.813a1.7,1.7,0,0,0-1.069.363l-.263-.458a2.251,2.251,0,0,1,1.393-.432C114.789,235.764,115.31,236.209,115.31,237.13Zm-.611,1v-.471h-.94c-.6,0-.774.237-.774.526,0,.337.279.548.742.548A.977.977,0,0,0,114.7,238.133Z" transform="translate(-82.826 -234.448)"/>
        <path id="Path_7924" data-name="Path 7924" d="M131.012,237.184v1.937H130.4v-1.866c0-.663-.332-.987-.908-.987a1,1,0,0,0-1.069,1.119v1.735H127.8v-3.367h.579v.508a1.453,1.453,0,0,1,1.216-.54A1.315,1.315,0,0,1,131.012,237.184Z" transform="translate(-94.187 -234.407)"/>
        <path id="Path_7925" data-name="Path 7925" d="M146.574,230.73v4.715h-.584v-.526a1.424,1.424,0,0,1-1.2.574,1.719,1.719,0,0,1,0-3.438,1.427,1.427,0,0,1,1.174.54v-1.856Zm-.6,3.033a1.135,1.135,0,1,0-1.132,1.187,1.108,1.108,0,0,0,1.132-1.187Z" transform="translate(-105.437 -230.73)"/>
        <path id="Path_7926" data-name="Path 7926" d="M170.748,233.763a1.637,1.637,0,0,1-1.7,1.722,1.424,1.424,0,0,1-1.2-.574v.526h-.584V230.73h.611v1.856a1.427,1.427,0,0,1,1.177-.54,1.632,1.632,0,0,1,1.7,1.716Zm-.616,0a1.135,1.135,0,1,0-1.137,1.187,1.111,1.111,0,0,0,1.137-1.187Z" transform="translate(-123.26 -230.73)"/>
        <path id="Path_7927" data-name="Path 7927" d="M185.909,237.628h-2.732a1.14,1.14,0,0,0,1.219.984,1.253,1.253,0,0,0,.971-.408l.337.395a1.826,1.826,0,0,1-3.127-1.174,1.65,1.65,0,0,1,1.69-1.716,1.623,1.623,0,0,1,1.664,1.735C185.919,237.5,185.914,237.575,185.909,237.628Zm-2.732-.44h2.159a1.087,1.087,0,0,0-2.159,0Z" transform="translate(-134.543 -234.398)"/>
        <path id="Path_7928" data-name="Path 7928" d="M199.071,236.979a1.14,1.14,0,0,1-.737.237.951.951,0,0,1-1.053-1.053V234.32h-.571v-.5h.571v-.737h.611v.737h.966v.5h-.966v1.822a.495.495,0,0,0,.526.566.774.774,0,0,0,.476-.158Z" transform="translate(-144.957 -232.461)"/>
        <path id="Path_7929" data-name="Path 7929" d="M208.707,236.979a1.14,1.14,0,0,1-.737.237.961.961,0,0,1-1.066-1.053V234.32h-.574v-.5h.574v-.737h.608v.737h.966v.5h-.966v1.822a.5.5,0,0,0,.526.566.79.79,0,0,0,.476-.158Z" transform="translate(-152.045 -232.461)"/>
        <path id="Path_7930" data-name="Path 7930" d="M219.879,237.628h-2.732a1.142,1.142,0,0,0,1.221.984,1.256,1.256,0,0,0,.971-.408l.337.395a1.836,1.836,0,0,1-3.14-1.174,1.651,1.651,0,0,1,1.69-1.716,1.623,1.623,0,0,1,1.666,1.735C219.893,237.5,219.885,237.575,219.879,237.628Zm-2.732-.44h2.161a1.087,1.087,0,0,0-2.161,0Z" transform="translate(-159.563 -234.398)"/>
        <path id="Path_7931" data-name="Path 7931" d="M234.311,235.73v.6a1.363,1.363,0,0,0-.142,0,1,1,0,0,0-1.053,1.137v1.677H232.5v-3.38h.584v.566A1.283,1.283,0,0,1,234.311,235.73Z" transform="translate(-171.326 -234.414)"/>
        <path id="Path_7932" data-name="Path 7932" d="M252.466,235.828l-1.258,3.367h-.584l-.971-2.553-.984,2.553h-.584l-1.253-3.367h.571l.984,2.672,1.019-2.68h.513l1,2.693,1.006-2.693Z" transform="translate(-181.884 -234.48)"/>
        <path id="Path_7933" data-name="Path 7933" d="M272.11,237.13v2.032h-.579v-.432a1.25,1.25,0,0,1-1.106.484c-.763,0-1.245-.408-1.245-.992,0-.54.35-.985,1.353-.985h.969v-.121c0-.513-.3-.813-.9-.813a1.692,1.692,0,0,0-1.066.363l-.263-.458a2.251,2.251,0,0,1,1.393-.432C271.589,235.764,272.11,236.209,272.11,237.13Zm-.608,1v-.471h-.94c-.605,0-.777.237-.777.526,0,.337.279.548.745.548a.979.979,0,0,0,.971-.6Z" transform="translate(-198.35 -234.448)"/>
        <path id="Path_7934" data-name="Path 7934" d="M285.328,235.835l-1.632,3.7c-.3.713-.687.935-1.2.935a1.266,1.266,0,0,1-.863-.311l.263-.458a.863.863,0,0,0,.6.247c.292,0,.476-.134.642-.526l.108-.234-1.487-3.362h.637l1.174,2.7,1.164-2.693Z" transform="translate(-207.523 -234.488)"/>
        <path id="Path_7935" data-name="Path 7935" d="M304.887,236.979a1.153,1.153,0,0,1-.74.237.961.961,0,0,1-1.066-1.053V234.32h-.571v-.5h.571v-.737h.611v.737h.966v.5h-.966v1.822a.495.495,0,0,0,.526.566.774.774,0,0,0,.476-.158Z" transform="translate(-222.907 -232.461)"/>
        <path id="Path_7936" data-name="Path 7936" d="M312.708,237.255a1.753,1.753,0,1,1,1.756,1.722,1.677,1.677,0,0,1-1.756-1.722Zm2.9,0a1.135,1.135,0,1,0-.55,1.028A1.135,1.135,0,0,0,315.6,237.255Z" transform="translate(-230.42 -234.222)"/>
        <path id="Path_7937" data-name="Path 7937" d="M334.1,238.772l.263-.482a2.174,2.174,0,0,0,1.182.347c.566,0,.79-.171.79-.455,0-.758-2.127-.1-2.127-1.443,0-.605.54-1.011,1.4-1.011a2.432,2.432,0,0,1,1.227.305l-.263.482a1.756,1.756,0,0,0-.971-.263c-.526,0-.79.2-.79.463,0,.79,2.135.145,2.135,1.456,0,.608-.558,1-1.456,1a2.435,2.435,0,0,1-1.393-.4Z" transform="translate(-246.181 -234.413)"/>
        <path id="Path_7938" data-name="Path 7938" d="M351.056,233.507v1.937h-.611v-1.866c0-.663-.329-.987-.908-.987a1,1,0,0,0-1.069,1.119v1.735h-.608V230.73h.608v1.824a1.464,1.464,0,0,1,1.19-.508A1.31,1.31,0,0,1,351.056,233.507Z" transform="translate(-256.319 -230.73)"/>
        <path id="Path_7939" data-name="Path 7939" d="M363.128,237.269a1.751,1.751,0,1,1,1.753,1.722,1.677,1.677,0,0,1-1.753-1.722Zm2.9,0a1.135,1.135,0,1,0-1.135,1.135A1.135,1.135,0,0,0,366.024,237.269Z" transform="translate(-267.567 -234.237)"/>
        <path id="Path_7940" data-name="Path 7940" d="M383.128,237.42a1.637,1.637,0,0,1-1.7,1.722,1.432,1.432,0,0,1-1.174-.548v1.74h-.611v-4.6h.584v.526a1.432,1.432,0,0,1,1.2-.566,1.635,1.635,0,0,1,1.7,1.724Zm-.616,0a1.135,1.135,0,1,0-1.137,1.187,1.114,1.114,0,0,0,1.137-1.187Z" transform="translate(-279.733 -234.387)"/>
      </g>
    </g>
  </g>
</svg>
