<svg id="Group_5485" data-name="Group 5485" xmlns="http://www.w3.org/2000/svg" width="48" height="48" viewBox="0 0 48 48">
  <path id="Path_8001" data-name="Path 8001" d="M48,24A24,24,0,1,0,20.25,47.708V30.938H14.156V24H20.25V18.713c0-6.015,3.583-9.338,9.065-9.338a36.906,36.906,0,0,1,5.372.469V15.75H31.661c-2.981,0-3.911,1.85-3.911,3.748V24h6.656l-1.064,6.938H27.75V47.708A24.006,24.006,0,0,0,48,24Z" fill="#1877f2"/>
  <path id="Path_8002" data-name="Path 8002" d="M321.186,221.563l1.064-6.937h-6.656v-4.5c0-1.9.93-3.748,3.911-3.748h3.026v-5.906a36.906,36.906,0,0,0-5.372-.469c-5.482,0-9.065,3.322-9.065,9.337v5.288H302v6.938h6.094v16.771a24.254,24.254,0,0,0,7.5,0V221.563Z" transform="translate(-287.844 -190.625)" fill="#fff"/>
</svg>
