<svg xmlns="http://www.w3.org/2000/svg" viewBox="0 0 305.07 305.07"><defs><style>.cls-1{fill:#010101;}.cls-2{fill:#e6e6e5;}.cls-3{fill:#f0a622;}</style></defs><title>LogoIcon_Beez</title><g id="Layer_2" data-name="Layer 2"><g id="Layer_1-2" data-name="Layer 1"><rect class="cls-1" width="305.07" height="305.07" rx="17.75"/><path class="cls-2" d="M243.2,86.26a7.17,7.17,0,0,1-13.46.59,5,5,0,0,1-.9-.18,54.91,54.91,0,0,0-68.66,36.12,4.82,4.82,0,1,1-9.2-2.86A64.56,64.56,0,0,1,231.7,77.47a4.82,4.82,0,0,1,1.08.49,7.16,7.16,0,0,1,10.42,8.31ZM140,126.75a4.81,4.81,0,0,1-5.76-3.63A64.57,64.57,0,0,1,183.06,46a4.65,4.65,0,0,1,1.17-.12,7.21,7.21,0,0,1,4.64-3.4,7.14,7.14,0,1,1-2.82,12.63,5,5,0,0,1-.88.29A54.91,54.91,0,0,0,143.69,121a4.81,4.81,0,0,1-3.65,5.76Z"/><path class="cls-3" d="M74.88,258.1V68.6l40.38-5.54v78.43a82.76,82.76,0,0,1,14.87-6,52.07,52.07,0,0,1,13.85-2q23.7,0,38.4,16.8t14.69,43.85q0,28.63-17.46,46.15c-11.61,11.65-27,17.51-45.92,17.51-2.42,0-5.1-.14-8.14-.44s-6.38-.75-10.16-1.37l-14.69-3.47L74.88,258.1Zm40.38-32.29a73.86,73.86,0,0,0,7.39,1.67,31.13,31.13,0,0,0,5.45.53c7.92,0,14.52-3.21,19.84-9.68s8-14.56,8-24.45c0-8.93-2.2-16.1-6.64-21.56a21,21,0,0,0-17.16-8.18,21.32,21.32,0,0,0-7.12,1.49,61.3,61.3,0,0,0-9.72,4.58v55.6Z"/></g></g></svg>