<svg xmlns="http://www.w3.org/2000/svg" width="68" height="68" viewBox="0 0 68 68">
  <g id="Group_5489" data-name="Group 5489" transform="translate(-120 -636)">
    <circle id="Ellipse_923" data-name="Ellipse 923" cx="24" cy="24" r="24" transform="translate(130 646)"/>
    <rect id="Rectangle_3634" data-name="Rectangle 3634" width="68" height="68" transform="translate(120 636)" fill="none" opacity="0"/>
    <path id="Path_8003" data-name="Path 8003" d="M21.985-161.581a10.814,10.814,0,0,1-2.2-.478,10.507,10.507,0,0,0-2.836-.478,5.587,5.587,0,0,0-4.557,2.295,9.513,9.513,0,0,0-1.785,5.959,15.975,15.975,0,0,0,2.358,8.031q2.358,4.111,4.78,4.111a6.076,6.076,0,0,0,2.1-.542,6.087,6.087,0,0,1,2.295-.51,7.417,7.417,0,0,1,2.39.478,7.024,7.024,0,0,0,2.263.51q2.071,0,4.111-3.091a17.084,17.084,0,0,0,1.147-2.024,17.275,17.275,0,0,0,.8-1.96,4.871,4.871,0,0,1-2.518-2.008,6.079,6.079,0,0,1-1.115-3.569,5.5,5.5,0,0,1,1.052-3.282,11.106,11.106,0,0,1,1.817-1.912,8.547,8.547,0,0,0-.829-.892q-.414-.382-.829-.7a5.916,5.916,0,0,0-3.41-1.02,9.031,9.031,0,0,0-2.773.542A8.662,8.662,0,0,1,21.985-161.581Zm4.876-6.437q0-.128-.016-.287a2.242,2.242,0,0,0-.08-.382,6.3,6.3,0,0,0-4,2.374,7.224,7.224,0,0,0-1.227,4.1,10.5,10.5,0,0,0,1.625-.255,5.141,5.141,0,0,0,1.753-1.147,6.871,6.871,0,0,0,1.466-2.2A5.879,5.879,0,0,0,26.861-168.019Z" transform="translate(132.207 825.358)" fill="#fff"/>
  </g>
</svg>
