<svg xmlns="http://www.w3.org/2000/svg" viewBox="0 0 215.57 143.32"><defs><style>.cls-1{fill:#2e1c11;}.cls-2{fill:#f0a622;}</style></defs><g id="Layer_2" data-name="Layer 2"><g id="Layer_1-2" data-name="Layer 1"><polygon class="cls-1" points="187.69 93 214.74 93 212.16 109.45 153.18 109.45 166 88.36 174.42 74.48 181.08 63.51 157.01 63.51 160.19 49.79 160.82 47.07 215.57 47.07 187.69 93"/><path class="cls-2" d="M168.55,67.16H153.08a11.87,11.87,0,0,1,.5,3.49v1l-27,.84s0,0,0-.06a16.18,16.18,0,0,1,5-9.57,14,14,0,0,1,8.88-3.38c.3,0,.62,0,.93,0a12.5,12.5,0,0,1,8.72,3.16,10.34,10.34,0,0,1,2.54,3.5l4-17.29.25-1.06a32.06,32.06,0,0,0-15.24-3.48c-.3,0-.6,0-.9,0a34.69,34.69,0,0,0-24.52,10.34A34.23,34.23,0,0,0,105.81,80c0,9.58,3.18,17.39,9.54,23.36q9.23,8.66,24,9c.38,0,.75,0,1.13,0a54.19,54.19,0,0,0,7-.46l.2-.34,12-19.78a53.08,53.08,0,0,1-4.95,2.05A34.38,34.38,0,0,1,143.35,96c-.36,0-.71,0-1,0a18,18,0,0,1-11-3.9,14.18,14.18,0,0,1-5.26-10.25l40.32-1.12,0-.06,1-1.67s0,0,0,0a14.54,14.54,0,0,0,1.32-5.44c0-.81.06-1.49.06-2A31.57,31.57,0,0,0,168.55,67.16Z"/><path class="cls-2" d="M58.55,55.22c-.17-.23-.36-.46-.56-.69-5.26-6-12.15-9-20.62-9a28.08,28.08,0,0,0-7.45,1.06,44.3,44.3,0,0,0-8,3.22V7.65l-21.7,3V112.42l13.88-3L22,111.31c2,.33,3.86.56,5.46.73a39.08,39.08,0,0,0,4.37.23c10.18,0,18.43-3.13,24.67-9.39q.35-.34.66-.69C52.37,96.1,50,88.64,50,80A37.86,37.86,0,0,1,58.55,55.22Zm-19,35.84a13.26,13.26,0,0,1-10.66,5.2A18.21,18.21,0,0,1,25.91,96c-1.09-.19-2.41-.48-4-.91V65.21a34.08,34.08,0,0,1,5.23-2.46,11.15,11.15,0,0,1,13,3.59c2.39,2.94,3.57,6.79,3.57,11.59Q43.77,85.89,39.5,91.06Z"/><path class="cls-2" d="M58.55,55.22c-.17-.23-.36-.46-.56-.69-5.26-6-12.15-9-20.62-9a28.08,28.08,0,0,0-7.45,1.06,44.3,44.3,0,0,0-8,3.22V7.65l-21.7,3V112.42l13.88-3L22,111.31c2,.33,3.86.56,5.46.73a39.08,39.08,0,0,0,4.37.23c10.18,0,18.43-3.13,24.67-9.39q.35-.34.66-.69C52.37,96.1,50,88.64,50,80A37.86,37.86,0,0,1,58.55,55.22Zm-19,35.84a13.26,13.26,0,0,1-10.66,5.2A18.21,18.21,0,0,1,25.91,96c-1.09-.19-2.41-.48-4-.91V65.21a34.08,34.08,0,0,1,5.23-2.46,11.15,11.15,0,0,1,13,3.59c2.39,2.94,3.57,6.79,3.57,11.59Q43.77,85.89,39.5,91.06Z"/><path class="cls-1" d="M112.18,53.55c-.53-.6-1.1-1.17-1.7-1.73q-8.24-7.6-21-7.59A34.76,34.76,0,0,0,64.05,54.59c-.28.27-.55.54-.79.81a31.53,31.53,0,0,0-2.48,2.88A34.17,34.17,0,0,0,53.61,80q0,11.36,6,19.35A25.59,25.59,0,0,0,62,102.16c.39.4.77.79,1.17,1.16q9.58,9,25.15,9a54.44,54.44,0,0,0,12.45-1.45,64.09,64.09,0,0,0,12.53-4.48v0l2.42-19.16a68.94,68.94,0,0,1-11.37,5.9c-.6.25-1.2.46-1.79.68A34.38,34.38,0,0,1,91.16,96a18.33,18.33,0,0,1-12-3.93A14.25,14.25,0,0,1,73.87,81.8L102.18,81l14.21-.39a14.81,14.81,0,0,0,2.24-7.16c0-.81.05-1.49.05-2Q118.68,60.74,112.18,53.55Zm-10.8,18.06-27,.84a16.1,16.1,0,0,1,5-9.63,14.37,14.37,0,0,1,9.8-3.42,12.52,12.52,0,0,1,8.72,3.16,10.51,10.51,0,0,1,3.45,8.09Z"/><path class="cls-1" d="M0,137.57V118.38H11.93v3.9H4.55v3.83h6.6V130H4.55v7.58Z"/><path class="cls-1" d="M13.09,131.6A6.3,6.3,0,0,1,15,126.92a6.41,6.41,0,0,1,4.71-1.84,6.43,6.43,0,0,1,4.72,1.84,6.82,6.82,0,0,1,0,9.38,6.43,6.43,0,0,1-4.72,1.84A6.4,6.4,0,0,1,15,136.3,6.31,6.31,0,0,1,13.09,131.6Zm4.24,0a4.24,4.24,0,0,0,.65,2.46,2,2,0,0,0,1.68.93,2,2,0,0,0,1.67-.94,4.86,4.86,0,0,0,0-4.89,2,2,0,0,0-1.67-.95,2,2,0,0,0-1.68.94A4.27,4.27,0,0,0,17.33,131.6Z"/><path class="cls-1" d="M27.89,131.6a6.3,6.3,0,0,1,1.86-4.68,6.41,6.41,0,0,1,4.71-1.84,6.43,6.43,0,0,1,4.72,1.84,6.82,6.82,0,0,1,0,9.38,6.43,6.43,0,0,1-4.72,1.84,6.4,6.4,0,0,1-4.7-1.84A6.31,6.31,0,0,1,27.89,131.6Zm4.24,0a4.24,4.24,0,0,0,.65,2.46,2,2,0,0,0,1.68.93,2,2,0,0,0,1.67-.94,4.86,4.86,0,0,0,0-4.89,2,2,0,0,0-1.67-.95,2,2,0,0,0-1.68.94A4.27,4.27,0,0,0,32.13,131.6Z"/><path class="cls-1" d="M55.31,118.11v19.46l-3.64.57-.16-.92a8.19,8.19,0,0,1-1.72.7,6.71,6.71,0,0,1-1.72.22,4.86,4.86,0,0,1-3.91-1.65,6.89,6.89,0,0,1-1.4-4.58A7.15,7.15,0,0,1,44.41,127a5.57,5.57,0,0,1,4.36-1.85,5.43,5.43,0,0,1,1.22.13,5.28,5.28,0,0,1,1.16.39v-7Zm-4.16,10.57a3.57,3.57,0,0,0-.71-.31,2.49,2.49,0,0,0-2.65.9,3.76,3.76,0,0,0-.81,2.48,3.81,3.81,0,0,0,.71,2.34,2.11,2.11,0,0,0,1.73.93,2.37,2.37,0,0,0,.83-.17,4.21,4.21,0,0,0,.9-.51Z"/><path class="cls-1" d="M65.32,137.57l4-19.81h.33l7.24,12.49,6.83-12.49h.35l4,19.81H83.7l-1.62-8.76-5.15,9.47h-.31l-5.53-9.6-1.68,8.89Z"/><path class="cls-1" d="M102.11,125.65v7.45c0,.93,0,1.72,0,2.36a15.27,15.27,0,0,0,.16,1.62l-3.86,1.06L98.09,137a6.31,6.31,0,0,1-1.53.87,4.53,4.53,0,0,1-1.56.27,4.9,4.9,0,0,1-3.88-1.84,6.82,6.82,0,0,1-1.56-4.58A6.66,6.66,0,0,1,91.32,127a5.79,5.79,0,0,1,4.44-1.88,5.46,5.46,0,0,1,1.3.17,9.43,9.43,0,0,1,1.5.53Zm-4.16,3a3.57,3.57,0,0,0-.71-.31,2.57,2.57,0,0,0-.67-.09,2.46,2.46,0,0,0-2,1,4.21,4.21,0,0,0-.1,4.82,2.09,2.09,0,0,0,1.72.93,1.76,1.76,0,0,0,.84-.22,3.61,3.61,0,0,0,.9-.67Z"/><path class="cls-1" d="M109.45,137.57h-4.17V125.65h3.88l.08,2.09a4.85,4.85,0,0,1,1.68-1.83,4.58,4.58,0,0,1,2.38-.57h.34v4.45h-.9a5.33,5.33,0,0,0-2.62.44c-.44.3-.67,1-.67,2.14Z"/><path class="cls-1" d="M119.84,137.57h-4V118.68l4-.57v12.45l3.66-4.91h4.34l-4.14,5.09,5.12,6.83h-4.58l-4.4-6.34Z"/><path class="cls-1" d="M140.89,133.31l-.46,3.67a12,12,0,0,1-2.4.86,10.6,10.6,0,0,1-2.38.28,6.69,6.69,0,0,1-4.8-1.72,5.83,5.83,0,0,1-1.83-4.47,6.79,6.79,0,0,1,6.86-6.83,5.69,5.69,0,0,1,4,1.45,4.88,4.88,0,0,1,1.57,3.76c0,.23,0,.61-.05,1.13v.08l-.37.55-8.15.22a2.68,2.68,0,0,0,1,2,3.51,3.51,0,0,0,2.3.75,6.63,6.63,0,0,0,2.18-.42A12.33,12.33,0,0,0,140.89,133.31ZM133,130.49l5.17-.16v-.18a2,2,0,0,0-.66-1.55,2.39,2.39,0,0,0-1.67-.6,2.77,2.77,0,0,0-1.88.66A3,3,0,0,0,133,130.49Z"/><path class="cls-1" d="M144.52,133.56v-4.78h-1.73v-3.13h1.73v-3.58l4.24-.57v4.15h2.82v3.13h-2.82v5.07a4.73,4.73,0,0,0,.43,2.34,3.94,3.94,0,0,0,1.65,1.33l-4.72.32a2.44,2.44,0,0,1-1.24-1.27A8.58,8.58,0,0,1,144.52,133.56Z"/><path class="cls-1" d="M153.44,143.32V125.65h4.15a7,7,0,0,1,2.47-.47,5.6,5.6,0,0,1,4.26,1.79,6.5,6.5,0,0,1,1.67,4.61,6.2,6.2,0,0,1-6.52,6.54,8,8,0,0,1-.82-.05l-1.09-.14v4.69Zm4.15-8.49q.43.12.75.18a4.26,4.26,0,0,0,.58.05,2.5,2.5,0,0,0,2-1,3.92,3.92,0,0,0,.8-2.52,3.64,3.64,0,0,0-.73-2.34,2.24,2.24,0,0,0-1.82-.93,4.37,4.37,0,0,0-.7.07,7.1,7.1,0,0,0-.9.25Z"/><path class="cls-1" d="M172.53,137.57h-4.19V118.68l4.19-.57Z"/><path class="cls-1" d="M187.48,125.65v7.45c0,.93,0,1.72.05,2.36s.09,1.17.16,1.62l-3.85,1.06-.37-1.14a6.31,6.31,0,0,1-1.53.87,4.59,4.59,0,0,1-1.57.27,4.87,4.87,0,0,1-3.87-1.84,6.78,6.78,0,0,1-1.57-4.58,6.7,6.7,0,0,1,1.76-4.76,5.81,5.81,0,0,1,4.45-1.88,5.45,5.45,0,0,1,1.29.17,9.43,9.43,0,0,1,1.5.53Zm-4.16,3a3.57,3.57,0,0,0-.71-.31,2.52,2.52,0,0,0-.67-.09,2.47,2.47,0,0,0-2,1,3.76,3.76,0,0,0-.81,2.48,3.81,3.81,0,0,0,.71,2.34,2.11,2.11,0,0,0,1.73.93,1.82,1.82,0,0,0,.84-.22,3.76,3.76,0,0,0,.89-.67Z"/><path class="cls-1" d="M201.06,136.9a9.94,9.94,0,0,1-2.16.92,8.11,8.11,0,0,1-2.2.3,6.9,6.9,0,0,1-4.89-1.79,5.94,5.94,0,0,1-1.91-4.53A6.28,6.28,0,0,1,192,127a7.28,7.28,0,0,1,5.17-1.93,9.63,9.63,0,0,1,2.22.26,8.78,8.78,0,0,1,2.09.78l-.46,3.7a9.48,9.48,0,0,0-1.89-.9,5.12,5.12,0,0,0-1.68-.32,3.29,3.29,0,0,0-2.33.86,2.77,2.77,0,0,0-.93,2.12,2.86,2.86,0,0,0,.86,2.17,3.13,3.13,0,0,0,2.26.83,5.29,5.29,0,0,0,1.87-.38,12.3,12.3,0,0,0,2.3-1.23Z"/><path class="cls-1" d="M215,133.31l-.46,3.67a12.18,12.18,0,0,1-2.4.86,10.67,10.67,0,0,1-2.38.28A6.72,6.72,0,0,1,205,136.4a5.83,5.83,0,0,1-1.83-4.47,6.58,6.58,0,0,1,2-4.85,6.67,6.67,0,0,1,4.86-2,5.73,5.73,0,0,1,4,1.45,4.88,4.88,0,0,1,1.57,3.76c0,.23,0,.61,0,1.13l0,.08-.37.55-8.14.22a2.65,2.65,0,0,0,1,2,3.5,3.5,0,0,0,2.3.75,6.68,6.68,0,0,0,2.18-.42A12.33,12.33,0,0,0,215,133.31Zm-7.92-2.82,5.18-.16v-.18a2,2,0,0,0-.66-1.55,2.39,2.39,0,0,0-1.67-.6,2.75,2.75,0,0,0-1.88.66A3,3,0,0,0,207.08,130.49Z"/><path class="cls-1" d="M78.84,17a.37.37,0,0,0,0,.21.64.64,0,0,0,.53.54l2.68.47,3.65.64a.57.57,0,0,1,.46.67l0,.11a.56.56,0,0,1-.66.47l-2.66-.46-3.67-.64a.64.64,0,0,0-.74.51.66.66,0,0,0,.51.77l4,.69,2.37.41a.57.57,0,0,1,.47.67l0,.12a.58.58,0,0,1-.67.47l-2.59-.45-3.74-.66a.65.65,0,0,0-.22,1.28l2.85.49,3.48.61a.59.59,0,0,1,.47.67h0a.59.59,0,0,1-.67.47l-8.18-1.43a4.33,4.33,0,0,1-3.19-2.43.6.6,0,0,0-.43-.34A25.66,25.66,0,0,0,44,38.56,2.24,2.24,0,0,1,41.18,40a2.26,2.26,0,0,1-1.49-2.82A30.18,30.18,0,0,1,73.57,16.46a.54.54,0,0,0,.51-.17,4.37,4.37,0,0,1,3.86-1.24l8.17,1.43a.58.58,0,0,1,.47.67h0a.58.58,0,0,1-.66.47l-6.33-1.11A.65.65,0,0,0,78.84,17Z"/><path class="cls-1" d="M72.19,2.36a.81.81,0,0,1-.28,1.55C52.66,3.14,31.26,15,35.11,35.49c.5,3.32-3.44,4.3-4.11,1C28.58,24.67,35.21,11,46.81,5.36c1-.48-.19-1.87-.43-2.5a.81.81,0,0,1,.52-1.17C60.43-1.62,68.53.67,72.19,2.36Z"/></g></g></svg>