<svg xmlns="http://www.w3.org/2000/svg" width="61.581" height="46.999" viewBox="0 0 61.581 46.999"><defs><style>.a{fill:#ddd;}</style></defs><g transform="translate(0 -8.378)"><path class="a" d="M233.313-335.081H203.125A3.156,3.156,0,0,1,200-338.26v-20.279h61.58v11.289a15.593,15.593,0,0,0-5.561-5.561,15.487,15.487,0,0,0-7.823-2.117,15.4,15.4,0,0,0-10.961,4.54,15.4,15.4,0,0,0-4.54,10.96,15.521,15.521,0,0,0,.617,4.346Zm28.268-31.856H200v-3.5a3.157,3.157,0,0,1,3.125-3.181h55.331a3.157,3.157,0,0,1,3.125,3.181v3.5Z" transform="translate(-200 382)"/><g transform="translate(-128.276 -425.899)"><path class="a" d="M340.776,80.276a12.5,12.5,0,1,1,8.839-3.661A12.418,12.418,0,0,1,340.776,80.276Zm-5.977-13.4v2.051h5.323v5.347h2.087V68.929h5.323V66.878h-5.323V61.52h-2.087v5.359Z" transform="translate(-164 401)"/></g></g></svg>