<svg xmlns="http://www.w3.org/2000/svg" xmlns:xlink="http://www.w3.org/1999/xlink" width="375" height="192" viewBox="0 0 375 192">
  <defs>
    <clipPath id="clip-path">
      <rect id="Rectangle_3438" data-name="Rectangle 3438" width="375" height="192" transform="translate(0 68)" fill="#f8f8f8"/>
    </clipPath>
  </defs>
  <g id="Mask_Group_81" data-name="Mask Group 81" transform="translate(0 -68)" clip-path="url(#clip-path)">
    <g id="Group_4713" data-name="Group 4713" transform="translate(212.066 76.765) rotate(-17)">
      <g id="noun_Money_3212833" transform="translate(0 66.864)">
        <path id="Path_3822" data-name="Path 3822" d="M31.62,12.38a6.2,6.2,0,0,0,4.834,4.834V12.38Z" transform="translate(3.279 -12.38)" fill="#e8e8e8"/>
        <path id="Path_3823" data-name="Path 3823" d="M31.62,33.073h4.834V28.25a6.17,6.17,0,0,0-4.834,4.823Z" transform="translate(3.279 -10.734)" fill="#e8e8e8"/>
        <path id="Path_3824" data-name="Path 3824" d="M0,28.25v4.823H4.834A6.17,6.17,0,0,0,0,28.25Z" transform="translate(0 -10.734)" fill="#e8e8e8"/>
        <path id="Path_3825" data-name="Path 3825" d="M32.383,12.38H7.351A8.686,8.686,0,0,1,0,19.687v7.726a8.642,8.642,0,0,1,7.351,7.34H32.383a8.642,8.642,0,0,1,7.351-7.34V19.687A8.686,8.686,0,0,1,32.383,12.38ZM19.867,31a7.45,7.45,0,1,1,7.45-7.45A7.45,7.45,0,0,1,19.867,31Z" transform="translate(0 -12.38)" fill="#e8e8e8"/>
        <path id="Path_3826" data-name="Path 3826" d="M4.834,12.38H0v4.834A6.2,6.2,0,0,0,4.834,12.38Z" transform="translate(0 -12.38)" fill="#e8e8e8"/>
        <path id="Path_3827" data-name="Path 3827" d="M18.469,18a4.956,4.956,0,1,0,3.515,1.451A4.978,4.978,0,0,0,18.469,18Z" transform="translate(1.398 -11.797)" fill="#e8e8e8"/>
      </g>
      <g id="noun_Money_3212833-2" data-name="noun_Money_3212833" transform="translate(64.605 0)">
        <path id="Path_3822-2" data-name="Path 3822" d="M31.62,12.38a6.2,6.2,0,0,0,4.834,4.834V12.38Z" transform="translate(3.279 -12.38)" fill="#e8e8e8"/>
        <path id="Path_3823-2" data-name="Path 3823" d="M31.62,33.073h4.834V28.25a6.17,6.17,0,0,0-4.834,4.823Z" transform="translate(3.279 -10.734)" fill="#e8e8e8"/>
        <path id="Path_3824-2" data-name="Path 3824" d="M0,28.25v4.823H4.834A6.17,6.17,0,0,0,0,28.25Z" transform="translate(0 -10.734)" fill="#e8e8e8"/>
        <path id="Path_3825-2" data-name="Path 3825" d="M32.383,12.38H7.351A8.686,8.686,0,0,1,0,19.687v7.726a8.642,8.642,0,0,1,7.351,7.34H32.383a8.642,8.642,0,0,1,7.351-7.34V19.687A8.686,8.686,0,0,1,32.383,12.38ZM19.867,31a7.45,7.45,0,1,1,7.45-7.45A7.45,7.45,0,0,1,19.867,31Z" transform="translate(0 -12.38)" fill="#e8e8e8"/>
        <path id="Path_3826-2" data-name="Path 3826" d="M4.834,12.38H0v4.834A6.2,6.2,0,0,0,4.834,12.38Z" transform="translate(0 -12.38)" fill="#e8e8e8"/>
        <path id="Path_3827-2" data-name="Path 3827" d="M18.469,18a4.956,4.956,0,1,0,3.515,1.451A4.978,4.978,0,0,0,18.469,18Z" transform="translate(1.398 -11.797)" fill="#e8e8e8"/>
      </g>
      <g id="noun_Money_3212833-3" data-name="noun_Money_3212833" transform="translate(64.605 131.469)">
        <path id="Path_3822-3" data-name="Path 3822" d="M31.62,12.38a6.2,6.2,0,0,0,4.834,4.834V12.38Z" transform="translate(3.279 -12.38)" fill="#e8e8e8"/>
        <path id="Path_3823-3" data-name="Path 3823" d="M31.62,33.073h4.834V28.25a6.17,6.17,0,0,0-4.834,4.823Z" transform="translate(3.279 -10.734)" fill="#e8e8e8"/>
        <path id="Path_3824-3" data-name="Path 3824" d="M0,28.25v4.823H4.834A6.17,6.17,0,0,0,0,28.25Z" transform="translate(0 -10.734)" fill="#e8e8e8"/>
        <path id="Path_3825-3" data-name="Path 3825" d="M32.383,12.38H7.351A8.686,8.686,0,0,1,0,19.687v7.726a8.642,8.642,0,0,1,7.351,7.34H32.383a8.642,8.642,0,0,1,7.351-7.34V19.687A8.686,8.686,0,0,1,32.383,12.38ZM19.867,31a7.45,7.45,0,1,1,7.45-7.45A7.45,7.45,0,0,1,19.867,31Z" transform="translate(0 -12.38)" fill="#e8e8e8"/>
        <path id="Path_3826-3" data-name="Path 3826" d="M4.834,12.38H0v4.834A6.2,6.2,0,0,0,4.834,12.38Z" transform="translate(0 -12.38)" fill="#e8e8e8"/>
        <path id="Path_3827-3" data-name="Path 3827" d="M18.469,18a4.956,4.956,0,1,0,3.515,1.451A4.978,4.978,0,0,0,18.469,18Z" transform="translate(1.398 -11.797)" fill="#e8e8e8"/>
      </g>
      <g id="noun_Money_3212833-4" data-name="noun_Money_3212833" transform="translate(127.856 66.864)">
        <path id="Path_3822-4" data-name="Path 3822" d="M31.62,12.38a6.2,6.2,0,0,0,4.834,4.834V12.38Z" transform="translate(3.279 -12.38)" fill="#e8e8e8"/>
        <path id="Path_3823-4" data-name="Path 3823" d="M31.62,33.073h4.834V28.25a6.17,6.17,0,0,0-4.834,4.823Z" transform="translate(3.279 -10.734)" fill="#e8e8e8"/>
        <path id="Path_3824-4" data-name="Path 3824" d="M0,28.25v4.823H4.834A6.17,6.17,0,0,0,0,28.25Z" transform="translate(0 -10.734)" fill="#e8e8e8"/>
        <path id="Path_3825-4" data-name="Path 3825" d="M32.383,12.38H7.351A8.686,8.686,0,0,1,0,19.687v7.726a8.642,8.642,0,0,1,7.351,7.34H32.383a8.642,8.642,0,0,1,7.351-7.34V19.687A8.686,8.686,0,0,1,32.383,12.38ZM19.867,31a7.45,7.45,0,1,1,7.45-7.45A7.45,7.45,0,0,1,19.867,31Z" transform="translate(0 -12.38)" fill="#e8e8e8"/>
        <path id="Path_3826-4" data-name="Path 3826" d="M4.834,12.38H0v4.834A6.2,6.2,0,0,0,4.834,12.38Z" transform="translate(0 -12.38)" fill="#e8e8e8"/>
        <path id="Path_3827-4" data-name="Path 3827" d="M18.469,18a4.956,4.956,0,1,0,3.515,1.451A4.978,4.978,0,0,0,18.469,18Z" transform="translate(1.398 -11.797)" fill="#e8e8e8"/>
      </g>
      <path id="Subtraction_14" data-name="Subtraction 14" d="M91.057,122.168h0v-2.992a64.572,64.572,0,0,0,31.535-33.032c.312-.737.614-1.492.9-2.244h2.891c-.4,1.112-.837,2.222-1.293,3.3a67.3,67.3,0,0,1-34.032,34.969Zm-56.473-.42h0A67.29,67.29,0,0,1,1.454,87.2C1,86.118.562,85.008.161,83.9H3.053c.284.749.586,1.5.9,2.244a64.584,64.584,0,0,0,30.632,32.59v3.014Zm91.96-83.028H123.66c-.334-.9-.693-1.809-1.069-2.7A64.584,64.584,0,0,0,91.057,2.993V0A67.289,67.289,0,0,1,125.09,34.97c.519,1.227,1.008,2.488,1.454,3.75Zm-123.661,0H0c.447-1.265.936-2.527,1.454-3.751A67.307,67.307,0,0,1,34.583.42V3.435A64.577,64.577,0,0,0,3.952,36.025c-.374.884-.733,1.791-1.068,2.7Z" transform="translate(20.974 17.131)" fill="#e8e8e8"/>
      <g id="Ic_beezpay" transform="translate(57.895 50.657)">
        <g id="Layer_2" data-name="Layer 2">
          <g id="MrsBeez">
            <g id="shopping-cart">
              <path id="Path_3273" data-name="Path 3273" d="M15.769,42.05a5.256,5.256,0,1,0,5.25,5.256,5.256,5.256,0,0,0-5.25-5.256ZM0,0V5.256H5.256l9.461,19.975-3.679,6.306a9.3,9.3,0,0,0-.526,2.628,5.273,5.273,0,0,0,5.256,5.256H47.306V34.165H16.82a.565.565,0,0,1-.525-.526v-.262L18.659,28.9H38.107a4.8,4.8,0,0,0,4.472-2.628L52.036,9.2a1.443,1.443,0,0,0,.526-1.313,2.483,2.483,0,0,0-2.628-2.628h-38.9L8.673,0ZM42.05,42.05a5.256,5.256,0,1,0,5.256,5.256A5.256,5.256,0,0,0,42.05,42.05Z" fill="#e8e8e8"/>
            </g>
          </g>
        </g>
      </g>
    </g>
    <g id="Group_5155" data-name="Group 5155" transform="translate(-41.934 174.765) rotate(-17)">
      <g id="noun_Money_3212833-5" data-name="noun_Money_3212833" transform="translate(0 66.864)">
        <path id="Path_3822-5" data-name="Path 3822" d="M31.62,12.38a6.2,6.2,0,0,0,4.834,4.834V12.38Z" transform="translate(3.279 -12.38)" fill="#e8e8e8"/>
        <path id="Path_3823-5" data-name="Path 3823" d="M31.62,33.073h4.834V28.25a6.17,6.17,0,0,0-4.834,4.823Z" transform="translate(3.279 -10.734)" fill="#e8e8e8"/>
        <path id="Path_3824-5" data-name="Path 3824" d="M0,28.25v4.823H4.834A6.17,6.17,0,0,0,0,28.25Z" transform="translate(0 -10.734)" fill="#e8e8e8"/>
        <path id="Path_3825-5" data-name="Path 3825" d="M32.383,12.38H7.351A8.686,8.686,0,0,1,0,19.687v7.726a8.642,8.642,0,0,1,7.351,7.34H32.383a8.642,8.642,0,0,1,7.351-7.34V19.687A8.686,8.686,0,0,1,32.383,12.38ZM19.867,31a7.45,7.45,0,1,1,7.45-7.45A7.45,7.45,0,0,1,19.867,31Z" transform="translate(0 -12.38)" fill="#e8e8e8"/>
        <path id="Path_3826-5" data-name="Path 3826" d="M4.834,12.38H0v4.834A6.2,6.2,0,0,0,4.834,12.38Z" transform="translate(0 -12.38)" fill="#e8e8e8"/>
        <path id="Path_3827-5" data-name="Path 3827" d="M18.469,18a4.956,4.956,0,1,0,3.515,1.451A4.978,4.978,0,0,0,18.469,18Z" transform="translate(1.398 -11.797)" fill="#e8e8e8"/>
      </g>
      <g id="noun_Money_3212833-6" data-name="noun_Money_3212833" transform="translate(64.605 0)">
        <path id="Path_3822-6" data-name="Path 3822" d="M31.62,12.38a6.2,6.2,0,0,0,4.834,4.834V12.38Z" transform="translate(3.279 -12.38)" fill="#e8e8e8"/>
        <path id="Path_3823-6" data-name="Path 3823" d="M31.62,33.073h4.834V28.25a6.17,6.17,0,0,0-4.834,4.823Z" transform="translate(3.279 -10.734)" fill="#e8e8e8"/>
        <path id="Path_3824-6" data-name="Path 3824" d="M0,28.25v4.823H4.834A6.17,6.17,0,0,0,0,28.25Z" transform="translate(0 -10.734)" fill="#e8e8e8"/>
        <path id="Path_3825-6" data-name="Path 3825" d="M32.383,12.38H7.351A8.686,8.686,0,0,1,0,19.687v7.726a8.642,8.642,0,0,1,7.351,7.34H32.383a8.642,8.642,0,0,1,7.351-7.34V19.687A8.686,8.686,0,0,1,32.383,12.38ZM19.867,31a7.45,7.45,0,1,1,7.45-7.45A7.45,7.45,0,0,1,19.867,31Z" transform="translate(0 -12.38)" fill="#e8e8e8"/>
        <path id="Path_3826-6" data-name="Path 3826" d="M4.834,12.38H0v4.834A6.2,6.2,0,0,0,4.834,12.38Z" transform="translate(0 -12.38)" fill="#e8e8e8"/>
        <path id="Path_3827-6" data-name="Path 3827" d="M18.469,18a4.956,4.956,0,1,0,3.515,1.451A4.978,4.978,0,0,0,18.469,18Z" transform="translate(1.398 -11.797)" fill="#e8e8e8"/>
      </g>
      <g id="noun_Money_3212833-7" data-name="noun_Money_3212833" transform="translate(64.605 131.469)">
        <path id="Path_3822-7" data-name="Path 3822" d="M31.62,12.38a6.2,6.2,0,0,0,4.834,4.834V12.38Z" transform="translate(3.279 -12.38)" fill="#e8e8e8"/>
        <path id="Path_3823-7" data-name="Path 3823" d="M31.62,33.073h4.834V28.25a6.17,6.17,0,0,0-4.834,4.823Z" transform="translate(3.279 -10.734)" fill="#e8e8e8"/>
        <path id="Path_3824-7" data-name="Path 3824" d="M0,28.25v4.823H4.834A6.17,6.17,0,0,0,0,28.25Z" transform="translate(0 -10.734)" fill="#e8e8e8"/>
        <path id="Path_3825-7" data-name="Path 3825" d="M32.383,12.38H7.351A8.686,8.686,0,0,1,0,19.687v7.726a8.642,8.642,0,0,1,7.351,7.34H32.383a8.642,8.642,0,0,1,7.351-7.34V19.687A8.686,8.686,0,0,1,32.383,12.38ZM19.867,31a7.45,7.45,0,1,1,7.45-7.45A7.45,7.45,0,0,1,19.867,31Z" transform="translate(0 -12.38)" fill="#e8e8e8"/>
        <path id="Path_3826-7" data-name="Path 3826" d="M4.834,12.38H0v4.834A6.2,6.2,0,0,0,4.834,12.38Z" transform="translate(0 -12.38)" fill="#e8e8e8"/>
        <path id="Path_3827-7" data-name="Path 3827" d="M18.469,18a4.956,4.956,0,1,0,3.515,1.451A4.978,4.978,0,0,0,18.469,18Z" transform="translate(1.398 -11.797)" fill="#e8e8e8"/>
      </g>
      <g id="noun_Money_3212833-8" data-name="noun_Money_3212833" transform="translate(127.856 66.864)">
        <path id="Path_3822-8" data-name="Path 3822" d="M31.62,12.38a6.2,6.2,0,0,0,4.834,4.834V12.38Z" transform="translate(3.279 -12.38)" fill="#e8e8e8"/>
        <path id="Path_3823-8" data-name="Path 3823" d="M31.62,33.073h4.834V28.25a6.17,6.17,0,0,0-4.834,4.823Z" transform="translate(3.279 -10.734)" fill="#e8e8e8"/>
        <path id="Path_3824-8" data-name="Path 3824" d="M0,28.25v4.823H4.834A6.17,6.17,0,0,0,0,28.25Z" transform="translate(0 -10.734)" fill="#e8e8e8"/>
        <path id="Path_3825-8" data-name="Path 3825" d="M32.383,12.38H7.351A8.686,8.686,0,0,1,0,19.687v7.726a8.642,8.642,0,0,1,7.351,7.34H32.383a8.642,8.642,0,0,1,7.351-7.34V19.687A8.686,8.686,0,0,1,32.383,12.38ZM19.867,31a7.45,7.45,0,1,1,7.45-7.45A7.45,7.45,0,0,1,19.867,31Z" transform="translate(0 -12.38)" fill="#e8e8e8"/>
        <path id="Path_3826-8" data-name="Path 3826" d="M4.834,12.38H0v4.834A6.2,6.2,0,0,0,4.834,12.38Z" transform="translate(0 -12.38)" fill="#e8e8e8"/>
        <path id="Path_3827-8" data-name="Path 3827" d="M18.469,18a4.956,4.956,0,1,0,3.515,1.451A4.978,4.978,0,0,0,18.469,18Z" transform="translate(1.398 -11.797)" fill="#e8e8e8"/>
      </g>
      <path id="Subtraction_14-2" data-name="Subtraction 14" d="M91.057,122.168h0v-2.992a64.572,64.572,0,0,0,31.535-33.032c.312-.737.614-1.492.9-2.244h2.891c-.4,1.112-.837,2.222-1.293,3.3a67.3,67.3,0,0,1-34.032,34.969Zm-56.473-.42h0A67.29,67.29,0,0,1,1.454,87.2C1,86.118.562,85.008.161,83.9H3.053c.284.749.586,1.5.9,2.244a64.584,64.584,0,0,0,30.632,32.59v3.014Zm91.96-83.028H123.66c-.334-.9-.693-1.809-1.069-2.7A64.584,64.584,0,0,0,91.057,2.993V0A67.289,67.289,0,0,1,125.09,34.97c.519,1.227,1.008,2.488,1.454,3.75Zm-123.661,0H0c.447-1.265.936-2.527,1.454-3.751A67.307,67.307,0,0,1,34.583.42V3.435A64.577,64.577,0,0,0,3.952,36.025c-.374.884-.733,1.791-1.068,2.7Z" transform="translate(20.974 17.131)" fill="#e8e8e8"/>
      <g id="Ic_beezpay-2" data-name="Ic_beezpay" transform="translate(57.895 50.657)">
        <g id="Layer_2-2" data-name="Layer 2">
          <g id="MrsBeez-2" data-name="MrsBeez">
            <g id="shopping-cart-2" data-name="shopping-cart">
              <path id="Path_3273-2" data-name="Path 3273" d="M15.769,42.05a5.256,5.256,0,1,0,5.25,5.256,5.256,5.256,0,0,0-5.25-5.256ZM0,0V5.256H5.256l9.461,19.975-3.679,6.306a9.3,9.3,0,0,0-.526,2.628,5.273,5.273,0,0,0,5.256,5.256H47.306V34.165H16.82a.565.565,0,0,1-.525-.526v-.262L18.659,28.9H38.107a4.8,4.8,0,0,0,4.472-2.628L52.036,9.2a1.443,1.443,0,0,0,.526-1.313,2.483,2.483,0,0,0-2.628-2.628h-38.9L8.673,0ZM42.05,42.05a5.256,5.256,0,1,0,5.256,5.256A5.256,5.256,0,0,0,42.05,42.05Z" fill="#e8e8e8"/>
            </g>
          </g>
        </g>
      </g>
    </g>
  </g>
</svg>
