<svg xmlns="http://www.w3.org/2000/svg" width="375.107" height="621.068" viewBox="0 0 375.107 621.068">
  <g id="Group_5040" data-name="Group 5040" transform="translate(0.088 -46.244)">
    <path id="Union_17" data-name="Union 17" d="M.05,440.33,0,96.662l.091-.087a18.007,18.007,0,0,1,15-17.329,18,18,0,0,1,18.067-30.8,18,18,0,0,1,35.922.975A18,18,0,0,1,95.832,61.953a18.026,18.026,0,0,1,17.277-2.924q-.018-.516-.017-1.031a29.016,29.016,0,0,1,39.052-27.211q-.055-.888-.054-1.791a29,29,0,0,1,58,0,29.617,29.617,0,0,1-.185,3.3,29.259,29.259,0,0,1,4.181-.3,28.911,28.911,0,0,1,20.219,8.211,18,18,0,1,1,32.685,12.887,18.045,18.045,0,0,1,12.313-2.963,29,29,0,1,1,50.926,4.941,18.018,18.018,0,0,1,11.745,14.885l5.507,6.477a33.013,33.013,0,0,1,27.607,32.472l.02.023V440.336Z" transform="translate(-0.09 226.977)" fill="rgba(255,255,255,0.15)"/>
    <path id="Path_7606" data-name="Path 7606" d="M-18361.146,18969.127s-32.373,100.324-33.684,100.48,143.131,0,143.131,0l-43.242-100.48Z" transform="translate(18503 -18737)" fill="#fff"/>
    <path id="Union_15" data-name="Union 15" d="M.05,400.262,0,96.662l.091-.087a18.007,18.007,0,0,1,15-17.329,18,18,0,0,1,18.067-30.8,18,18,0,0,1,35.922.975A18,18,0,0,1,95.832,61.953a18.026,18.026,0,0,1,17.277-2.924q-.018-.516-.017-1.031a29.016,29.016,0,0,1,39.052-27.211q-.055-.888-.054-1.791a29,29,0,0,1,58,0,29.617,29.617,0,0,1-.185,3.3,29.259,29.259,0,0,1,4.181-.3,28.911,28.911,0,0,1,20.219,8.211,18,18,0,1,1,32.685,12.887,18.045,18.045,0,0,1,12.313-2.963,29,29,0,1,1,50.926,4.941,18.018,18.018,0,0,1,11.745,14.885l5.507,6.477a33.013,33.013,0,0,1,27.607,32.472l.02.023V400.268Z" transform="translate(-0.09 266.977)" fill="#fff"/>
    <g id="Group_5039" data-name="Group 5039" transform="translate(-7582.691 -12763.648)">
      <g id="Group_4984" data-name="Group 4984" transform="translate(7774.547 12895.631)">
        <path id="Path_7565" data-name="Path 7565" d="M8221.86,13194.751s-45.943,6.856-49.6,28.989,27.69,20.8,27.69,20.8Z" transform="translate(-8171.968 -13194.751)" fill="#dddddc"/>
      </g>
      <g id="Group_4985" data-name="Group 4985" transform="translate(7838.661 12924.083)">
        <path id="Path_7566" data-name="Path 7566" d="M8495.393,13322.468s13.459,44.46-4.983,57.23-30.65-16.128-30.65-16.128Z" transform="translate(-8459.759 -13322.468)" fill="#dddddc"/>
      </g>
      <g id="Group_4986" data-name="Group 4986" transform="translate(7786.262 12876.291)">
        <ellipse id="Ellipse_782" data-name="Ellipse 782" cx="41.135" cy="34.449" rx="41.135" ry="34.449" transform="matrix(0.535, -0.845, 0.845, 0.535, 0, 69.513)" fill="#f0a622"/>
        <path id="Path_7567" data-name="Path 7567" d="M8368.5,13191.595c7.832,11.925,7.613,29.542-1.791,44.4-12.151,19.2-35.033,26.508-51.109,16.331-.108-.069-.215-.142-.322-.211a29.479,29.479,0,0,0,8.9,8.784c16.075,10.177,38.958,2.865,51.109-16.33C8387.354,13225.5,8384.295,13201.885,8368.5,13191.595Z" transform="translate(-8295.068 -13172.958)" fill="#cc8d1c"/>
        <path id="Path_7568" data-name="Path 7568" d="M8361.205,13195.38c-1.367-10.243-6.5-18.655-14.442-23.687s-17.742-6.066-27.587-2.92a43.953,43.953,0,0,0-17.57,10.858c-.021.02-.04.04-.061.062s-.04.038-.06.059c-.045.047-.092.094-.136.138-.1.1-.189.192-.283.288s-.194.2-.292.3a49.789,49.789,0,0,0-6.044,7.752,48.812,48.812,0,0,0-5.7,12.654.629.629,0,0,0-.029.1.656.656,0,0,0-.028.1,43.045,43.045,0,0,0-.967,19.895c.009.049.018.095.026.142s.018.081.025.121c1.777,8.744,6.521,16.369,13.988,21.095a30.545,30.545,0,0,0,16.487,4.679,35.808,35.808,0,0,0,8.454-1.036,1.04,1.04,0,0,0,.105-.026c.046-.01.1-.022.143-.034a42.988,42.988,0,0,0,17.473-9.229c.026-.021.053-.045.077-.066s.054-.045.078-.069a48,48,0,0,0,5.768-5.964c.021-.024.038-.047.056-.069l.252-.312.009-.012q.258-.324.515-.657,1.374-1.787,2.613-3.74t2.271-3.974c.129-.248.252-.5.374-.744l0-.01c.109-.221.217-.438.319-.661q.965-2.032,1.724-4.114c.012-.027.021-.054.029-.078s.021-.054.029-.08A43.993,43.993,0,0,0,8361.205,13195.38Zm-3.718,20.52a.616.616,0,0,1-.029.078,48.239,48.239,0,0,1-4.513,9.107,48.826,48.826,0,0,1-3.453,4.788c-.019.021-.036.044-.057.064s-.033.044-.053.066a46.586,46.586,0,0,1-6.1,6.145c-.027.022-.054.047-.083.069l-.077.064a41.03,41.03,0,0,1-17.705,8.686c-.051.012-.1.022-.153.031s-.069.016-.1.022a29.476,29.476,0,0,1-35.431-22.425c-.012-.04-.021-.083-.031-.122s-.022-.1-.036-.146a41.089,41.089,0,0,1,.35-19.977.828.828,0,0,1,.024-.094.8.8,0,0,1,.027-.1,46.468,46.468,0,0,1,3.266-8.7.823.823,0,0,1,.038-.078l.04-.08a48.986,48.986,0,0,1,2.452-4.354,48.384,48.384,0,0,1,6.461-8.137c.018-.021.038-.039.056-.057s.043-.042.063-.062a42.631,42.631,0,0,1,17.143-10.645,35.077,35.077,0,0,1,10.674-1.719,29.263,29.263,0,0,1,15.793,4.5c7.605,4.814,12.518,12.888,13.832,22.734a39.816,39.816,0,0,1,.348,5.28,43.744,43.744,0,0,1-2.711,14.981C8357.508,13215.847,8357.5,13215.873,8357.487,13215.9Z" transform="translate(-8273.294 -13153.834)" fill="#231f20"/>
      </g>
      <g id="Group_4987" data-name="Group 4987" transform="translate(7821.059 12868.044)">
        <circle id="Ellipse_783" data-name="Ellipse 783" cx="18.205" cy="18.205" r="18.205" transform="translate(0.775 0.786)" fill="#f0a622"/>
        <path id="Path_7569" data-name="Path 7569" d="M8399.7,13108.889a18.979,18.979,0,1,1,16.07-8.825h0A18.988,18.988,0,0,1,8399.7,13108.889Zm.064-36.41a17.559,17.559,0,0,0-3.854.43,17.425,17.425,0,1,0,18.543,26.321h0a17.433,17.433,0,0,0-14.688-26.751Z" transform="translate(-8380.75 -13070.918)" fill="#231f20"/>
      </g>
      <g id="Group_4988" data-name="Group 4988" transform="translate(7851.822 12887.529)">
        <circle id="Ellipse_784" data-name="Ellipse 784" cx="18.205" cy="18.205" r="18.205" transform="translate(0.775 0.775)" fill="#f0a622"/>
        <path id="Path_7570" data-name="Path 7570" d="M8585.816,13164.69a18.125,18.125,0,0,0-12.639-2.586,18.559,18.559,0,0,1,1.725.964,18.2,18.2,0,0,1-6.835,33.35,18.2,18.2,0,0,0,17.749-31.728Z" transform="translate(-8557.101 -13161.093)" fill="#cc8d1c"/>
        <path id="Path_7571" data-name="Path 7571" d="M8537.788,13196.346a18.979,18.979,0,1,1,16.071-8.825h0A18.988,18.988,0,0,1,8537.788,13196.346Zm.06-36.4a17.414,17.414,0,1,0,9.291,2.7A17.429,17.429,0,0,0,8537.848,13159.946Z" transform="translate(-8518.84 -13158.387)" fill="#231f20"/>
      </g>
      <g id="Group_4989" data-name="Group 4989" transform="translate(7810.666 12964.166)">
        <path id="Path_7572" data-name="Path 7572" d="M8334.563,13502.387s5.072,5.283,7.69,4.869c0,0-7.49,1.887-8.156,3.33Z" transform="translate(-8334.097 -13502.387)"/>
      </g>
      <g id="Group_4990" data-name="Group 4990" transform="translate(7805.834 12902.089)">
        <path id="Path_7573" data-name="Path 7573" d="M8321.454,13224.018c.083.109.224.292.417.539q.177.224.414.521c4.315,5.338,23.584,27.237,55.111,35.146q.321.083.646.161c.216.053.438.106.656.155,0,0,0,0,0,0l-.033.078-1.831,4.29-.207.485,0,.01-.16.251v0l-5.612,8.861-.009.012-.209.332-.043-.021-.623-.287-.626-.3c-6.857-3.24-39.316-19.1-56.069-36.557l-.4-.416,5.9-9.314,0,0,2.188-3.455.009-.013Z" transform="translate(-8312.775 -13223.955)" fill="#231f20"/>
        <path id="Path_7574" data-name="Path 7574" d="M8378.311,13260.4c-.223-.051-.443-.1-.662-.158l-.646-.16a105.847,105.847,0,0,1-40.972-21.088,103.376,103.376,0,0,1-14.166-14.08c-.16-.2-.3-.369-.419-.519-.191-.245-.332-.426-.417-.539-.009-.014-.018-.024-.026-.036l-.109.174-2.054,3.244v0l0,.007-6.213,9.813c.108.115.218.229.329.345,16.651,17.359,49.255,33.332,56.085,36.571q.365.17.626.295l.579.27,3.062-4.837,3.283-5.188Zm-57.991-35.816-2.357,3.726,0,0-5.514,8.71-.036.056.045.047c.138.145.275.292.419.437,16.65,17.333,49.138,33.266,56.053,36.545.241.116.45.214.626.3.313.147.523.246.622.29.033.016.056.024.063.029l.066.028.7-1.107,2.437-3.852,2.446-3.863.214-.489.226-.515,1.974-4.527.033-.078.033-.078q-.334-.076-.661-.16c-.217-.049-.433-.1-.646-.158a105.674,105.674,0,0,1-40.92-21.055,103.235,103.235,0,0,1-14.157-14.072c-.161-.2-.3-.373-.417-.521-.2-.25-.336-.433-.417-.539Z" transform="translate(-8312.41 -13223.738)" fill="#231f20"/>
      </g>
      <g id="Group_4991" data-name="Group 4991" transform="translate(7800.973 12923.344)">
        <path id="Path_7575" data-name="Path 7575" d="M8344.29,13356.941l-.009.007-11.469,6.058,0,0-2.9,1.53a42.982,42.982,0,0,0,17.473-9.229Zm3.137-1.709c-.251-.062-.5-.124-.748-.189-.268-.066-.535-.138-.8-.206-29.309-7.767-47.775-27.524-53.164-33.959-.191-.229-.368-.443-.528-.637l-.485-.6a.255.255,0,0,0-.022-.029l-.007.125-.158,3.306v0l-.65,13.514v0l-.146,3.067-.007.115c.009.01.02.017.028.025.257.209.513.421.773.63.285.234.574.466.864.7,11.458,9.156,25.613,17.278,35.566,22.524.321.167.636.334.947.5h0c.287.151.573.3.852.443l.026.014.1-.054,2.738-1.444,0,0,11.792-6.217.006,0,2.941-1.553.111-.058C8347.451,13355.24,8347.438,13355.235,8347.427,13355.232Z" transform="translate(-8290.684 -13319.506)" fill="#231f20"/>
        <path id="Path_7576" data-name="Path 7576" d="M8347.447,13354.815l-.782-.2c-.267-.069-.532-.138-.8-.209a108.429,108.429,0,0,1-53.22-33.992c-.191-.231-.368-.443-.526-.637-.2-.24-.367-.452-.508-.633l-.007.132-.006.124c.136.17.289.359.468.575.16.2.336.407.527.635a108.632,108.632,0,0,0,53.11,33.93c.266.071.533.14.8.209.239.063.475.12.716.181l.111-.059Zm-15.075,7.948-2.62,1.384.027.014.039.02,2.9-1.53,0,0,11.468-6.058.01-.007,3.094-1.633c-.011,0-.021-.007-.033-.009l-.035-.009-2.78,1.466Zm-4.369.466c-9.991-5.269-24.265-13.456-35.756-22.639-.287-.231-.574-.464-.859-.692-.248-.2-.49-.4-.735-.608l-.007.118,0,.1q.4.331.8.657h0c.288.236.575.466.867.7,11.4,9.08,25.492,17.174,35.431,22.425.32.169.635.336.946.5s.593.312.88.461l.078-.04.1-.054-.809-.423C8328.634,13363.562,8328.322,13363.4,8328,13363.229Zm-36.424-43.854a.255.255,0,0,0-.022-.029l-.169,3.493v0l-.64,13.153v0l-.158,3.239.033.026a.293.293,0,0,0,.029.022l.138-2.909v0l.662-13.844v0l.149-3.126A.359.359,0,0,0,8291.579,13319.376Z" transform="translate(-8290.59 -13319.148)" fill="#231f20"/>
      </g>
      <g id="Group_4992" data-name="Group 4992" transform="translate(7864.076 12858.735)">
        <path id="Path_7577" data-name="Path 7577" d="M8625.458,13061.354a3.3,3.3,0,0,1-5.384-3.086,2.222,2.222,0,0,1-.3-.295,25.306,25.306,0,0,0-35.635-2.857,2.22,2.22,0,0,1-2.879-3.381,29.751,29.751,0,0,1,41.894,3.365,2.278,2.278,0,0,1,.3.454,3.3,3.3,0,0,1,2.009,5.8Zm-50.142-9.659a2.216,2.216,0,0,1-1.345-2.835,29.755,29.755,0,0,1,37.986-17.987,2.224,2.224,0,0,1,.486.244,3.292,3.292,0,1,1-1.567,4.041,2.238,2.238,0,0,1-.412-.1,25.3,25.3,0,0,0-32.309,15.3,2.216,2.216,0,0,1-2.841,1.341Z" transform="translate(-8573.842 -13029.138)" fill="#231f20"/>
      </g>
      <g id="Group_4993" data-name="Group 4993" transform="translate(7865.726 12933.397)">
        <path id="Path_7578" data-name="Path 7578" d="M8581.918,13375.665a.669.669,0,0,1-.234-1.295l26.859-10.053a.668.668,0,1,1,.469,1.252l-26.859,10.053A.662.662,0,0,1,8581.918,13375.665Z" transform="translate(-8581.249 -13364.275)" fill="#231f20"/>
      </g>
      <g id="Group_4994" data-name="Group 4994" transform="translate(7790.582 12882.354)">
        <path id="Path_7579" data-name="Path 7579" d="M8270.145,13154.548a.676.676,0,0,1-.386-.122l-25.529-18.059a.668.668,0,1,1,.772-1.091l25.529,18.058a.668.668,0,0,1-.387,1.214Z" transform="translate(-8243.947 -13135.153)" fill="#231f20"/>
      </g>
      <g id="Group_4995" data-name="Group 4995" transform="translate(7837.772 12909.345)">
        <path id="Path_7580" data-name="Path 7580" d="M8456.564,13256.311l13.412,8.321s-5.427,5.733-10.894,2.591S8456.564,13256.311,8456.564,13256.311Z" transform="translate(-8455.771 -13256.311)" fill="#231f20"/>
      </g>
      <g id="Group_4996" data-name="Group 4996" transform="translate(7822.041 12871.387)">
        <path id="Path_7581" data-name="Path 7581" d="M8420.113,13113.68l-34.955-11.2.476-1.484,29.213,9.355-21.969-23.364,1.136-1.068Z" transform="translate(-8385.158 -13085.923)" fill="#231f20"/>
      </g>
      <g id="Group_4997" data-name="Group 4997" transform="translate(7854.711 12896.965)">
        <path id="Path_7582" data-name="Path 7582" d="M8556.88,13227.543l-25.073-26.8,35.272,11.4-.479,1.483-29.535-9.544,20.954,22.4Z" transform="translate(-8531.807 -13200.738)" fill="#231f20"/>
      </g>
      <g id="Group_4998" data-name="Group 4998" transform="translate(7838.689 12915.68)">
        <path id="Path_7583" data-name="Path 7583" d="M8459.888,13284.908a4.114,4.114,0,0,1,3.713.727,4.762,4.762,0,0,0,1.438.848,3.335,3.335,0,0,1,1.64,2.724C8466.64,13290.19,8460.868,13289.127,8459.888,13284.908Z" transform="translate(-8459.888 -13284.745)" fill="#be1e2d"/>
      </g>
      <g id="Group_5038" data-name="Group 5038" transform="translate(7660.632 12809.893)">
        <g id="Group_5037" data-name="Group 5037" transform="translate(0 0)">
          <g id="Group_5036" data-name="Group 5036">
            <g id="Group_5035" data-name="Group 5035">
              <g id="Group_5011" data-name="Group 5011" transform="translate(57.435 204.035)">
                <g id="Group_5010" data-name="Group 5010">
                  <g id="Group_5003" data-name="Group 5003">
                    <g id="Group_5001" data-name="Group 5001" transform="translate(6.188)">
                      <g id="Group_4999" data-name="Group 4999" transform="translate(4.136)">
                        <path id="Path_7584" data-name="Path 7584" d="M8018.729,13725.754h-52.377l-1.567,5.656h55.358Z" transform="translate(-7964.785 -13725.754)" fill="#465b65"/>
                      </g>
                      <g id="Group_5000" data-name="Group 5000" transform="translate(0 5.656)">
                        <path id="Path_7585" data-name="Path 7585" d="M7950.356,13751.143l-4.136,14.93h63.227l-3.732-14.93Z" transform="translate(-7946.22 -13751.143)" fill="#546e7a"/>
                      </g>
                    </g>
                    <g id="Group_5002" data-name="Group 5002" transform="translate(0 20.586)">
                      <path id="Path_7586" data-name="Path 7586" d="M7991.7,13822.857h-70.9a2.356,2.356,0,0,1-2.349-2.35h0a2.356,2.356,0,0,1,2.349-2.35h70.9a2.356,2.356,0,0,1,2.349,2.35h0A2.356,2.356,0,0,1,7991.7,13822.857Z" transform="translate(-7918.444 -13818.158)" fill="#465b65"/>
                    </g>
                  </g>
                  <g id="Group_5006" data-name="Group 5006" transform="translate(1.663 25.285)">
                    <g id="Group_5004" data-name="Group 5004">
                      <path id="Path_7587" data-name="Path 7587" d="M7929.105,13839.25c-7.265,19.25-.466,41.92,3.838,47.643l4.084-5.942c0,11.885,14.382,32.354,25.02,42.7v-84.4Z" transform="translate(-7925.909 -13839.25)" fill="#f3764b"/>
                    </g>
                    <g id="Group_5005" data-name="Group 5005" transform="translate(36.138)">
                      <path id="Path_7588" data-name="Path 7588" d="M8121.066,13839.25c7.265,19.25.466,41.92-3.838,47.643l-4.084-5.942c0,11.885-14.382,32.354-25.019,42.7v-84.4Z" transform="translate(-8088.125 -13839.25)" fill="#ed6325"/>
                    </g>
                  </g>
                  <g id="Group_5009" data-name="Group 5009" transform="translate(14.857 25.285)">
                    <g id="Group_5007" data-name="Group 5007">
                      <path id="Path_7589" data-name="Path 7589" d="M7987.163,13839.25c-4.612,12.222-.3,26.615,2.437,30.248l2.593-3.773c0,7.547,9.132,20.543,15.885,27.11v-53.585Z" transform="translate(-7985.134 -13839.25)" fill="#fbb33e"/>
                    </g>
                    <g id="Group_5008" data-name="Group 5008" transform="translate(22.499)">
                      <path id="Path_7590" data-name="Path 7590" d="M8107.04,13839.25c4.612,12.222.3,26.615-2.437,30.248l-2.593-3.773c0,7.547-9.131,20.543-15.885,27.11v-53.585Z" transform="translate(-8086.125 -13839.25)" fill="#f0a622"/>
                    </g>
                  </g>
                </g>
              </g>
              <g id="Group_5034" data-name="Group 5034">
                <g id="Group_5024" data-name="Group 5024" transform="translate(46.032)">
                  <g id="Group_5016" data-name="Group 5016">
                    <g id="Group_5012" data-name="Group 5012" transform="translate(49.196 30.216)">
                      <path id="Path_7591" data-name="Path 7591" d="M8119.744,12945.524h-31.657v173.943h38.221a10.975,10.975,0,0,0,10.974-10.975v-105.756a102.084,102.084,0,0,0-17.536-57.209Z" transform="translate(-8088.087 -12945.524)" fill="#cdd6da"/>
                    </g>
                    <g id="Group_5013" data-name="Group 5013" transform="translate(0 30.216)">
                      <path id="Path_7592" data-name="Path 7592" d="M7884.8,12945.524h0a102.089,102.089,0,0,0-17.542,57.22v105.749a10.975,10.975,0,0,0,10.974,10.975h38.221v-173.943Z" transform="translate(-7867.259 -12945.524)" fill="#eaecee"/>
                    </g>
                    <g id="Group_5014" data-name="Group 5014" transform="translate(49.196)">
                      <path id="Path_7593" data-name="Path 7593" d="M8119.744,12840.108l-14.163-20.933a20.964,20.964,0,0,0-17.495-9.283v30.216Z" transform="translate(-8088.087 -12809.893)" fill="#465b65"/>
                    </g>
                    <g id="Group_5015" data-name="Group 5015" transform="translate(17.543)">
                      <path id="Path_7594" data-name="Path 7594" d="M7977.657,12809.893a20.965,20.965,0,0,0-17.485,9.281L7946,12840.108h31.653Z" transform="translate(-7946.004 -12809.893)" fill="#546e7a"/>
                    </g>
                  </g>
                  <g id="Group_5023" data-name="Group 5023" transform="translate(18.76 74.28)">
                    <g id="Group_5017" data-name="Group 5017">
                      <circle id="Ellipse_785" data-name="Ellipse 785" cx="30.338" cy="30.338" r="30.338" fill="#465b65"/>
                    </g>
                    <g id="Group_5022" data-name="Group 5022" transform="translate(5.953 5.953)">
                      <g id="Group_5020" data-name="Group 5020" transform="translate(0.5 0.5)">
                        <g id="Group_5018" data-name="Group 5018" transform="translate(24.866 7.304)">
                          <path id="Path_7595" data-name="Path 7595" d="M8115.454,13221.648a24.278,24.278,0,0,0-6.53-16.581c.013.481.037.961.037,1.446a54.45,54.45,0,0,1-16.912,39.5A24.382,24.382,0,0,0,8115.454,13221.648Z" transform="translate(-8092.049 -13205.067)" fill="#35c1d5"/>
                        </g>
                        <g id="Group_5019" data-name="Group 5019">
                          <path id="Path_7596" data-name="Path 7596" d="M8022.209,13181.029c0-.484-.024-.964-.037-1.445a24.335,24.335,0,0,0-12.923-7.3c.049.666.083,1.336.083,2.016a26.887,26.887,0,0,1-26.887,26.886c-.678,0-1.349-.034-2.014-.083a24.393,24.393,0,0,0,23.885,19.452c.329,0,.655-.012.98-.024A54.45,54.45,0,0,0,8022.209,13181.029Z" transform="translate(-7980.432 -13172.279)" fill="#59c6d9"/>
                        </g>
                      </g>
                      <g id="Group_5021" data-name="Group 5021">
                        <path id="Path_7597" data-name="Path 7597" d="M8007.589,13172.551c0-.68-.034-1.35-.083-2.016a24.4,24.4,0,0,0-28.818,28.818c.666.049,1.336.083,2.014.083A26.887,26.887,0,0,0,8007.589,13172.551Z" transform="translate(-7978.188 -13170.036)" fill="#87d2e0"/>
                      </g>
                    </g>
                  </g>
                </g>
                <g id="Group_5027" data-name="Group 5027" transform="translate(144.424 138.536)">
                  <g id="Group_5025" data-name="Group 5025">
                    <path id="Path_7598" data-name="Path 7598" d="M8308.914,13431.749v48.331h9.852v-43.158Z" transform="translate(-8308.914 -13431.749)" fill="#aebcc3"/>
                  </g>
                  <g id="Group_5026" data-name="Group 5026" transform="translate(9.852 5.172)">
                    <path id="Path_7599" data-name="Path 7599" d="M8389.317,13482.787a14.606,14.606,0,0,0-7.817-12.932l-28.363-14.891v43.16h28.07a8.111,8.111,0,0,0,8.11-8.11Z" transform="translate(-8353.137 -13454.965)" fill="#cdd6da"/>
                  </g>
                </g>
                <g id="Group_5030" data-name="Group 5030" transform="translate(0 138.536)">
                  <g id="Group_5028" data-name="Group 5028" transform="translate(36.18)">
                    <path id="Path_7600" data-name="Path 7600" d="M7832.889,13431.749v48.331h-9.852v-43.158Z" transform="translate(-7823.037 -13431.749)" fill="#aebcc3"/>
                  </g>
                  <g id="Group_5029" data-name="Group 5029" transform="translate(0 5.172)">
                    <path id="Path_7601" data-name="Path 7601" d="M7660.632,13482.787a14.606,14.606,0,0,1,7.817-12.932l28.363-14.891v43.16h-28.07a8.11,8.11,0,0,1-8.11-8.11Z" transform="translate(-7660.632 -13454.965)" fill="#cdd6da"/>
                  </g>
                </g>
                <g id="Group_5031" data-name="Group 5031" transform="translate(97.822 164.581)" opacity="0.15" style="mix-blend-mode: multiply;isolation: isolate">
                  <path id="Path_7602" data-name="Path 7602" d="M8100.434,13548.656l38.812,38.813c-.947.327-1.738.743-6.649.743h-32.868Z" transform="translate(-8099.729 -13548.656)" fill="#8ea2ac"/>
                </g>
                <g id="Group_5032" data-name="Group 5032" transform="translate(89.862 163.335)">
                  <path id="Path_7603" data-name="Path 7603" d="M8069.381,13594.434h0a5.4,5.4,0,0,1-5.38-5.38v-40.608a5.4,5.4,0,0,1,5.38-5.38h0a5.4,5.4,0,0,1,5.379,5.38v40.608A5.4,5.4,0,0,1,8069.381,13594.434Z" transform="translate(-8064.001 -13543.065)" fill="#aebcc3"/>
                </g>
                <g id="Group_5033" data-name="Group 5033" transform="translate(92.532 185.702)">
                  <path id="Rectangle_3405" data-name="Rectangle 3405" d="M1.993,0H3.125A1.994,1.994,0,0,1,5.119,1.994V23.8a1.993,1.993,0,0,1-1.993,1.993H1.993A1.993,1.993,0,0,1,0,23.8V1.993A1.993,1.993,0,0,1,1.993,0Z" fill="#fff"/>
                </g>
              </g>
            </g>
          </g>
        </g>
      </g>
    </g>
  </g>
</svg>
