<svg xmlns="http://www.w3.org/2000/svg" xmlns:xlink="http://www.w3.org/1999/xlink" width="375" height="208" viewBox="0 0 375 208">
  <defs>
    <clipPath id="clip-path">
      <rect id="Rectangle_1200" data-name="Rectangle 1200" width="375" height="208" transform="translate(-160.925 47.672)" fill="#fff" stroke="#707070" stroke-width="1"/>
    </clipPath>
    <clipPath id="clip-path-2">
      <path id="Path_3340" data-name="Path 3340" d="M47.529,0C73.318-.378,93.854,24.96,93.4,56.6s-21.732,57.6-47.521,57.978S-.449,89.62.007,57.982,21.74.386,47.529,0Z" transform="translate(0 15.609) rotate(-9.62)" fill="#f0a622" stroke="#231f20" stroke-width="6"/>
    </clipPath>
  </defs>
  <g id="Group_5350" data-name="Group 5350" transform="translate(0 -68)">
    <g id="Mask_Group_45" data-name="Mask Group 45" transform="translate(160.924 20.328)" clip-path="url(#clip-path)">
      <g id="bee" transform="translate(54.989 61.072) rotate(-14)">
        <g id="Bee-2" data-name="Bee" transform="translate(0 0)">
          <path id="Path_16" data-name="Path 16" d="M28.109,0s-40.4,50.451-24.333,76.726,46.609-4.693,46.609-4.693Z" transform="translate(3.874 112.922)" fill="#ddd"/>
          <path id="Path_17" data-name="Path 17" d="M0,0S53.324,33.142,46.052,63.728.619,76.036.619,76.036Z" transform="translate(107.866 95.189)" fill="#ddd"/>
          <path id="Path_3339" data-name="Path 3339" d="M47.529,0C73.318-.378,93.854,24.96,93.4,56.6s-21.732,57.6-47.521,57.978S-.449,89.62.007,57.982,21.74.386,47.529,0Z" transform="translate(20.132 86.498) rotate(-9.62)" fill="#f0a622"/>
          <g id="Group_9" data-name="Group 9" transform="translate(20.132 70.889)" clip-path="url(#clip-path-2)">
            <path id="Path_18" data-name="Path 18" d="M0,16.963S46.445,26.577,91.846,0L95.4,23S39.884,41.549,3.373,38.788Z" transform="translate(7.418 41.122)" fill="#231f20" stroke="#231f20" stroke-miterlimit="10" stroke-width="0.75"/>
            <path id="Path_19" data-name="Path 19" d="M0,16.963S46.445,26.577,91.848,0L95.4,23S39.886,41.561,3.373,38.8Z" transform="translate(12.613 74.722)" fill="#231f20" stroke="#231f20" stroke-miterlimit="10" stroke-width="0.75"/>
          </g>
          <path id="Path_3341" data-name="Path 3341" d="M47.529,0C73.318-.378,93.854,24.96,93.4,56.6s-21.732,57.6-47.521,57.978S-.449,89.62.007,57.982,21.74.386,47.529,0Z" transform="translate(20.132 86.498) rotate(-9.62)" fill="none" stroke="#231f20" stroke-width="2"/>
          <path id="Path_3342" data-name="Path 3342" d="M24.809,0c13.572-.129,24.469,11.162,24.34,25.219S37.913,50.779,24.341,50.908-.128,39.746,0,25.688,11.237.13,24.809,0Z" transform="translate(15.978 63.45)" fill="#f0a622" stroke="#231f20" stroke-width="2"/>
          <path id="Path_3343" data-name="Path 3343" d="M24.809,0c13.572-.129,24.469,11.162,24.34,25.219S37.913,50.779,24.341,50.908-.128,39.746,0,25.688,11.237.13,24.809,0Z" transform="translate(64.515 54.487)" fill="#f0a622" stroke="#231f20" stroke-width="2"/>
          <path id="Path_20" data-name="Path 20" d="M0,2.241S9.853,2.9,12.135,0c0,0-5.9,9.02-5.285,11.136Z" transform="translate(79.699 193.923)"/>
          <path id="Path_21" data-name="Path 21" d="M66.141,21.931a4.664,4.664,0,0,1-3.512,3.921,4.312,4.312,0,0,1-4.693-2.021,2.9,2.9,0,0,1-.573-.016c-18.625-2.411-35.954,11.356-38.63,30.7a3.084,3.084,0,0,1-3.366,2.494,3.018,3.018,0,0,1-2.57-3.261C15.946,31.014,36.32,14.824,58.219,17.661a2.973,2.973,0,0,1,.71.187,4.351,4.351,0,0,1,5-.531,4.571,4.571,0,0,1,2.216,4.619ZM6.749,59.315a2.9,2.9,0,0,1-2.294.016,2.969,2.969,0,0,1-1.6-1.672c-8.195-21.116,1.854-45.53,22.4-54.417a2.877,2.877,0,0,1,.711-.205A4.556,4.556,0,0,1,30.142,0a4.346,4.346,0,0,1,4.141,2.925,4.765,4.765,0,0,1-1.259,5.1A4.347,4.347,0,0,1,28,8.683a3.143,3.143,0,0,1-.509.283C10.011,16.523,1.464,37.283,8.437,55.251a3.2,3.2,0,0,1-1.679,4.067Z" transform="translate(54.059 0)" fill="#231f20"/>
          <path id="Path_3344" data-name="Path 3344" d="M16.1,0c8.81-.084,15.883,7.245,15.8,16.37S24.61,32.961,15.8,33.044-.083,25.8,0,16.674,7.294.085,16.1,0Z" transform="translate(24.9 74.314)" fill="#fff"/>
          <path id="Path_3345" data-name="Path 3345" d="M16.1,0c8.81-.084,15.883,7.245,15.8,16.37S24.61,32.961,15.8,33.044-.083,25.8,0,16.674,7.294.085,16.1,0Z" transform="translate(73.138 63.418)" fill="#fff"/>
          <path id="Path_3346" data-name="Path 3346" d="M8.4,0A8.284,8.284,0,0,1,16.64,8.539a8.667,8.667,0,0,1-8.4,8.7A8.284,8.284,0,0,1,0,8.7,8.667,8.667,0,0,1,8.4,0Z" transform="translate(32.532 82.218)" fill="#231f20"/>
          <path id="Path_3347" data-name="Path 3347" d="M8.4,0A8.284,8.284,0,0,1,16.64,8.539a8.667,8.667,0,0,1-8.4,8.7A8.284,8.284,0,0,1,0,8.7,8.667,8.667,0,0,1,8.4,0Z" transform="translate(80.779 71.38)" fill="#231f20"/>
          <line id="Line_5" data-name="Line 5" x2="27.106" y2="28.102" transform="translate(117.112 110.266)" fill="none" stroke="#231f20" stroke-linecap="round" stroke-miterlimit="10" stroke-width="2"/>
          <line id="Line_6" data-name="Line 6" x1="30.609" y1="29.513" transform="translate(0 102.672)" fill="none" stroke="#231f20" stroke-linecap="round" stroke-miterlimit="10" stroke-width="2"/>
          <path id="Path_3348" data-name="Path 3348" d="M1.855,0a1.83,1.83,0,0,1,1.82,1.886A1.914,1.914,0,0,1,1.82,3.807,1.83,1.83,0,0,1,0,1.921,1.914,1.914,0,0,1,1.855,0Z" transform="translate(39.014 88.933)" fill="#fff"/>
          <path id="Path_3349" data-name="Path 3349" d="M1.855,0a1.83,1.83,0,0,1,1.82,1.886A1.914,1.914,0,0,1,1.82,3.807,1.83,1.83,0,0,1,0,1.921,1.914,1.914,0,0,1,1.855,0Z" transform="translate(87.261 78.095)" fill="#fff"/>
          <path id="Path_22" data-name="Path 22" d="M0,2.9,14.955,0s-.267,7.852-6.2,9.218S0,2.9,0,2.9Z" transform="translate(63.283 111.626)" fill="#231f20"/>
        </g>
      </g>
      <g id="crown" transform="matrix(0.891, -0.454, 0.454, 0.891, 26.997, 158.096)">
        <g id="Path_3336" data-name="Path 3336" transform="translate(0 0)" fill="#f0a622">
          <path d="M 8.835241317749023 37.951904296875 C 7.695651531219482 37.95183181762695 6.747071266174316 37.12490081787109 6.579741477966309 35.98562240600586 L 3.865387439727783 17.56155395507812 C 2.601610422134399 17.29718399047852 1.458154439926147 16.63879203796387 0.5861313939094543 15.66090202331543 C -0.4620686173439026 14.48545265197754 -1.025068640708923 12.95105266571045 -0.9991386532783508 11.34035205841064 C -0.9717186093330383 9.635902404785156 -0.2979586124420166 8.023412704467773 0.8980113863945007 6.799932479858398 C 2.099941492080688 5.570362567901611 3.686771392822266 4.878292560577393 5.366191387176514 4.851202487945557 C 5.400181293487549 4.85065221786499 5.433471202850342 4.850382328033447 5.467311382293701 4.850382328033447 C 7.110891342163086 4.850382328033447 8.649201393127441 5.493802547454834 9.798861503601074 6.662112236022949 C 10.98139095306396 7.863822460174561 11.61735153198242 9.476032257080078 11.58958148956299 11.20176219940186 C 11.58236885070801 11.61028575897217 11.53698921203613 12.01595783233643 11.4541711807251 12.4148998260498 L 15.08964157104492 14.7440128326416 C 15.9512414932251 15.29729270935059 16.94986152648926 15.58944225311279 17.97843170166016 15.58943271636963 C 19.7091007232666 15.58943271636963 21.34586143493652 14.7894926071167 22.46903228759766 13.39471244812012 L 26.31773567199707 8.607996940612793 C 25.80863189697266 7.664472579956055 25.54257392883301 6.582661628723145 25.55947113037109 5.491462230682373 C 25.58662223815918 3.786562442779541 26.26012229919434 2.173952341079712 27.45593070983887 0.9502924084663391 C 28.65768051147461 -0.2794575691223145 30.24444198608398 -0.9717875719070435 31.92392158508301 -0.9991675615310669 C 31.95810127258301 -0.9997175931930542 31.99215126037598 -0.9999975562095642 32.02619171142578 -0.9999975562095642 C 33.66958236694336 -0.9999975562095642 35.20773315429688 -0.3567375838756561 36.3573112487793 0.8112924098968506 C 37.53976058959961 2.012722492218018 38.17584228515625 3.624692440032959 38.14836120605469 5.350272655487061 C 38.13025665283203 6.458017826080322 37.83692932128906 7.527371406555176 37.29373168945312 8.483344078063965 L 40.9740104675293 13.1244421005249 C 41.9946403503418 14.40995216369629 43.5244026184082 15.14746284484863 45.17066192626953 15.1474027633667 C 46.27033996582031 15.14736270904541 47.35029983520508 14.81736278533936 48.29376983642578 14.19310283660889 L 52.04739761352539 11.71515655517578 C 51.97420501708984 11.31017971038818 51.9401969909668 10.89746952056885 51.94600296020508 10.48138236999512 C 51.97317123413086 8.774922370910645 52.64667129516602 7.162312507629395 53.84249114990234 5.938642501831055 C 55.04424285888672 4.708902359008789 56.63100051879883 4.01657247543335 58.31048965454102 3.989202499389648 C 58.34260177612305 3.988742351531982 58.37234115600586 3.988522529602051 58.40246200561523 3.988522529602051 C 59.96751022338867 3.988522529602051 61.45267105102539 4.579592227935791 62.58439254760742 5.652832508087158 C 63.71199035644531 6.722172260284424 64.39559936523438 8.183422088623047 64.50928497314453 9.767392158508301 C 64.63108062744141 11.46381282806396 64.09918975830078 13.12760257720947 63.01158142089844 14.45225238800049 C 62.08649826049805 15.57895088195801 60.85209655761719 16.34807395935059 59.47899627685547 16.66640090942383 L 56.16727066040039 35.23982238769531 C 55.96676254272461 36.36716079711914 55.00326156616211 37.19933319091797 53.87638092041016 37.21810150146484 L 8.872461318969727 37.95160293579102 C 8.85975170135498 37.95180130004883 8.847551345825195 37.951904296875 8.835241317749023 37.951904296875 Z" stroke="none"/>
          <path d="M 32.02619171142578 0 C 31.99757385253906 0 31.96895599365234 0.000232696533203125 31.94022178649902 0.000701904296875 C 29.01615142822266 0.04835128784179688 26.60700988769531 2.513633728027344 26.55935287475586 5.506952285766602 C 26.54154205322266 6.656902313232422 26.88581085205078 7.770261764526367 27.54096984863281 8.682512283325195 L 23.24789047241211 14.02191162109375 C 21.89881896972656 15.69721221923828 19.94002532958984 16.58943557739258 17.97843170166016 16.58943557739258 C 16.79194641113281 16.58943557739258 15.60444259643555 16.26302146911621 14.55020141601562 15.58603286743164 L 10.29841232299805 12.8620719909668 C 10.48134231567383 12.31971168518066 10.57966995239258 11.75389289855957 10.5897102355957 11.18567276000977 C 10.63739013671875 8.221553802490234 8.351325988769531 5.850387573242188 5.467327117919922 5.850387573242188 C 5.438884735107422 5.850387573242188 5.410877227783203 5.850612640380859 5.382320404052734 5.851072311401367 C 2.458393096923828 5.898221969604492 0.04888153076171875 8.363142013549805 0.000732421875 11.35644149780273 C -0.04449844360351562 14.16636276245117 2.015552520751953 16.47650337219238 4.7459716796875 16.67774200439453 L 7.569129943847656 35.84031295776367 C 7.663799285888672 36.4848518371582 8.197517395019531 36.95190048217773 8.835292816162109 36.95190048217773 C 8.842258453369141 36.95190048217773 8.849163055419922 36.95184326171875 8.856151580810547 36.95173263549805 L 53.85972213745117 36.21824264526367 C 54.5067024230957 36.20746231079102 55.06629180908203 35.71932220458984 55.18279266357422 35.06427383422852 L 58.61775970458984 15.79971313476562 C 61.53442001342773 15.48482322692871 63.72560119628906 12.81610298156738 63.5118522644043 9.838981628417969 C 63.31369781494141 7.078115463256836 61.10491561889648 4.988714218139648 58.40244674682617 4.988517761230469 C 58.37714004516602 4.988515853881836 58.3521728515625 4.988697052001953 58.3267822265625 4.989063262939453 C 55.4027099609375 5.036722183227539 52.99356079101562 7.501981735229492 52.94589996337891 10.49532318115234 C 52.93798065185547 11.06351280212402 53.01833343505859 11.62642288208008 53.1839599609375 12.1631031036377 L 48.8455810546875 15.02707290649414 C 47.70500183105469 15.78175735473633 46.42686462402344 16.14739990234375 45.17070007324219 16.14739990234375 C 43.2808837890625 16.14739990234375 41.44047546386719 15.32020378112793 40.19045257568359 13.74577331542969 L 36.06523132324219 8.543561935424805 C 36.74977111816406 7.609493255615234 37.12969207763672 6.484333038330078 37.14849090576172 5.334352493286133 C 37.19568252563477 2.370445251464844 34.90982055664062 0 32.02619171142578 0 M 32.02619171142578 -1.999996185302734 C 33.93970108032227 -1.999996185302734 35.73097229003906 -1.250705718994141 37.07003021240234 0.109832763671875 C 38.44196319580078 1.5037841796875 39.18001174926758 3.370521545410156 39.14823913574219 5.366191864013672 C 39.13114929199219 6.411504745483398 38.90169525146484 7.426675796508789 38.47581481933594 8.364599227905273 L 41.75754165649414 12.50310325622559 C 42.58692932128906 13.54773330688477 43.83126068115234 14.14740180969238 45.17070007324219 14.14740180969238 C 46.07346343994141 14.14740180969238 46.96258163452148 13.87482261657715 47.74195098876953 13.35913276672363 L 50.97392272949219 11.22555351257324 C 50.95186614990234 10.9743824005127 50.94255065917969 10.7214298248291 50.94609069824219 10.46744155883789 C 50.97738265991211 8.502231597900391 51.75199127197266 6.647062301635742 53.12728118896484 5.239723205566406 C 54.51446151733398 3.820232391357422 56.34943008422852 3.021022796630859 58.294189453125 2.989334106445312 C 58.33280944824219 2.988761901855469 58.36740112304688 2.988513946533203 58.40244293212891 2.988513946533203 C 60.2247428894043 2.988643646240234 61.95423126220703 3.677173614501953 63.2724723815918 4.927272796630859 C 64.58164978027344 6.168771743774414 65.3751220703125 7.862272262573242 65.50672149658203 9.695812225341797 C 65.64694213867188 11.64878273010254 65.03529357910156 13.56336212158203 63.78444290161133 15.08682250976562 C 62.86524963378906 16.20634460449219 61.67964935302734 17.01987075805664 60.3535041809082 17.45868492126465 L 57.15174102783203 35.41534423828125 C 56.86774063110352 37.01220321655273 55.4971923828125 38.19123077392578 53.89304351806641 38.21796417236328 L 8.888740539550781 38.95146179199219 C 8.870082855224609 38.95176315307617 8.852771759033203 38.951904296875 8.835292816162109 38.951904296875 C 7.195140838623047 38.951904296875 5.830451965332031 37.76552200317383 5.590362548828125 36.13095092773438 L 2.972236633300781 18.36007690429688 C 1.774028778076172 17.98050689697266 0.6949005126953125 17.28538131713867 -0.16021728515625 16.32645225524902 C -1.375957489013672 14.9631233215332 -2.028987884521484 13.18664169311523 -1.999011993408203 11.32425308227539 C -1.967456817626953 9.363052368164062 -1.192577362060547 7.508022308349609 0.1829109191894531 6.100902557373047 C 1.570301055908203 4.681602478027344 3.405372619628906 3.882694244384766 5.350070953369141 3.851333618164062 C 5.389492034912109 3.850704193115234 5.4281005859375 3.850383758544922 5.467319488525391 3.850383758544922 C 7.381050109863281 3.850383758544922 9.172481536865234 4.599842071533203 10.51161956787109 5.960693359375 C 11.88363265991211 7.354951858520508 12.62156295776367 9.221982955932617 12.58945083618164 11.21784210205078 C 12.58526611328125 11.45484161376953 12.56999588012695 11.69083976745605 12.54374313354492 11.92531967163086 L 15.62910079956055 13.90199279785156 C 16.33005142211914 14.35211181640625 17.14182281494141 14.58943176269531 17.97843170166016 14.58943176269531 C 19.40491104125977 14.58943176269531 20.75778198242188 13.92537307739258 21.69017028808594 12.76752281188965 L 25.14434814453125 8.471488952636719 C 24.74698638916016 7.533830642700195 24.54360961914062 6.508075714111328 24.55959320068359 5.475982666015625 C 24.5908317565918 3.513862609863281 25.36543273925781 1.658702850341797 26.74073028564453 0.2513618469238281 C 28.12790298461914 -1.168136596679688 29.96288299560547 -1.967338562011719 31.90763092041016 -1.999027252197266 C 31.94717216491699 -1.999675750732422 31.98668098449707 -1.999996185302734 32.02619171142578 -1.999996185302734 Z" stroke="none" fill="#f8f8f8"/>
        </g>
        <path id="Path_3350" data-name="Path 3350" d="M24.287.012C37.641-.206,48.419,2.651,48.359,6.392s-10.933,6.951-24.287,7.169S-.059,10.922,0,7.181,10.934.229,24.287.012Z" transform="translate(7.2 28.444)" fill="#f0a622" stroke="#f8f8f8" stroke-width="2"/>
        <path id="Path_3337" data-name="Path 3337" d="M26.209,18C13.112,18.209-.094,15.337,0,9.433S13.4.225,26.5.011,52.8,2.669,52.7,8.574,39.306,17.782,26.209,18Zm.239-14.987C11.07,3.259,2.962,7.287,2.928,9.385S10.879,15.248,26.257,15s23.486-4.278,23.52-6.376S41.826,2.758,26.448,3.008Z" transform="translate(5.027 26.227)" fill="none"/>
      </g>
      <g id="crown-2" data-name="crown" transform="matrix(0.995, 0.105, -0.105, 0.995, 15.868, 107.913)">
        <g id="Path_3336-2" data-name="Path 3336" transform="translate(0 0)" fill="#f0a622">
          <path d="M 13.07106685638428 9.454205513000488 L 13.07010746002197 9.454205513000488 L 13.06794738769531 9.454205513000488 L 2.250477075576782 9.408555030822754 C 1.849177122116089 9.406715393066406 1.510227084159851 9.113585472106934 1.44435703754425 8.711555480957031 L 0.7281226515769958 4.352095127105713 C 0.009357274509966373 4.11237096786499 -0.4968389868736267 3.424749612808228 -0.4999929070472717 2.615635395050049 C -0.5019128918647766 2.119575500488281 -0.3134829103946686 1.656155467033386 0.03060708194971085 1.310725450515747 C 0.3611970841884613 0.9788454174995422 0.7985070943832397 0.7960754632949829 1.261967062950134 0.7960754632949829 L 1.269637107849121 0.7960854172706604 C 2.244807004928589 0.8003954291343689 3.041326999664307 1.619905471801758 3.045247077941895 2.622915506362915 C 3.045383930206299 2.682327032089233 3.042711496353149 2.741460084915161 3.037255764007568 2.800169944763184 L 3.794996976852417 3.302525520324707 C 3.971626996994019 3.419885396957397 4.173656940460205 3.481765508651733 4.379677295684814 3.481755495071411 C 4.702147006988525 3.481755495071411 5.00456714630127 3.332305431365967 5.209397315979004 3.071735382080078 L 6.010416984558105 2.051067352294922 C 5.910974025726318 1.822524547576904 5.858826637268066 1.575029015541077 5.857686996459961 1.320065498352051 C 5.855667114257812 0.8237654566764832 6.04405689239502 0.3602854311466217 6.388156890869141 0.01478544529527426 C 6.718767166137695 -0.3171745538711548 7.156126976013184 -0.4999945461750031 7.619657039642334 -0.4999945461750031 L 7.627047061920166 -0.4999845623970032 C 8.60219669342041 -0.4958745539188385 9.398857116699219 0.3234954476356506 9.402936935424805 1.32653546333313 C 9.403864860534668 1.581940650939941 9.353621482849121 1.829517483711243 9.255827903747559 2.057878017425537 L 10.06766700744629 3.088525533676147 C 10.27866744995117 3.356075525283813 10.58784675598145 3.509635448455811 10.91575717926025 3.509625434875488 C 11.1179370880127 3.509615421295166 11.3153772354126 3.449835538864136 11.48670673370361 3.336745500564575 L 12.23528575897217 2.843864679336548 C 12.22958946228027 2.786473989486694 12.22655487060547 2.728734731674194 12.22620677947998 2.670815467834473 C 12.22418689727783 2.173765420913696 12.41257667541504 1.710285425186157 12.75667667388916 1.364785432815552 C 13.0872974395752 1.032825469970703 13.5246467590332 0.8500054478645325 13.98817729949951 0.8500054478645325 L 13.99556732177734 0.8500154614448547 C 14.91755676269531 0.8556854724884033 15.67633724212646 1.571625471115112 15.7615270614624 2.515365362167358 C 15.80623722076416 3.01058554649353 15.65790748596191 3.490335464477539 15.34387683868408 3.866255521774292 C 15.13154315948486 4.120420455932617 14.86007976531982 4.305405616760254 14.55663776397705 4.406928539276123 L 13.87643718719482 8.756265640258789 C 13.81339740753174 9.160585403442383 13.47467708587646 9.454205513000488 13.07106685638428 9.454205513000488 Z" stroke="none"/>
          <path d="M 7.619654178619385 4.76837158203125e-06 C 6.919241905212402 4.76837158203125e-06 6.354714393615723 0.5888843536376953 6.357677459716797 1.317825317382812 C 6.35893726348877 1.598565578460693 6.447076797485352 1.872175216674805 6.608997344970703 2.098225593566895 L 5.602486610412598 3.380725383758545 C 5.29331111907959 3.774050712585449 4.840423583984375 3.981758594512939 4.379688262939453 3.981758594512939 C 4.083965301513672 3.981758594512939 3.785030364990234 3.896212100982666 3.518716812133789 3.719265460968018 L 2.483277320861816 3.032805442810059 C 2.524646759033203 2.901265621185303 2.545567512512207 2.763575553894043 2.545247077941895 2.624865531921387 C 2.542397499084473 1.894095420837402 1.970327377319336 1.299185276031494 1.267447471618652 1.296085357666016 C 1.265645027160645 1.296077728271484 1.263769149780273 1.296073436737061 1.261968612670898 1.296073436737061 C 0.5616550445556641 1.296073436737061 -0.002825736999511719 1.884798526763916 6.67572021484375e-06 2.613685607910156 C 0.002676963806152344 3.299665451049805 0.5091371536254883 3.874115467071533 1.166617393493652 3.936905384063721 L 1.937777519226074 8.630705833435059 C 1.963927268981934 8.790305137634277 2.097066879272461 8.907845497131348 2.25258731842041 8.908555030822754 L 13.06987762451172 8.954205513000488 C 13.07027626037598 8.954207420349121 13.07067489624023 8.954207420349121 13.07107353210449 8.954207420349121 C 13.22606563568115 8.954207420349121 13.35765075683594 8.837986946105957 13.38243675231934 8.67900562286377 L 14.11551666259766 3.991545677185059 C 14.81529712677002 3.929215431213379 15.3292875289917 3.288425445556641 15.26354694366455 2.560315608978271 C 15.20202732086182 1.87876558303833 14.65135669708252 1.354055404663086 13.99345684051514 1.350015640258789 C 13.99169826507568 1.350008010864258 13.98993110656738 1.350004196166992 13.98817443847656 1.350004196166992 C 13.28776168823242 1.34999942779541 12.72323417663574 1.938884258270264 12.72619724273682 2.667825222015381 C 12.72702693939209 2.806545257568359 12.74905681610107 2.94441556930542 12.79147720336914 3.076305389404297 L 11.7621374130249 3.754045486450195 C 11.50104331970215 3.926373481750488 11.2073860168457 4.009621620178223 10.91577911376953 4.009621620178223 C 10.45046520233154 4.009621620178223 9.990240097045898 3.797783374786377 9.674886703491211 3.397915363311768 L 8.657937049865723 2.106875419616699 C 8.818027496337891 1.882185459136963 8.903957366943359 1.609305381774902 8.902936935424805 1.328555583953857 C 8.899967193603516 0.5977954864501953 8.327776908874512 0.0029754638671875 7.624937057495117 1.52587890625e-05 C 7.623178005218506 7.62939453125e-06 7.621411323547363 4.76837158203125e-06 7.619654178619385 4.76837158203125e-06 M 7.619657039642334 -0.9999942779541016 L 7.630617141723633 -0.999964714050293 C 8.877727508544922 -0.9947147369384766 9.897737503051758 0.04803562164306641 9.902927398681641 1.324495315551758 C 9.903724670410156 1.543369770050049 9.874900817871094 1.757820129394531 9.817875862121582 1.963376998901367 L 10.46044731140137 2.779135227203369 C 10.57583713531494 2.925445556640625 10.74192714691162 3.009625434875488 10.9157772064209 3.009625434875488 C 11.02119731903076 3.009625434875488 11.1206169128418 2.97928524017334 11.21126747131348 2.919455528259277 L 11.72764301300049 2.579464912414551 C 11.74812316894531 1.983362197875977 11.98569679260254 1.430377006530762 12.40242767333984 1.011955261230469 C 12.8275671005249 0.5850954055786133 13.39071655273438 0.3500051498413086 13.98815727233887 0.3500051498413086 L 13.99913692474365 0.3500356674194336 C 15.17949676513672 0.3572750091552734 16.15103721618652 1.268845558166504 16.25949668884277 2.470415592193604 C 16.31622695922852 3.098745346069336 16.12732696533203 3.708315372467041 15.7275972366333 4.18681526184082 C 15.52496910095215 4.429360866546631 15.28018569946289 4.622864723205566 15.00751876831055 4.759822845458984 L 14.37042713165283 8.833515167236328 C 14.26919746398926 9.482705116271973 13.72271728515625 9.954205513000488 13.07107734680176 9.954205513000488 L 13.06896686553955 9.954205513000488 L 13.0656566619873 9.954195022583008 L 2.248367309570312 9.90854549407959 C 1.601926803588867 9.905595779418945 1.056417465209961 9.436185836791992 0.9509372711181641 8.79239559173584 L 0.2797231674194336 4.706938743591309 C -0.4823427200317383 4.328368663787842 -0.9964141845703125 3.53411865234375 -0.9999828338623047 2.617575645446777 C -1.002433776855469 1.987595558166504 -0.7622337341308594 1.398165225982666 -0.3236331939697266 0.9578652381896973 C 0.1014766693115234 0.5311050415039062 0.6645870208740234 0.2960758209228516 1.261966705322266 0.2960758209228516 L 1.273007392883301 0.2961053848266602 C 2.492561340332031 0.3014822006225586 3.49458122253418 1.298503398895264 3.543394088745117 2.535828113555908 L 4.071276664733887 2.885795593261719 C 4.166056632995605 2.948765277862549 4.272407531738281 2.981755256652832 4.379687309265137 2.981755256652832 C 4.547746658325195 2.981755256652832 4.706887245178223 2.901925563812256 4.81629753112793 2.762735366821289 L 5.447307586669922 1.958697319030762 C 5.389019966125488 1.753778457641602 5.358667373657227 1.540163516998291 5.357686996459961 1.322315216064453 C 5.355127334594727 0.6918554306030273 5.595276832580566 0.1023454666137695 6.033886909484863 -0.3380546569824219 C 6.459016799926758 -0.7649145126342773 7.022187232971191 -0.9999942779541016 7.619657039642334 -0.9999942779541016 Z" stroke="none" fill="#f8f8f8"/>
        </g>
        <path id="Path_3351" data-name="Path 3351" d="M5.805,0c3.21.014,5.815.765,5.819,1.678s-2.6,1.643-5.805,1.629S0,2.543,0,1.63,2.6-.013,5.805,0Z" transform="translate(1.848 6.946)" fill="#f0a622" stroke="#f8f8f8" stroke-width="1"/>
        <path id="Path_3337-2" data-name="Path 3337" d="M6.343,4.391C3.195,4.377.006,3.61,0,2.169S3.177-.013,6.325,0s6.337.78,6.343,2.222S9.491,4.4,6.343,4.391ZM6.328.732C2.632.716.7,1.659.7,2.172S2.644,3.643,6.34,3.659s5.626-.927,5.624-1.44S10.024.748,6.328.732Z" transform="translate(1.326 6.405)" fill="none"/>
      </g>
      <g id="crown-3" data-name="crown" transform="matrix(0.966, 0.259, -0.259, 0.966, -112.108, 47.927)">
        <g id="Path_3336-3" data-name="Path 3336" transform="translate(0 0)" fill="#f0a622">
          <path d="M 26.23191070556641 18.46987533569336 C 26.23187637329102 18.46987533569336 26.23190307617188 18.46987533569336 26.23187065124512 18.46987533569336 L 26.23090934753418 18.46987533569336 L 26.22752952575684 18.46987533569336 L 4.518539905548096 18.37825584411621 C 3.959999799728394 18.37567520141602 3.487749814987183 17.96488571166992 3.395439863204956 17.4014949798584 L 1.90597927570343 8.335630416870117 C 1.29173743724823 8.193984031677246 0.7326509952545166 7.860295295715332 0.3027897775173187 7.372725486755371 C -0.2118202149868011 6.78902530670166 -0.4969201982021332 6.034185409545898 -0.4999802112579346 5.247235298156738 C -0.5033302307128906 4.386575222015381 -0.1772902011871338 3.583425521850586 0.4180797934532166 2.985735416412354 C 0.9863597750663757 2.41523551940918 1.737309813499451 2.101045370101929 2.532569885253906 2.101045370101929 L 2.545799732208252 2.101065397262573 C 4.227499961853027 2.108485460281372 5.601179599761963 3.528175354003906 5.607959747314453 5.265785217285156 C 5.608429431915283 5.467639923095703 5.590160369873047 5.667789459228516 5.553472518920898 5.864315509796143 L 7.337879657745361 7.047305583953857 C 7.774739742279053 7.337575435638428 8.27653980255127 7.490845203399658 8.789449691772461 7.490835189819336 C 9.592049598693848 7.490825653076172 10.34321975708008 7.120805263519287 10.85034942626953 6.475655555725098 L 12.65310382843018 4.178585052490234 C 12.39670658111572 3.712123155593872 12.26143074035645 3.189427375793457 12.25899982452393 2.64693546295166 C 12.25549983978271 1.785985469818115 12.58148002624512 0.9827353954315186 13.1768798828125 0.3849154114723206 C 13.74520969390869 -0.1857345849275589 14.49623966217041 -0.4999945759773254 15.29160976409912 -0.4999945759773254 L 15.30431938171387 -0.4999745786190033 C 16.98601913452148 -0.4928745925426483 18.35993003845215 0.9265754222869873 18.36697959899902 2.664215326309204 C 18.36891937255859 3.198255777359009 18.23476791381836 3.72909688949585 17.98448181152344 4.193538188934326 L 19.80897903442383 6.509765625 C 20.32868003845215 7.168755531311035 21.09325981140137 7.546815395355225 21.90649032592773 7.546775341033936 C 22.41111946105957 7.546745300292969 22.90321922302246 7.397985458374023 23.32958984375 7.116575241088867 L 25.09853553771973 5.951852798461914 C 25.06066513061523 5.75623083114624 25.04096794128418 5.557285308837891 25.03976058959961 5.356995582580566 C 25.0362606048584 4.495275497436523 25.36223983764648 3.692015409469604 25.95763969421387 3.094195365905762 C 26.52597045898438 2.523545503616333 27.27700042724609 2.209285497665405 28.0723705291748 2.209285497665405 L 28.08507919311523 2.20930552482605 C 29.67375946044922 2.219065427780151 30.98230934143066 3.458895444869995 31.12985038757324 5.093265533447266 C 31.20747947692871 5.953055381774902 30.95067024230957 6.785155296325684 30.40674018859863 7.436275482177734 C 29.97530364990234 7.95271635055542 29.40280723571777 8.303047180175781 28.76576995849609 8.446922302246094 L 27.35074996948242 17.49484634399414 C 27.26266479492188 18.05970001220703 26.79208564758301 18.46987533569336 26.23191070556641 18.46987533569336 Z" stroke="none"/>
          <path d="M 15.2916088104248 3.814697265625e-06 C 13.88599014282227 3.814697265625e-06 12.75305557250977 1.181816101074219 12.75898933410645 2.644685745239258 C 12.76152038574219 3.208095550537109 12.93840980529785 3.757205009460449 13.26337051391602 4.210855484008789 L 11.24344062805176 6.784655570983887 C 10.62296295166016 7.574004173278809 9.714090347290039 7.990839004516602 8.789457321166992 7.990839004516602 C 8.19598388671875 7.990839004516602 7.596052169799805 7.819154739379883 7.061599731445312 7.464045524597168 L 4.983600616455078 6.08641529083252 C 5.066629409790039 5.822445869445801 5.108610153198242 5.546125411987305 5.107959747314453 5.267735481262207 C 5.102239608764648 3.801185607910156 3.954170227050781 2.607285499572754 2.543600082397461 2.601065635681152 C 2.539983749389648 2.601049423217773 2.536184310913086 2.601040840148926 2.532571792602539 2.601040840148926 C 1.12712287902832 2.601040840148926 -0.00567626953125 3.782525062561035 1.9073486328125e-05 5.245295524597168 C 0.005369186401367188 6.621974945068359 1.021770477294922 7.774815559387207 2.341239929199219 7.900815010070801 L 3.888860702514648 17.32064628601074 C 3.941339492797852 17.64094543457031 4.208539962768555 17.87681579589844 4.520648956298828 17.87825584411621 L 26.22946929931641 17.96987533569336 C 26.23027038574219 17.96987915039062 26.23108291625977 17.96987915039062 26.23188400268555 17.96987915039062 C 26.54294204711914 17.96987915039062 26.80699729919434 17.73663520812988 26.85675048828125 17.4175853729248 L 28.32793045043945 8.010495185852051 C 29.73229026794434 7.885405540466309 30.76380920410156 6.599435806274414 30.63187026977539 5.138215065002441 C 30.50839996337891 3.770445823669434 29.40328979492188 2.717415809631348 28.08296966552734 2.709305763244629 C 28.07944107055664 2.709290504455566 28.07589530944824 2.709282875061035 28.07236862182617 2.709282875061035 C 26.66675186157227 2.709273338317871 25.53381538391113 3.891085624694824 25.53974914550781 5.353975296020508 C 25.54142951965332 5.632365226745605 25.58563995361328 5.909045219421387 25.6707592010498 6.173735618591309 L 23.60501861572266 7.533875465393066 C 23.08103942871094 7.87971019744873 22.49172782897949 8.046771049499512 21.9065113067627 8.046771049499512 C 20.97268676757812 8.046771049499512 20.04905891418457 7.62163257598877 19.41619110107422 6.819155693054199 L 17.37530899047852 4.228205680847168 C 17.69659042358398 3.777285575866699 17.8690299987793 3.229655265808105 17.86697959899902 2.666234970092773 C 17.86103057861328 1.199705123901367 16.71271896362305 0.005975723266601562 15.30220985412598 2.47955322265625e-05 C 15.29868030548096 1.1444091796875e-05 15.29513454437256 3.814697265625e-06 15.2916088104248 3.814697265625e-06 M 15.29160976409912 -0.9999942779541016 L 15.30503940582275 -0.9999752044677734 C 17.26155853271484 -0.9917144775390625 18.85881042480469 0.6511154174804688 18.86697006225586 2.662175178527832 C 18.86883544921875 3.17498779296875 18.76784133911133 3.672008514404297 18.57123374938965 4.130393981933594 L 20.20174980163574 6.200375556945801 C 20.62582969665527 6.738105773925781 21.2473201751709 7.046775817871094 21.90650939941406 7.046775817871094 C 22.31287002563477 7.046775817871094 22.70972061157227 6.926605224609375 23.05416870117188 6.699265480041504 L 24.55818176269531 5.708986282348633 C 24.54662895202637 5.593242645263672 24.54047584533691 5.476821899414062 24.53977012634277 5.360005378723145 C 24.53572082519531 4.363415718078613 24.91345977783203 3.434135437011719 25.6033992767334 2.741394996643066 C 26.26626968383789 2.075825691223145 27.14308929443359 1.709285736083984 28.07234954833984 1.709285736083984 L 28.08580017089844 1.709304809570312 C 28.98342895507812 1.714815139770508 29.83824920654297 2.063075065612793 30.49608993530273 2.689945220947266 C 31.14438056945801 3.307695388793945 31.54629898071289 4.145245552062988 31.6278190612793 5.048305511474609 C 31.71747016906738 6.041214942932129 31.42008972167969 7.003135681152344 30.79046058654785 7.756834983825684 C 30.36427116394043 8.267000198364258 29.81932258605957 8.63812255859375 29.21011924743652 8.841520309448242 L 27.84473991394043 17.57209587097168 C 27.71847915649414 18.3818359375 27.04014015197754 18.96987533569336 26.23188018798828 18.96987533569336 L 26.22977066040039 18.96987533569336 L 26.22525024414062 18.9698657989502 L 4.516429901123047 18.87824630737305 C 3.712730407714844 18.87453460693359 3.033939361572266 18.2874755859375 2.902019500732422 17.48233604431152 L 1.464010238647461 8.729671478271484 C 0.8787803649902344 8.532683372497559 0.3494434356689453 8.181707382202148 -0.07226943969726562 7.703385353088379 C -0.6669807434082031 7.028835296630859 -0.9964408874511719 6.157245635986328 -0.999969482421875 5.249185562133789 C -1.003850936889648 4.254605293273926 -0.6260509490966797 3.325445175170898 0.06382942199707031 2.632875442504883 C 0.7266292572021484 1.967485427856445 1.603370666503906 1.601045608520508 2.532569885253906 1.601045608520508 L 2.54911994934082 1.601085662841797 C 4.503129959106445 1.609695434570312 6.100109100341797 3.252805709838867 6.107950210571289 5.263834953308105 C 6.108230590820312 5.383641242980957 6.102813720703125 5.502900123596191 6.091751098632812 5.621279716491699 L 7.614160537719727 6.630575180053711 C 7.969169616699219 6.866455078125 8.375289916992188 6.990835189819336 8.789459228515625 6.990835189819336 C 9.437650680541992 6.990835189819336 10.04553985595703 6.690435409545898 10.45726013183594 6.166665077209473 L 12.0660572052002 4.116720199584961 C 11.86612510681152 3.657957077026367 11.76129531860352 3.161097526550293 11.75899887084961 2.649175643920898 C 11.75495910644531 1.654085159301758 12.1326904296875 0.7248058319091797 12.82259941101074 0.03208541870117188 C 13.48545074462891 -0.6334648132324219 14.3622989654541 -0.9999942779541016 15.29160976409912 -0.9999942779541016 Z" stroke="none" fill="#f8f8f8"/>
        </g>
        <path id="Path_3351-2" data-name="Path 3351" d="M11.65,0c6.442.027,11.67,1.535,11.677,3.368s-5.209,3.3-11.65,3.27S.007,5.1,0,3.27,5.209-.027,11.65,0Z" transform="translate(3.709 13.941)" fill="#f0a622" stroke="#f8f8f8" stroke-width="1"/>
        <path id="Path_3337-3" data-name="Path 3337" d="M12.73,8.811C6.412,8.785.012,7.245,0,4.352S6.376-.026,12.694,0,25.412,1.567,25.423,4.46,19.047,8.838,12.73,8.811ZM12.7,1.469C5.282,1.438,1.408,3.33,1.412,4.358S5.306,7.312,12.724,7.343,24.015,5.482,24.011,4.454,20.118,1.5,12.7,1.469Z" transform="translate(2.661 12.854)" fill="none"/>
      </g>
      <g id="crown-4" data-name="crown" transform="translate(26.618 61.08) rotate(-25)">
        <g id="Path_3336-4" data-name="Path 3336" transform="translate(0 0)" fill="#f0a622">
          <path d="M 6.899757385253906 29.83155059814453 C 5.901187419891357 29.83149147033691 5.069657325744629 29.10691070556641 4.922547340393066 28.1086597442627 L 2.818081140518188 13.87114810943604 C 1.847008109092712 13.63517475128174 0.9700178503990173 13.11068630218506 0.2932271957397461 12.35018062591553 C -0.560312807559967 11.3910608291626 -1.019362807273865 10.14034080505371 -0.9993628263473511 8.828411102294922 C -0.9557127952575684 5.96056079864502 1.364947199821472 3.592470645904541 4.173777103424072 3.549570560455322 C 4.199887275695801 3.549170732498169 4.22564697265625 3.548970699310303 4.251657009124756 3.548970699310303 C 5.590617179870605 3.548970699310303 6.844847202301025 4.07373046875 7.783297061920166 5.026580810546875 C 8.749776840209961 6.007870674133301 9.270227432250977 7.32412052154541 9.248777389526367 8.732851028442383 C 9.244033813476562 9.015361785888672 9.216940879821777 9.296103477478027 9.167866706848145 9.573146820068359 L 11.87743759155273 11.31435108184814 C 12.51455688476562 11.72472095489502 13.25250720977783 11.941330909729 14.01239681243896 11.94132041931152 C 15.29112720489502 11.94130039215088 16.50086784362793 11.34828090667725 17.33141708374023 10.31430053710938 L 20.23681640625 6.691695213317871 C 19.86595344543457 5.953494071960449 19.67289352416992 5.120273590087891 19.68517684936523 4.280760765075684 C 19.72836685180664 1.412480592727661 22.04870796203613 -0.9559893608093262 24.85759735107422 -0.9993893504142761 C 24.88405799865723 -0.999799370765686 24.91003799438477 -0.9999993443489075 24.93639755249023 -0.9999993443489075 C 26.27511787414551 -0.9999993443489075 27.52920722961426 -0.4753393530845642 28.46764755249023 0.4773306548595428 C 29.43409729003906 1.458450675010681 29.95466804504395 2.774480581283569 29.93345642089844 4.183000564575195 C 29.92026329040527 5.035008907318115 29.70743942260742 5.858978271484375 29.31237602233887 6.603343486785889 L 32.09269714355469 10.11601066589355 C 32.84753799438477 11.06850051879883 33.97805786132812 11.61502075195312 35.19400787353516 11.61496067047119 C 36.00533676147461 11.61493110656738 36.80244827270508 11.37090110778809 37.4991455078125 10.90927028656006 L 40.30202865600586 9.056352615356445 C 40.25876998901367 8.772603988647461 40.23888397216797 8.484708786010742 40.24267578125 8.19481086730957 C 40.28589630126953 5.324960708618164 42.60623550415039 2.956490755081177 45.41511535644531 2.913090705871582 C 45.44001770019531 2.912750720977783 45.46297836303711 2.912590742111206 45.48590850830078 2.912590742111206 C 46.76295852661133 2.912590742111206 47.97524642944336 3.396010637283325 48.89946746826172 4.273790836334229 C 49.81874847412109 5.146870613098145 50.37654876708984 6.338980674743652 50.47010803222656 7.630510807037354 C 50.57013702392578 9.010991096496582 50.13938903808594 10.36447048187256 49.25718688964844 11.44160079956055 C 48.53807067871094 12.31960964202881 47.58794403076172 12.93061256408691 46.52828598022461 13.20816898345947 L 43.9856071472168 27.56425094604492 C 43.81173706054688 28.54831123352051 42.97109603881836 29.27412986755371 41.9868278503418 29.28968048095703 L 6.930597305297852 29.8313102722168 L 6.899757385253906 29.83155059814453 Z" stroke="none"/>
          <path d="M 24.93639183044434 1.9073486328125e-06 C 24.91520309448242 1.9073486328125e-06 24.89431762695312 0.0001621246337890625 24.873046875 0.0004901885986328125 C 22.59531784057617 0.03568077087402344 20.72025680541992 1.958600997924805 20.68506813049316 4.295381546020508 C 20.67193794250488 5.193120956420898 20.94083786010742 6.062530517578125 21.45176696777344 6.775150299072266 L 18.11104774475098 10.9405403137207 C 17.06227111816406 12.2461986541748 15.53892135620117 12.94131851196289 14.01240158081055 12.94131851196289 C 13.086669921875 12.94131851196289 12.15980911254883 12.68571281433105 11.33681869506836 12.15562057495117 L 8.023056030273438 10.02614974975586 C 8.165206909179688 9.602870941162109 8.241436004638672 9.161220550537109 8.248886108398438 8.717630386352539 C 8.284149169921875 6.40235710144043 6.499965667724609 4.548973083496094 4.251659393310547 4.548973083496094 C 4.230747222900391 4.548973083496094 4.210041046142578 4.549129486083984 4.189048767089844 4.549449920654297 C 1.911426544189453 4.584239959716797 0.0360870361328125 6.506879806518555 0.000507354736328125 8.843650817871094 C -0.0329132080078125 11.03727149963379 1.573295593261719 12.84215068817139 3.700347900390625 13.00114059448242 L 5.911876678466797 27.96287155151367 C 5.986072540283203 28.46643447875977 6.402603149414062 28.83154678344727 6.899822235107422 28.83154678344727 C 6.904941558837891 28.83154678344727 6.910011291503906 28.83150863647461 6.915145874023438 28.83143043518066 L 41.97103881835938 28.2898006439209 C 42.47501754760742 28.28184127807617 42.91059875488281 27.9011402130127 43.00093841552734 27.38985061645508 L 45.66422653198242 12.35279083251953 C 47.93600845336914 12.10898017883301 49.64114761352539 10.02708053588867 49.47271728515625 7.702760696411133 C 49.31647491455078 5.545957565307617 47.59280395507812 3.912601470947266 45.48590469360352 3.912595748901367 C 45.46748352050781 3.912595748901367 45.44904327392578 3.9127197265625 45.43056869506836 3.912971496582031 C 43.15283584594727 3.948160171508789 41.27777862548828 5.87108039855957 41.24258804321289 8.207880020141602 C 41.23678588867188 8.65144157409668 41.29974746704102 9.090950012207031 41.42910766601562 9.510030746459961 L 38.05149841308594 11.74287986755371 C 37.16486358642578 12.33036231994629 36.17111968994141 12.61496543884277 35.19404983520508 12.61496543884277 C 33.72036743164062 12.61496543884277 32.28432464599609 11.96787071228027 31.30859756469727 10.73664093017578 L 28.09181785583496 6.672550201416016 C 28.62444686889648 5.943811416625977 28.9196662902832 5.065681457519531 28.93356704711914 4.167940139770508 C 28.96842765808105 1.852981567382812 27.1842155456543 1.9073486328125e-06 24.93639183044434 1.9073486328125e-06 M 24.93639755249023 -2 C 26.54507637023926 -2 28.05216789245605 -1.369419097900391 29.1800479888916 -0.2244300842285156 C 30.33594703674316 0.9490108489990234 30.95861625671387 2.519611358642578 30.93333625793457 4.198051452636719 C 30.92117691040039 4.983558654785156 30.76624488830566 5.748737335205078 30.47821044921875 6.464984893798828 L 32.87680816650391 9.495380401611328 C 33.44039916992188 10.20655059814453 34.2852668762207 10.61495971679688 35.19404602050781 10.61495971679688 C 35.80823516845703 10.61495971679688 36.41432952880859 10.42847061157227 36.94679641723633 10.07566070556641 L 39.24886322021484 8.553825378417969 C 39.24317169189453 8.430156707763672 39.24113082885742 8.306098937988281 39.24275588989258 8.181730270385742 C 39.2675666809082 6.534210205078125 39.91423797607422 4.979860305786133 41.06369781494141 3.801040649414062 C 42.22616577148438 2.608890533447266 43.76604843139648 1.938449859619141 45.39966583251953 1.913209915161133 C 45.43102645874023 1.91278076171875 45.45848846435547 1.912590026855469 45.48590850830078 1.912590026855469 C 47.0203857421875 1.912601470947266 48.47724914550781 2.493650436401367 49.58811569213867 3.548700332641602 C 50.68844604492188 4.593740463256836 51.35588836669922 6.0177001953125 51.46748733520508 7.558259963989258 C 51.58609771728516 9.195070266723633 51.07588577270508 10.79925155639648 50.03082656860352 12.07522010803223 C 49.32007598876953 12.94302082061768 48.41806411743164 13.59155750274658 47.407958984375 13.97543334960938 L 44.97028732299805 27.73865127563477 C 44.7132682800293 29.19330024719238 43.46511840820312 30.26645088195801 42.00261688232422 30.28955078125 L 6.946048736572266 30.83119010925293 C 6.930698394775391 30.83143043518066 6.915367126464844 30.83155059814453 6.899818420410156 30.83155059814453 C 5.400905609130859 30.83155059814453 4.153278350830078 29.74771118164062 3.933238983154297 28.25442123413086 L 1.921043395996094 14.64122295379639 C 1.017219543457031 14.30637168884277 0.2031631469726562 13.75319290161133 -0.4538040161132812 13.01497077941895 C -1.474212646484375 11.86834144592285 -2.0230712890625 10.3761100769043 -1.999263763427734 8.813180923461914 C -1.974231719970703 7.169670104980469 -1.32733154296875 5.615440368652344 -0.177703857421875 4.436820983886719 C 0.9849472045898438 3.244831085205078 2.524917602539062 2.574640274047852 4.158496856689453 2.549680709838867 C 4.189765930175781 2.549211502075195 4.220565795898438 2.548971176147461 4.251655578613281 2.548971176147461 C 5.860618591308594 2.548971176147461 7.367877960205078 3.179670333862305 8.49578857421875 4.32489013671875 C 9.651706695556641 5.498550415039062 10.27421569824219 7.069400787353516 10.2486572265625 8.748090744018555 C 10.24684906005859 8.855754852294922 10.2423210144043 8.96320915222168 10.23508834838867 9.070280075073242 L 12.41804885864258 10.47308158874512 C 12.89424896240234 10.77980041503906 13.4449462890625 10.94132041931152 14.01239776611328 10.94132041931152 C 14.98644638061523 10.94132041931152 15.91202545166016 10.48451995849609 16.55178833007812 9.688060760498047 L 19.07969856262207 6.536123275756836 C 18.81049728393555 5.816387176513672 18.67391204833984 5.043264389038086 18.68527793884277 4.266130447387695 C 18.71004676818848 2.621709823608398 19.35671806335449 1.067371368408203 20.50617790222168 -0.1114387512207031 C 21.66865730285645 -1.3035888671875 23.20852661132812 -1.974029541015625 24.84214782714844 -1.999269485473633 C 24.87370681762695 -1.999759674072266 24.90482711791992 -2 24.93639755249023 -2 Z" stroke="none" fill="#f8f8f8"/>
        </g>
        <path id="Path_3352" data-name="Path 3352" d="M18.915.008c10.4-.161,18.8,2.077,18.755,5s-8.512,5.419-18.914,5.58S-.044,8.509,0,5.588,8.512.169,18.915.008Z" transform="translate(5.624 22.206)" fill="#f0a622" stroke="#f8f8f8" stroke-width="2"/>
        <path id="Path_3337-4" data-name="Path 3337" d="M20.422,14.047C10.22,14.2-.069,11.954,0,7.345S10.431.165,20.633.008,41.124,2.1,41.055,6.71,30.624,13.89,20.422,14.047Zm.176-11.7C8.619,2.533,2.306,5.671,2.281,7.309s6.2,4.583,18.176,4.4S38.749,8.384,38.774,6.746,32.577,2.163,20.6,2.348Z" transform="translate(3.932 20.475)" fill="none"/>
      </g>
      <g id="crown-5" data-name="crown" transform="matrix(0.875, 0.485, -0.485, 0.875, -124.626, 65.982)">
        <g id="Path_3336-5" data-name="Path 3336" transform="translate(0 0)" fill="#f0a622">
          <path d="M 135.104248046875 92.06817626953125 C 135.1041107177734 92.06817626953125 135.1042785644531 92.06817626953125 135.1041564941406 92.06817626953125 C 135.0806427001953 92.06817626953125 135.0569763183594 92.06797027587891 135.0333862304688 92.06757354736328 L 23.92027854919434 90.1717529296875 C 21.83957862854004 90.13549041748047 20.05819892883301 88.59253692626953 19.6841983795166 86.5029296875 L 11.29673290252686 39.76031875610352 C 8.067875862121582 39.23953628540039 5.088456153869629 37.60567855834961 2.841158866882324 35.10775375366211 C 0.4247988164424896 32.42189407348633 -0.9386411905288696 28.96625328063965 -0.997961163520813 25.37737274169922 C -1.061601161956787 21.52973365783691 0.351798802614212 17.93813323974609 2.981858730316162 15.26421356201172 C 5.538658618927002 12.66479301452637 8.964378356933594 11.23323345184326 12.62801837921143 11.23323345184326 C 12.70831871032715 11.23323345184326 12.78949928283691 11.2339334487915 12.87015914916992 11.23531341552734 C 16.62649917602539 11.3001127243042 20.17985916137695 12.85207271575928 22.87567901611328 15.60531330108643 C 25.56611824035645 18.35307312011719 27.08263969421387 21.97177314758301 27.1458797454834 25.79483413696289 C 27.16463470458984 27.04793357849121 27.02177429199219 28.28569221496582 26.72068786621094 29.48532485961914 L 36.83382034301758 36.14739227294922 C 39.40995788574219 37.84809494018555 42.36047744750977 38.74667358398438 45.36725997924805 38.74649429321289 C 49.87707901000977 38.74623489379883 54.06645965576172 36.73213195800781 56.86117935180664 33.2205924987793 L 66.57382965087891 20.99680328369141 C 65.04598999023438 18.66876220703125 64.18611145019531 15.91008949279785 64.13874053955078 13.14695358276367 C 64.07445526123047 9.29835319519043 65.48749542236328 5.706212997436523 68.11757659912109 3.031813144683838 C 70.67447662353516 0.4318532049655914 74.10067749023438 -1.000006794929504 77.76506042480469 -1.000006794929504 C 77.84442138671875 -1.000006794929504 77.92510223388672 -0.9993268251419067 78.00479888916016 -0.9979668259620667 C 81.76100158691406 -0.9338667988777161 85.31455993652344 0.617493212223053 88.01085662841797 3.370313167572021 C 90.70182037353516 6.117693424224854 92.21895599365234 9.736153602600098 92.28282165527344 13.55917358398438 C 92.32783508300781 16.32393836975098 91.55933380126953 19.05881309509277 90.10752868652344 21.34381294250488 L 100.2529754638672 33.9294319152832 C 101.7945175170898 35.83953475952148 103.6790161132812 37.33515167236328 105.8537979125977 38.37431335449219 C 107.9357604980469 39.36909484863281 110.2355194091797 39.89489364624023 112.5045013427734 39.89485168457031 C 115.323600769043 39.89479446411133 118.0603408813477 39.09613418579102 120.418815612793 37.58521270751953 L 130.2646942138672 31.29307556152344 C 129.9279327392578 30.09172821044922 129.7459106445312 28.8577766418457 129.7226715087891 27.61435317993164 C 129.6583404541016 23.76421356201172 131.0713806152344 20.17207336425781 133.7014312744141 17.49769401550293 C 136.2583312988281 14.89771366119385 139.6845397949219 13.46585273742676 143.3489379882812 13.46585273742676 C 143.4282989501953 13.46585273742676 143.5089721679688 13.46653366088867 143.5886840820312 13.46789360046387 C 147.1071014404297 13.53457355499268 150.4914245605469 14.92909336090088 153.1201019287109 17.39459228515625 C 155.7431793212891 19.85481262207031 157.3928527832031 23.17509269714355 157.7652435302734 26.74379348754883 C 157.9701843261719 28.70745277404785 157.7866973876953 30.63983345031738 157.2198944091797 32.48721313476562 C 156.6714019775391 34.27499389648438 155.7904968261719 35.90275192260742 154.6016845703125 37.32527160644531 C 152.4130859375 39.94407272338867 149.3957214355469 41.60231781005859 146.0369567871094 42.04965209960938 L 139.2150421142578 88.47791290283203 C 138.9102935791016 90.55800628662109 137.1812744140625 92.06817626953125 135.104248046875 92.06817626953125 Z" stroke="none"/>
          <path d="M 77.76503753662109 0 C 70.64981842041016 0 65.01668548583984 5.831985473632812 65.13859558105469 13.12981414794922 C 65.18716430664062 15.96253204345703 66.12720489501953 18.73485565185547 67.81905364990234 21.03709411621094 L 57.64362335205078 33.84331512451172 C 54.56364440917969 37.7132682800293 50.02701568603516 39.74649810791016 45.36731719970703 39.74649810791016 C 42.26289367675781 39.74649810791016 39.10435485839844 38.84462356567383 36.28368377685547 36.98246765136719 L 25.56130981445312 29.91907501220703 C 25.96957397460938 28.5974006652832 26.16696166992188 27.21098709106445 26.14601135253906 25.81137847900391 C 26.0240478515625 18.43790435791016 20.07270812988281 12.35968017578125 12.85292053222656 12.23516082763672 C 12.77801513671875 12.23387145996094 12.70262145996094 12.23322296142578 12.62803649902344 12.23322296142578 C 5.514328002929688 12.23322296142578 -0.1187896728515625 18.06401824951172 0.0019073486328125 25.36085510253906 C 0.1162872314453125 32.28246688842773 5.391159057617188 38.14557647705078 12.15226745605469 38.86627197265625 L 20.66854858398438 86.32675170898438 C 20.9573974609375 87.9405517578125 22.33987426757812 89.14405059814453 23.93733215332031 89.17188262939453 L 135.0500793457031 91.06770324707031 C 135.068115234375 91.06800842285156 135.0861968994141 91.06816101074219 135.1041564941406 91.06816101074219 C 136.677734375 91.06816101074219 137.9931945800781 89.91923522949219 138.2256469726562 88.33253479003906 L 145.1605072021484 41.13566207885742 C 152.3401794433594 40.59961700439453 157.5382537841797 34.20261764526367 156.7706146240234 26.84757232666016 C 156.05224609375 19.96296691894531 150.3296661376953 14.59583282470703 143.5715942382812 14.46775054931641 C 143.4975738525391 14.46648406982422 143.4226379394531 14.46585083007812 143.3489227294922 14.46585083007812 C 136.2337493896484 14.46527099609375 130.6005554199219 20.29779052734375 130.7224884033203 27.59568405151367 C 130.7486572265625 28.99538040161133 130.9924468994141 30.38933563232422 131.4447937011719 31.72568511962891 L 120.958251953125 38.42722702026367 C 118.3594436645508 40.09211730957031 115.4311218261719 40.89484786987305 112.5045166015625 40.89484786987305 C 107.6559295654297 40.89484786987305 102.8115539550781 38.6920166015625 99.47444152832031 34.55702972412109 L 88.86527252197266 21.39616394042969 C 90.48110198974609 19.15036010742188 91.32907867431641 16.40855407714844 91.28294372558594 13.57585906982422 C 91.15979766845703 6.202445983886719 85.20718383789062 0.1250762939453125 77.98774719238281 0.00189971923828125 C 77.91372680664062 0.000640869140625 77.83875274658203 0 77.76503753662109 0 M 77.76502990722656 -1.999992370605469 C 77.85003662109375 -1.999992370605469 77.93647003173828 -1.999275207519531 78.02181243896484 -1.997817993164062 C 82.04261779785156 -1.929206848144531 85.84381866455078 -0.271270751953125 88.72527313232422 2.670578002929688 C 91.59600830078125 5.601509094238281 93.21453094482422 9.462554931640625 93.28266143798828 13.54246520996094 C 93.30907440185547 15.16439819335938 93.08212280273438 16.76374816894531 92.60810089111328 18.29688262939453 C 92.28691101074219 19.33568572998047 91.8572998046875 20.32794952392578 91.325439453125 21.26125335693359 L 101.0315322875977 33.30183410644531 C 102.4781875610352 35.09437942504883 104.2459259033203 36.49770355224609 106.2849273681641 37.47198867797852 C 108.2330780029297 38.40283584594727 110.3837738037109 38.89485931396484 112.5045166015625 38.89485931396484 C 115.1319427490234 38.89485931396484 117.6821212768555 38.15081405639648 119.8793792724609 36.74316024780273 L 129.1173553466797 30.83954238891602 C 128.8753204345703 29.78642654418945 128.7430419921875 28.71317672729492 128.7228393554688 27.63307571411133 C 128.6880798339844 25.55318450927734 129.0548095703125 23.54368591308594 129.8127746582031 21.65642547607422 C 130.5474090576172 19.82724761962891 131.6159057617188 18.19203186035156 132.9886169433594 16.79618072509766 C 135.7348175048828 14.00373077392578 139.4137878417969 12.46585845947266 143.3478546142578 12.46585845947266 C 143.4339294433594 12.46585845947266 143.5203094482422 12.46657562255859 143.6056671142578 12.46803283691406 C 147.3740539550781 12.53946685791016 150.9945983886719 14.03000640869141 153.8042144775391 16.66520690917969 C 156.6025695800781 19.28983306884766 158.3625183105469 22.83229064941406 158.7598114013672 26.64000701904297 C 158.9787902832031 28.73801040649414 158.7823333740234 30.80398941040039 158.1759033203125 32.78053283691406 C 157.5881195068359 34.69638061523438 156.6437225341797 36.44118499755859 155.3690185546875 37.96651077270508 C 153.1822967529297 40.58308410644531 150.2252349853516 42.30686569213867 146.9196166992188 42.92135620117188 L 140.2044067382812 88.62326812744141 C 139.8271179199219 91.19846343994141 137.68212890625 93.06816101074219 135.1041564941406 93.06816101074219 C 135.0749664306641 93.06816101074219 135.0456390380859 93.06792449951172 135.0163421630859 93.06742095947266 L 23.90322875976562 91.17160034179688 C 21.34580993652344 91.12702941894531 19.15779113769531 89.23768615722656 18.69984436035156 86.67911529541016 L 10.43447875976562 40.61706161499023 C 7.252578735351562 39.94806671142578 4.334548950195312 38.2628288269043 2.097732543945312 35.77655410766602 C -0.4800262451171875 32.91133499145508 -1.934524536132812 29.22403335571289 -1.997817993164062 25.39389801025391 C -2.03216552734375 23.31829071044922 -1.6651611328125 21.30914306640625 -0.9070587158203125 19.42222595214844 C -0.1722869873046875 17.59344482421875 0.8962554931640625 15.95854949951172 2.268905639648438 14.56301116943359 C 5.015213012695312 11.77090454101562 8.694137573242188 10.23323059082031 12.62803649902344 10.23323059082031 C 12.71397399902344 10.23323059082031 12.80084228515625 10.23396301269531 12.88716125488281 10.23544311523438 C 16.90829467773438 10.30481719970703 20.70927429199219 11.96340179443359 23.59017944335938 14.90568542480469 C 26.46040344238281 17.83702850341797 28.0782470703125 21.69833374023438 28.14573669433594 25.77831268310547 C 28.16220092773438 26.878173828125 28.06240844726562 27.96657943725586 27.84831237792969 29.03068161010742 L 37.38392639160156 35.31229400634766 C 39.79668426513672 36.9051399230957 42.55673217773438 37.74650955200195 45.36731719970703 37.74650955200195 C 49.57046508789062 37.74650955200195 53.47461700439453 35.86989974975586 56.07872772216797 32.59787750244141 L 65.35102844238281 20.92829895019531 C 64.78727722167969 19.97930145263672 64.32418823242188 18.97376251220703 63.96849060058594 17.92450714111328 C 63.44573211669922 16.38250732421875 63.16661834716797 14.78087615966797 63.13890075683594 13.16409301757812 C 63.10420989990234 11.08733367919922 63.47092437744141 9.077880859375 64.22883605957031 7.190704345703125 C 64.96342468261719 5.361595153808594 66.03190612792969 3.726448059082031 67.40460205078125 2.330642700195312 C 70.15097045898438 -0.4620132446289062 73.83038330078125 -1.999992370605469 77.76502990722656 -1.999992370605469 Z" stroke="none" fill="#f8f8f8"/>
        </g>
        <path id="Path_3355" data-name="Path 3355" d="M59.42.032c32.97.563,59.823,8.49,59.977,17.707S92.948,33.971,59.978,33.408.155,24.918,0,15.7,26.45-.531,59.42.032Z" transform="translate(19.739 70.062)" fill="#f0a622" stroke="#f8f8f8" stroke-width="2"/>
        <path id="Path_3337-5" data-name="Path 3337" d="M65.434,44.33C33.1,43.779.244,35.615,0,21.07S32.358-.522,64.694.03s65.19,8.715,65.433,23.26S97.77,44.882,65.434,44.33ZM64.817,7.413C26.849,6.766,7.144,16.025,7.23,21.194S27.343,36.3,65.311,36.947s57.673-8.611,57.587-13.78S102.785,8.061,64.817,7.413Z" transform="translate(14.374 64.602)" fill="none"/>
      </g>
      <g id="crown-6" data-name="crown" transform="matrix(0.875, 0.485, -0.485, 0.875, 93.897, 81.022)">
        <g id="Path_3336-6" data-name="Path 3336" transform="translate(0 0)" fill="#f0a622">
          <path d="M 20.62277984619141 14.40093326568604 C 20.62275123596191 14.40093326568604 20.62274742126465 14.40093326568604 20.62271881103516 14.40093326568604 L 20.60610771179199 14.40079307556152 L 3.64533805847168 14.11141300201416 C 3.162147998809814 14.10299301147461 2.748988151550293 13.74714279174805 2.662738084793091 13.26528263092041 L 1.423722743988037 6.360343933105469 C 0.322967141866684 6.070325374603271 -0.4800536632537842 5.063930511474609 -0.4996418952941895 3.879432916641235 C -0.5109018683433533 3.19825291633606 -0.2597618997097015 2.56147289276123 0.2075281143188477 2.086392879486084 C 0.663628101348877 1.622692942619324 1.274488091468811 1.367313027381897 1.927578091621399 1.367313027381897 C 1.94182813167572 1.367313027381897 1.956218123435974 1.367442965507507 1.970528125762939 1.367682933807373 C 3.337298154830933 1.391263008117676 4.467947959899902 2.541462898254395 4.490938186645508 3.931663036346436 C 4.492995262145996 4.068813800811768 4.484127521514893 4.20485258102417 4.464479446411133 4.338895320892334 L 5.813518047332764 5.227582931518555 C 6.150078296661377 5.44976282119751 6.534267902374268 5.567052841186523 6.924978256225586 5.567032814025879 C 7.506937980651855 5.56699275970459 8.047368049621582 5.307322978973389 8.407688140869141 4.854592800140381 L 9.741464614868164 3.175975799560547 C 9.552280426025391 2.817603588104248 9.450047492980957 2.42173433303833 9.443037986755371 2.01274299621582 C 9.431657791137695 1.331252932548523 9.682738304138184 0.6943829655647278 10.15002822875977 0.2192229926586151 C 10.60613822937012 -0.244577020406723 11.21707820892334 -0.4999970197677612 11.87029838562012 -0.4999970197677612 C 11.88436794281006 -0.4999970197677612 11.89869785308838 -0.499877005815506 11.91282844543457 -0.4996370077133179 C 13.2795877456665 -0.4763170182704926 14.41042804718018 0.6736829876899719 14.43364810943604 2.063912868499756 C 14.44021511077881 2.467386722564697 14.34877395629883 2.867564916610718 14.17221450805664 3.222944736480713 L 15.57336807250977 4.961092948913574 C 15.97398853302002 5.457502841949463 16.55710792541504 5.742332935333252 17.17303848266602 5.74232292175293 C 17.53680801391602 5.742312908172607 17.8897590637207 5.639382839202881 18.19372749328613 5.444643020629883 L 19.49169158935547 4.615171432495117 C 19.46907043457031 4.48521089553833 19.45645141601562 4.353743553161621 19.45398902893066 4.221632957458496 C 19.44258880615234 3.539382934570312 19.69366836547852 2.90250301361084 20.16096878051758 2.427342891693115 C 20.61707878112793 1.963542938232422 21.22801780700684 1.708112955093384 21.88123893737793 1.708112955093384 C 21.89531898498535 1.708112955093384 21.90961837768555 1.708232998847961 21.92375755310059 1.708472967147827 C 23.21489906311035 1.732942938804626 24.29076766967773 2.737942934036255 24.42726898193359 4.046213150024414 C 24.49916839599609 4.735103130340576 24.29963874816895 5.400622844696045 23.86542892456055 5.920193195343018 C 23.53277397155762 6.318241596221924 23.09276962280273 6.591880798339844 22.59931373596191 6.713459491729736 L 21.59389877319336 13.55605316162109 C 21.52218246459961 14.04552268981934 21.11375045776367 14.40093326568604 20.62277984619141 14.40093326568604 Z" stroke="none"/>
          <path d="M 11.87029457092285 2.86102294921875e-06 C 10.78420829772949 2.86102294921875e-06 9.924361228942871 0.8902139663696289 9.942968368530273 2.004173278808594 C 9.95037841796875 2.436573028564453 10.09386825561523 2.859743118286133 10.35211849212646 3.211173057556152 L 8.798908233642578 5.165952682495117 C 8.328767776489258 5.756670951843262 7.636280059814453 6.067029476165771 6.925008773803711 6.067029476165771 C 6.451141357421875 6.067029476165771 5.969015121459961 5.929366111755371 5.538457870483398 5.645122528076172 L 3.901767730712891 4.566943168640137 C 3.964078903198242 4.365202903747559 3.994207382202148 4.153573036193848 3.991008758544922 3.939932823181152 C 3.97239875793457 2.814422607421875 3.063957214355469 1.886623382568359 1.961908340454102 1.867612838745117 C 1.950473785400391 1.867416381835938 1.938966751098633 1.867317199707031 1.927581787109375 1.867317199707031 C 0.8417205810546875 1.867317199707031 -0.01812934875488281 2.757350921630859 0.0002880096435546875 3.871163368225098 C 0.01774787902832031 4.927702903747559 0.8229179382324219 5.822663307189941 1.854957580566406 5.93267297744751 L 3.154918670654297 13.17719268798828 C 3.199008941650391 13.42352294921875 3.410028457641602 13.60723304748535 3.653867721557617 13.61148262023926 L 20.61447906494141 13.90086269378662 C 20.61723136901855 13.90090942382812 20.6200065612793 13.90093231201172 20.62274932861328 13.90093231201172 C 20.86294364929199 13.90093231201172 21.06372261047363 13.72555732727051 21.09919738769531 13.48336315155029 L 22.15776824951172 6.279082775115967 C 23.25369834899902 6.197252750396729 24.04713821411133 5.220792770385742 23.92996788024902 4.098102569580078 C 23.8203182220459 3.047212600708008 22.94679832458496 2.22795295715332 21.91522789001465 2.208402633666992 C 21.90392875671387 2.208209991455078 21.89249420166016 2.208113670349121 21.88124084472656 2.208112716674805 C 20.795166015625 2.208025932312012 19.9352912902832 3.098323822021484 19.95389747619629 4.212292671203613 C 19.95788764953613 4.425952911376953 19.99510765075684 4.638723373413086 20.06415748596191 4.842713356018066 L 18.46344757080078 5.865653038024902 C 18.0667610168457 6.119789600372314 17.61977386474609 6.242321491241455 17.17304611206055 6.242321491241455 C 16.43294525146484 6.242321491241455 15.69348239898682 5.90607213973999 15.18409824371338 5.274892807006836 L 13.56467819213867 3.265982627868652 C 13.81131839752197 2.923172950744629 13.94075775146484 2.504652976989746 13.93371772766113 2.072262763977051 C 13.91491794586182 0.9467630386352539 13.00629806518555 0.01909255981445312 11.90429782867432 0.0002927780151367188 C 11.89299869537354 0.0001001358032226562 11.88154602050781 2.86102294921875e-06 11.87029457092285 2.86102294921875e-06 M 11.87029838562012 -0.9999971389770508 C 11.88710784912109 -0.9999971389770508 11.90421772003174 -0.999847412109375 11.92110824584961 -0.9995670318603516 C 13.55462837219238 -0.9716968536376953 14.90590858459473 0.3988227844238281 14.93357849121094 2.055562973022461 C 14.93963813781738 2.427589416503906 14.87603282928467 2.797519683837891 14.74980735778809 3.142762184143066 L 15.96263790130615 4.647293090820312 C 16.2676887512207 5.025293350219727 16.70898818969727 5.24232292175293 17.17304801940918 5.24232292175293 C 17.44100761413574 5.24232292175293 17.70068740844727 5.166703224182129 17.92400741577148 5.023633003234863 L 18.95931243896484 4.362015724182129 C 18.95663642883301 4.318411827087402 18.95488548278809 4.274710655212402 18.95406723022461 4.230962753295898 C 18.94039916992188 3.412603378295898 19.24242782592773 2.648233413696289 19.80448913574219 2.076703071594238 C 20.35533905029297 1.516583442687988 21.09280776977539 1.208112716674805 21.88107872009277 1.208112716674805 C 21.89806747436523 1.208112716674805 21.91514778137207 1.208263397216797 21.93203735351562 1.208542823791504 C 23.476318359375 1.237812995910645 24.76190757751465 2.435422897338867 24.92456817626953 3.994322776794434 C 25.01061820983887 4.818802833557129 24.77072906494141 5.616633415222168 24.24908828735352 6.240822792053223 C 23.92272567749023 6.631345272064209 23.51082420349121 6.922709465026855 23.04833030700684 7.096987724304199 L 22.08857727050781 13.62874317169189 C 21.98063850402832 14.36570262908936 21.3641471862793 14.90093326568604 20.62274742126465 14.90093326568604 L 20.59629821777344 14.9006929397583 L 3.636808395385742 14.61133289337158 C 2.915267944335938 14.59876251220703 2.298778533935547 14.06971263885498 2.170558929443359 13.35338306427002 L 0.9844532012939453 6.743345737457275 C -0.1667957305908203 6.302103996276855 -0.9781436920166016 5.184362411499023 -0.99957275390625 3.887682914733887 C -1.013071060180664 3.071422576904297 -0.7109813690185547 2.307183265686035 -0.1489410400390625 1.735773086547852 C 0.4019088745117188 1.175743103027344 1.139368057250977 0.8673133850097656 1.927577972412109 0.8673133850097656 C 1.944768905639648 0.8673133850097656 1.962148666381836 0.8674631118774414 1.979408264160156 0.867762565612793 C 3.612428665161133 0.8959331512451172 4.963478088378906 2.266693115234375 4.990867614746094 3.923402786254883 C 4.991682052612305 3.977666854858398 4.991069793701172 4.031787872314453 4.989040374755859 4.085704803466797 L 6.088577270507812 4.810032844543457 C 6.343538284301758 4.978352546691895 6.632488250732422 5.067032814025879 6.925008773803711 5.067032814025879 C 7.353708267211914 5.067032814025879 7.751527786254883 4.876112937927246 8.016468048095703 4.54322338104248 L 9.159060478210449 3.105222702026367 C 9.022998809814453 2.762059211730957 8.949543952941895 2.396397590637207 8.943118095397949 2.021303176879883 C 8.929468154907227 1.204492568969727 9.231488227844238 0.4401531219482422 9.79352855682373 -0.1313571929931641 C 10.34439849853516 -0.6915073394775391 11.08193778991699 -0.9999971389770508 11.87029838562012 -0.9999971389770508 Z" stroke="none" fill="#f8f8f8"/>
        </g>
        <path id="Path_3356" data-name="Path 3356" d="M9.07,0c5.033.086,9.132,1.3,9.155,2.7S14.188,5.185,9.155,5.1.024,3.8,0,2.4,4.037-.081,9.07,0Z" transform="translate(3.013 10.695)" fill="#f0a622" stroke="#f8f8f8" stroke-width="1"/>
        <path id="Path_3337-6" data-name="Path 3337" d="M9.988,6.767C5.052,6.682.037,5.436,0,3.216S4.939-.08,9.875,0s9.951,1.33,9.988,3.551S14.924,6.851,9.988,6.767ZM9.894,1.132c-5.8-.1-8.8,1.314-8.79,2.1s3.07,2.306,8.866,2.4,8.8-1.314,8.79-2.1S15.689,1.23,9.894,1.132Z" transform="translate(2.194 9.861)" fill="none"/>
      </g>
      <g id="crown-7" data-name="crown" transform="matrix(0.875, 0.485, -0.485, 0.875, -11.857, 76.503)">
        <g id="Path_3336-7" data-name="Path 3336" transform="translate(0 0)" fill="#f0a622">
          <path d="M 7.366809368133545 5.465641498565674 C 7.366768360137939 5.465641498565674 7.366788387298584 5.465641498565674 7.36674690246582 5.465641498565674 L 7.362596988677979 5.465641498565674 L 7.355516910552979 5.465551376342773 L 1.29669713973999 5.362181663513184 C 0.9708771109580994 5.356491565704346 0.6925970911979675 5.118051528930664 0.6348071098327637 4.795211315155029 L 0.2247832864522934 2.510153532028198 C -0.1991604715585709 2.314063549041748 -0.4916795492172241 1.884728074073792 -0.4998229146003723 1.391091465950012 C -0.5052828788757324 1.060941576957703 -0.3828229010105133 0.7515515089035034 -0.1549929082393646 0.5199314951896667 C 0.06883709132671356 0.2923615276813507 0.3684170842170715 0.1670315265655518 0.6885671019554138 0.1670315265655518 L 0.7094370722770691 0.1672115176916122 C 1.363592863082886 0.1784984469413757 1.905604124069214 0.7221872806549072 1.925207376480103 1.382736206054688 L 2.253487110137939 1.598991513252258 C 2.321277141571045 1.643741488456726 2.397277116775513 1.667251467704773 2.473697185516357 1.66724157333374 C 2.584717035293579 1.667231559753418 2.683516979217529 1.619911551475525 2.751897096633911 1.534001469612122 L 3.110620975494385 1.0825275182724 C 3.073875665664673 0.967581033706665 3.053966283798218 0.8472657203674316 3.051867008209229 0.7244614958763123 C 3.046347141265869 0.3940715193748474 3.168776988983154 0.08463152498006821 3.396607160568237 -0.1470384746789932 C 3.620447158813477 -0.3746484816074371 3.920077085494995 -0.4999984800815582 4.240287303924561 -0.4999984800815582 L 4.260937213897705 -0.4998284876346588 C 4.920476913452148 -0.4885684847831726 5.466126918792725 0.06398152559995651 5.477287292480469 0.7318915128707886 C 5.479279041290283 0.8545403480529785 5.462542057037354 0.9766449928283691 5.42861270904541 1.09329092502594 L 5.813287258148193 1.570481538772583 C 5.894967079162598 1.671691536903381 6.012106895446777 1.729861497879028 6.134487152099609 1.729861497879028 C 6.203836917877197 1.729861497879028 6.268177032470703 1.711171507835388 6.325726985931396 1.674301505088806 L 6.627826690673828 1.481238961219788 C 6.630647659301758 1.162451505661011 6.752398014068604 0.8657335042953491 6.972677230834961 0.6417415142059326 C 7.196516990661621 0.4141315221786499 7.496137142181396 0.2887815237045288 7.816337108612061 0.2887815237045288 L 7.837017059326172 0.2889515161514282 C 8.460786819458008 0.3007715344429016 8.979917526245117 0.7835715413093567 9.045487403869629 1.412021517753601 C 9.080266952514648 1.745271563529968 8.983047485351562 2.06805157661438 8.771737098693848 2.320891618728638 C 8.657988548278809 2.456998109817505 8.518709182739258 2.563445568084717 8.362800598144531 2.63566255569458 L 8.03167724609375 4.889171600341797 C 7.982753276824951 5.223090648651123 7.703104496002197 5.465641498565674 7.366809368133545 5.465641498565674 Z" stroke="none"/>
          <path d="M 4.240286350250244 -1.9073486328125e-06 C 3.852311611175537 -1.9073486328125e-06 3.545145988464355 0.3180041313171387 3.551796913146973 0.7159214019775391 C 3.554437160491943 0.8703813552856445 3.605697154998779 1.021551609039307 3.697947025299072 1.147081613540649 L 3.14311695098877 1.845361471176147 C 2.975174903869629 2.056377410888672 2.727806091308594 2.167242527008057 2.473727703094482 2.167242527008057 C 2.30445384979248 2.167242527008057 2.132230281829834 2.118067264556885 1.978426933288574 2.016531467437744 L 1.393776893615723 1.631391525268555 C 1.416037082672119 1.559321641921997 1.426796913146973 1.483721494674683 1.425657272338867 1.407411575317383 C 1.419007301330566 1.005361557006836 1.094497203826904 0.6739315986633301 0.7008271217346191 0.6671414375305176 C 0.6967425346374512 0.6670713424682617 0.6926379203796387 0.6670360565185547 0.6885709762573242 0.6670360565185547 C 0.3006820678710938 0.6670360565185547 -0.006473541259765625 0.9849731922149658 0.0001068115234375 1.38284158706665 C 0.006337165832519531 1.760261535644531 0.2939672470092773 2.079951524734497 0.6626272201538086 2.119251489639282 L 1.126986980438232 4.707111358642578 C 1.142736911773682 4.795101642608643 1.218117237091064 4.860731601715088 1.305227279663086 4.862251281738281 L 7.363837242126465 4.965621471405029 C 7.364815235137939 4.965637683868408 7.365803241729736 4.965645790100098 7.366777896881104 4.965645790100098 C 7.452585697174072 4.965645790100098 7.524311065673828 4.903008937835693 7.5369873046875 4.816481590270996 L 7.915127277374268 2.24299144744873 C 8.306607246398926 2.213761568069458 8.59003734588623 1.864951610565186 8.548187255859375 1.463911533355713 C 8.509007453918457 1.08851146697998 8.196976661682129 0.7958617210388184 7.828486919403076 0.7888813018798828 C 7.824450492858887 0.7888126373291016 7.820358276367188 0.7887783050537109 7.816339015960693 0.7887778282165527 C 7.428373336791992 0.7887425422668457 7.1212158203125 1.106774091720581 7.127867221832275 1.504701614379883 C 7.129287242889404 1.581021547317505 7.142587184906006 1.657031536102295 7.16724681854248 1.729891538619995 L 6.595447063446045 2.095311641693115 C 6.45374584197998 2.186092615127563 6.294076919555664 2.229862689971924 6.134499549865723 2.229862689971924 C 5.870124816894531 2.229862689971924 5.605976104736328 2.10974907875061 5.424016952514648 1.884281635284424 L 4.845527172088623 1.166661500930786 C 4.933637142181396 1.044211626052856 4.979866981506348 0.8947014808654785 4.977356910705566 0.7402515411376953 C 4.970637321472168 0.3382015228271484 4.646067142486572 0.006821632385253906 4.252417087554932 0.0001015663146972656 C 4.248380661010742 3.290176391601562e-05 4.244306087493896 -1.9073486328125e-06 4.240286350250244 -1.9073486328125e-06 M 4.240287303924561 -0.9999985694885254 C 4.250047206878662 -0.9999985694885254 4.259927272796631 -0.9999184608459473 4.269737243652344 -0.999748706817627 C 5.195517063140869 -0.9839487075805664 5.961597442626953 -0.2108783721923828 5.977217197418213 0.7235417366027832 C 5.978510856628418 0.8031673431396484 5.974189758300781 0.8826484680175781 5.964465141296387 0.9613275527954102 L 6.150924682617188 1.192631006240845 L 6.153692245483398 1.190862417221069 C 6.21278190612793 0.8511934280395508 6.371599197387695 0.5398669242858887 6.616207122802734 0.2911415100097656 C 6.934786796569824 -0.03280830383300781 7.360977172851562 -0.2112183570861816 7.816267013549805 -0.2112183570861816 C 7.826157093048096 -0.2112183570861816 7.836047172546387 -0.2111382484436035 7.845807075500488 -0.2109684944152832 C 8.722187042236328 -0.1943683624267578 9.451037406921387 0.4810314178466797 9.542787551879883 1.360111474990845 C 9.591716766357422 1.828981637954712 9.454136848449707 2.284061431884766 9.155397415161133 2.641521453857422 C 9.056906700134277 2.759372711181641 8.944995880126953 2.861579656600952 8.822465896606445 2.946716785430908 L 8.5263671875 4.961861610412598 C 8.441157341003418 5.543331623077393 7.953456878662109 5.965641498565674 7.366776943206787 5.965641498565674 L 7.356576919555664 5.965641498565674 L 7.343437194824219 5.96541166305542 L 1.288166999816895 5.862101554870605 C 0.7239971160888672 5.852261543273926 0.2423868179321289 5.440621376037598 0.1426372528076172 4.883311748504639 L -0.2261781692504883 2.827939748764038 C -0.6870822906494141 2.516958951950073 -0.9899883270263672 1.991139650344849 -0.9997529983520508 1.399341583251953 C -1.007452964782715 0.9341115951538086 -0.8340330123901367 0.4972615242004395 -0.5114526748657227 0.1693015098571777 C -0.1928730010986328 -0.1545886993408203 0.233306884765625 -0.3329687118530273 0.6885671615600586 -0.3329687118530273 C 0.6983270645141602 -0.3329687118530273 0.7081971168518066 -0.332878589630127 0.7179770469665527 -0.3327083587646484 C 1.543659687042236 -0.3184704780578613 2.242036819458008 0.2976737022399902 2.394762516021729 1.093310356140137 L 2.439841270446777 1.123006105422974 L 2.570334434509277 0.9587726593017578 C 2.559412956237793 0.8844375610351562 2.553247451782227 0.8090853691101074 2.551947116851807 0.7330117225646973 C 2.544157028198242 0.2673115730285645 2.717526912689209 -0.1695985794067383 3.040117263793945 -0.4976186752319336 C 3.358706951141357 -0.8215785026550293 3.784936904907227 -0.9999985694885254 4.240287303924561 -0.9999985694885254 Z" stroke="none" fill="#f8f8f8"/>
        </g>
        <path id="Path_3357" data-name="Path 3357" d="M3.24,0C5.038.032,6.5.465,6.51.967s-1.442.885-3.24.854S.008,1.359,0,.856,1.442-.029,3.24,0Z" transform="translate(1.076 3.82)" fill="#f0a622" stroke="#f8f8f8" stroke-width="1"/>
        <path id="Path_3337-7" data-name="Path 3337" d="M3.568,2.417C1.8,2.387.013,1.942,0,1.149S1.764-.028,3.528,0,7.082.477,7.1,1.27,5.331,2.447,3.568,2.417ZM3.534.4C1.464.369.39.874.394,1.156s1.1.824,3.167.859,3.145-.47,3.14-.751S5.6.44,3.534.4Z" transform="translate(0.784 3.523)" fill="none"/>
      </g>
    </g>
  </g>
</svg>
