<svg xmlns="http://www.w3.org/2000/svg" xmlns:xlink="http://www.w3.org/1999/xlink" width="375" height="111" viewBox="0 0 375 111">
  <defs>
    <clipPath id="clip-path">
      <rect id="Rectangle_1200" data-name="Rectangle 1200" width="375" height="111" transform="translate(-160.925 47.672)" fill="#fff" stroke="#707070" stroke-width="1"/>
    </clipPath>
    <clipPath id="clip-path-2">
      <path id="Path_3340" data-name="Path 3340" d="M29.292,0c15.894-.235,28.55,15.38,28.269,34.878s-13.393,35.5-29.287,35.731S-.276,55.232,0,35.734,13.4.238,29.292,0Z" transform="translate(0 9.62) rotate(-9.62)" fill="#f0a622" stroke="#231f20" stroke-width="6"/>
    </clipPath>
  </defs>
  <g id="Mask_Group_45" data-name="Mask Group 45" transform="translate(160.925 -47.672)" clip-path="url(#clip-path)">
    <rect id="Rectangle_3509" data-name="Rectangle 3509" width="375" height="83" transform="translate(-160.924 47.672)" fill="#f8f8f8"/>
    <g id="bee" transform="translate(122.583 35.721) rotate(-14)">
      <g id="Bee-2" data-name="Bee" transform="translate(0 0)">
        <path id="Path_16" data-name="Path 16" d="M17.323,0s-24.9,31.092-15,47.286,28.725-2.892,28.725-2.892Z" transform="translate(2.388 69.593)" fill="#ddd"/>
        <path id="Path_17" data-name="Path 17" d="M0,0S32.863,20.425,28.382,39.275s-28,7.585-28,7.585Z" transform="translate(66.477 58.664)" fill="#ddd"/>
        <path id="Path_3339" data-name="Path 3339" d="M29.292,0c15.894-.235,28.55,15.38,28.269,34.878s-13.393,35.5-29.287,35.731S-.276,55.232,0,35.734,13.4.238,29.292,0Z" transform="translate(12.407 53.308) rotate(-9.62)" fill="#f0a622"/>
        <g id="Group_9" data-name="Group 9" transform="translate(12.407 43.688)" clip-path="url(#clip-path-2)">
          <path id="Path_18" data-name="Path 18" d="M0,10.454S28.624,16.379,56.6,0L58.8,14.177S24.58,25.606,2.079,23.905Z" transform="translate(4.572 25.343)" fill="#231f20" stroke="#231f20" stroke-miterlimit="10" stroke-width="0.75"/>
          <path id="Path_19" data-name="Path 19" d="M0,10.454S28.624,16.379,56.605,0L58.8,14.177S24.582,25.614,2.079,23.911Z" transform="translate(7.773 46.051)" fill="#231f20" stroke="#231f20" stroke-miterlimit="10" stroke-width="0.75"/>
        </g>
        <path id="Path_3341" data-name="Path 3341" d="M29.292,0c15.894-.235,28.55,15.38,28.269,34.878s-13.393,35.5-29.287,35.731S-.276,55.232,0,35.734,13.4.238,29.292,0Z" transform="translate(12.407 53.308) rotate(-9.62)" fill="none" stroke="#231f20" stroke-width="2"/>
        <path id="Path_3342" data-name="Path 3342" d="M15.29,0a15.079,15.079,0,0,1,15,15.543C30.211,24.207,23.366,31.294,15,31.374A15.079,15.079,0,0,1,0,15.831C.08,7.168,6.925.08,15.29,0Z" transform="translate(9.847 39.104)" fill="#f0a622" stroke="#231f20" stroke-width="2"/>
        <path id="Path_3343" data-name="Path 3343" d="M15.29,0a15.079,15.079,0,0,1,15,15.543C30.211,24.207,23.366,31.294,15,31.374A15.079,15.079,0,0,1,0,15.831C.08,7.168,6.925.08,15.29,0Z" transform="translate(39.76 33.58)" fill="#f0a622" stroke="#231f20" stroke-width="2"/>
        <path id="Path_20" data-name="Path 20" d="M0,1.381S6.072,1.787,7.479,0c0,0-3.635,5.559-3.257,6.863Z" transform="translate(49.118 119.513)"/>
        <path id="Path_21" data-name="Path 21" d="M40.762,13.516A2.874,2.874,0,0,1,38.6,15.933a2.657,2.657,0,0,1-2.892-1.246,1.785,1.785,0,0,1-.353-.01c-11.479-1.486-22.158,7-23.808,18.92A1.9,1.9,0,0,1,9.47,35.135a1.86,1.86,0,0,1-1.584-2.01c1.941-14.011,14.5-23.989,27.994-22.24a1.832,1.832,0,0,1,.438.115,2.681,2.681,0,0,1,3.082-.328,2.817,2.817,0,0,1,1.366,2.847ZM4.16,36.556a1.785,1.785,0,0,1-1.414.01,1.83,1.83,0,0,1-.986-1.03C-3.29,22.521,2.9,7.475,15.566,2A1.773,1.773,0,0,1,16,1.872,2.808,2.808,0,0,1,18.576,0a2.678,2.678,0,0,1,2.552,1.8,2.936,2.936,0,0,1-.776,3.14,2.679,2.679,0,0,1-3.1.408,1.937,1.937,0,0,1-.314.174A22.438,22.438,0,0,0,5.2,34.05a1.974,1.974,0,0,1-1.034,2.507Z" transform="translate(33.316 0)" fill="#231f20"/>
        <path id="Path_3344" data-name="Path 3344" d="M9.925,0a9.788,9.788,0,0,1,9.737,10.089A10.24,10.24,0,0,1,9.738,20.365,9.788,9.788,0,0,1,0,10.276,10.24,10.24,0,0,1,9.925,0Z" transform="translate(15.346 45.799)" fill="#fff"/>
        <path id="Path_3345" data-name="Path 3345" d="M9.925,0a9.788,9.788,0,0,1,9.737,10.089A10.24,10.24,0,0,1,9.738,20.365,9.788,9.788,0,0,1,0,10.276,10.24,10.24,0,0,1,9.925,0Z" transform="translate(45.075 39.084)" fill="#fff"/>
        <path id="Path_3346" data-name="Path 3346" d="M5.177,0a5.105,5.105,0,0,1,5.079,5.262,5.341,5.341,0,0,1-5.176,5.36A5.105,5.105,0,0,1,0,5.36,5.341,5.341,0,0,1,5.177,0Z" transform="translate(20.049 50.671)" fill="#231f20"/>
        <path id="Path_3347" data-name="Path 3347" d="M5.177,0a5.105,5.105,0,0,1,5.079,5.262,5.341,5.341,0,0,1-5.176,5.36A5.105,5.105,0,0,1,0,5.36,5.341,5.341,0,0,1,5.177,0Z" transform="translate(49.783 43.991)" fill="#231f20"/>
        <line id="Line_5" data-name="Line 5" x2="16.705" y2="17.319" transform="translate(72.176 67.956)" fill="none" stroke="#231f20" stroke-linecap="round" stroke-miterlimit="10" stroke-width="2"/>
        <line id="Line_6" data-name="Line 6" x1="18.864" y1="18.188" transform="translate(0 63.276)" fill="none" stroke="#231f20" stroke-linecap="round" stroke-miterlimit="10" stroke-width="2"/>
        <path id="Path_3348" data-name="Path 3348" d="M1.143,0A1.128,1.128,0,0,1,2.265,1.162,1.18,1.18,0,0,1,1.122,2.346,1.128,1.128,0,0,1,0,1.184,1.18,1.18,0,0,1,1.143,0Z" transform="translate(24.044 54.809)" fill="#fff"/>
        <path id="Path_3349" data-name="Path 3349" d="M1.143,0A1.128,1.128,0,0,1,2.265,1.162,1.18,1.18,0,0,1,1.122,2.346,1.128,1.128,0,0,1,0,1.184,1.18,1.18,0,0,1,1.143,0Z" transform="translate(53.779 48.129)" fill="#fff"/>
        <path id="Path_22" data-name="Path 22" d="M0,1.789,9.217,0S9.052,4.839,5.394,5.681,0,1.789,0,1.789Z" transform="translate(39.001 68.794)" fill="#231f20"/>
      </g>
    </g>
    <g id="crown" transform="matrix(0.891, -0.454, 0.454, 0.891, 105.332, 95.516)">
      <g id="Path_3336" data-name="Path 3336" transform="translate(0 0)" fill="#f0a622">
        <path d="M 5.445132732391357 23.77320671081543 C 4.550752639770508 23.77314567565918 3.806502819061279 23.12559700012207 3.675472736358643 22.23346710205078 L 2.040275573730469 11.13454627990723 C 1.286196827888489 10.92439365386963 0.6063209772109985 10.50305080413818 0.07487276196479797 9.907086372375488 C -0.6354172229766846 9.110576629638672 -1.016937255859375 8.072046279907227 -0.9994072318077087 6.98280668258667 C -0.9611972570419312 4.607106685638428 0.9679527878761292 2.643726587295532 3.300982713699341 2.606116533279419 C 3.324002742767334 2.605746507644653 3.346572875976562 2.605566501617432 3.369492769241333 2.605566501617432 C 4.486082553863525 2.605566501617432 5.531262874603271 3.042786598205566 6.312492847442627 3.836696624755859 C 7.113982677459717 4.651186466217041 7.545042991638184 5.742546558380127 7.526262760162354 6.909746646881104 C 7.522969722747803 7.096401214599609 7.507913589477539 7.282036304473877 7.481235980987549 7.465935230255127 L 9.506672859191895 8.763556480407715 C 9.976033210754395 9.064966201782227 10.5197925567627 9.223976135253906 11.08003234863281 9.223976135253906 C 12.0299129486084 9.223976135253906 12.92970275878906 8.783116340637207 13.54870319366455 8.014436721801758 L 15.76631355285645 5.256350040435791 C 15.49723243713379 4.674758434295654 15.35843849182129 4.028838634490967 15.3685131072998 3.37843656539917 C 15.40634250640869 1.00231659412384 17.33521270751953 -0.9613734483718872 19.66828346252441 -0.9994034171104431 C 19.69145202636719 -0.9997734427452087 19.7144832611084 -0.9999634623527527 19.7375431060791 -0.9999634623527527 C 20.85401344299316 -0.9999634623527527 21.89910316467285 -0.5628434419631958 22.6802921295166 0.2308865636587143 C 23.48173332214355 1.045196533203125 23.91287231445312 2.136396646499634 23.8942928314209 3.303486585617065 C 23.88351058959961 3.962985277175903 23.7282772064209 4.602134704589844 23.44033050537109 5.186275959014893 L 25.55271339416504 7.85012674331665 C 26.10836219787598 8.549976348876953 26.94161224365234 8.951606750488281 27.83844184875488 8.951576232910156 C 28.44065284729004 8.951556205749512 29.03300285339355 8.770216941833496 29.55147361755371 8.427166938781738 L 31.66086578369141 7.034664630889893 C 31.63787269592285 6.842923164367676 31.62766647338867 6.649168014526367 31.6303825378418 6.454326629638672 C 31.66823196411133 4.076636791229248 33.59710311889648 2.112936496734619 35.93019104003906 2.074926614761353 C 35.95256423950195 2.074606657028198 35.97269439697266 2.074456453323364 35.99310302734375 2.074456453323364 C 37.05630111694336 2.074456453323364 38.06537246704102 2.47611665725708 38.83444213867188 3.205446481704712 C 39.59905242919922 3.930536508560181 40.0625114440918 4.92021656036377 40.13945388793945 5.992176532745361 C 40.29005432128906 8.089583396911621 38.92560958862305 10.00072383880615 36.9915885925293 10.57865810394287 L 34.99337387084961 21.78546714782715 C 34.83776092529297 22.66039657592773 34.08777236938477 23.30635643005371 33.21014404296875 23.32096672058105 L 5.474332809448242 23.77297592163086 L 5.445132732391357 23.77320671081543 Z" stroke="none"/>
        <path d="M 19.7375602722168 3.4332275390625e-05 C 19.71992492675781 3.4332275390625e-05 19.70229148864746 0.0001773834228515625 19.68458366394043 0.0004673004150390625 C 17.88249206542969 0.02983665466308594 16.39776229858398 1.549165725708008 16.36839294433594 3.393926620483398 C 16.35741233825684 4.102636337280273 16.56959342956543 4.788785934448242 16.97336196899414 5.350996017456055 L 14.32756233215332 8.641626358032227 C 13.49613761901855 9.674103736877441 12.2889518737793 10.22397422790527 11.08003234863281 10.22397422790527 C 10.34880828857422 10.22397422790527 9.616950988769531 10.02280330657959 8.967222213745117 9.605576515197754 L 6.346874237060547 7.926816940307617 C 6.459613800048828 7.592556953430176 6.520214080810547 7.243856430053711 6.526393890380859 6.893656730651855 C 6.555782318115234 5.066892623901367 5.146862030029297 3.605554580688477 3.369472503662109 3.605554580688477 C 3.351943969726562 3.605554580688477 3.334701538085938 3.605693817138672 3.317104339599609 3.605976104736328 C 1.515102386474609 3.635036468505859 0.03013229370117188 5.154146194458008 0.000461578369140625 6.998896598815918 C -0.02741622924804688 8.730636596679688 1.242191314697266 10.15434646606445 2.924934387207031 10.27838611602783 L 4.664852142333984 22.0881462097168 C 4.723194122314453 22.4853687286377 5.052139282226562 22.7731990814209 5.445194244384766 22.7731990814209 C 5.449485778808594 22.7731990814209 5.4537353515625 22.77316474914551 5.458042144775391 22.77309608459473 L 33.1934928894043 22.32110595703125 C 33.59222412109375 22.31446647644043 33.93710327148438 22.01362609863281 34.00890350341797 21.60992622375488 L 36.12582397460938 9.737316131591797 C 37.9233512878418 9.543256759643555 39.27375411987305 7.89854621887207 39.14201354980469 6.063766479492188 C 39.0198974609375 4.362270355224609 37.65862655639648 3.074586868286133 35.99310684204102 3.074460983276367 C 35.97750854492188 3.074459075927734 35.96213150024414 3.07457160949707 35.94648361206055 3.074796676635742 C 34.14439392089844 3.104156494140625 32.65965270996094 4.623476028442383 32.63028335571289 6.468255996704102 C 32.62540435791016 6.818426132202148 32.67492294311523 7.165336608886719 32.77700424194336 7.496096611022949 L 30.1032829284668 9.261137008666992 C 29.40034866333008 9.726240158081055 28.61265182495117 9.951577186584473 27.8384838104248 9.951577186584473 C 26.67379951477051 9.951577186584473 25.5395565032959 9.441778182983398 24.76917266845703 8.471467018127441 L 22.2268123626709 5.265377044677734 C 22.6486930847168 4.689716339111328 22.88283348083496 3.996286392211914 22.89442253112793 3.287567138671875 C 22.92350387573242 1.460933685302734 21.51472473144531 3.4332275390625e-05 19.7375602722168 3.4332275390625e-05 M 19.73756217956543 -1.999963760375977 C 21.12414360046387 -1.999963760375977 22.42233276367188 -1.456813812255859 23.39300155639648 -0.4705734252929688 C 24.3839225769043 0.5362472534179688 24.91705322265625 1.882226943969727 24.89417266845703 3.319406509399414 C 24.88455581665039 3.907400131225586 24.7813835144043 4.4820556640625 24.59024429321289 5.026947021484375 L 26.33626174926758 7.22879695892334 C 26.70068359375 7.687796592712402 27.24849319458008 7.951576232910156 27.83848190307617 7.951576232910156 C 28.24379348754883 7.951576232910156 28.64532279968262 7.827646255493164 28.99967193603516 7.593186378479004 L 30.62994956970215 6.516971588134766 C 30.62994384765625 6.491453170776367 30.63011741638184 6.465932846069336 30.63047409057617 6.440385818481445 C 30.65291213989258 5.030656814575195 31.20788192749023 3.701187133789062 32.19321441650391 2.692907333374023 C 33.19042205810547 1.672466278076172 34.51178359985352 1.097906112670898 35.91390228271484 1.075065612792969 C 35.94261169433594 1.074636459350586 35.96768188476562 1.074457168579102 35.99310302734375 1.074457168579102 C 37.31355285644531 1.074556350708008 38.56693267822266 1.573677062988281 39.52253341674805 2.479866027832031 C 40.46871185302734 3.377126693725586 41.04203414916992 4.599065780639648 41.13688278198242 5.920585632324219 C 41.23744201660156 7.321066856384277 40.79928207397461 8.693476676940918 39.90313339233398 9.784946441650391 C 39.34601593017578 10.46347522735596 38.65171432495117 10.98563957214355 37.87487411499023 11.32167434692383 L 35.97785186767578 21.96099662780762 C 35.73873138427734 23.30545616149902 34.58168411254883 24.29826736450195 33.22679138183594 24.32082748413086 L 5.490631103515625 24.7728271484375 C 5.475311279296875 24.7730770111084 5.460323333740234 24.77319717407227 5.445194244384766 24.77319717407227 C 4.050224304199219 24.77319717407227 2.889854431152344 23.76619720458984 2.686080932617188 22.3787670135498 L 1.138725280761719 11.87603378295898 C 0.4541168212890625 11.58390808105469 -0.1632614135742188 11.14255237579346 -0.671478271484375 10.57263660430908 C -1.549308776855469 9.58824634552002 -2.020866394042969 8.307636260986328 -1.999279022216797 6.966706275939941 C -1.976665496826172 5.560997009277344 -1.421497344970703 4.231626510620117 -0.4360389709472656 3.223506927490234 C 0.5613212585449219 2.203207015991211 1.882762908935547 1.628847122192383 3.28485107421875 1.606237411499023 C 3.313583374023438 1.605775833129883 3.341293334960938 1.605556488037109 3.369472503662109 1.605556488037109 C 4.756221771240234 1.605556488037109 6.054531097412109 2.148826599121094 7.025260925292969 3.135295867919922 C 8.016242980957031 4.14234733581543 8.549263000488281 5.488515853881836 8.526132583618164 6.925827026367188 C 8.526004791259766 6.933032989501953 8.525863647460938 6.94025993347168 8.525707244873047 6.947463989257812 L 10.04612350463867 7.921536445617676 C 10.3548526763916 8.119796752929688 10.71175193786621 8.223976135253906 11.08003234863281 8.223976135253906 C 11.72571182250977 8.223976135253906 12.34162330627441 7.918996810913086 12.76984214782715 7.387236595153809 L 14.62575721740723 5.078994750976562 C 14.4482307434082 4.528480529785156 14.35958671569824 3.947011947631836 14.36863327026367 3.362947463989258 C 14.39102363586426 1.956336975097656 14.94599342346191 0.6268672943115234 15.93131256103516 -0.3814125061035156 C 16.92851257324219 -1.401853561401367 18.2498836517334 -1.976413726806641 19.65199279785156 -1.999263763427734 C 19.68049240112305 -1.999732971191406 19.70902252197266 -1.999963760375977 19.73756217956543 -1.999963760375977 Z" stroke="none" fill="#f8f8f8"/>
      </g>
      <path id="Path_3350" data-name="Path 3350" d="M14.968.007C23.2-.127,29.84,1.634,29.8,3.94S23.065,8.224,14.835,8.358-.037,6.731,0,4.425,6.738.141,14.968.007Z" transform="translate(4.437 17.53)" fill="#f0a622" stroke="#f8f8f8" stroke-width="2"/>
      <path id="Path_3337" data-name="Path 3337" d="M16.153,11.09C8.081,11.222-.058,9.452,0,5.813S8.258.138,16.329.007s16.21,1.638,16.152,5.277S24.224,10.959,16.153,11.09ZM16.3,1.854C6.822,2.009,1.825,4.491,1.8,5.784S6.7,9.4,16.182,9.243s14.474-2.637,14.495-3.93S25.777,1.7,16.3,1.854Z" transform="translate(3.098 16.164)" fill="none"/>
    </g>
    <g id="crown-2" data-name="crown" transform="matrix(0.995, 0.105, -0.105, 0.995, 61.868, 86.913)">
      <g id="Path_3336-2" data-name="Path 3336" transform="translate(0 0)" fill="#f0a622">
        <path d="M 13.07106685638428 9.454205513000488 L 13.07010746002197 9.454205513000488 L 13.06794738769531 9.454205513000488 L 2.250477075576782 9.408555030822754 C 1.849177122116089 9.406715393066406 1.510227084159851 9.113585472106934 1.44435703754425 8.711555480957031 L 0.7281226515769958 4.352095127105713 C 0.009357274509966373 4.11237096786499 -0.4968389868736267 3.424749612808228 -0.4999929070472717 2.615635395050049 C -0.5019128918647766 2.119575500488281 -0.3134829103946686 1.656155467033386 0.03060708194971085 1.310725450515747 C 0.3611970841884613 0.9788454174995422 0.7985070943832397 0.7960754632949829 1.261967062950134 0.7960754632949829 L 1.269637107849121 0.7960854172706604 C 2.244807004928589 0.8003954291343689 3.041326999664307 1.619905471801758 3.045247077941895 2.622915506362915 C 3.045383930206299 2.682327032089233 3.042711496353149 2.741460084915161 3.037255764007568 2.800169944763184 L 3.794996976852417 3.302525520324707 C 3.971626996994019 3.419885396957397 4.173656940460205 3.481765508651733 4.379677295684814 3.481755495071411 C 4.702147006988525 3.481755495071411 5.00456714630127 3.332305431365967 5.209397315979004 3.071735382080078 L 6.010416984558105 2.051067352294922 C 5.910974025726318 1.822524547576904 5.858826637268066 1.575029015541077 5.857686996459961 1.320065498352051 C 5.855667114257812 0.8237654566764832 6.04405689239502 0.3602854311466217 6.388156890869141 0.01478544529527426 C 6.718767166137695 -0.3171745538711548 7.156126976013184 -0.4999945461750031 7.619657039642334 -0.4999945461750031 L 7.627047061920166 -0.4999845623970032 C 8.60219669342041 -0.4958745539188385 9.398857116699219 0.3234954476356506 9.402936935424805 1.32653546333313 C 9.403864860534668 1.581940650939941 9.353621482849121 1.829517483711243 9.255827903747559 2.057878017425537 L 10.06766700744629 3.088525533676147 C 10.27866744995117 3.356075525283813 10.58784675598145 3.509635448455811 10.91575717926025 3.509625434875488 C 11.1179370880127 3.509615421295166 11.3153772354126 3.449835538864136 11.48670673370361 3.336745500564575 L 12.23528575897217 2.843864679336548 C 12.22958946228027 2.786473989486694 12.22655487060547 2.728734731674194 12.22620677947998 2.670815467834473 C 12.22418689727783 2.173765420913696 12.41257667541504 1.710285425186157 12.75667667388916 1.364785432815552 C 13.0872974395752 1.032825469970703 13.5246467590332 0.8500054478645325 13.98817729949951 0.8500054478645325 L 13.99556732177734 0.8500154614448547 C 14.91755676269531 0.8556854724884033 15.67633724212646 1.571625471115112 15.7615270614624 2.515365362167358 C 15.80623722076416 3.01058554649353 15.65790748596191 3.490335464477539 15.34387683868408 3.866255521774292 C 15.13154315948486 4.120420455932617 14.86007976531982 4.305405616760254 14.55663776397705 4.406928539276123 L 13.87643718719482 8.756265640258789 C 13.81339740753174 9.160585403442383 13.47467708587646 9.454205513000488 13.07106685638428 9.454205513000488 Z" stroke="none"/>
        <path d="M 7.619654178619385 4.76837158203125e-06 C 6.919241905212402 4.76837158203125e-06 6.354714393615723 0.5888843536376953 6.357677459716797 1.317825317382812 C 6.35893726348877 1.598565578460693 6.447076797485352 1.872175216674805 6.608997344970703 2.098225593566895 L 5.602486610412598 3.380725383758545 C 5.29331111907959 3.774050712585449 4.840423583984375 3.981758594512939 4.379688262939453 3.981758594512939 C 4.083965301513672 3.981758594512939 3.785030364990234 3.896212100982666 3.518716812133789 3.719265460968018 L 2.483277320861816 3.032805442810059 C 2.524646759033203 2.901265621185303 2.545567512512207 2.763575553894043 2.545247077941895 2.624865531921387 C 2.542397499084473 1.894095420837402 1.970327377319336 1.299185276031494 1.267447471618652 1.296085357666016 C 1.265645027160645 1.296077728271484 1.263769149780273 1.296073436737061 1.261968612670898 1.296073436737061 C 0.5616550445556641 1.296073436737061 -0.002825736999511719 1.884798526763916 6.67572021484375e-06 2.613685607910156 C 0.002676963806152344 3.299665451049805 0.5091371536254883 3.874115467071533 1.166617393493652 3.936905384063721 L 1.937777519226074 8.630705833435059 C 1.963927268981934 8.790305137634277 2.097066879272461 8.907845497131348 2.25258731842041 8.908555030822754 L 13.06987762451172 8.954205513000488 C 13.07027626037598 8.954207420349121 13.07067489624023 8.954207420349121 13.07107353210449 8.954207420349121 C 13.22606563568115 8.954207420349121 13.35765075683594 8.837986946105957 13.38243675231934 8.67900562286377 L 14.11551666259766 3.991545677185059 C 14.81529712677002 3.929215431213379 15.3292875289917 3.288425445556641 15.26354694366455 2.560315608978271 C 15.20202732086182 1.87876558303833 14.65135669708252 1.354055404663086 13.99345684051514 1.350015640258789 C 13.99169826507568 1.350008010864258 13.98993110656738 1.350004196166992 13.98817443847656 1.350004196166992 C 13.28776168823242 1.34999942779541 12.72323417663574 1.938884258270264 12.72619724273682 2.667825222015381 C 12.72702693939209 2.806545257568359 12.74905681610107 2.94441556930542 12.79147720336914 3.076305389404297 L 11.7621374130249 3.754045486450195 C 11.50104331970215 3.926373481750488 11.2073860168457 4.009621620178223 10.91577911376953 4.009621620178223 C 10.45046520233154 4.009621620178223 9.990240097045898 3.797783374786377 9.674886703491211 3.397915363311768 L 8.657937049865723 2.106875419616699 C 8.818027496337891 1.882185459136963 8.903957366943359 1.609305381774902 8.902936935424805 1.328555583953857 C 8.899967193603516 0.5977954864501953 8.327776908874512 0.0029754638671875 7.624937057495117 1.52587890625e-05 C 7.623178005218506 7.62939453125e-06 7.621411323547363 4.76837158203125e-06 7.619654178619385 4.76837158203125e-06 M 7.619657039642334 -0.9999942779541016 L 7.630617141723633 -0.999964714050293 C 8.877727508544922 -0.9947147369384766 9.897737503051758 0.04803562164306641 9.902927398681641 1.324495315551758 C 9.903724670410156 1.543369770050049 9.874900817871094 1.757820129394531 9.817875862121582 1.963376998901367 L 10.46044731140137 2.779135227203369 C 10.57583713531494 2.925445556640625 10.74192714691162 3.009625434875488 10.9157772064209 3.009625434875488 C 11.02119731903076 3.009625434875488 11.1206169128418 2.97928524017334 11.21126747131348 2.919455528259277 L 11.72764301300049 2.579464912414551 C 11.74812316894531 1.983362197875977 11.98569679260254 1.430377006530762 12.40242767333984 1.011955261230469 C 12.8275671005249 0.5850954055786133 13.39071655273438 0.3500051498413086 13.98815727233887 0.3500051498413086 L 13.99913692474365 0.3500356674194336 C 15.17949676513672 0.3572750091552734 16.15103721618652 1.268845558166504 16.25949668884277 2.470415592193604 C 16.31622695922852 3.098745346069336 16.12732696533203 3.708315372467041 15.7275972366333 4.18681526184082 C 15.52496910095215 4.429360866546631 15.28018569946289 4.622864723205566 15.00751876831055 4.759822845458984 L 14.37042713165283 8.833515167236328 C 14.26919746398926 9.482705116271973 13.72271728515625 9.954205513000488 13.07107734680176 9.954205513000488 L 13.06896686553955 9.954205513000488 L 13.0656566619873 9.954195022583008 L 2.248367309570312 9.90854549407959 C 1.601926803588867 9.905595779418945 1.056417465209961 9.436185836791992 0.9509372711181641 8.79239559173584 L 0.2797231674194336 4.706938743591309 C -0.4823427200317383 4.328368663787842 -0.9964141845703125 3.53411865234375 -0.9999828338623047 2.617575645446777 C -1.002433776855469 1.987595558166504 -0.7622337341308594 1.398165225982666 -0.3236331939697266 0.9578652381896973 C 0.1014766693115234 0.5311050415039062 0.6645870208740234 0.2960758209228516 1.261966705322266 0.2960758209228516 L 1.273007392883301 0.2961053848266602 C 2.492561340332031 0.3014822006225586 3.49458122253418 1.298503398895264 3.543394088745117 2.535828113555908 L 4.071276664733887 2.885795593261719 C 4.166056632995605 2.948765277862549 4.272407531738281 2.981755256652832 4.379687309265137 2.981755256652832 C 4.547746658325195 2.981755256652832 4.706887245178223 2.901925563812256 4.81629753112793 2.762735366821289 L 5.447307586669922 1.958697319030762 C 5.389019966125488 1.753778457641602 5.358667373657227 1.540163516998291 5.357686996459961 1.322315216064453 C 5.355127334594727 0.6918554306030273 5.595276832580566 0.1023454666137695 6.033886909484863 -0.3380546569824219 C 6.459016799926758 -0.7649145126342773 7.022187232971191 -0.9999942779541016 7.619657039642334 -0.9999942779541016 Z" stroke="none" fill="#f8f8f8"/>
      </g>
      <path id="Path_3351" data-name="Path 3351" d="M5.805,0c3.21.014,5.815.765,5.819,1.678s-2.6,1.643-5.805,1.629S0,2.543,0,1.63,2.6-.013,5.805,0Z" transform="translate(1.848 6.946)" fill="#f0a622" stroke="#f8f8f8" stroke-width="1"/>
      <path id="Path_3337-2" data-name="Path 3337" d="M6.343,4.391C3.195,4.377.006,3.61,0,2.169S3.177-.013,6.325,0s6.337.78,6.343,2.222S9.491,4.4,6.343,4.391ZM6.328.732C2.632.716.7,1.659.7,2.172S2.644,3.643,6.34,3.659s5.626-.927,5.624-1.44S10.024.748,6.328.732Z" transform="translate(1.326 6.405)" fill="none"/>
    </g>
    <g id="crown-3" data-name="crown" transform="matrix(0.966, 0.259, -0.259, 0.966, -112.108, 47.927)">
      <g id="Path_3336-3" data-name="Path 3336" transform="translate(0 0)" fill="#f0a622">
        <path d="M 26.23191070556641 18.46987533569336 C 26.23187637329102 18.46987533569336 26.23190307617188 18.46987533569336 26.23187065124512 18.46987533569336 L 26.23090934753418 18.46987533569336 L 26.22752952575684 18.46987533569336 L 4.518539905548096 18.37825584411621 C 3.959999799728394 18.37567520141602 3.487749814987183 17.96488571166992 3.395439863204956 17.4014949798584 L 1.90597927570343 8.335630416870117 C 1.29173743724823 8.193984031677246 0.7326509952545166 7.860295295715332 0.3027897775173187 7.372725486755371 C -0.2118202149868011 6.78902530670166 -0.4969201982021332 6.034185409545898 -0.4999802112579346 5.247235298156738 C -0.5033302307128906 4.386575222015381 -0.1772902011871338 3.583425521850586 0.4180797934532166 2.985735416412354 C 0.9863597750663757 2.41523551940918 1.737309813499451 2.101045370101929 2.532569885253906 2.101045370101929 L 2.545799732208252 2.101065397262573 C 4.227499961853027 2.108485460281372 5.601179599761963 3.528175354003906 5.607959747314453 5.265785217285156 C 5.608429431915283 5.467639923095703 5.590160369873047 5.667789459228516 5.553472518920898 5.864315509796143 L 7.337879657745361 7.047305583953857 C 7.774739742279053 7.337575435638428 8.27653980255127 7.490845203399658 8.789449691772461 7.490835189819336 C 9.592049598693848 7.490825653076172 10.34321975708008 7.120805263519287 10.85034942626953 6.475655555725098 L 12.65310382843018 4.178585052490234 C 12.39670658111572 3.712123155593872 12.26143074035645 3.189427375793457 12.25899982452393 2.64693546295166 C 12.25549983978271 1.785985469818115 12.58148002624512 0.9827353954315186 13.1768798828125 0.3849154114723206 C 13.74520969390869 -0.1857345849275589 14.49623966217041 -0.4999945759773254 15.29160976409912 -0.4999945759773254 L 15.30431938171387 -0.4999745786190033 C 16.98601913452148 -0.4928745925426483 18.35993003845215 0.9265754222869873 18.36697959899902 2.664215326309204 C 18.36891937255859 3.198255777359009 18.23476791381836 3.72909688949585 17.98448181152344 4.193538188934326 L 19.80897903442383 6.509765625 C 20.32868003845215 7.168755531311035 21.09325981140137 7.546815395355225 21.90649032592773 7.546775341033936 C 22.41111946105957 7.546745300292969 22.90321922302246 7.397985458374023 23.32958984375 7.116575241088867 L 25.09853553771973 5.951852798461914 C 25.06066513061523 5.75623083114624 25.04096794128418 5.557285308837891 25.03976058959961 5.356995582580566 C 25.0362606048584 4.495275497436523 25.36223983764648 3.692015409469604 25.95763969421387 3.094195365905762 C 26.52597045898438 2.523545503616333 27.27700042724609 2.209285497665405 28.0723705291748 2.209285497665405 L 28.08507919311523 2.20930552482605 C 29.67375946044922 2.219065427780151 30.98230934143066 3.458895444869995 31.12985038757324 5.093265533447266 C 31.20747947692871 5.953055381774902 30.95067024230957 6.785155296325684 30.40674018859863 7.436275482177734 C 29.97530364990234 7.95271635055542 29.40280723571777 8.303047180175781 28.76576995849609 8.446922302246094 L 27.35074996948242 17.49484634399414 C 27.26266479492188 18.05970001220703 26.79208564758301 18.46987533569336 26.23191070556641 18.46987533569336 Z" stroke="none"/>
        <path d="M 15.2916088104248 3.814697265625e-06 C 13.88599014282227 3.814697265625e-06 12.75305557250977 1.181816101074219 12.75898933410645 2.644685745239258 C 12.76152038574219 3.208095550537109 12.93840980529785 3.757205009460449 13.26337051391602 4.210855484008789 L 11.24344062805176 6.784655570983887 C 10.62296295166016 7.574004173278809 9.714090347290039 7.990839004516602 8.789457321166992 7.990839004516602 C 8.19598388671875 7.990839004516602 7.596052169799805 7.819154739379883 7.061599731445312 7.464045524597168 L 4.983600616455078 6.08641529083252 C 5.066629409790039 5.822445869445801 5.108610153198242 5.546125411987305 5.107959747314453 5.267735481262207 C 5.102239608764648 3.801185607910156 3.954170227050781 2.607285499572754 2.543600082397461 2.601065635681152 C 2.539983749389648 2.601049423217773 2.536184310913086 2.601040840148926 2.532571792602539 2.601040840148926 C 1.12712287902832 2.601040840148926 -0.00567626953125 3.782525062561035 1.9073486328125e-05 5.245295524597168 C 0.005369186401367188 6.621974945068359 1.021770477294922 7.774815559387207 2.341239929199219 7.900815010070801 L 3.888860702514648 17.32064628601074 C 3.941339492797852 17.64094543457031 4.208539962768555 17.87681579589844 4.520648956298828 17.87825584411621 L 26.22946929931641 17.96987533569336 C 26.23027038574219 17.96987915039062 26.23108291625977 17.96987915039062 26.23188400268555 17.96987915039062 C 26.54294204711914 17.96987915039062 26.80699729919434 17.73663520812988 26.85675048828125 17.4175853729248 L 28.32793045043945 8.010495185852051 C 29.73229026794434 7.885405540466309 30.76380920410156 6.599435806274414 30.63187026977539 5.138215065002441 C 30.50839996337891 3.770445823669434 29.40328979492188 2.717415809631348 28.08296966552734 2.709305763244629 C 28.07944107055664 2.709290504455566 28.07589530944824 2.709282875061035 28.07236862182617 2.709282875061035 C 26.66675186157227 2.709273338317871 25.53381538391113 3.891085624694824 25.53974914550781 5.353975296020508 C 25.54142951965332 5.632365226745605 25.58563995361328 5.909045219421387 25.6707592010498 6.173735618591309 L 23.60501861572266 7.533875465393066 C 23.08103942871094 7.87971019744873 22.49172782897949 8.046771049499512 21.9065113067627 8.046771049499512 C 20.97268676757812 8.046771049499512 20.04905891418457 7.62163257598877 19.41619110107422 6.819155693054199 L 17.37530899047852 4.228205680847168 C 17.69659042358398 3.777285575866699 17.8690299987793 3.229655265808105 17.86697959899902 2.666234970092773 C 17.86103057861328 1.199705123901367 16.71271896362305 0.005975723266601562 15.30220985412598 2.47955322265625e-05 C 15.29868030548096 1.1444091796875e-05 15.29513454437256 3.814697265625e-06 15.2916088104248 3.814697265625e-06 M 15.29160976409912 -0.9999942779541016 L 15.30503940582275 -0.9999752044677734 C 17.26155853271484 -0.9917144775390625 18.85881042480469 0.6511154174804688 18.86697006225586 2.662175178527832 C 18.86883544921875 3.17498779296875 18.76784133911133 3.672008514404297 18.57123374938965 4.130393981933594 L 20.20174980163574 6.200375556945801 C 20.62582969665527 6.738105773925781 21.2473201751709 7.046775817871094 21.90650939941406 7.046775817871094 C 22.31287002563477 7.046775817871094 22.70972061157227 6.926605224609375 23.05416870117188 6.699265480041504 L 24.55818176269531 5.708986282348633 C 24.54662895202637 5.593242645263672 24.54047584533691 5.476821899414062 24.53977012634277 5.360005378723145 C 24.53572082519531 4.363415718078613 24.91345977783203 3.434135437011719 25.6033992767334 2.741394996643066 C 26.26626968383789 2.075825691223145 27.14308929443359 1.709285736083984 28.07234954833984 1.709285736083984 L 28.08580017089844 1.709304809570312 C 28.98342895507812 1.714815139770508 29.83824920654297 2.063075065612793 30.49608993530273 2.689945220947266 C 31.14438056945801 3.307695388793945 31.54629898071289 4.145245552062988 31.6278190612793 5.048305511474609 C 31.71747016906738 6.041214942932129 31.42008972167969 7.003135681152344 30.79046058654785 7.756834983825684 C 30.36427116394043 8.267000198364258 29.81932258605957 8.63812255859375 29.21011924743652 8.841520309448242 L 27.84473991394043 17.57209587097168 C 27.71847915649414 18.3818359375 27.04014015197754 18.96987533569336 26.23188018798828 18.96987533569336 L 26.22977066040039 18.96987533569336 L 26.22525024414062 18.9698657989502 L 4.516429901123047 18.87824630737305 C 3.712730407714844 18.87453460693359 3.033939361572266 18.2874755859375 2.902019500732422 17.48233604431152 L 1.464010238647461 8.729671478271484 C 0.8787803649902344 8.532683372497559 0.3494434356689453 8.181707382202148 -0.07226943969726562 7.703385353088379 C -0.6669807434082031 7.028835296630859 -0.9964408874511719 6.157245635986328 -0.999969482421875 5.249185562133789 C -1.003850936889648 4.254605293273926 -0.6260509490966797 3.325445175170898 0.06382942199707031 2.632875442504883 C 0.7266292572021484 1.967485427856445 1.603370666503906 1.601045608520508 2.532569885253906 1.601045608520508 L 2.54911994934082 1.601085662841797 C 4.503129959106445 1.609695434570312 6.100109100341797 3.252805709838867 6.107950210571289 5.263834953308105 C 6.108230590820312 5.383641242980957 6.102813720703125 5.502900123596191 6.091751098632812 5.621279716491699 L 7.614160537719727 6.630575180053711 C 7.969169616699219 6.866455078125 8.375289916992188 6.990835189819336 8.789459228515625 6.990835189819336 C 9.437650680541992 6.990835189819336 10.04553985595703 6.690435409545898 10.45726013183594 6.166665077209473 L 12.0660572052002 4.116720199584961 C 11.86612510681152 3.657957077026367 11.76129531860352 3.161097526550293 11.75899887084961 2.649175643920898 C 11.75495910644531 1.654085159301758 12.1326904296875 0.7248058319091797 12.82259941101074 0.03208541870117188 C 13.48545074462891 -0.6334648132324219 14.3622989654541 -0.9999942779541016 15.29160976409912 -0.9999942779541016 Z" stroke="none" fill="#f8f8f8"/>
      </g>
      <path id="Path_3351-2" data-name="Path 3351" d="M11.65,0c6.442.027,11.67,1.535,11.677,3.368s-5.209,3.3-11.65,3.27S.007,5.1,0,3.27,5.209-.027,11.65,0Z" transform="translate(3.709 13.941)" fill="#f0a622" stroke="#f8f8f8" stroke-width="1"/>
      <path id="Path_3337-3" data-name="Path 3337" d="M12.73,8.811C6.412,8.785.012,7.245,0,4.352S6.376-.026,12.694,0,25.412,1.567,25.423,4.46,19.047,8.838,12.73,8.811ZM12.7,1.469C5.282,1.438,1.408,3.33,1.412,4.358S5.306,7.312,12.724,7.343,24.015,5.482,24.011,4.454,20.118,1.5,12.7,1.469Z" transform="translate(2.661 12.854)" fill="none"/>
    </g>
    <g id="crown-4" data-name="crown" transform="translate(30.618 54.08) rotate(-25)">
      <g id="Path_3336-4" data-name="Path 3336" transform="translate(0 0)" fill="#f0a622">
        <path d="M 6.899757385253906 29.83155059814453 C 5.901187419891357 29.83149147033691 5.069657325744629 29.10691070556641 4.922547340393066 28.1086597442627 L 2.818081140518188 13.87114810943604 C 1.847008109092712 13.63517475128174 0.9700178503990173 13.11068630218506 0.2932271957397461 12.35018062591553 C -0.560312807559967 11.3910608291626 -1.019362807273865 10.14034080505371 -0.9993628263473511 8.828411102294922 C -0.9557127952575684 5.96056079864502 1.364947199821472 3.592470645904541 4.173777103424072 3.549570560455322 C 4.199887275695801 3.549170732498169 4.22564697265625 3.548970699310303 4.251657009124756 3.548970699310303 C 5.590617179870605 3.548970699310303 6.844847202301025 4.07373046875 7.783297061920166 5.026580810546875 C 8.749776840209961 6.007870674133301 9.270227432250977 7.32412052154541 9.248777389526367 8.732851028442383 C 9.244033813476562 9.015361785888672 9.216940879821777 9.296103477478027 9.167866706848145 9.573146820068359 L 11.87743759155273 11.31435108184814 C 12.51455688476562 11.72472095489502 13.25250720977783 11.941330909729 14.01239681243896 11.94132041931152 C 15.29112720489502 11.94130039215088 16.50086784362793 11.34828090667725 17.33141708374023 10.31430053710938 L 20.23681640625 6.691695213317871 C 19.86595344543457 5.953494071960449 19.67289352416992 5.120273590087891 19.68517684936523 4.280760765075684 C 19.72836685180664 1.412480592727661 22.04870796203613 -0.9559893608093262 24.85759735107422 -0.9993893504142761 C 24.88405799865723 -0.999799370765686 24.91003799438477 -0.9999993443489075 24.93639755249023 -0.9999993443489075 C 26.27511787414551 -0.9999993443489075 27.52920722961426 -0.4753393530845642 28.46764755249023 0.4773306548595428 C 29.43409729003906 1.458450675010681 29.95466804504395 2.774480581283569 29.93345642089844 4.183000564575195 C 29.92026329040527 5.035008907318115 29.70743942260742 5.858978271484375 29.31237602233887 6.603343486785889 L 32.09269714355469 10.11601066589355 C 32.84753799438477 11.06850051879883 33.97805786132812 11.61502075195312 35.19400787353516 11.61496067047119 C 36.00533676147461 11.61493110656738 36.80244827270508 11.37090110778809 37.4991455078125 10.90927028656006 L 40.30202865600586 9.056352615356445 C 40.25876998901367 8.772603988647461 40.23888397216797 8.484708786010742 40.24267578125 8.19481086730957 C 40.28589630126953 5.324960708618164 42.60623550415039 2.956490755081177 45.41511535644531 2.913090705871582 C 45.44001770019531 2.912750720977783 45.46297836303711 2.912590742111206 45.48590850830078 2.912590742111206 C 46.76295852661133 2.912590742111206 47.97524642944336 3.396010637283325 48.89946746826172 4.273790836334229 C 49.81874847412109 5.146870613098145 50.37654876708984 6.338980674743652 50.47010803222656 7.630510807037354 C 50.57013702392578 9.010991096496582 50.13938903808594 10.36447048187256 49.25718688964844 11.44160079956055 C 48.53807067871094 12.31960964202881 47.58794403076172 12.93061256408691 46.52828598022461 13.20816898345947 L 43.9856071472168 27.56425094604492 C 43.81173706054688 28.54831123352051 42.97109603881836 29.27412986755371 41.9868278503418 29.28968048095703 L 6.930597305297852 29.8313102722168 L 6.899757385253906 29.83155059814453 Z" stroke="none"/>
        <path d="M 24.93639183044434 1.9073486328125e-06 C 24.91520309448242 1.9073486328125e-06 24.89431762695312 0.0001621246337890625 24.873046875 0.0004901885986328125 C 22.59531784057617 0.03568077087402344 20.72025680541992 1.958600997924805 20.68506813049316 4.295381546020508 C 20.67193794250488 5.193120956420898 20.94083786010742 6.062530517578125 21.45176696777344 6.775150299072266 L 18.11104774475098 10.9405403137207 C 17.06227111816406 12.2461986541748 15.53892135620117 12.94131851196289 14.01240158081055 12.94131851196289 C 13.086669921875 12.94131851196289 12.15980911254883 12.68571281433105 11.33681869506836 12.15562057495117 L 8.023056030273438 10.02614974975586 C 8.165206909179688 9.602870941162109 8.241436004638672 9.161220550537109 8.248886108398438 8.717630386352539 C 8.284149169921875 6.40235710144043 6.499965667724609 4.548973083496094 4.251659393310547 4.548973083496094 C 4.230747222900391 4.548973083496094 4.210041046142578 4.549129486083984 4.189048767089844 4.549449920654297 C 1.911426544189453 4.584239959716797 0.0360870361328125 6.506879806518555 0.000507354736328125 8.843650817871094 C -0.0329132080078125 11.03727149963379 1.573295593261719 12.84215068817139 3.700347900390625 13.00114059448242 L 5.911876678466797 27.96287155151367 C 5.986072540283203 28.46643447875977 6.402603149414062 28.83154678344727 6.899822235107422 28.83154678344727 C 6.904941558837891 28.83154678344727 6.910011291503906 28.83150863647461 6.915145874023438 28.83143043518066 L 41.97103881835938 28.2898006439209 C 42.47501754760742 28.28184127807617 42.91059875488281 27.9011402130127 43.00093841552734 27.38985061645508 L 45.66422653198242 12.35279083251953 C 47.93600845336914 12.10898017883301 49.64114761352539 10.02708053588867 49.47271728515625 7.702760696411133 C 49.31647491455078 5.545957565307617 47.59280395507812 3.912601470947266 45.48590469360352 3.912595748901367 C 45.46748352050781 3.912595748901367 45.44904327392578 3.9127197265625 45.43056869506836 3.912971496582031 C 43.15283584594727 3.948160171508789 41.27777862548828 5.87108039855957 41.24258804321289 8.207880020141602 C 41.23678588867188 8.65144157409668 41.29974746704102 9.090950012207031 41.42910766601562 9.510030746459961 L 38.05149841308594 11.74287986755371 C 37.16486358642578 12.33036231994629 36.17111968994141 12.61496543884277 35.19404983520508 12.61496543884277 C 33.72036743164062 12.61496543884277 32.28432464599609 11.96787071228027 31.30859756469727 10.73664093017578 L 28.09181785583496 6.672550201416016 C 28.62444686889648 5.943811416625977 28.9196662902832 5.065681457519531 28.93356704711914 4.167940139770508 C 28.96842765808105 1.852981567382812 27.1842155456543 1.9073486328125e-06 24.93639183044434 1.9073486328125e-06 M 24.93639755249023 -2 C 26.54507637023926 -2 28.05216789245605 -1.369419097900391 29.1800479888916 -0.2244300842285156 C 30.33594703674316 0.9490108489990234 30.95861625671387 2.519611358642578 30.93333625793457 4.198051452636719 C 30.92117691040039 4.983558654785156 30.76624488830566 5.748737335205078 30.47821044921875 6.464984893798828 L 32.87680816650391 9.495380401611328 C 33.44039916992188 10.20655059814453 34.2852668762207 10.61495971679688 35.19404602050781 10.61495971679688 C 35.80823516845703 10.61495971679688 36.41432952880859 10.42847061157227 36.94679641723633 10.07566070556641 L 39.24886322021484 8.553825378417969 C 39.24317169189453 8.430156707763672 39.24113082885742 8.306098937988281 39.24275588989258 8.181730270385742 C 39.2675666809082 6.534210205078125 39.91423797607422 4.979860305786133 41.06369781494141 3.801040649414062 C 42.22616577148438 2.608890533447266 43.76604843139648 1.938449859619141 45.39966583251953 1.913209915161133 C 45.43102645874023 1.91278076171875 45.45848846435547 1.912590026855469 45.48590850830078 1.912590026855469 C 47.0203857421875 1.912601470947266 48.47724914550781 2.493650436401367 49.58811569213867 3.548700332641602 C 50.68844604492188 4.593740463256836 51.35588836669922 6.0177001953125 51.46748733520508 7.558259963989258 C 51.58609771728516 9.195070266723633 51.07588577270508 10.79925155639648 50.03082656860352 12.07522010803223 C 49.32007598876953 12.94302082061768 48.41806411743164 13.59155750274658 47.407958984375 13.97543334960938 L 44.97028732299805 27.73865127563477 C 44.7132682800293 29.19330024719238 43.46511840820312 30.26645088195801 42.00261688232422 30.28955078125 L 6.946048736572266 30.83119010925293 C 6.930698394775391 30.83143043518066 6.915367126464844 30.83155059814453 6.899818420410156 30.83155059814453 C 5.400905609130859 30.83155059814453 4.153278350830078 29.74771118164062 3.933238983154297 28.25442123413086 L 1.921043395996094 14.64122295379639 C 1.017219543457031 14.30637168884277 0.2031631469726562 13.75319290161133 -0.4538040161132812 13.01497077941895 C -1.474212646484375 11.86834144592285 -2.0230712890625 10.3761100769043 -1.999263763427734 8.813180923461914 C -1.974231719970703 7.169670104980469 -1.32733154296875 5.615440368652344 -0.177703857421875 4.436820983886719 C 0.9849472045898438 3.244831085205078 2.524917602539062 2.574640274047852 4.158496856689453 2.549680709838867 C 4.189765930175781 2.549211502075195 4.220565795898438 2.548971176147461 4.251655578613281 2.548971176147461 C 5.860618591308594 2.548971176147461 7.367877960205078 3.179670333862305 8.49578857421875 4.32489013671875 C 9.651706695556641 5.498550415039062 10.27421569824219 7.069400787353516 10.2486572265625 8.748090744018555 C 10.24684906005859 8.855754852294922 10.2423210144043 8.96320915222168 10.23508834838867 9.070280075073242 L 12.41804885864258 10.47308158874512 C 12.89424896240234 10.77980041503906 13.4449462890625 10.94132041931152 14.01239776611328 10.94132041931152 C 14.98644638061523 10.94132041931152 15.91202545166016 10.48451995849609 16.55178833007812 9.688060760498047 L 19.07969856262207 6.536123275756836 C 18.81049728393555 5.816387176513672 18.67391204833984 5.043264389038086 18.68527793884277 4.266130447387695 C 18.71004676818848 2.621709823608398 19.35671806335449 1.067371368408203 20.50617790222168 -0.1114387512207031 C 21.66865730285645 -1.3035888671875 23.20852661132812 -1.974029541015625 24.84214782714844 -1.999269485473633 C 24.87370681762695 -1.999759674072266 24.90482711791992 -2 24.93639755249023 -2 Z" stroke="none" fill="#f8f8f8"/>
      </g>
      <path id="Path_3352" data-name="Path 3352" d="M18.915.008c10.4-.161,18.8,2.077,18.755,5s-8.512,5.419-18.914,5.58S-.044,8.509,0,5.588,8.512.169,18.915.008Z" transform="translate(5.624 22.206)" fill="#f0a622" stroke="#f8f8f8" stroke-width="2"/>
      <path id="Path_3337-4" data-name="Path 3337" d="M20.422,14.047C10.22,14.2-.069,11.954,0,7.345S10.431.165,20.633.008,41.124,2.1,41.055,6.71,30.624,13.89,20.422,14.047Zm.176-11.7C8.619,2.533,2.306,5.671,2.281,7.309s6.2,4.583,18.176,4.4S38.749,8.384,38.774,6.746,32.577,2.163,20.6,2.348Z" transform="translate(3.932 20.475)" fill="none"/>
    </g>
    <g id="crown-5" data-name="crown" transform="matrix(0.875, 0.485, -0.485, 0.875, -61.626, 61.982)">
      <g id="Path_3336-5" data-name="Path 3336" transform="translate(0 0)" fill="#f0a622">
        <path d="M 48.10861968994141 33.42801284790039 C 48.10855484008789 33.42801284790039 48.10862350463867 33.42801284790039 48.10855865478516 33.42801284790039 C 48.09661865234375 33.42801284790039 48.08459854125977 33.42791366577148 48.07261657714844 33.42771530151367 L 8.506668090820312 32.75262451171875 C 7.458797931671143 32.734375 6.562627792358398 31.96190452575684 6.375407695770264 30.91585350036621 L 3.465886116027832 14.70133781433105 C 2.347527980804443 14.42575645446777 1.325804233551025 13.81322574615479 0.532997727394104 12.93201446533203 C -0.4313522577285767 11.86010456085205 -0.9754922389984131 10.48043441772461 -0.9991822242736816 9.047144889831543 C -1.024722218513489 7.503084659576416 -0.455822229385376 6.060034275054932 0.6027177572250366 4.983834266662598 C 1.635177731513977 3.934154510498047 3.018067836761475 3.356074333190918 4.496647834777832 3.356074333190918 C 4.528917789459229 3.356074333190918 4.561547756195068 3.356354475021362 4.593957901000977 3.356914520263672 C 6.101887702941895 3.382914543151855 7.526637554168701 4.004194259643555 8.605777740478516 5.106324195861816 C 9.679547309875488 6.202974319458008 10.28481769561768 7.647744655609131 10.31006813049316 9.174504280090332 C 10.31525421142578 9.520978927612305 10.2896842956543 9.864371299743652 10.23380947113037 10.20182991027832 L 13.4701976776123 12.33381462097168 C 14.28246784210205 12.8700647354126 15.21041774749756 13.15318489074707 16.15456771850586 13.1531343460083 C 17.56314849853516 13.15305423736572 18.87129783630371 12.52440452575684 19.74359703063965 11.42837429046631 L 22.92340660095215 7.426443576812744 C 22.4613151550293 6.588512420654297 22.2115592956543 5.656594276428223 22.19503784179688 4.692464351654053 C 22.16922760009766 3.147744417190552 22.73799705505371 1.704484462738037 23.79655838012695 0.6280844211578369 C 24.82905769348145 -0.4218055605888367 26.21212768554688 -1.000005602836609 27.69098854064941 -1.000005602836609 C 27.72288703918457 -1.000005602836609 27.75530815124512 -0.9997255802154541 27.78733825683594 -0.9991755485534668 C 29.29520797729492 -0.9734455943107605 30.72004699707031 -0.3524055778980255 31.79936790466309 0.7495444416999817 C 32.87334823608398 1.846044421195984 33.47885894775391 3.290724515914917 33.50435638427734 4.817464351654053 C 33.51983261108398 5.76808500289917 33.29532623291016 6.710554599761963 32.86371994018555 7.539055824279785 L 36.19990921020508 11.67765426635742 C 37.16627883911133 12.87508487701416 38.57377624511719 13.56207466125488 40.0611572265625 13.56205463409424 C 40.94164657592773 13.56203460693359 41.79604721069336 13.31281471252441 42.53200912475586 12.84133434295654 L 45.65397262573242 10.8462028503418 C 45.59012222290039 10.51622581481934 45.55479431152344 10.18152809143066 45.54850769042969 9.845094680786133 C 45.52267837524414 8.298834800720215 46.09143829345703 6.855554580688477 47.14999771118164 5.77916431427002 C 48.18249893188477 4.729264259338379 49.56555938720703 4.151064395904541 51.04441833496094 4.151064395904541 C 51.07631683349609 4.151064395904541 51.10873794555664 4.151344299316406 51.14076614379883 4.151894569396973 C 52.55453872680664 4.178684234619141 53.91175842285156 4.737094402313232 54.96428680419922 5.724284648895264 C 56.01119613647461 6.706204414367676 56.66962814331055 8.031574249267578 56.81828689575195 9.456244468688965 C 56.98129653930664 11.01815414428711 56.52926635742188 12.52666473388672 55.54544830322266 13.70388412475586 C 54.7681999206543 14.63392162322998 53.73224639892578 15.26388263702393 52.57133865356445 15.52503871917725 L 50.20947647094727 31.59926414489746 C 50.05426788330078 32.65869903564453 49.1706428527832 33.42801284790039 48.10861968994141 33.42801284790039 Z" stroke="none"/>
        <path d="M 27.69098854064941 -3.814697265625e-06 C 25.15736198425293 -3.814697265625e-06 23.1514778137207 2.076686859130859 23.19488906860352 4.675323486328125 C 23.21217727661133 5.684015274047852 23.54691696166992 6.67120361328125 24.14935684204102 7.490993499755859 L 20.52603912353516 12.05109405517578 C 19.42930221557617 13.42913055419922 17.81387710571289 14.15313339233398 16.15462493896484 14.15313339233398 C 15.04919052124023 14.15313339233398 13.92448043823242 13.83198928833008 12.92007827758789 13.16890525817871 L 9.102008819580078 10.65373420715332 C 9.247379302978516 10.18311500549316 9.317668914794922 9.689434051513672 9.310207366943359 9.191043853759766 C 9.266777038574219 6.565464019775391 7.147586822509766 4.401094436645508 4.576728820800781 4.35676383972168 C 4.550056457519531 4.356304168701172 4.523189544677734 4.356073379516602 4.496631622314453 4.356073379516602 C 1.963546752929688 4.356073379516602 -0.04230117797851562 6.432327270507812 0.00067901611328125 9.030614852905273 C 0.04141616821289062 11.49530410766602 1.919708251953125 13.58307456970215 4.327247619628906 13.83969497680664 L 7.359767913818359 30.73966407775879 C 7.462615966796875 31.3143138885498 7.954898834228516 31.74286460876465 8.523727416992188 31.75277519226074 L 48.08931732177734 32.42785263061523 C 48.09574127197266 32.42796325683594 48.10218048095703 32.42801666259766 48.10858154296875 32.42801666259766 C 48.66889953613281 32.42801666259766 49.13732147216797 32.01890182495117 49.22008895874023 31.45389366149902 L 51.68949890136719 14.64779472351074 C 54.24606704711914 14.45692443847656 56.09701919555664 12.17903518676758 55.82368850708008 9.560024261474609 C 55.56787872314453 7.108514785766602 53.53014755249023 5.197355270385742 51.12370681762695 5.151744842529297 C 51.09734725952148 5.151294708251953 51.0706672668457 5.151069641113281 51.04441833496094 5.151067733764648 C 48.51081085205078 5.150861740112305 46.50491714477539 7.227746963500977 46.54833984375 9.826404571533203 C 46.55764770507812 10.32482528686523 46.64445877075195 10.82119369506836 46.80552673339844 11.29703521728516 L 43.07143783569336 13.68336486816406 C 42.14603805541992 14.27620887756348 41.10330200195312 14.56204986572266 40.06118011474609 14.56204986572266 C 38.33467102050781 14.56204986572266 36.60966110229492 13.77765464782715 35.42136764526367 12.30524444580078 L 31.64359855651855 7.618854522705078 C 32.21896743774414 6.819164276123047 32.52091979980469 5.84283447265625 32.50449752807617 4.834163665771484 C 32.46064758300781 2.208595275878906 30.34100723266602 0.04454421997070312 27.77027702331543 0.000675201416015625 C 27.74391746520996 0.000225067138671875 27.71723747253418 -3.814697265625e-06 27.69098854064941 -3.814697265625e-06 M 27.69098854064941 -2.000003814697266 C 27.72853851318359 -2.000003814697266 27.76670837402344 -1.999675750732422 27.80441856384277 -1.999034881591797 C 29.57681846618652 -1.968784332275391 31.24930763244629 -1.241153717041016 32.51377868652344 0.04981613159179688 C 33.76754760742188 1.329864501953125 34.47442626953125 3.017124176025391 34.50421905517578 4.800764083862305 C 34.51870727539062 5.690799713134766 34.35387420654297 6.575305938720703 34.02927398681641 7.39155387878418 L 36.97844696044922 11.0500545501709 C 37.75367736816406 12.01063537597656 38.87754058837891 12.56205368041992 40.06118011474609 12.56205368041992 C 40.75003814697266 12.56205368041992 41.41790008544922 12.36745452880859 41.99257659912109 11.99930381774902 L 44.57500457763672 10.34895896911621 C 44.56050491333008 10.18775939941406 44.55171966552734 10.02593231201172 44.54868698120117 9.863754272460938 C 44.5182991027832 8.045265197753906 45.18896865844727 6.347003936767578 46.43706893920898 5.077875137329102 C 47.65900802612305 3.835353851318359 49.29512786865234 3.151063919067383 51.04404830932617 3.151063919067383 C 51.08247756958008 3.15107536315918 51.12038803100586 3.151393890380859 51.1578483581543 3.152034759521484 C 52.82149887084961 3.183565139770508 54.41493606567383 3.838014602661133 55.64839935302734 4.994903564453125 C 56.87058639526367 6.141223907470703 57.63928604125977 7.688764572143555 57.81288909912109 9.352455139160156 C 58.00419616699219 11.18557357788086 57.47143936157227 12.95869445800781 56.31274795532227 14.34515380859375 C 55.54611968994141 15.26249122619629 54.56691360473633 15.93311309814453 53.46673583984375 16.30996322631836 L 51.19883728027344 31.74464416503906 C 50.97114562988281 33.29911422729492 49.67144775390625 34.42801284790039 48.10857772827148 34.42801284790039 C 48.09078979492188 34.42801284790039 48.07289886474609 34.42786407470703 48.05505752563477 34.42756271362305 L 8.489608764648438 33.75248336791992 C 6.965038299560547 33.72592544555664 5.662208557128906 32.6070442199707 5.391048431396484 31.0920238494873 L 2.589900970458984 15.4814567565918 C 1.528511047363281 15.1049747467041 0.5648193359375 14.46253395080566 -0.2104225158691406 13.60083389282227 C -1.336151123046875 12.34955406188965 -1.971370697021484 10.73822402954102 -1.999053955078125 9.063663482666016 C -2.029060363769531 7.249414443969727 -1.358261108398438 5.551454544067383 -0.1102104187011719 4.282594680786133 C 1.111736297607422 3.040254592895508 2.747817993164062 2.356075286865234 4.496627807617188 2.356075286865234 C 4.534626007080078 2.356075286865234 4.573066711425781 2.356405258178711 4.611217498779297 2.357065200805664 C 6.3836669921875 2.387624740600586 8.056056976318359 3.115533828735352 9.320289611816406 4.406703948974609 C 10.57382965087891 5.686944961547852 11.28042602539062 7.374303817749023 11.3099365234375 9.157964706420898 C 11.31267929077148 9.340972900390625 11.30812835693359 9.523141860961914 11.29632949829102 9.704299926757812 L 14.02030944824219 11.49873352050781 C 14.66936874389648 11.92722511291504 15.40683746337891 12.15313529968262 16.15462875366211 12.15313529968262 C 17.25667953491211 12.15313529968262 18.27961730957031 11.66199493408203 18.96114730834961 10.80565452575684 L 21.74847793579102 7.297676086425781 C 21.39914321899414 6.483539581298828 21.21059036254883 5.608676910400391 21.1951789855957 4.709604263305664 C 21.16485595703125 2.894214630126953 21.83550643920898 1.195995330810547 23.08356857299805 -0.07309722900390625 C 24.30557823181152 -1.315685272216797 25.94185829162598 -2.000003814697266 27.69098854064941 -2.000003814697266 Z" stroke="none" fill="#f8f8f8"/>
      </g>
      <path id="Path_3355" data-name="Path 3355" d="M21.159.011c11.74.2,21.3,3.023,21.357,6.305S33.1,12.1,21.357,11.9.055,8.873,0,5.591,9.418-.189,21.159.011Z" transform="translate(7.029 24.948)" fill="#f0a622" stroke="#f8f8f8" stroke-width="2"/>
      <path id="Path_3337-5" data-name="Path 3337" d="M23.3,15.785C11.786,15.589.087,12.682,0,7.5S11.522-.186,23.037.011s23.213,3.1,23.3,8.283S34.814,15.982,23.3,15.785ZM23.08,2.64C9.561,2.409,2.544,5.706,2.575,7.547s7.162,5.379,20.681,5.609S43.793,10.09,43.762,8.249,36.6,2.87,23.08,2.64Z" transform="translate(5.118 23.004)" fill="none"/>
    </g>
    <g id="crown-6" data-name="crown" transform="matrix(0.875, 0.485, -0.485, 0.875, 146.562, 48.016)">
      <g id="Path_3336-6" data-name="Path 3336" transform="translate(0 0)" fill="#f0a622">
        <path d="M 12.7096700668335 9.067024230957031 C 12.70964527130127 9.067024230957031 12.70967292785645 9.067024230957031 12.70964908599854 9.067024230957031 L 12.69621849060059 9.066914558410645 L 2.243319034576416 8.888584136962891 C 1.854058980941772 8.881793975830078 1.521408915519714 8.596024513244629 1.45215892791748 8.209084510803223 L 0.7093396782875061 4.069371223449707 C 0.01096659619361162 3.831084012985229 -0.4869721233844757 3.16758394241333 -0.4997510612010956 2.394024133682251 C -0.5075610876083374 1.922404170036316 -0.3332410752773285 1.481054186820984 -0.008901068009436131 1.151304125785828 C 0.3085589408874512 0.8285541534423828 0.7336089611053467 0.6508141160011292 1.187958955764771 0.6508141160011292 C 1.197828888893127 0.6508141160011292 1.207808971405029 0.6508941650390625 1.217718958854675 0.6510641574859619 C 2.16231894493103 0.6673541665077209 2.943698883056641 1.460834145545959 2.959558963775635 2.41987419128418 C 2.960352659225464 2.472970962524414 2.958785057067871 2.525815963745117 2.954874515533447 2.578301429748535 L 3.688379049301147 3.061494112014771 C 3.864498853683472 3.17777419090271 4.064708709716797 3.239074230194092 4.267798900604248 3.23906421661377 C 4.567678928375244 3.239044189453125 4.846028804779053 3.105384111404419 5.03148889541626 2.872364044189453 L 5.778486251831055 1.932238340377808 C 5.683338642120361 1.71614682674408 5.631966590881348 1.483210444450378 5.627859115600586 1.243714094161987 C 5.619978904724121 0.7717841267585754 5.79426908493042 0.330374151468277 6.118618965148926 0.0005641377065330744 C 6.436079025268555 -0.3222358524799347 6.861178874969482 -0.5000158548355103 7.315598964691162 -0.5000158548355103 C 7.325358867645264 -0.5000158548355103 7.335278987884521 -0.4999258518218994 7.345078945159912 -0.4997658729553223 C 8.289678573608398 -0.4836458563804626 9.071188926696777 0.309714138507843 9.087199211120605 1.268754124641418 C 9.091056823730469 1.505734443664551 9.04603099822998 1.741169452667236 8.957557678222656 1.957580089569092 L 9.747138977050781 2.937064170837402 C 9.957368850708008 3.197564125061035 10.2623291015625 3.347084045410156 10.58364868164062 3.347084045410156 C 10.77107906341553 3.347074031829834 10.95280933380127 3.294114112854004 11.10919857025146 3.193934202194214 L 11.8060245513916 2.748615980148315 C 11.80127906799316 2.701032638549805 11.79845333099365 2.653243780136108 11.79755878448486 2.605324029922485 C 11.78965854644775 2.13262414932251 11.96394920349121 1.691214084625244 12.28829860687256 1.361404180526733 C 12.60576915740967 1.038594126701355 13.03086853027344 0.8608141541481018 13.48530864715576 0.8608141541481018 C 13.4950590133667 0.8608141541481018 13.50495910644531 0.8609041571617126 13.5147590637207 0.8610641360282898 C 14.40751934051514 0.8779841661453247 15.15103912353516 1.571264147758484 15.24520874023438 2.473714113235474 C 15.29494857788086 2.95030403137207 15.15648937225342 3.411224126815796 14.85534858703613 3.771564245223999 C 14.65240859985352 4.014396190643311 14.39213466644287 4.190682411193848 14.09969425201416 4.287490367889404 L 13.49799919128418 8.382364273071289 C 13.43988227844238 8.778980255126953 13.10830688476562 9.067024230957031 12.7096700668335 9.067024230957031 Z" stroke="none"/>
        <path d="M 7.315597057342529 -1.430511474609375e-05 C 6.646254539489746 -1.430511474609375e-05 6.116327285766602 0.5486164093017578 6.127788543701172 1.235144138336182 C 6.132358551025391 1.501634120941162 6.220798492431641 1.762434005737305 6.379948616027832 1.97900390625 L 5.422708511352539 3.183723926544189 C 5.132964134216309 3.547786235809326 4.706183433532715 3.739063262939453 4.26783275604248 3.739063262939453 C 3.975791931152344 3.739063262939453 3.678665161132812 3.65422248840332 3.413318634033203 3.479043960571289 L 2.404628753662109 2.814574241638184 C 2.443038940429688 2.690234184265137 2.461599349975586 2.559813976287842 2.459629058837891 2.428143978118896 C 2.448159217834473 1.734504222869873 1.888298988342285 1.162703990936279 1.209109306335449 1.150994300842285 C 1.202062606811523 1.150872707366943 1.194975852966309 1.150811672210693 1.187958717346191 1.150811672210693 C 0.5187511444091797 1.150811672210693 -0.01118183135986328 1.699331283569336 0.000179290771484375 2.385764122009277 C 0.01093864440917969 3.036904335021973 0.5071592330932617 3.588464260101318 1.14319896697998 3.656264305114746 L 1.944338798522949 8.121004104614258 C 1.971508979797363 8.272824287414551 2.101569175720215 8.38603401184082 2.251849174499512 8.388653755187988 L 12.70456886291504 8.566984176635742 C 12.70626640319824 8.567012786865234 12.70796775817871 8.56702709197998 12.7096586227417 8.56702709197998 C 12.85769653320312 8.56702709197998 12.98143863677979 8.458939552307129 13.00330924987793 8.309674263000488 L 13.6557092666626 3.869724273681641 C 14.3311185836792 3.819293975830078 14.82011890411377 3.217514038085938 14.74789905548096 2.525604248046875 C 14.68032932281494 1.877943992614746 14.1419792175293 1.373044013977051 13.50622940063477 1.360994338989258 C 13.49926471710205 1.360875606536865 13.49222850799561 1.36081600189209 13.48529434204102 1.360815525054932 C 12.81595134735107 1.36076831817627 12.28600788116455 1.909446716308594 12.29746913909912 2.595983982086182 C 12.29992866516113 2.727653980255127 12.32286834716797 2.858794212341309 12.36541938781738 2.984504222869873 L 11.37891864776611 3.614943981170654 C 11.13444137573242 3.771565914154053 10.85896778106689 3.847079753875732 10.58365154266357 3.847079753875732 C 10.12752914428711 3.847079753875732 9.671799659729004 3.639851093292236 9.357869148254395 3.250864028930664 L 8.359828948974609 2.012784004211426 C 8.511838912963867 1.801514148712158 8.591609001159668 1.54358434677124 8.587268829345703 1.277103900909424 C 8.575689315795898 0.5834641456604004 8.015708923339844 0.01175403594970703 7.336548805236816 0.000164031982421875 C 7.329585075378418 4.482269287109375e-05 7.322531223297119 -1.430511474609375e-05 7.315597057342529 -1.430511474609375e-05 M 7.315598964691162 -1.000016212463379 C 7.328228950500488 -1.000016212463379 7.341098785400391 -0.9999055862426758 7.35378885269165 -0.9996862411499023 C 8.564718246459961 -0.9790258407592773 9.566669464111328 0.03485393524169922 9.587129592895508 1.260414123535156 C 9.590404510498047 1.461380481719971 9.566295623779297 1.661575317382812 9.516797065734863 1.854628562927246 L 10.13640880584717 2.623264312744141 C 10.25106906890869 2.765344142913818 10.41420936584473 2.847084045410156 10.58364868164062 2.847084045410156 C 10.676589012146 2.847084045410156 10.76266860961914 2.822124004364014 10.8394889831543 2.772913932800293 L 11.29928016662598 2.479074001312256 C 11.32218456268311 1.921746253967285 11.5440034866333 1.405142307281494 11.93182945251465 1.010784149169922 C 12.34402847290039 0.591644287109375 12.89569854736328 0.360814094543457 13.48520851135254 0.360814094543457 C 13.4979887008667 0.360814094543457 13.51079940795898 0.3609237670898438 13.52346897125244 0.3611440658569336 C 14.66895866394043 0.3828544616699219 15.62219905853271 1.268743991851807 15.74249935150146 2.421833992004395 C 15.80639934539795 3.033994197845459 15.62758922576904 3.627223968505859 15.2390193939209 4.092194080352783 C 15.04609107971191 4.323047637939453 14.81327724456787 4.507570266723633 14.55338764190674 4.639182567596436 L 13.99268913269043 8.45505428314209 C 13.89830875396729 9.099194526672363 13.3586893081665 9.567024230957031 12.7096586227417 9.567024230957031 L 12.68692874908447 9.566823959350586 L 2.23478889465332 9.388504028320312 C 1.607169151306152 9.377564430236816 1.071188926696777 8.918594360351562 0.9599790573120117 8.297163963317871 L 0.2649736404418945 4.423921585083008 C -0.4777412414550781 4.050944328308105 -0.9851388931274414 3.282289981842041 -0.9996814727783203 2.402284145355225 C -1.009720802307129 1.795574188232422 -0.7844514846801758 1.226774215698242 -0.365361213684082 0.8006939888000488 C 0.04683876037597656 0.3816137313842773 0.5984888076782227 0.1508140563964844 1.187958717346191 0.1508140563964844 C 1.200629234313965 0.1508140563964844 1.213408470153809 0.1509237289428711 1.226128578186035 0.1511344909667969 C 2.40357780456543 0.1714401245117188 3.383057594299316 1.130159854888916 3.455506324768066 2.309361934661865 L 3.963428497314453 2.643954277038574 C 4.057969093322754 2.706364154815674 4.162939071655273 2.73906421661377 4.267828941345215 2.73906421661377 C 4.353999137878418 2.73906421661377 4.516959190368652 2.715934276580811 4.6402587890625 2.561004161834717 L 5.21435546875 1.838485717773438 C 5.160582542419434 1.649160861968994 5.13137149810791 1.452566623687744 5.127939224243164 1.252294063568115 C 5.117798805236816 0.6450142860412598 5.343029022216797 0.07612419128417969 5.762128829956055 -0.3500261306762695 C 6.174348831176758 -0.7691755294799805 6.726038932800293 -1.000016212463379 7.315598964691162 -1.000016212463379 Z" stroke="none" fill="#f8f8f8"/>
      </g>
      <path id="Path_3356" data-name="Path 3356" d="M5.59,0c3.1.053,5.628.8,5.642,1.666S8.744,3.2,5.642,3.143.015,2.344,0,1.477,2.488-.05,5.59,0Z" transform="translate(1.857 6.591)" fill="#f0a622" stroke="#f8f8f8" stroke-width="1"/>
      <path id="Path_3337-6" data-name="Path 3337" d="M6.156,4.17C3.114,4.118.023,3.35,0,1.982S3.044-.049,6.086,0s6.133.82,6.155,2.188S9.2,4.222,6.156,4.17ZM6.1.7C2.526.636.672,1.508.68,1.994S2.572,3.415,6.144,3.476s5.425-.81,5.417-1.3S9.669.758,6.1.7Z" transform="translate(1.352 6.077)" fill="none"/>
    </g>
    <g id="crown-7" data-name="crown" transform="matrix(0.875, 0.485, -0.485, 0.875, -19.857, 68.503)">
      <g id="Path_3336-7" data-name="Path 3336" transform="translate(0 0)" fill="#f0a622">
        <path d="M 7.366809368133545 5.465641498565674 C 7.366768360137939 5.465641498565674 7.366788387298584 5.465641498565674 7.36674690246582 5.465641498565674 L 7.362596988677979 5.465641498565674 L 7.355516910552979 5.465551376342773 L 1.29669713973999 5.362181663513184 C 0.9708771109580994 5.356491565704346 0.6925970911979675 5.118051528930664 0.6348071098327637 4.795211315155029 L 0.2247832864522934 2.510153532028198 C -0.1991604715585709 2.314063549041748 -0.4916795492172241 1.884728074073792 -0.4998229146003723 1.391091465950012 C -0.5052828788757324 1.060941576957703 -0.3828229010105133 0.7515515089035034 -0.1549929082393646 0.5199314951896667 C 0.06883709132671356 0.2923615276813507 0.3684170842170715 0.1670315265655518 0.6885671019554138 0.1670315265655518 L 0.7094370722770691 0.1672115176916122 C 1.363592863082886 0.1784984469413757 1.905604124069214 0.7221872806549072 1.925207376480103 1.382736206054688 L 2.253487110137939 1.598991513252258 C 2.321277141571045 1.643741488456726 2.397277116775513 1.667251467704773 2.473697185516357 1.66724157333374 C 2.584717035293579 1.667231559753418 2.683516979217529 1.619911551475525 2.751897096633911 1.534001469612122 L 3.110620975494385 1.0825275182724 C 3.073875665664673 0.967581033706665 3.053966283798218 0.8472657203674316 3.051867008209229 0.7244614958763123 C 3.046347141265869 0.3940715193748474 3.168776988983154 0.08463152498006821 3.396607160568237 -0.1470384746789932 C 3.620447158813477 -0.3746484816074371 3.920077085494995 -0.4999984800815582 4.240287303924561 -0.4999984800815582 L 4.260937213897705 -0.4998284876346588 C 4.920476913452148 -0.4885684847831726 5.466126918792725 0.06398152559995651 5.477287292480469 0.7318915128707886 C 5.479279041290283 0.8545403480529785 5.462542057037354 0.9766449928283691 5.42861270904541 1.09329092502594 L 5.813287258148193 1.570481538772583 C 5.894967079162598 1.671691536903381 6.012106895446777 1.729861497879028 6.134487152099609 1.729861497879028 C 6.203836917877197 1.729861497879028 6.268177032470703 1.711171507835388 6.325726985931396 1.674301505088806 L 6.627826690673828 1.481238961219788 C 6.630647659301758 1.162451505661011 6.752398014068604 0.8657335042953491 6.972677230834961 0.6417415142059326 C 7.196516990661621 0.4141315221786499 7.496137142181396 0.2887815237045288 7.816337108612061 0.2887815237045288 L 7.837017059326172 0.2889515161514282 C 8.460786819458008 0.3007715344429016 8.979917526245117 0.7835715413093567 9.045487403869629 1.412021517753601 C 9.080266952514648 1.745271563529968 8.983047485351562 2.06805157661438 8.771737098693848 2.320891618728638 C 8.657988548278809 2.456998109817505 8.518709182739258 2.563445568084717 8.362800598144531 2.63566255569458 L 8.03167724609375 4.889171600341797 C 7.982753276824951 5.223090648651123 7.703104496002197 5.465641498565674 7.366809368133545 5.465641498565674 Z" stroke="none"/>
        <path d="M 4.240286350250244 -1.9073486328125e-06 C 3.852311611175537 -1.9073486328125e-06 3.545145988464355 0.3180041313171387 3.551796913146973 0.7159214019775391 C 3.554437160491943 0.8703813552856445 3.605697154998779 1.021551609039307 3.697947025299072 1.147081613540649 L 3.14311695098877 1.845361471176147 C 2.975174903869629 2.056377410888672 2.727806091308594 2.167242527008057 2.473727703094482 2.167242527008057 C 2.30445384979248 2.167242527008057 2.132230281829834 2.118067264556885 1.978426933288574 2.016531467437744 L 1.393776893615723 1.631391525268555 C 1.416037082672119 1.559321641921997 1.426796913146973 1.483721494674683 1.425657272338867 1.407411575317383 C 1.419007301330566 1.005361557006836 1.094497203826904 0.6739315986633301 0.7008271217346191 0.6671414375305176 C 0.6967425346374512 0.6670713424682617 0.6926379203796387 0.6670360565185547 0.6885709762573242 0.6670360565185547 C 0.3006820678710938 0.6670360565185547 -0.006473541259765625 0.9849731922149658 0.0001068115234375 1.38284158706665 C 0.006337165832519531 1.760261535644531 0.2939672470092773 2.079951524734497 0.6626272201538086 2.119251489639282 L 1.126986980438232 4.707111358642578 C 1.142736911773682 4.795101642608643 1.218117237091064 4.860731601715088 1.305227279663086 4.862251281738281 L 7.363837242126465 4.965621471405029 C 7.364815235137939 4.965637683868408 7.365803241729736 4.965645790100098 7.366777896881104 4.965645790100098 C 7.452585697174072 4.965645790100098 7.524311065673828 4.903008937835693 7.5369873046875 4.816481590270996 L 7.915127277374268 2.24299144744873 C 8.306607246398926 2.213761568069458 8.59003734588623 1.864951610565186 8.548187255859375 1.463911533355713 C 8.509007453918457 1.08851146697998 8.196976661682129 0.7958617210388184 7.828486919403076 0.7888813018798828 C 7.824450492858887 0.7888126373291016 7.820358276367188 0.7887783050537109 7.816339015960693 0.7887778282165527 C 7.428373336791992 0.7887425422668457 7.1212158203125 1.106774091720581 7.127867221832275 1.504701614379883 C 7.129287242889404 1.581021547317505 7.142587184906006 1.657031536102295 7.16724681854248 1.729891538619995 L 6.595447063446045 2.095311641693115 C 6.45374584197998 2.186092615127563 6.294076919555664 2.229862689971924 6.134499549865723 2.229862689971924 C 5.870124816894531 2.229862689971924 5.605976104736328 2.10974907875061 5.424016952514648 1.884281635284424 L 4.845527172088623 1.166661500930786 C 4.933637142181396 1.044211626052856 4.979866981506348 0.8947014808654785 4.977356910705566 0.7402515411376953 C 4.970637321472168 0.3382015228271484 4.646067142486572 0.006821632385253906 4.252417087554932 0.0001015663146972656 C 4.248380661010742 3.290176391601562e-05 4.244306087493896 -1.9073486328125e-06 4.240286350250244 -1.9073486328125e-06 M 4.240287303924561 -0.9999985694885254 C 4.250047206878662 -0.9999985694885254 4.259927272796631 -0.9999184608459473 4.269737243652344 -0.999748706817627 C 5.195517063140869 -0.9839487075805664 5.961597442626953 -0.2108783721923828 5.977217197418213 0.7235417366027832 C 5.978510856628418 0.8031673431396484 5.974189758300781 0.8826484680175781 5.964465141296387 0.9613275527954102 L 6.150924682617188 1.192631006240845 L 6.153692245483398 1.190862417221069 C 6.21278190612793 0.8511934280395508 6.371599197387695 0.5398669242858887 6.616207122802734 0.2911415100097656 C 6.934786796569824 -0.03280830383300781 7.360977172851562 -0.2112183570861816 7.816267013549805 -0.2112183570861816 C 7.826157093048096 -0.2112183570861816 7.836047172546387 -0.2111382484436035 7.845807075500488 -0.2109684944152832 C 8.722187042236328 -0.1943683624267578 9.451037406921387 0.4810314178466797 9.542787551879883 1.360111474990845 C 9.591716766357422 1.828981637954712 9.454136848449707 2.284061431884766 9.155397415161133 2.641521453857422 C 9.056906700134277 2.759372711181641 8.944995880126953 2.861579656600952 8.822465896606445 2.946716785430908 L 8.5263671875 4.961861610412598 C 8.441157341003418 5.543331623077393 7.953456878662109 5.965641498565674 7.366776943206787 5.965641498565674 L 7.356576919555664 5.965641498565674 L 7.343437194824219 5.96541166305542 L 1.288166999816895 5.862101554870605 C 0.7239971160888672 5.852261543273926 0.2423868179321289 5.440621376037598 0.1426372528076172 4.883311748504639 L -0.2261781692504883 2.827939748764038 C -0.6870822906494141 2.516958951950073 -0.9899883270263672 1.991139650344849 -0.9997529983520508 1.399341583251953 C -1.007452964782715 0.9341115951538086 -0.8340330123901367 0.4972615242004395 -0.5114526748657227 0.1693015098571777 C -0.1928730010986328 -0.1545886993408203 0.233306884765625 -0.3329687118530273 0.6885671615600586 -0.3329687118530273 C 0.6983270645141602 -0.3329687118530273 0.7081971168518066 -0.332878589630127 0.7179770469665527 -0.3327083587646484 C 1.543659687042236 -0.3184704780578613 2.242036819458008 0.2976737022399902 2.394762516021729 1.093310356140137 L 2.439841270446777 1.123006105422974 L 2.570334434509277 0.9587726593017578 C 2.559412956237793 0.8844375610351562 2.553247451782227 0.8090853691101074 2.551947116851807 0.7330117225646973 C 2.544157028198242 0.2673115730285645 2.717526912689209 -0.1695985794067383 3.040117263793945 -0.4976186752319336 C 3.358706951141357 -0.8215785026550293 3.784936904907227 -0.9999985694885254 4.240287303924561 -0.9999985694885254 Z" stroke="none" fill="#f8f8f8"/>
      </g>
      <path id="Path_3357" data-name="Path 3357" d="M3.24,0C5.038.032,6.5.465,6.51.967s-1.442.885-3.24.854S.008,1.359,0,.856,1.442-.029,3.24,0Z" transform="translate(1.076 3.82)" fill="#f0a622" stroke="#f8f8f8" stroke-width="1"/>
      <path id="Path_3337-7" data-name="Path 3337" d="M3.568,2.417C1.8,2.387.013,1.942,0,1.149S1.764-.028,3.528,0,7.082.477,7.1,1.27,5.331,2.447,3.568,2.417ZM3.534.4C1.464.369.39.874.394,1.156s1.1.824,3.167.859,3.145-.47,3.14-.751S5.6.44,3.534.4Z" transform="translate(0.784 3.523)" fill="none"/>
    </g>
  </g>
</svg>
