<svg xmlns="http://www.w3.org/2000/svg" width="22.25" height="22.25" viewBox="0 0 22.25 22.25">
  <g id="ic_fmk_home_2_" data-name="ic_fmk_home(2)" transform="translate(0.808 1.819)">
    <rect id="Rectangle_3390" data-name="Rectangle 3390" width="22.25" height="22.25" transform="translate(-0.808 -1.819)" fill="#fff" opacity="0.005"/>
    <g id="Group_4689" data-name="Group 4689" transform="translate(0 0)">
      <path id="Path_4038" data-name="Path 4038" d="M10.509-.137l9.737,8.081a.434.434,0,0,1-.3.753H17.686v9.787a.45.45,0,0,1-.452.452H12.516a.45.45,0,0,1-.452-.452V12.812a.41.41,0,0,0-.4-.452H8.8a.45.45,0,0,0-.452.452v5.672a.41.41,0,0,1-.4.452H3.231a.45.45,0,0,1-.452-.452V8.7H.471A.431.431,0,0,1,.22,7.944L9.957-.137A.394.394,0,0,1,10.509-.137Z" transform="translate(-0.073 0.25)" fill="#f0a622" fill-rule="evenodd"/>
    </g>
  </g>
</svg>
