<svg id="ill_food_mk" data-name="ill food mk" xmlns="http://www.w3.org/2000/svg" width="100" height="100" viewBox="0 0 100 100">
  <rect id="Rectangle_1405" data-name="Rectangle 1405" width="100" height="100" fill="none"/>
  <path id="Subtraction_2" data-name="Subtraction 2" d="M12.074,72.447H6.036a3.021,3.021,0,0,1-3.017-3.019V35.695a9,9,0,0,0,3.017.528h9.056a9.02,9.02,0,0,0,6.036-2.311,9.016,9.016,0,0,0,6.035,2.311H45.277a9.044,9.044,0,0,0,2.465-.342c.767,2.032,1.637,4.177,2.587,6.379H42.259a3.021,3.021,0,0,0-3.018,3.018v9.055a3.022,3.022,0,0,0,3.018,3.019H57.352a3.022,3.022,0,0,0,3.018-3.019v-.266l4.063-2.346,1.525,2.643-7.794,11.9-.027.043-.025.043c-.5.857-.795,2.342.6,4.551a10.383,10.383,0,0,0,1.19,1.543l-26.695,0V45.278a3.022,3.022,0,0,0-3.019-3.018H15.093a3.022,3.022,0,0,0-3.019,3.018V72.446ZM69.426,41.776l0,0-3.2-5.55h.189a8.993,8.993,0,0,0,3.017-.528v6.082ZM66.408,33.2H64.477l-1.783-3.089-3.446-5.968h13.2v3.019A6.044,6.044,0,0,1,66.408,33.2Zm-21.131,0H27.167a6.045,6.045,0,0,1-6.038-6.038A6.044,6.044,0,0,1,15.093,33.2H6.036A6.044,6.044,0,0,1,0,27.167V24.149H44.124a79.66,79.66,0,0,0,2.584,8.886A6.059,6.059,0,0,1,45.277,33.2ZM71.7,21.13h-14.2L51.82,11.283,49.564,0H63.389a3.034,3.034,0,0,1,2.9,2.188L71.7,21.129Zm-28.151,0H24.812L29.037,0H43.408l1.81,9.055c-1.638,2.126-2.3,5.329-1.969,9.522.064.8.166,1.662.3,2.551Zm-24.9,0H.741L6.152,2.189A3.033,3.033,0,0,1,9.055,0H22.881L18.656,21.129Z" transform="translate(14.224 28.447)" fill="#636363"/>
  <path id="Path_3797" data-name="Path 3797" d="M63.5,31.5a1.512,1.512,0,1,1-2.619-1.512l8.168-14.147L66.47,14.356,58.3,28.5a1.511,1.511,0,0,1-2.618-1.511l8.168-14.148-2.576-1.487L53.108,25.5a1.512,1.512,0,0,1-2.619-1.512L58.657,9.846,56.322,8.5,45.963,26.439a10.2,10.2,0,0,0,1.722,12.4L38.543,52.8,37.03,50.18l-8.9-15.418L15.25,12.457c-11.2,6.464,9.406,44.866,9.406,44.866l7.4-4.273,2.963,5.13L26.626,71c-.81,1.4,1.444,4.216,2.584,4.874s4.7,1.2,5.512-.2l4.849-9.608,5.225,9.05a2.87,2.87,0,1,0,4.972-2.87l-7.1-12.307,9.375-18.579a10.2,10.2,0,0,0,11.6-4.71L74,18.7l-2.334-1.347Z" transform="translate(47.25 24.69)" fill="#f0a622"/>
</svg>
