<svg id="ill_food_mk" data-name="ill food mk" xmlns="http://www.w3.org/2000/svg" width="110" height="110" viewBox="0 0 110 110">
  <rect id="Rectangle_1405" data-name="Rectangle 1405" width="110" height="110" fill="none"/>
  <path id="Subtraction_2" data-name="Subtraction 2" d="M-1187.814-3585.879h-5.094a2.549,2.549,0,0,1-2.545-2.547v-28.459a7.589,7.589,0,0,0,2.545.446h7.641a7.61,7.61,0,0,0,5.093-1.95,7.607,7.607,0,0,0,5.091,1.95h15.282a7.623,7.623,0,0,0,2.08-.288c.647,1.714,1.381,3.524,2.183,5.382h-6.809a2.549,2.549,0,0,0-2.546,2.546v7.64a2.55,2.55,0,0,0,2.546,2.547h12.733a2.55,2.55,0,0,0,2.546-2.547v-.225l3.428-1.979,1.287,2.23-6.575,10.04-.023.036-.021.037c-.418.723-.671,1.976.5,3.84a8.759,8.759,0,0,0,1,1.3l-22.521,0v-22.92a2.55,2.55,0,0,0-2.547-2.546h-12.732a2.549,2.549,0,0,0-2.547,2.546v22.92Zm48.386-25.876,0,0-2.7-4.682h.16a7.586,7.586,0,0,0,2.545-.446v5.131Zm-2.545-7.231h-1.63l-1.5-2.606-2.907-5.035h11.134v2.547A5.1,5.1,0,0,1-1141.973-3618.986Zm-17.828,0h-15.279a5.1,5.1,0,0,1-5.094-5.094,5.1,5.1,0,0,1-5.093,5.094h-7.641a5.1,5.1,0,0,1-5.093-5.094v-2.547h37.226a67.232,67.232,0,0,0,2.18,7.5A5.109,5.109,0,0,1-1159.8-3618.986Zm22.3-10.187h-11.979l-4.8-8.308-1.9-9.519h11.664a2.56,2.56,0,0,1,2.449,1.846l4.565,15.979Zm-23.75,0h-15.811L-1173.5-3647h12.125l1.527,7.64c-1.382,1.794-1.941,4.5-1.661,8.033.054.678.14,1.4.255,2.152Zm-21,0h-15.114l4.565-15.98a2.559,2.559,0,0,1,2.449-1.847h11.664l-3.565,17.826Z" transform="translate(1210 3671)" fill="#aeadae"/>
  <path id="Path_3797" data-name="Path 3797" d="M55.434,27.906a1.276,1.276,0,1,1-2.209-1.275L60.116,14.7,57.942,13.44,51.051,25.376A1.275,1.275,0,0,1,48.842,24.1l6.891-11.936L53.559,10.91,46.668,22.846a1.276,1.276,0,0,1-2.209-1.275L51.35,9.635,49.381,8.5l-8.74,15.136A8.605,8.605,0,0,0,42.093,34.1L34.38,45.875,33.1,43.664l-7.51-13.008L14.729,11.838C5.283,17.292,22.665,49.69,22.665,49.69l6.244-3.6,2.5,4.328L24.327,61.225c-.683,1.182,1.218,3.557,2.18,4.112s3.968,1.013,4.65-.169l4.091-8.106L39.655,64.7a2.422,2.422,0,1,0,4.194-2.421L37.856,51.894l7.91-15.674a8.6,8.6,0,0,0,9.789-3.974l8.74-15.138-1.969-1.136Z" transform="translate(38 19.502)" fill="#aeadae"/>
</svg>
