<svg id="Layer_2" data-name="Layer 2" xmlns="http://www.w3.org/2000/svg" width="22.25" height="22.25" viewBox="0 0 22.25 22.25">
  <g id="MrsBeez">
    <g id="shopping-cart">
      <path id="Path_3273" data-name="Path 3273" d="M6.675,17.8A2.225,2.225,0,1,0,8.9,20.025,2.225,2.225,0,0,0,6.675,17.8ZM0,0V2.225H2.225L6.23,10.681,4.673,13.35a3.938,3.938,0,0,0-.223,1.113,2.232,2.232,0,0,0,2.225,2.225h13.35V14.463H7.12A.239.239,0,0,1,6.9,14.24v-.111l1-1.893h8.232a2.033,2.033,0,0,0,1.893-1.113l4-7.23a.611.611,0,0,0,.223-.556,1.051,1.051,0,0,0-1.112-1.112H4.673L3.671,0ZM17.8,17.8a2.225,2.225,0,1,0,2.225,2.225A2.225,2.225,0,0,0,17.8,17.8Z" fill="#adadad"/>
    </g>
  </g>
</svg>
