<?xml version="1.0"?>
<svg xmlns="http://www.w3.org/2000/svg" xmlns:xlink="http://www.w3.org/1999/xlink" xmlns:svgjs="http://svgjs.com/svgjs" version="1.1" width="512" height="512" x="0" y="0" viewBox="0 0 511.989 511.989" style="enable-background:new 0 0 512 512" xml:space="preserve" class=""><g>
<path xmlns="http://www.w3.org/2000/svg" style="" d="M458.656,0H323.338c-25.481-0.072-49.933,10.053-67.904,28.117L18.186,265.387  c-24.248,24.272-24.248,63.6,0,87.872l140.523,140.544c24.272,24.248,63.6,24.248,87.872,0l237.291-237.269  c17.942-18.044,28.046-42.436,28.117-67.883V53.334C511.989,23.879,488.111,0,458.656,0z M394.656,170.667  c-29.455,0-53.333-23.878-53.333-53.333S365.201,64,394.656,64s53.333,23.878,53.333,53.333S424.111,170.667,394.656,170.667z" fill="#f0a622" data-original="#ffc107" class=""/>
<g xmlns="http://www.w3.org/2000/svg">
	<path style="" d="M223.989,384c-5.891,0-10.667-4.776-10.667-10.667V202.667c0-5.891,4.776-10.667,10.667-10.667   c5.891,0,10.667,4.776,10.667,10.667v170.667C234.656,379.225,229.88,384,223.989,384z" fill="#fafafa" data-original="#fafafa"/>
	<path style="" d="M159.989,298.667c-17.673,0-32-14.327-32-32s14.327-32,32-32s32,14.327,32,32   S177.662,298.667,159.989,298.667z M159.989,256c-5.891,0-10.667,4.776-10.667,10.667s4.776,10.667,10.667,10.667   c5.891,0,10.667-4.776,10.667-10.667S165.88,256,159.989,256z" fill="#fafafa" data-original="#fafafa"/>
	<path style="" d="M287.989,341.334c-17.673,0-32-14.327-32-32c0-17.673,14.327-32,32-32c17.673,0,32,14.327,32,32   C319.989,327.007,305.662,341.334,287.989,341.334L287.989,341.334z M287.989,298.667c-5.891,0-10.667,4.776-10.667,10.667   c0,5.891,4.776,10.667,10.667,10.667c5.891,0,10.667-4.776,10.667-10.667C298.656,303.443,293.88,298.667,287.989,298.667z" fill="#fafafa" data-original="#fafafa"/>
</g>
<g xmlns="http://www.w3.org/2000/svg">
</g>
<g xmlns="http://www.w3.org/2000/svg">
</g>
<g xmlns="http://www.w3.org/2000/svg">
</g>
<g xmlns="http://www.w3.org/2000/svg">
</g>
<g xmlns="http://www.w3.org/2000/svg">
</g>
<g xmlns="http://www.w3.org/2000/svg">
</g>
<g xmlns="http://www.w3.org/2000/svg">
</g>
<g xmlns="http://www.w3.org/2000/svg">
</g>
<g xmlns="http://www.w3.org/2000/svg">
</g>
<g xmlns="http://www.w3.org/2000/svg">
</g>
<g xmlns="http://www.w3.org/2000/svg">
</g>
<g xmlns="http://www.w3.org/2000/svg">
</g>
<g xmlns="http://www.w3.org/2000/svg">
</g>
<g xmlns="http://www.w3.org/2000/svg">
</g>
<g xmlns="http://www.w3.org/2000/svg">
</g>
</g></svg>
