<svg xmlns="http://www.w3.org/2000/svg" xmlns:xlink="http://www.w3.org/1999/xlink" width="41.33" height="26.58" viewBox="0 0 41.33 26.58">
  <defs>
    <clipPath id="clip-path">
      <rect id="Rectangle_1205" data-name="Rectangle 1205" width="41.33" height="26.58" transform="translate(-2958 -2207)" fill="#fff" stroke="#707070" stroke-width="1"/>
    </clipPath>
  </defs>
  <g id="VISA" transform="translate(2958 2207)" clip-path="url(#clip-path)">
    <g id="visa_logo" data-name="visa logo" transform="translate(-3038.036 -2305.378)">
      <path id="polygon9" d="M436.656,122.9h-3.149l1.969-12.178h3.149Z" transform="translate(-338.646 -5.458)" fill="#00579f"/>
      <path id="path11" d="M574.624,105.566a7.76,7.76,0,0,0-2.824-.518c-3.11,0-5.3,1.658-5.313,4.029-.026,1.749,1.568,2.721,2.76,3.3,1.218.6,1.632.985,1.632,1.516-.012.816-.984,1.192-1.891,1.192a6.267,6.267,0,0,1-2.954-.648l-.415-.195-.441,2.734a9.583,9.583,0,0,0,3.512.648c3.3,0,5.455-1.633,5.48-4.159.013-1.386-.829-2.449-2.643-3.316-1.1-.557-1.776-.933-1.776-1.5.013-.518.57-1.049,1.814-1.049a5.35,5.35,0,0,1,2.346.466l.285.129.428-2.63Z" transform="translate(-465.2 0)" fill="#00579f"/>
      <path id="path13" d="M795.394,118.59c.259-.7,1.257-3.407,1.257-3.407-.013.026.259-.713.414-1.166l.22,1.049s.6,2.915.726,3.524Zm3.887-7.864h-2.436a1.554,1.554,0,0,0-1.646,1.01L790.522,122.9h3.3l.661-1.827h4.043c.09.428.376,1.827.376,1.827h2.916l-2.54-12.178Z" transform="translate(-681.784 -5.458)" fill="#00579f"/>
      <path id="path15" d="M173.61,110.727l-3.084,8.3-.337-1.684a9.321,9.321,0,0,0-4.353-5.1l2.825,10.649h3.33l4.949-12.165Z" transform="translate(-81.379 -5.458)" fill="#00579f"/>
      <path id="path17" d="M86.284,110.727H81.218l-.052.246a10.536,10.536,0,0,1,7.644,6.374l-1.1-5.6a1.3,1.3,0,0,0-1.425-1.024Z" transform="translate(0 -5.458)" fill="#faa61a"/>
    </g>
  </g>
</svg>
