<svg xmlns="http://www.w3.org/2000/svg" width="31.98" height="31.98" viewBox="0 0 31.98 31.98"><defs><style>.a{fill:#ddd;}</style></defs><g transform="translate(8.3 7.319)"><path class="a" d="M15.99,0A15.99,15.99,0,1,0,31.981,15.991,15.99,15.99,0,0,0,15.99,0Zm7.6,11.508-1.518,1.518L18.979,9.932l-1.173,1.173L20.9,14.2l-7.583,7.582-3.094-3.094L9.05,19.861l3.094,3.094-.755.755-.014-.014a.6.6,0,0,1-.382.274l-2.88.64a.6.6,0,0,1-.715-.716l.64-2.88a.6.6,0,0,1,.275-.382L8.3,20.617l12.2-12.2a.459.459,0,0,1,.649,0l2.444,2.443a.459.459,0,0,1,0,.65Z" transform="translate(-8.301 -7.319)"/></g></svg>