<svg height="480pt" viewBox="-31 0 479 480" width="480pt" xmlns="http://www.w3.org/2000/svg"><path d="m64.5 440c0 22.398438 17.601562 40 40 40h272c22.398438 0 40-17.601562 40-40v-40h-64v-360c0-22.398438-17.601562-40-40-40h-272c-22.398438 0-40 17.601562-40 40v40h64zm280-24h56v24c0 13.601562-10.398438 24-24 24h-240c5.601562-7.199219 8-15.199219 8-24v-24zm-32-400c13.601562 0 24 10.398438 24 24v360h-208v40c0 13.601562-10.398438 24-24 24s-24-10.398438-24-24v-400c0-8.800781-3.199219-16.800781-8-24zm-296 48v-24c0-13.601562 10.398438-24 24-24s24 10.398438 24 24v24zm0 0"/><path d="m136.5 56h80v16h-80zm0 0"/><path d="m96.5 88h32v16h-32zm0 0"/><path d="m144.5 88h112v16h-112zm0 0"/><path d="m96.5 120h72v16h-72zm0 0"/><path d="m184.5 120h72v16h-72zm0 0"/><path d="m96.5 152h48v16h-48zm0 0"/><path d="m160.5 152h96v16h-96zm0 0"/><path d="m96.5 184h112v16h-112zm0 0"/><path d="m224.5 184h32v16h-32zm0 0"/><path d="m96.5 216h64v16h-64zm0 0"/><path d="m176.5 216h80v16h-80zm0 0"/><path d="m96.5 248h88v16h-88zm0 0"/><path d="m192.5 304h64v16h-64zm0 0"/><path d="m192.5 344h112v16h-112zm0 0"/><path d="m120.5 368h32c13.601562 0 24-10.398438 24-24v-8h-16v8c0 4.800781-3.199219 8-8 8h-32c-4.800781 0-8-3.199219-8-8v-32c0-4.800781 3.199219-8 8-8h8v-16h-8c-13.601562 0-24 10.398438-24 24v32c0 13.601562 10.398438 24 24 24zm0 0"/><path d="m288.5 328h16v-13.601562l16-24v-234.398438c0-8.800781-7.199219-16-16-16h-16c-8.800781 0-16 7.199219-16 16v234.398438l16 24zm8-30.398438-8-12v-13.601562h16v13.601562zm8-241.601562v200h-16v-200zm0 0"/><path d="m123.042969 330.140625 40.160156-40.164063 11.316406 11.316407-40.164062 40.160156zm0 0"/></svg>