<svg xmlns="http://www.w3.org/2000/svg" width="30.081" height="30.081" viewBox="0 0 30.081 30.081">
  <g id="Group_4958" data-name="Group 4958" transform="translate(0 0)">
    <g id="Group_4957" data-name="Group 4957" transform="translate(4.31 6.464)">
      <path id="Path_7484" data-name="Path 7484" d="M11.214,2.984,8.625,1.947,4.111.141a2.044,2.044,0,0,0-1.492,0L0,1.186,7.588,4.439Z" transform="translate(10.64 0)" fill="#83c168"/>
      <path id="Path_7485" data-name="Path 7485" d="M8.006,0,4.216,1.492V4.581a.448.448,0,0,1-.425.433.439.439,0,0,1-.418-.433V1.858L0,3.2V13.878L7.424,9.841a1.111,1.111,0,0,0,.582-.977Z" transform="translate(14.415 3.663)" fill="#83c168"/>
      <path id="Path_7486" data-name="Path 7486" d="M3.387,0,0,1.358,7.857,4.5l3.119-1.246Z" transform="translate(6.133 1.626)" fill="#83c168"/>
      <rect id="Rectangle_3388" data-name="Rectangle 3388" width="8.215" height="1.142" rx="0.571" transform="translate(0 8.23)" fill="#83c168"/>
      <rect id="Rectangle_3389" data-name="Rectangle 3389" width="7.073" height="1.142" rx="0.571" transform="translate(2.664 10.17)" fill="#83c168"/>
      <rect id="Rectangle_3390" data-name="Rectangle 3390" width="7.021" height="1.142" rx="0.571" transform="translate(1.194 12.147)" fill="#83c168"/>
      <path id="Path_7487" data-name="Path 7487" d="M0,0V3.954H2.074A1.186,1.186,0,0,1,3.26,5.141a1.149,1.149,0,0,1-.276.746H3.6a1.186,1.186,0,1,1,0,2.373H2.947a1.157,1.157,0,0,1,.313.791,1.186,1.186,0,0,1-1.186,1.186H1.1l6.916,3.641V3.2Z" transform="translate(5.566 3.663)" fill="#83c168"/>
    </g>
    <g id="icons" transform="translate(0 0)">
      <rect id="Rectangle_3669" data-name="Rectangle 3669" width="30.081" height="30.081" transform="translate(0 0)" fill="none"/>
    </g>
  </g>
</svg>
