<svg id="Component_23" data-name="Component 23" xmlns="http://www.w3.org/2000/svg" width="15" height="15" viewBox="0 0 15 15">
  <g id="Group_356" data-name="Group 356" transform="translate(-72.6 0)">
    <path id="Path_3614" data-name="Path 3614" d="M3014,2432.473a7.5,7.5,0,1,1,7.527,7.527A7.5,7.5,0,0,1,3014,2432.473Zm8.509.436a2.022,2.022,0,0,0,0,2.51,1.582,1.582,0,0,0,2.291,0,1.747,1.747,0,0,0,.437-1.255,1.948,1.948,0,0,0-.437-1.255,1.583,1.583,0,0,0-2.291,0Zm-3.545,2.946h1.145l3.818-6.709h-1.145Zm-.709-6.327a1.841,1.841,0,0,0-.436,1.254,1.542,1.542,0,0,0,.436,1.255,1.582,1.582,0,0,0,2.291,0,2.021,2.021,0,0,0,0-2.509,1.581,1.581,0,0,0-2.291,0Zm4.909,5.346a1.241,1.241,0,0,1-.164-.709,1.164,1.164,0,0,1,.164-.654.532.532,0,0,1,.491-.219.44.44,0,0,1,.491.219,1.164,1.164,0,0,1,.164.654,1.368,1.368,0,0,1-.164.709.572.572,0,0,1-.491.272A.478.478,0,0,1,3023.164,2434.873Zm-3.791-3.11h-.028a.572.572,0,0,1-.49-.273,1.358,1.358,0,0,1-.164-.709,1.159,1.159,0,0,1,.164-.654.572.572,0,0,1,.49-.273h.055a.574.574,0,0,1,.491.273,1.162,1.162,0,0,1,.164.654,1.237,1.237,0,0,1-.164.709.754.754,0,0,1-.491.273Z" transform="translate(-2941.4 -2425)" fill="#f0a622"/>
  </g>
</svg>
