<svg xmlns="http://www.w3.org/2000/svg" width="25" height="25" viewBox="0 0 25 25">
  <g id="ic_refund" data-name="ic refund" transform="translate(0 32)">
    <g id="ic_product_icon_192px" transform="translate(0 -32)">
      <path id="Path_3844" data-name="Path 3844" d="M15.108,6.314A8.82,8.82,0,1,1,6.257,17.023a.819.819,0,0,1,1.6-.348,7.194,7.194,0,1,0,7.256-8.722V9.334a.654.654,0,0,1-1.015.544l-3.38-1.956a.654.654,0,0,1,0-1.131l3.411-1.968a.648.648,0,0,1,.978.562v.929ZM6.74,13.38a1.033,1.033,0,1,1-.886,1.161A1.033,1.033,0,0,1,6.74,13.38Zm1.1-2.708a1.033,1.033,0,1,1-1.222.782A1.033,1.033,0,0,1,7.841,10.672ZM9.8,8.5a1.033,1.033,0,1,1-.781-.139A1.033,1.033,0,0,1,9.8,8.5Z" transform="translate(-2.272 -1.84)" fill="#636363"/>
      <path id="Path_3845" data-name="Path 3845" d="M18.481,14.521a4.621,4.621,0,1,0,3.93,5.226,4.621,4.621,0,0,0-3.93-5.226Zm-.2,4.279c.795.41,1.064.844.978,1.479a1.339,1.339,0,0,1-1.418,1.106l-.1.746-.691-.1.092-.666A2.928,2.928,0,0,1,16,20.908l.324-.789a2.445,2.445,0,0,0,1.119.471c.4.061.7-.061.74-.336s-.165-.465-.666-.715c-.709-.355-1.167-.776-1.076-1.455A1.3,1.3,0,0,1,17.8,17.009l.1-.66.685.092-.092.611a2.6,2.6,0,0,1,.99.373l-.324.764a2.152,2.152,0,0,0-.972-.391c-.452-.061-.611.116-.654.312s.189.41.758.709Z" transform="translate(-5.137 -5.627)" fill="#636363"/>
      <rect id="Rectangle_2227" data-name="Rectangle 2227" width="25" height="25" fill="none"/>
    </g>
  </g>
</svg>
