<svg xmlns="http://www.w3.org/2000/svg" width="82.759" height="82.759" viewBox="0 0 82.759 82.759">
  <g id="Icon_Success" transform="translate(0)">
    <path id="Subtraction_1" data-name="Subtraction 1" d="M41.379,82.759A41.39,41.39,0,0,1,25.272,3.252,41.39,41.39,0,0,1,57.486,79.507,41.126,41.126,0,0,1,41.379,82.759Zm-.113-24.283a5,5,0,0,0-3.592,1.412,5.072,5.072,0,0,0-1.407,3.623,4.816,4.816,0,0,0,5,5A4.962,4.962,0,0,0,44.84,67.1a5.043,5.043,0,0,0,1.389-3.592,5.1,5.1,0,0,0-1.389-3.623A4.948,4.948,0,0,0,41.266,58.476ZM37.633,15.929l.611,34.67h5.97l.611-34.67Z" fill="#f0c022"/>
  </g>
</svg>
