<svg id="ic_free_delivery" data-name="ic free delivery" xmlns="http://www.w3.org/2000/svg" width="34" height="34" viewBox="0 0 34 34">
  <rect id="Rectangle_2352" data-name="Rectangle 2352" width="34" height="34" fill="none"/>
  <path id="Subtraction_28" data-name="Subtraction 28" d="M20.636,20.636a2.764,2.764,0,1,1,2-.809A2.808,2.808,0,0,1,20.636,20.636Zm-14.071,0a2.814,2.814,0,1,1,0-5.628,2.814,2.814,0,1,1,0,5.628Zm10.412-3.752H10.13A3.75,3.75,0,0,0,6.472,14.07a3.828,3.828,0,0,0-3.659,2.813H0V0H13.132a1.871,1.871,0,0,1,.553.083c-.009.157-.014.321-.014.487a8.516,8.516,0,0,0,1.337,4.592v9.847h.938V6.375A8.577,8.577,0,0,0,17.822,7.9v2.419h6.472l-.757-1.306a8.5,8.5,0,0,0,1.715-.453l.537.915a4.265,4.265,0,0,1,.469,1.876v4.409a.867.867,0,0,1-.218.7,1.2,1.2,0,0,1-.907.42,1.462,1.462,0,0,1-1.213-.749,3.562,3.562,0,0,0-3.282-2.065,3.826,3.826,0,0,0-3.658,2.813ZM10.6,5.166V7.975h1.982V7.321H11.425V6.867h1.084V6.275H11.425V5.82h1.156V5.166Zm-2.584,0V7.975H10V7.321H8.842V6.867H9.926V6.275H8.842V5.82H10V5.166ZM5.909,7.033h.27l.445.942h.923L7.014,6.91a.85.85,0,0,0,.453-.791c0-.6-.41-.953-1.1-.953H5.084V7.975h.825V7.034l0,0ZM2.6,5.166V7.975h.825V6.98h1.04V6.361H3.426V5.82H4.575V5.166Zm3.649,1.3h-.34V5.774h.342a.342.342,0,0,1,.373.349A.334.334,0,0,1,6.25,6.468Z" transform="translate(2.279 10.253)" fill="#cecece"/>
  <g id="Ic_checked" transform="translate(17.089 3.418)">
    <g id="CheckBox_Checked" transform="translate(0 0)">
      <circle id="Ellipse_2" data-name="Ellipse 2" cx="7.5" cy="7.5" r="7.5" transform="translate(-0.089 -0.418)" fill="#cecece"/>
    </g>
    <path id="Path_3326" data-name="Path 3326" d="M247.445,4874.675l1.739,1.739,4.119-4.12" transform="translate(-243.071 -4867.239)" fill="none" stroke="#fff" stroke-linecap="round" stroke-linejoin="round" stroke-width="1"/>
  </g>
  <path id="Subtraction_26" data-name="Subtraction 26" d="M20.636,20.636a2.764,2.764,0,1,1,2-.809A2.808,2.808,0,0,1,20.636,20.636Zm-14.071,0a2.814,2.814,0,1,1,0-5.628,2.814,2.814,0,1,1,0,5.628Zm10.412-3.752H10.13A3.75,3.75,0,0,0,6.472,14.07a3.828,3.828,0,0,0-3.659,2.813H0V0H13.132a1.871,1.871,0,0,1,.553.083c-.009.157-.014.321-.014.487a8.516,8.516,0,0,0,1.337,4.592v9.847h.938V6.375A8.577,8.577,0,0,0,17.822,7.9v2.419h6.472l-.757-1.306a8.5,8.5,0,0,0,1.715-.453l.537.915a4.265,4.265,0,0,1,.469,1.876v4.409a.867.867,0,0,1-.218.7,1.2,1.2,0,0,1-.907.42,1.462,1.462,0,0,1-1.213-.749,3.562,3.562,0,0,0-3.282-2.065,3.826,3.826,0,0,0-3.658,2.813ZM10.6,5.166V7.975h1.982V7.321H11.425V6.867h1.084V6.275H11.425V5.82h1.156V5.166Zm-2.584,0V7.975H10V7.321H8.842V6.867H9.926V6.275H8.842V5.82H10V5.166ZM5.909,7.033h.27l.445.942h.923L7.014,6.91a.85.85,0,0,0,.453-.791c0-.6-.41-.953-1.1-.953H5.084V7.975h.825V7.034l0,0ZM2.6,5.166V7.975h.825V6.98h1.04V6.361H3.426V5.82H4.575V5.166Zm3.649,1.3h-.34V5.774h.342a.342.342,0,0,1,.373.349A.334.334,0,0,1,6.25,6.468Z" transform="translate(2.279 10.253)" fill="#cecece"/>
  <g id="Ic_checked-2" data-name="Ic_checked" transform="translate(17.089 3.418)">
    <g id="CheckBox_Checked-2" data-name="CheckBox_Checked" transform="translate(0 0)">
      <circle id="Ellipse_2-2" data-name="Ellipse 2" cx="7.5" cy="7.5" r="7.5" transform="translate(-0.089 -0.418)" fill="#cecece"/>
    </g>
    <path id="Path_3326-2" data-name="Path 3326" d="M247.445,4874.675l1.739,1.739,4.119-4.12" transform="translate(-243.071 -4867.239)" fill="none" stroke="#fff" stroke-linecap="round" stroke-linejoin="round" stroke-width="1"/>
  </g>
</svg>
