<svg xmlns="http://www.w3.org/2000/svg" width="202.287" height="201.998" viewBox="0 0 202.287 201.998">
  <g id="Group_6199" data-name="Group 6199" transform="translate(-103.125 -20.472)">
    <g id="Group_6197" data-name="Group 6197" transform="translate(103.125 83.262)" opacity="0.258">
      <ellipse id="Ellipse_1578" data-name="Ellipse 1578" cx="33.171" cy="33.715" rx="33.171" ry="33.715" transform="translate(0 0)" fill="#636363"/>
      <path id="Path_8625" data-name="Path 8625" d="M-10.647-24.692H-6.2c.286-3.721,2.784-6.037,6.713-6.037,3.877,0,6.375,2.368,6.375,5.594,0,2.784-1.171,4.424-4.189,6.271-3.565,2.134-5.23,4.476-5.2,7.91v2.394H2.051V-10.25c0-2.732.937-4.189,4.241-6.141,3.331-2,5.438-4.892,5.438-8.977,0-5.36-4.476-9.42-11.033-9.42C-6.614-34.788-10.361-30.312-10.647-24.692ZM.126,3.515A3.464,3.464,0,0,0,3.717-.1,3.471,3.471,0,0,0,.126-3.745,3.491,3.491,0,0,0-3.491-.1,3.485,3.485,0,0,0,.126,3.515Z" transform="translate(30.607 48.069)" fill="#fff"/>
    </g>
    <ellipse id="Ellipse_764" data-name="Ellipse 764" cx="54.378" cy="15.226" rx="54.378" ry="15.226" transform="translate(159.679 192.018)" fill="#e5e5e5"/>
    <g id="Group_6195" data-name="Group 6195" transform="translate(268.436 157.216)">
      <ellipse id="Ellipse_1578-2" data-name="Ellipse 1578" cx="14.682" cy="15.77" rx="14.682" ry="15.77" transform="translate(0 0)" fill="#636363"/>
      <path id="Path_8628" data-name="Path 8628" d="M-4.563-10.582h1.907A2.656,2.656,0,0,1,.221-13.169a2.456,2.456,0,0,1,2.732,2.4c0,1.193-.5,1.9-1.8,2.688-1.528.914-2.242,1.918-2.23,3.39v1.026H.879v-.725c0-1.171.4-1.8,1.818-2.632a4.323,4.323,0,0,0,2.331-3.847c0-2.3-1.918-4.037-4.728-4.037C-2.834-14.909-4.44-12.991-4.563-10.582ZM.054,1.506A1.484,1.484,0,0,0,1.593-.044,1.487,1.487,0,0,0,.054-1.605,1.5,1.5,0,0,0-1.5-.044,1.493,1.493,0,0,0,.054,1.506Z" transform="translate(14.826 22.621)" fill="#fff"/>
    </g>
    <g id="Group_6196" data-name="Group 6196" transform="translate(284.749 36.496)" opacity="0.376">
      <ellipse id="Ellipse_1578-3" data-name="Ellipse 1578" cx="10.332" cy="10.876" rx="10.332" ry="10.876" transform="translate(0 0)" fill="#636363"/>
      <path id="Path_8627" data-name="Path 8627" d="M-2.825-6.551h1.18a1.644,1.644,0,0,1,1.781-1.6A1.521,1.521,0,0,1,1.828-6.668C1.828-5.93,1.518-5.495.717-5a2.31,2.31,0,0,0-1.381,2.1v.635H.544v-.449c0-.725.249-1.111,1.125-1.629A2.676,2.676,0,0,0,3.112-6.73a2.638,2.638,0,0,0-2.927-2.5A2.732,2.732,0,0,0-2.825-6.551ZM.033.932a.919.919,0,0,0,.953-.96A.921.921,0,0,0,.033-.994a.926.926,0,0,0-.96.966A.925.925,0,0,0,.033.932Z" transform="translate(10.628 15.505)" fill="#fff"/>
    </g>
    <path id="Union_28" data-name="Union 28" d="M10.953,99.085a63.441,63.441,0,1,1,104.876.151l-52.077,84.89Z" transform="translate(148.42 20.471)" fill="#636363"/>
    <g id="Group_6198" data-name="Group 6198" transform="translate(189.811 45.658)">
      <path id="Path_8626" data-name="Path 8626" d="M-21.294-49.384h8.9c.572-7.442,5.568-12.074,13.427-12.074,7.754,0,12.75,4.736,12.75,11.189,0,5.568-2.342,8.847-8.379,12.542C-1.726-33.459-5.057-28.775-5-21.906v4.788H4.1V-20.5c0-5.464,1.874-8.379,8.483-12.282,6.661-4.007,10.877-9.784,10.877-17.954,0-10.721-8.951-18.839-22.066-18.839C-13.227-69.576-20.721-60.625-21.294-49.384ZM.251,7.029A6.928,6.928,0,0,0,7.433-.2,6.941,6.941,0,0,0,.251-7.49,6.983,6.983,0,0,0-6.982-.2,6.97,6.97,0,0,0,.251,7.029Z" transform="translate(21.294 69.576)" fill="#fff"/>
    </g>
  </g>
</svg>
