<svg xmlns="http://www.w3.org/2000/svg" width="23.5" height="16.178" viewBox="0 0 23.5 16.178">
  <path id="Union_1" data-name="Union 1" d="M262.926-205.967a.736.736,0,0,1-.52-.217l-.94-.947-.951.943a.734.734,0,0,1-.519.209h-3.66a1.474,1.474,0,0,1-1.474-1.474l.047-13.162a1.474,1.474,0,0,1,1.474-1.475h3.66a.74.74,0,0,1,.52.228l.932.955.959-.947a.736.736,0,0,1,.517-.209l13.913.055a1.474,1.474,0,0,1,1.478,1.444l-.052,13.176a1.474,1.474,0,0,1-1.474,1.475Zm-2.211-2.919h1.474v-1.474h-1.474Zm7.345-.671h.925l4.813-8.886h-.9Zm5.778-4.486a2.211,2.211,0,0,0-2.211,2.211,2.211,2.211,0,0,0,1.364,2.059,2.212,2.212,0,0,0,2.422-.487h0a2.209,2.209,0,0,0,.487-2.421,2.212,2.212,0,0,0-2.044-1.364Zm-13.125,2.227h1.474v-1.474h-1.472Zm7.342-2.164a2.211,2.211,0,0,0,2.211-2.211,2.151,2.151,0,0,0-.663-1.563,2.211,2.211,0,0,0-2.409-.479,2.211,2.211,0,0,0-1.365,2.042,2.124,2.124,0,0,0,.663,1.581l-.011-.007a2.126,2.126,0,0,0,1.576.636Zm-7.342-.766h1.474v-1.475h-1.472Zm.045-2.924h1.474v-1.474h-1.474Zm12.137,5.82a.942.942,0,0,1,.278-.671.942.942,0,0,1,.671-.278.916.916,0,0,1,.671.287.926.926,0,0,1,.278.66.951.951,0,0,1-.949.892.951.951,0,0,1-.949-.887Zm-5.5-3.668a.946.946,0,0,1-.209-1.027.946.946,0,0,1,.865-.592.912.912,0,0,1,.67.278.946.946,0,0,1-.05,1.277.945.945,0,0,1-.674.278.944.944,0,0,1-.6-.212Z" transform="translate(-254.862 222.091)" fill="#efa521"/>
</svg>
