<svg xmlns="http://www.w3.org/2000/svg" width="24.327" height="24.327" viewBox="0 0 24.327 24.327">
  <path id="Icon_edit" d="M12.164,0A12.164,12.164,0,1,0,24.328,12.164,12.164,12.164,0,0,0,12.164,0Zm5.782,8.754L16.791,9.909,14.438,7.555l-.893.893L15.9,10.8l-1.241,1.241L10.13,16.569,7.777,14.215l-.893.893,2.353,2.353-.575.575-.011-.011a.455.455,0,0,1-.291.209l-2.191.487a.456.456,0,0,1-.544-.545l.487-2.191a.457.457,0,0,1,.209-.291l-.011-.011L15.595,6.4a.349.349,0,0,1,.493,0L17.948,8.26a.349.349,0,0,1,0,.494Z" transform="translate(-0.001 0)" fill="#636363"/>
</svg>
