<svg id="ic_shopping_basket" data-name="ic shopping basket" xmlns="http://www.w3.org/2000/svg" width="512" height="512" viewBox="0 0 36 36">
  <rect id="Rectangle_2218" data-name="Rectangle 2218" width="512" height="512" fill="#fff" opacity="0"/>
  <g id="noun_basket_3082044" transform="translate(0.834 -5.795)">
    <path id="Path_3819" data-name="Path 3819" d="M28.262,19.388,22.468,12.3l-2.126,1.756,4.376,5.362H9.557l4.376-5.362-2.126-1.726L6.013,19.418H2.5v2.743H5.088L6.105,32.638a3.216,3.216,0,0,0,3.2,2.927H24.964a3.216,3.216,0,0,0,3.2-2.927l1.017-10.477h2.588V19.418H28.262ZM12.854,31.344H10.111V23.578h2.743Zm5.639,0H15.751V23.578h2.743Zm5.67,0H21.421V23.578h2.743Z" fill="#adadad"/>
  </g>
</svg>
