<svg id="ic_expiry_date" data-name="ic expiry date" xmlns="http://www.w3.org/2000/svg" width="25" height="25" viewBox="0 0 25 25">
  <g id="noun_Calendar_3398359" transform="translate(2 2.5)">
    <path id="Path_7424" data-name="Path 7424" d="M4.482,4.982V6.637a1.655,1.655,0,0,0,3.31,0V4.982h4.964V6.637a1.655,1.655,0,1,0,3.31,0V4.982a2.483,2.483,0,0,1,2.482,2.482V9.119H2V7.464A2.482,2.482,0,0,1,4.482,4.982Zm14.066,5.274V15.22A2.483,2.483,0,0,1,16.066,17.7H4.482A2.483,2.483,0,0,1,2,15.22V10.256ZM14.411,2.5a.827.827,0,0,1,.827.827v3.31a.827.827,0,1,1-1.655,0V3.327A.827.827,0,0,1,14.411,2.5Zm-8.274,0a.828.828,0,0,1,.827.827v3.31a.827.827,0,1,1-1.655,0V3.327A.828.828,0,0,1,6.137,2.5Z" transform="translate(0 0)" fill="#636363"/>
  </g>
  <rect id="Rectangle_2387" data-name="Rectangle 2387" width="25" height="25" fill="none"/>
</svg>
