<svg id="ic_contact" data-name="ic contact" xmlns="http://www.w3.org/2000/svg" width="50" height="50" viewBox="0 0 50 50">
  <rect id="Rectangle_2193" data-name="Rectangle 2193" width="50" height="50" fill="#fff" opacity="0"/>
  <g id="call-center-worker-with-headset" transform="translate(4 1.412)">
    <path id="Path_3714" data-name="Path 3714" d="M17.28,25.39a2,2,0,0,1-2.105,1.883,1.895,1.895,0,1,1,0-3.766A2,2,0,0,1,17.28,25.39Zm8.545-1.883A1.895,1.895,0,1,0,27.93,25.39,2,2,0,0,0,25.825,23.507ZM41,24.34v3.578a3.461,3.461,0,0,1-3.637,3.253H34.724C32.109,37.665,25.431,41.588,20.5,41.588S8.891,37.665,6.276,31.171H3.637A3.461,3.461,0,0,1,0,27.919V24.34a3.222,3.222,0,0,1,1.907-2.862C1.945,16.4,3.6,12.431,6.834,9.688c3.208-2.721,7.806-4.1,13.666-4.1s10.458,1.38,13.666,4.1c3.234,2.743,4.889,6.71,4.928,11.791A3.222,3.222,0,0,1,41,24.34ZM33.3,25.4c0-.837-.048-1.623-.119-2.385-1.614-1.321-4.544-2.323-8.242-2.7A4.657,4.657,0,0,1,26.1,22.3c-2.265-1.6-6.711-1.216-10.075-4.788-.193-.2-.36-.39-.5-.564l-.005-.006h0c-.6-.724-.8-1.154-.814-.678a8.109,8.109,0,0,1-6.965,7.757c-.023.451-.042.907-.042,1.383a13.322,13.322,0,0,0,.855,4.742c2.029,2.189,5.38,2.807,8.346,2.971a3.972,3.972,0,0,1,3.225-1.33c1.951,0,3.532,1,3.532,2.242s-1.581,2.242-3.532,2.242a3.864,3.864,0,0,1-3.291-1.433,19.135,19.135,0,0,1-6.383-1.282c2.856,3.765,7.284,5.756,10.049,5.756C24.845,39.311,33.3,34.4,33.3,25.4Zm3.6-4.314C36.672,12.223,31.015,7.54,20.5,7.54S4.328,12.223,4.1,21.088H5.5A14.739,14.739,0,0,1,8.73,13.753c2.616-3.011,6.576-4.537,11.77-4.537s9.153,1.527,11.77,4.537A14.74,14.74,0,0,1,35.5,21.088h1.4Z" transform="translate(0 0)" fill="#636363"/>
  </g>
</svg>
