<svg id="Group_4865" data-name="Group 4865" xmlns="http://www.w3.org/2000/svg" width="15.014" height="16.729" viewBox="0 0 15.014 16.729">
  <path id="Subtraction_35" data-name="Subtraction 35" d="M6.968,16.729a2.452,2.452,0,0,1-2.193-1.393H9.166A2.423,2.423,0,0,1,6.968,16.729Zm4.661-2.088H.348a.345.345,0,0,1-.3-.178.349.349,0,0,1,0-.354l1.2-2a5.91,5.91,0,0,0,.847-3.049V7.32a4.853,4.853,0,0,1,.364-1.852l9.17,9.17Zm.428-4.021,0,0L4.534,3.1a4.806,4.806,0,0,1,1.043-.449V1.4a1.394,1.394,0,1,1,2.788,0v1.25a4.92,4.92,0,0,1,2.5,1.734,4.829,4.829,0,0,1,.986,2.939V9.064a5.9,5.9,0,0,0,.207,1.551Z" transform="translate(0.786)" fill="#636363"/>
  <rect id="Rectangle_2371" data-name="Rectangle 2371" width="1.573" height="19.661" transform="translate(0 2.685) rotate(-45)" fill="#636363"/>
</svg>
