<svg xmlns="http://www.w3.org/2000/svg" viewBox="0 0 47.55 47.55"><defs><style>.cls-1{fill:#cecece;}.cls-2{fill:none;}</style></defs><g id="Layer_2" data-name="Layer 2"><g id="ic_product_icon_192px"><path id="Subtraction_2" data-name="Subtraction 2" class="cls-1" d="M9.25,36.42H7.13a1.07,1.07,0,0,1-1.06-1.06V23.53a3.19,3.19,0,0,0,1.06.18h3.18a3.11,3.11,0,0,0,2.12-.81,3.07,3.07,0,0,0,2.11.81h6.35a3.12,3.12,0,0,0,.86-.11c.27.71.58,1.46.91,2.23H19.83a1.07,1.07,0,0,0-1.06,1.06v3.18a1.06,1.06,0,0,0,1.06,1.05h5.3a1,1,0,0,0,1.05-1.05V30l1.43-.82.53.93-2.73,4.17h0v0a1.48,1.48,0,0,0,.21,1.59,2.79,2.79,0,0,0,.42.54H16.66V26.89a1.07,1.07,0,0,0-1.06-1.06H10.31a1.06,1.06,0,0,0-1.06,1.06v9.52ZM29.36,25.66h0l-1.13-1.95h.07a3.19,3.19,0,0,0,1.06-.18v2.13Zm-1.06-3h-.68L27,21.57l-1.21-2.09h4.62v1.06A2.11,2.11,0,0,1,28.3,22.66Zm-7.41,0H14.54a2.12,2.12,0,0,1-2.12-2.12,2.12,2.12,0,0,1-2.11,2.12H7.13A2.13,2.13,0,0,1,5,20.54V19.48H20.49a27.83,27.83,0,0,0,.9,3.12A2.07,2.07,0,0,1,20.89,22.66Zm9.26-4.24h-5l-2-3.45-.79-4h4.85a1.08,1.08,0,0,1,1,.77l1.89,6.64Zm-9.87,0H13.71L15.2,11h5l.63,3.18a4.79,4.79,0,0,0-.69,3.34c0,.28.06.58.11.89Zm-8.73,0H5.27l1.9-6.64a1.08,1.08,0,0,1,1-.77H13l-1.48,7.41Z"/><path id="Path_3797" data-name="Path 3797" class="cls-1" d="M38.86,20.74a.53.53,0,1,1-.92-.53l2.86-5-.9-.52-2.86,5a.54.54,0,0,1-.73.18.52.52,0,0,1-.19-.71l2.86-5-.9-.52-2.87,5a.53.53,0,0,1-.92-.53l2.87-5-.82-.47L32.71,19a3.56,3.56,0,0,0,.6,4.34l-3.2,4.9-.53-.92-3.12-5.4-4.52-7.82C18,16.33,25.24,29.8,25.24,29.8l2.59-1.5,1,1.8-2.94,4.49c-.28.49.51,1.48.91,1.71s1.64.42,1.93-.07l1.7-3.37L32.3,36a1,1,0,0,0,1.38.36A1,1,0,0,0,34,35l-2.49-4.32,3.29-6.51a3.59,3.59,0,0,0,4.07-1.65l3.63-6.29-.82-.48Z"/><rect class="cls-2" width="47.55" height="47.55"/></g></g></svg>