<svg xmlns="http://www.w3.org/2000/svg" width="48.073" height="64.386" viewBox="0 0 48.073 64.386">
  <g id="Group_564" data-name="Group 564" transform="translate(0 0)">
    <g id="Group_563" data-name="Group 563" transform="translate(48.073 32.337) rotate(90)">
      <g id="Group_373" data-name="Group 373" transform="translate(0)">
        <path id="Path_3634" data-name="Path 3634" d="M31.869,29.217a2,2,0,0,0-1.823-1.174H22.034V2a2,2,0,0,0-2-2H12.019a2,2,0,0,0-2,2v26.04H2A2,2,0,0,0,.5,31.364L14.518,47.388a2,2,0,0,0,3.013,0L31.552,31.364A2,2,0,0,0,31.869,29.217Z" transform="translate(0)" fill="#f0a622"/>
      </g>
    </g>
    <g id="Group_596" data-name="Group 596" transform="translate(0 32.049) rotate(-90)">
      <g id="Group_373-2" data-name="Group 373" transform="translate(0)">
        <path id="Path_3634-2" data-name="Path 3634" d="M31.869,29.217a2,2,0,0,0-1.823-1.174H22.034V2a2,2,0,0,0-2-2H12.019a2,2,0,0,0-2,2v26.04H2A2,2,0,0,0,.5,31.364L14.518,47.388a2,2,0,0,0,3.013,0L31.552,31.364A2,2,0,0,0,31.869,29.217Z" fill="#f0a622"/>
      </g>
    </g>
  </g>
</svg>
