<svg xmlns="http://www.w3.org/2000/svg" xmlns:xlink="http://www.w3.org/1999/xlink" viewBox="0 0 1024 1110.16"><defs><style>.cls-1{fill:none;}.cls-2{fill:#010101;}.cls-3{clip-path:url(#clip-path);}.cls-4{fill:#f0a622;}.cls-5{fill:#e6e6e5;}</style><clipPath id="clip-path"><rect class="cls-1" width="1024" height="1024" rx="59.59"/></clipPath></defs><g id="Layer_2" data-name="Layer 2"><g id="Layer_1-2" data-name="Layer 1"><rect class="cls-2" width="1024" height="1024" rx="59.59"/><g class="cls-3"><path class="cls-4" d="M103.39,1110.16V181.87l197.8-27.14V538.92A406.28,406.28,0,0,1,374,509.6q35.24-9.71,67.88-9.69,116.05,0,188.1,82.31t72,214.83q0,140.28-85.54,226.05c-56.89,57.09-132.1,85.76-225,85.76a396.87,396.87,0,0,1-39.86-2.15c-14.65-1.51-31.23-3.67-49.77-6.68l-72-17-126.48,27.14ZM301.19,952c14.22,3.89,26.29,6.47,36.2,8.18a156.07,156.07,0,0,0,26.71,2.58c38.79,0,71.12-15.72,97.19-47.41q39.09-47.18,39-119.8,0-65.62-32.53-105.59-32.33-40.08-84-40.08c-9.69,0-21.33,2.38-34.92,7.32-13.79,4.74-29.52,12.29-47.61,22.4V952Z"/><path class="cls-5" d="M823.53,258.29a4.8,4.8,0,0,0,0,1.85,5.64,5.64,0,0,0,4.63,4.71L851.69,269l32,5.61a5.06,5.06,0,0,1,4.11,5.85l-.19,1a5,5,0,0,1-5.84,4.11l-23.31-4-32.26-5.62a5.68,5.68,0,0,0-2,11.19L859,293.18l20.8,3.64a5.06,5.06,0,0,1,4.11,5.85l-.18,1.07a5.06,5.06,0,0,1-5.85,4.11l-22.77-4-32.8-5.74a5.68,5.68,0,1,0-1.92,11.19l25,4.35L876,319a5,5,0,0,1,4.11,5.84h0a5.06,5.06,0,0,1-5.85,4.12l-71.79-12.5a38.27,38.27,0,0,1-28-21.34,5.24,5.24,0,0,0-3.79-3c-109.5-18.94-219.06,46-252.88,155A19.75,19.75,0,0,1,480,435.38c39.74-128,168.5-204.36,297.27-182.15a5.1,5.1,0,0,0,4.51-1.53,38.34,38.34,0,0,1,33.87-10.87l71.73,12.58a5.06,5.06,0,0,1,4.11,5.84h0a5.06,5.06,0,0,1-5.85,4.12l-55.56-9.71A5.67,5.67,0,0,0,823.53,258.29Z"/><path class="cls-5" d="M765.2,129.45c6.63,3.06,4.79,13-2.48,13.59C593.4,153.66,414.79,243.94,448.58,424c4.44,29.15-41.53,34.37-44.88,5.38-21.63-79.49,34.21-234.22,138.76-273.53,8.51-4.7-1.72-16.42-3.82-22a7.19,7.19,0,0,1,4.65-10.26C662,94.49,733.07,114.6,765.2,129.45Z"/></g></g></g></svg>