<svg xmlns="http://www.w3.org/2000/svg" viewBox="0 0 1024 1024"><defs><style>.cls-1{fill:#2e1c11;}.cls-2{fill:#f0a622;}.cls-3{fill:#e6e6e5;}</style></defs><g id="Layer_2" data-name="Layer 2"><g id="Layer_1-2" data-name="Layer 1"><rect class="cls-1" width="1024" height="1024"/><path class="cls-2" d="M269.62,833.51V237.45l127-17.43V466.71a260.54,260.54,0,0,1,46.77-18.83A164.08,164.08,0,0,1,487,441.66q74.52,0,120.78,52.85t46.21,138q0,90.07-54.92,145.14c-36.53,36.66-84.82,55.07-144.45,55.07a255.78,255.78,0,0,1-25.6-1.38c-9.41-1-20.05-2.35-32-4.29l-46.21-10.93-81.21,17.42ZM396.63,732c9.13,2.5,16.88,4.16,23.24,5.25A100.27,100.27,0,0,0,437,738.86q37.37,0,62.4-30.44t25.05-76.93c0-28.09-6.93-50.64-20.89-67.8S471.76,538,449.62,538c-6.22,0-13.69,1.52-22.42,4.7s-19,7.89-30.58,14.38V732Z"/><path class="cls-3" d="M732,286.52a3,3,0,0,0,0,1.19,3.63,3.63,0,0,0,3,3l15.11,2.66,20.57,3.6a3.25,3.25,0,0,1,2.64,3.76l-.12.66a3.24,3.24,0,0,1-3.75,2.64l-15-2.6-20.71-3.61a3.6,3.6,0,0,0-4.13,2.9,3.65,3.65,0,0,0,2.86,4.29l22.32,3.89,13.36,2.34a3.24,3.24,0,0,1,2.64,3.75l-.12.69a3.24,3.24,0,0,1-3.75,2.64l-14.63-2.55-21-3.68a3.64,3.64,0,1,0-1.24,7.18l16,2.79,19.63,3.44a3.26,3.26,0,0,1,2.64,3.75h0a3.25,3.25,0,0,1-3.76,2.64l-46.1-8a24.62,24.62,0,0,1-18-13.7,3.36,3.36,0,0,0-2.43-1.93c-70.31-12.17-140.66,29.55-162.38,99.49a12.68,12.68,0,0,1-24.21-7.53C537,318,619.64,269,702.32,283.27a3.32,3.32,0,0,0,2.9-1,24.58,24.58,0,0,1,21.75-7l46,8.07a3.24,3.24,0,0,1,2.64,3.75h0a3.25,3.25,0,0,1-3.76,2.65l-35.67-6.23A3.64,3.64,0,0,0,732,286.52Z"/><path class="cls-3" d="M694.57,203.79c4.26,2,3.09,8.92-1.6,8.73C584.51,208.16,463.9,274.87,485.6,390.46c2.85,18.71-19.4,24.25-23.15,5.89-13.66-66.85,23.72-143.91,89.09-175.64,5.62-2.73-1.1-10.54-2.45-14.1a4.62,4.62,0,0,1,3-6.59C628.31,181.34,673.93,194.26,694.57,203.79Z"/></g></g></svg>