<svg xmlns="http://www.w3.org/2000/svg" width="32.522" height="30.719" viewBox="0 0 32.522 30.719">
  <g id="Icon_IdCard" transform="translate(-16.214 -14.44)">
    <path id="Subtraction_9" data-name="Subtraction 9" d="M-3557.706-2079.271h0a2.586,2.586,0,0,1-2.55-2.143l-2.7-15.322a2.6,2.6,0,0,1,2.1-3l23.946-4.222a2.641,2.641,0,0,1,.451-.04,2.591,2.591,0,0,1,2.553,2.142l2.7,15.322a2.588,2.588,0,0,1-.923,2.469l-3.184-6.25-.454-.89-.891.454-7.585,3.865-2.151,1.1,2.3.746,2.376.772a12.562,12.562,0,0,1-1.246,2.445l-14.287,2.519A2.582,2.582,0,0,1-3557.706-2079.271Zm5.174-10.83a4.4,4.4,0,0,0-.751.066,4.3,4.3,0,0,0-2.675,1.628,4.306,4.306,0,0,0-.876,2.983l8.466-1.493a4.308,4.308,0,0,0-1.843-2.5A4.32,4.32,0,0,0-3552.532-2090.1Zm15.721-4.21a.859.859,0,0,0-.151.012l-9.078,1.6a.866.866,0,0,0-.7,1,.862.862,0,0,0,.85.714.84.84,0,0,0,.15-.014l9.08-1.6a.856.856,0,0,0,.557-.355.853.853,0,0,0,.143-.645A.86.86,0,0,0-3536.811-2094.311Zm-17.017-.782a1.955,1.955,0,0,0-.341.03,1.946,1.946,0,0,0-1.264.807,1.941,1.941,0,0,0-.326,1.466,1.959,1.959,0,0,0,1.931,1.622,1.924,1.924,0,0,0,.341-.031,1.967,1.967,0,0,0,1.592-2.273A1.961,1.961,0,0,0-3553.828-2095.093Zm10.742-1.623a.919.919,0,0,0-.15.013l-3.406.6a.867.867,0,0,0-.7,1,.863.863,0,0,0,.85.714.843.843,0,0,0,.151-.013l3.4-.6a.864.864,0,0,0,.559-.355.861.861,0,0,0,.144-.645A.865.865,0,0,0-3543.086-2096.716Z" transform="translate(3579.214 2118.44)" fill="#f0a622"/>
    <g id="back-arrow_1_" data-name="back-arrow (1)" transform="matrix(-0.309, 0.951, -0.951, -0.309, 48.736, 30.437)">
      <g id="reply" transform="translate(0 0)">
        <path id="Path_3333" data-name="Path 3333" d="M6.02,3.44V0L0,6.02l6.02,6.02V8.514c4.3,0,7.31,1.376,9.46,4.386C14.619,8.6,12.04,4.3,6.02,3.44Z" fill="#f0a622"/>
      </g>
    </g>
  </g>
</svg>
