<svg xmlns="http://www.w3.org/2000/svg" width="32.522" height="30.719" viewBox="0 0 32.522 30.719">
  <g id="Icon_IdCard" transform="translate(0)">
    <path id="Subtraction_9" data-name="Subtraction 9" d="M5.293,24.729a2.587,2.587,0,0,1-2.552-2.142L.04,7.265a2.6,2.6,0,0,1,2.1-3L26.089.04A2.649,2.649,0,0,1,26.541,0a2.588,2.588,0,0,1,2.552,2.142l2.7,15.322a2.585,2.585,0,0,1-.923,2.468l-3.183-6.249-.455-.892-.892.455-7.584,3.865-2.151,1.1,2.3.746,2.377.772a12.584,12.584,0,0,1-1.246,2.445L5.745,24.69A2.649,2.649,0,0,1,5.293,24.729ZM10.467,13.9a4.421,4.421,0,0,0-.75.066,4.324,4.324,0,0,0-3.551,4.611l8.466-1.493A4.326,4.326,0,0,0,10.467,13.9ZM26.188,9.689a.839.839,0,0,0-.15.014l-9.079,1.6a.864.864,0,0,0,.149,1.715.828.828,0,0,0,.15-.013l9.079-1.6a.865.865,0,0,0-.149-1.716ZM9.173,8.908a1.994,1.994,0,0,0-.342.03,1.962,1.962,0,1,0,.342-.03ZM19.914,7.285a.847.847,0,0,0-.151.014l-3.4.6a.864.864,0,0,0,.149,1.715.828.828,0,0,0,.15-.014l3.4-.6a.864.864,0,0,0-.149-1.715Z" fill="#808285"/>
    <g id="back-arrow_1_" data-name="back-arrow (1)" transform="matrix(-0.309, 0.951, -0.951, -0.309, 32.522, 15.997)">
      <g id="reply" transform="translate(0 0)">
        <path id="Path_3333" data-name="Path 3333" d="M6.02,3.44V0L0,6.02l6.02,6.02V8.514c4.3,0,7.31,1.376,9.46,4.386C14.619,8.6,12.04,4.3,6.02,3.44Z" fill="#808285"/>
      </g>
    </g>
  </g>
</svg>
