<svg id="box" xmlns="http://www.w3.org/2000/svg" width="28.012" height="24.25" viewBox="0 0 28.012 24.25">
  <path id="Path_3720" data-name="Path 3720" d="M17.966,57.21l-1.518-3.55a.564.564,0,0,0-.519-.342H2.083a.564.564,0,0,0-.519.342L.046,57.21a.565.565,0,0,0,.433.78s6.883,1.056,6.912,1.056a.565.565,0,0,0,.532-.377l1.083-3.083,1.083,3.083a.564.564,0,0,0,.532.377c.028,0,6.912-1.056,6.912-1.056A.565.565,0,0,0,17.966,57.21Z" transform="translate(5 -48.318)" fill="#58aa68"/>
  <path id="Path_3721" data-name="Path 3721" d="M272.612,223.531a1.69,1.69,0,0,1-1.308-.347v7.76l6.531-2.092a.564.564,0,0,0,.392-.538v-5.646Z" transform="translate(-256.734 -211.694)" fill="#58aa68"/>
  <path id="Path_3722" data-name="Path 3722" d="M49.961,223.185a1.69,1.69,0,0,1-1.308.347l-5.615-.863v5.646a.564.564,0,0,0,.392.538l6.531,2.092Z" transform="translate(-36.52 -211.694)" fill="#58aa68"/>
</svg>
