<svg id="ic_delivery" data-name="ic delivery" xmlns="http://www.w3.org/2000/svg" width="25" height="25" viewBox="0 0 25 25">
  <rect id="Rectangle_1380" data-name="Rectangle 1380" width="25" height="25" fill="none"/>
  <g id="Group_4269" data-name="Group 4269" transform="translate(3 1)">
    <path id="Union_4" data-name="Union 4" d="M12.286,11.594,6.865,9.813c-.04-.02-.059-.04-.059-.079V2.354c0-.059.04-.1.1-.079l5.421,1.781a.267.267,0,0,1,.059.078v7.38a.083.083,0,0,1-.077.084A.05.05,0,0,1,12.286,11.594Zm.93-.079V4.135c0-.04.02-.059.059-.078L18.7,2.275c.04-.02.1.02.1.079V9.734c0,.04-.02.059-.059.079l-5.421,1.781C13.275,11.594,13.216,11.574,13.216,11.515Zm-12.662-2A.541.541,0,0,1,0,8.962a.552.552,0,0,1,.553-.554h3.9a.554.554,0,0,1,0,1.108ZM1.437,6.43a.554.554,0,0,1,0-1.108H4.451A.58.58,0,0,1,5,5.876a.552.552,0,0,1-.553.554ZM2.7,3.363a.554.554,0,0,1,0-1.108H4.451A.58.58,0,0,1,5,2.81a.552.552,0,0,1-.553.553ZM12.78,3.3,7.953,1.722a.07.07,0,0,1,0-.139L12.78,0h.04l4.828,1.583c.059.04.059.139,0,.139L12.82,3.3Z" transform="translate(0 6)" fill="#636363" stroke="rgba(0,0,0,0)" stroke-miterlimit="10" stroke-width="1"/>
  </g>
</svg>
