<svg id="ic_ready_to_order" data-name="ic ready to order" xmlns="http://www.w3.org/2000/svg" width="25" height="25" viewBox="0 0 25 25">
  <rect id="Rectangle_1379" data-name="Rectangle 1379" width="25" height="25" fill="none"/>
  <path id="Union_3" data-name="Union 3" d="M-501.87,146.053v-1.178h1.739V143.7h12.169v1.178h1.728v1.178Zm1.1-3.1a7.377,7.377,0,0,1,1.951-4.509,6.515,6.515,0,0,1,4.214-2.088v-1.2h-1.062v-1.178h3.227v1.178H-493.5v1.2a6.513,6.513,0,0,1,4.214,2.088,7.377,7.377,0,0,1,1.951,4.509Zm10.228-6.7v-.808h1.727v.808Zm-8.75,0v-.808h1.716v.808Zm7.535-3.172,1.223-1.223.006-.006.571.571-.006.007-1.222,1.222Zm-6.392-.657.285-.286-.29.281.3-.292.275-.274,1.222,1.222-.571.571Zm3.692-.286v-1.695h.808v1.695Z" transform="translate(506.603 -125.715)" fill="#636363"/>
</svg>
