<svg id="delivery-truck_1_" data-name="delivery-truck (1)" xmlns="http://www.w3.org/2000/svg" width="29.091" height="23.124" viewBox="0 0 29.091 23.124">
  <g id="Group_612" data-name="Group 612">
    <g id="Group_582" data-name="Group 582" transform="translate(17.667 6.177)">
      <g id="Group_581" data-name="Group 581" transform="translate(0 0)">
        <path id="Path_3710" data-name="Path 3710" d="M283.4,92.745a1.484,1.484,0,0,0-1.312-.784H280v2.786a.58.58,0,0,0,.583.561h4.184Z" transform="translate(-280 -91.961)" fill="#2980b9"/>
      </g>
    </g>
    <g id="Group_584" data-name="Group 584" transform="translate(7.238 14.56)">
      <g id="Group_583" data-name="Group 583">
        <circle id="Ellipse_612" data-name="Ellipse 612" cx="1.782" cy="1.782" r="1.782" transform="translate(0 0)" fill="#2980b9"/>
      </g>
    </g>
    <g id="Group_586" data-name="Group 586" transform="translate(17.31 14.56)">
      <g id="Group_585" data-name="Group 585">
        <path id="Path_3711" data-name="Path 3711" d="M273.893,277.281a1.782,1.782,0,1,0,1.782,1.782h0A1.784,1.784,0,0,0,273.893,277.281Z" transform="translate(-272.111 -277.281)" fill="#2980b9"/>
      </g>
    </g>
    <g id="Group_588" data-name="Group 588" transform="translate(5 5)">
      <g id="Group_587" data-name="Group 587">
        <path id="Path_3712" data-name="Path 3712" d="M18.77,72.375,17.849,71.2h-4.6a1.3,1.3,0,0,1-1.307-1.285V66.489a.524.524,0,0,0-.512-.536H.577A.553.553,0,0,0,0,66.489v9.9a.567.567,0,0,0,.577.553h.961a2.5,2.5,0,0,1,4.964,0H11.61a2.5,2.5,0,0,1,4.964,0h1.94a.567.567,0,0,0,.577-.553v-3.1A1.5,1.5,0,0,0,18.77,72.375Z" transform="translate(0 -65.953)" fill="#2980b9"/>
      </g>
    </g>
  </g>
</svg>
