<svg id="hourglass" xmlns="http://www.w3.org/2000/svg" width="22.802" height="27.069" viewBox="0 0 22.802 27.069">
  <g id="Group_611" data-name="Group 611" transform="translate(5 5)">
    <g id="Group_610" data-name="Group 610" transform="translate(0)">
      <path id="Path_3723" data-name="Path 3723" d="M76.091,3.434v-1.5A1.418,1.418,0,0,0,76.8.711V.356A.355.355,0,0,0,76.446,0H64.356A.355.355,0,0,0,64,.356V.711a1.418,1.418,0,0,0,.711,1.225v1.5a4.986,4.986,0,0,0,1.648,3.7l1.556,1.4-1.556,1.4a4.986,4.986,0,0,0-1.648,3.7v1.5A1.418,1.418,0,0,0,64,16.358v.356a.355.355,0,0,0,.356.356H76.447a.355.355,0,0,0,.356-.356v-.356a1.418,1.418,0,0,0-.711-1.225v-1.5a4.986,4.986,0,0,0-1.648-3.7l-1.556-1.4,1.556-1.4A4.986,4.986,0,0,0,76.091,3.434Zm-2.6,2.643L71.348,8.006a.711.711,0,0,0,0,1.057l2.143,1.929a3.562,3.562,0,0,1,1.177,2.643v1.3h-.889l-3.094-4.125a.368.368,0,0,0-.569,0l-3.094,4.125h-.889v-1.3a3.562,3.562,0,0,1,1.177-2.643l2.143-1.929a.711.711,0,0,0,0-1.057L67.311,6.077a3.562,3.562,0,0,1-1.177-2.643v-1.3h8.535v1.3A3.562,3.562,0,0,1,73.491,6.077Z" transform="translate(-64)" fill="#636363"/>
      <path id="Path_3724" data-name="Path 3724" d="M177.062,149.333h-4.9a.356.356,0,0,0-.263.595l2.476,2.284a.355.355,0,0,0,.477,0l2.476-2.284a.356.356,0,0,0-.263-.595Z" transform="translate(-168.21 -144.354)" fill="#636363"/>
    </g>
  </g>
</svg>
