<svg id="ic_delivered" data-name="ic delivered" xmlns="http://www.w3.org/2000/svg" width="25" height="25" viewBox="0 0 25 25">
  <rect id="Rectangle_1381" data-name="Rectangle 1381" width="25" height="25" fill="none"/>
  <path id="Union_6" data-name="Union 6" d="M-518.215,138.6a1.461,1.461,0,0,0,1.129.3l4.846-.746v4.873a.486.486,0,0,1-.339.464l-5.637,1.806Zm-6.611,4.891a.487.487,0,0,1-.338-.464v-4.873l4.846.746a1.461,1.461,0,0,0,1.129-.3v6.7Zm7.058-5.875-.934-2.661-.934,2.661a.487.487,0,0,1-.459.325c-.025,0-5.965-.911-5.965-.911a.487.487,0,0,1-.374-.673l1.31-3.064a.487.487,0,0,1,.448-.3h11.95a.485.485,0,0,1,.447.3l1.31,3.064a.488.488,0,0,1-.374.673s-5.941.911-5.966.911A.488.488,0,0,1-517.767,137.618Z" transform="translate(531.12 -126.489)" fill="#636363"/>
</svg>
