<svg xmlns="http://www.w3.org/2000/svg" width="42" height="42" viewBox="0 0 42 42"><defs><style>.a,.d{fill:none;}.a{stroke:#f0a622;}.b{fill:#f0a622;}.c{stroke:none;}</style></defs><g transform="translate(-33 -143)"><g transform="translate(9)"><g class="a" transform="translate(24 143)"><circle class="c" cx="21" cy="21" r="21"/><circle class="d" cx="21" cy="21" r="20.5"/></g></g><g transform="translate(1.325 151)"><g transform="translate(42.675)"><path class="b" d="M63.434,21.086l-1.789-2.981a8.856,8.856,0,0,1-1.262-4.556V10.937a7.3,7.3,0,0,0-5.208-6.984V2.083a2.083,2.083,0,1,0-4.167,0v1.87A7.3,7.3,0,0,0,45.8,10.937v2.611A8.861,8.861,0,0,1,44.538,18.1l-1.789,2.981a.522.522,0,0,0,.446.79H62.987a.521.521,0,0,0,.447-.789Z" transform="translate(-42.675)"/></g><g transform="translate(49.107 22.693)"><path class="b" d="M188.815,469.333a4.4,4.4,0,0,0,7.968,0Z" transform="translate(-188.815 -469.333)"/></g></g></g></svg>