<svg xmlns="http://www.w3.org/2000/svg" width="25.852" height="21.46" viewBox="0 0 25.852 21.46"><defs><style>.a{fill:#d4145a;}.b{fill:#f0a622;}.c{fill:none;}</style></defs><g transform="translate(-0.1 -58.666)"><g transform="translate(8.901 58.666)"><g transform="translate(0 0)"><path class="a" d="M187.175,71.1c.707-1.02,1.323-1.919,1.848-2.773,1.126-1.838,2.091-3.838,1.5-6.01a5.037,5.037,0,0,0-2.076-2.934,4.319,4.319,0,0,0-6.485,2.252c-.04.111-.076.217-.111.323-.081-.076-.172-.152-.258-.227a4.312,4.312,0,0,0-6.732,1.318,5.058,5.058,0,0,0-.313,3.581,5.156,5.156,0,0,0,.753,1.611,6.274,6.274,0,0,1,3.616,1.53,1.076,1.076,0,0,0,.677.258h2.742a2.494,2.494,0,0,1,1.778.732,2.528,2.528,0,0,1,.747,1.763v.035a2.5,2.5,0,0,1-.323,1.237.018.018,0,0,1,.01.005.8.8,0,0,0,.237.071Z" transform="translate(-174.366 -58.666)"/></g></g><g transform="translate(0.1 69.231)"><g transform="translate(0 0.291)"><path class="b" d="M2.474,273.6H.858a.757.757,0,0,0-.758.758v9.09a.757.757,0,0,0,.758.758H2.474a2.276,2.276,0,0,0,2.273-2.273v-6.06A2.276,2.276,0,0,0,2.474,273.6Z" transform="translate(-0.1 -273.6)"/></g><g transform="translate(6.161 0)"><line class="c" x1="2.399" y2="2.768" transform="translate(13.05 1.866)"/><path class="b" d="M141.341,271.774l-3.636,4.848a5.31,5.31,0,0,1-4.242,2.121h-6.757a17.489,17.489,0,0,1-4.606-.621V268.8a5.31,5.31,0,0,1,6.53.348,2.088,2.088,0,0,0,1.333.5h2.742a1.516,1.516,0,0,1,1.515,1.5v.015a1.52,1.52,0,0,1-1.515,1.515h-4.621a.758.758,0,1,0,0,1.515h5.878a2.235,2.235,0,0,0,1.667-.727l.106-.121,3.439-3.97a1.5,1.5,0,0,1,2.045-.151,1.387,1.387,0,0,1,.348.379A2.007,2.007,0,0,1,141.341,271.774Z" transform="translate(-122.1 -267.847)"/></g></g></g></svg>