<svg id="Group_390" data-name="Group 390" xmlns="http://www.w3.org/2000/svg" width="19.524" height="22.778" viewBox="0 0 19.524 22.778">
  <path id="Path_3603" data-name="Path 3603" d="M52.843,0H37.387a.814.814,0,0,0-.814.814v2.44H34.947a.814.814,0,0,0-.814.814v17.9a.814.814,0,0,0,.814.814H49.589a.814.814,0,0,0,.814-.814v-.814h2.44a.814.814,0,0,0,.814-.814V.813A.814.814,0,0,0,52.843,0ZM46.335,18.71H38.2a.814.814,0,1,1,0-1.627h8.135a.814.814,0,1,1,0,1.627Zm0-3.254H38.2a.814.814,0,1,1,0-1.627h8.135a.814.814,0,1,1,0,1.627Zm0-3.254H38.2a.814.814,0,1,1,0-1.627h8.135a.814.814,0,1,1,0,1.627Zm0-4.881V6.031l1.29,1.29Zm5.695,12.2H50.4V8.135a.823.823,0,0,0-.239-.576L46.1,3.492a.823.823,0,0,0-.574-.238H38.2V1.627H52.03Z" transform="translate(-34.133 0)" fill="#f0a820"/>
</svg>
