<svg xmlns="http://www.w3.org/2000/svg" width="31.893" height="26.673" viewBox="0 0 31.893 26.673"><defs><style>.a{fill:#fff;}.b{fill:#f0a623;}</style></defs><g transform="translate(-0.048 -0.02)"><g transform="translate(0.048 0.02)"><rect class="a" width="23.712" height="15.008" transform="matrix(0.937, -0.351, 0.351, 0.937, 2.135, 10.318)"/><path class="b" d="M24.2.124,8.589,5.816a.882.882,0,0,0-.494.453L7.42,7.719,5.971,7.043A.881.881,0,0,0,5.3,7.015l-4.109,1.5A1.751,1.751,0,0,0,.155,10.756L5.541,25.55a1.752,1.752,0,0,0,2.243,1.038l4.109-1.5a.874.874,0,0,0,.494-.453l.675-1.45,1.449.675a.869.869,0,0,0,.669.03L30.8,18.2a1.751,1.751,0,0,0,1.038-2.243L26.441,1.168A1.751,1.751,0,0,0,24.2.124ZM13.16,20.91l-1.644.6-.6-1.645,1.644-.6Zm-1.2-3.288-1.644.6-.6-1.644,1.644-.6Zm-1.2-3.287-1.641.6-.6-1.644,1.637-.6Zm-1.2-3.291-1.644.6-.6-1.641,1.644-.6Zm13.28,4.467.507,1.393-1.339.5-.468-1.285a6.041,6.041,0,0,1-2.511.259l-.171-1.73a5.068,5.068,0,0,0,2.465-.223c.785-.285,1.2-.789,1.007-1.317s-.738-.681-1.876-.649c-1.625.04-2.854-.276-3.336-1.588a2.641,2.641,0,0,1,1.407-3.243l-.468-1.285,1.323-.484.433,1.19a5.228,5.228,0,0,1,2.138-.281l.152,1.686a4.458,4.458,0,0,0-2.121.236c-.876.317-1.02.812-.876,1.191.158.433.739.558,2.056.553,1.816-.018,2.724.494,3.172,1.725a2.732,2.732,0,0,1-1.493,3.361Z" transform="translate(-0.048 -0.02)"/></g></g></svg>