<svg xmlns="http://www.w3.org/2000/svg" width="24.285" height="24.262" viewBox="0 0 24.285 24.262">
  <g id="Group_5246" data-name="Group 5246" transform="translate(-16 -9.054)">
    <g id="corona-01" transform="translate(16 9.054)">
      <path id="Path_3367" data-name="Path 3367" d="M24.277,89.261a2.023,2.023,0,1,0-3.937.811L18.7,91.116a2.529,2.529,0,0,1-3.316-.531l-1.608-1.969a2,2,0,0,0,.394-1.191,2.025,2.025,0,1,0-4.051,0,1.992,1.992,0,0,0,.394,1.191L8.9,90.585a2.529,2.529,0,0,1-3.316.531L3.947,90.072a1.988,1.988,0,0,0,.1-.626,2.023,2.023,0,1,0-2.2,2.011L3.036,98.6v-.047c0-1.992,4.582-3.036,9.107-3.036s9.107,1.044,9.107,3.036V98.6l1.191-7.139A2.026,2.026,0,0,0,24.277,89.261Z" transform="translate(0 -85.4)" fill="#f0a622"/>
      <path id="Path_3368" data-name="Path 3368" d="M93.4,320c-5.313,0-8.1,1.314-8.1,2.025,0,.147.123.323.361.508.911.693,3.529,1.518,7.732,1.518s6.821-.825,7.732-1.518c.242-.185.36-.361.36-.508C101.494,321.314,98.71,320,93.4,320Z" transform="translate(-81.254 -308.872)" fill="#f0a622"/>
    </g>
    <path id="Path_7818" data-name="Path 7818" d="M5.219-.772,7.294-7.75H5.064L4-2.837H3.9L2.782-7.75H.4L2.55-.772Zm5.286,0V-7.75H8.455V-.772ZM12.111-7.75V-.772h2.051V-2.677h1a2.489,2.489,0,0,0,2.737-2.529A2.418,2.418,0,0,0,15.3-7.75ZM14.161-6.2h.59a.94.94,0,0,1,1.074,1c0,.667-.406,1.006-1.088,1.006h-.576Z" transform="translate(18.662 34.088)" fill="#f0a622"/>
  </g>
</svg>
