<svg xmlns="http://www.w3.org/2000/svg" width="30.485" height="24.318" viewBox="0 0 30.485 24.318"><defs><style>.a,.b{fill:#f0a622;}.b{stroke:#fff;}</style></defs><g transform="translate(-208 -196)"><g transform="translate(208 196)"><path class="a" d="M18.466,85.972H14.715v.667a.667.667,0,0,1-.667.667H8.713a.667.667,0,0,1-.667-.667v-.667H4.3A2,2,0,0,1,2.4,84.6L0,77.41V91.973a2,2,0,0,0,2,2h18.76a2,2,0,0,0,2-2V77.411l-2.4,7.194A2,2,0,0,1,18.466,85.972Zm0,0" transform="translate(0 -73.969)"/><path class="a" d="M38.709,0H33.375a2,2,0,0,0-2,2v.667H25.809l2.515,7.546a.667.667,0,0,0,.633.456h3.751V10a.667.667,0,0,1,.667-.667h5.335a.667.667,0,0,1,.667.667v.667h3.751a.667.667,0,0,0,.633-.456l2.515-7.546H40.71V2A2,2,0,0,0,38.709,0Zm-6,2.667V2a.667.667,0,0,1,.667-.667h5.335A.667.667,0,0,1,39.376,2v.667Zm0,0" transform="translate(-24.661)"/></g><path class="b" d="M220.043,230.252l-1.4,4.793-4.288.052,3.119,3.209-1.259,5.253,4.076-3.3,3.737,2.913-1.326-4.877,3.461-3.155-4.645-.093Z" transform="translate(11.058 -24.557)"/></g></svg>