<svg xmlns="http://www.w3.org/2000/svg" width="42.612" height="61.855" viewBox="0 0 42.612 61.855">
  <g id="facebook-placeholder-for-locate-places-on-maps" transform="translate(-66.905)">
    <path id="Facebook_Places" d="M108.51,15.4a19.267,19.267,0,0,0-1-2.474A21.191,21.191,0,0,0,66.9,19.188v2.64c0,.11.038,1.1.092,1.595.771,6.157,5.629,12.7,9.258,18.859,3.9,6.6,7.955,13.087,11.968,19.574,2.475-4.233,4.941-8.522,7.359-12.646.659-1.21,1.424-2.42,2.084-3.575.44-.769,1.28-1.538,1.664-2.254,3.9-7.147,10.187-14.35,10.187-21.443V19.024A21.944,21.944,0,0,0,108.51,15.4ZM88.094,28.646a7.563,7.563,0,0,1-7.24-5.168,7.17,7.17,0,0,1-.2-1.925v-1.7c0-4.837,4.107-7.037,7.68-7.037a7.787,7.787,0,0,1,7.8,7.918A7.987,7.987,0,0,1,88.094,28.646Z" transform="translate(0 0)" fill="#f0a721"/>
  </g>
</svg>
