<svg xmlns="http://www.w3.org/2000/svg" width="35.837" height="21.791" viewBox="0 0 35.837 21.791"><defs><style>.a{fill:#fff;}.b{fill:#f0a622;}</style></defs><g transform="translate(0.079 -0.01)"><g transform="translate(-0.079 0.01)"><circle class="a" cx="6.673" cy="6.673" r="6.673" transform="translate(2.486 6.343)"/><path class="b" d="M15.856,35.454a9.207,9.207,0,0,1,.367-4.812A9.286,9.286,0,1,0,17.97,39.8,9.212,9.212,0,0,1,15.856,35.454Zm-4.711-2.826a1.393,1.393,0,1,1-1.107,1.629A1.428,1.428,0,0,1,11.144,32.628ZM4.76,33.843a1.393,1.393,0,1,1-1.108,1.629A1.393,1.393,0,0,1,4.76,33.843Zm4.93,8.512a5.53,5.53,0,0,1-5.8-2.674L14.1,37.731a5.531,5.531,0,0,1-4.4,4.627Z" transform="translate(0.079 -24.219)"/><circle class="b" cx="9.187" cy="9.187" r="9.187" transform="translate(17.463 0)"/><path class="a" d="M198,42.776l.187-1.317a5.862,5.862,0,0,1-2.274-.931l.647-1.565a4.92,4.92,0,0,0,2.216.939c.8.117,1.39-.128,1.467-.669s-.323-.923-1.313-1.417c-1.409-.7-2.328-1.547-2.137-2.892a2.572,2.572,0,0,1,2.694-2.137l.187-1.317,1.359.192-.173,1.221a5.058,5.058,0,0,1,1.96.744l-.639,1.508a4.359,4.359,0,0,0-1.928-.768c-.9-.128-1.249.235-1.3.621-.063.444.379.822,1.511,1.417,1.568.822,2.113,1.673,1.933,2.934a2.648,2.648,0,0,1-2.816,2.2l-.2,1.428Z" transform="translate(-172.905 -27.777)"/></g></g></svg>