<svg xmlns="http://www.w3.org/2000/svg" width="29.414" height="21.789" viewBox="0 0 29.414 21.789"><defs><style>.a{fill:#fff;}</style></defs><path class="a" d="M28.454,0H.96A.96.96,0,0,0,0,.96V8.753a.96.96,0,0,0,.96.96H28.454a.96.96,0,0,0,.96-.96V.96A.96.96,0,0,0,28.454,0Zm-2,6.322a.96.96,0,0,1-.96.96H3.921a.96.96,0,0,1-.96-.96V3.041a.96.96,0,0,1,.96-.96H25.5a.96.96,0,0,1,.96.96Z" transform="translate(0)"/><path class="a" d="M95.289,54.994H78.45V71.422a.96.96,0,0,0,.96.96H94.351a.96.96,0,0,0,.96-.96V55.01a.019.019,0,0,0-.023-.015ZM91.367,64.13a4.751,4.751,0,0,1-.351,1.933l-1.5-.331a4.089,4.089,0,0,0,.379-1.908c-.037-.852-.429-1.112-.8-1.1-.42.018-.689.489-1.048,1.634-.484,1.584-1.179,2.231-2.372,2.282a2.482,2.482,0,0,1-2.512-2.218l-1.351.058-.055-1.3,1.246-.053a5.447,5.447,0,0,1,.469-2.254l1.551.328a4.625,4.625,0,0,0-.484,2.2c.032.76.355,1.259.867,1.237s.8-.455,1.081-1.452c.412-1.424,1.028-2.409,2.3-2.463a2.408,2.408,0,0,1,2.429,2.117l1.246-.053.054,1.285Z" transform="translate(-72.172 -50.593)"/></svg>