<svg xmlns="http://www.w3.org/2000/svg" width="26.971" height="16.858" viewBox="0 0 26.971 16.858">
  <g id="Group_5360" data-name="Group 5360" transform="translate(-175 -79.055)">
    <g id="corona-01" transform="translate(175 -6.345)">
      <path id="Path_3367" data-name="Path 3367" d="M26.962,89.688a2.246,2.246,0,1,0-4.373.9l-1.823,1.159a2.809,2.809,0,0,1-3.682-.59L15.3,88.972a2.224,2.224,0,0,0,.437-1.322,2.249,2.249,0,0,0-4.5,0,2.212,2.212,0,0,0,.437,1.322L9.888,91.158a2.809,2.809,0,0,1-3.682.59L4.383,90.589a2.208,2.208,0,0,0,.111-.7,2.247,2.247,0,1,0-2.444,2.234l1.322,7.929V100c0-2.213,5.089-3.372,10.115-3.372S23.6,97.791,23.6,100v.053l1.322-7.929A2.25,2.25,0,0,0,26.962,89.688Z" fill="#f0a622"/>
      <path id="Path_3368" data-name="Path 3368" d="M94.293,320c-5.9,0-8.993,1.459-8.993,2.249,0,.163.137.358.4.564,1.011.769,3.919,1.686,8.587,1.686s7.576-.917,8.587-1.686c.269-.205.4-.4.4-.564C103.285,321.459,100.193,320,94.293,320Z" transform="translate(-80.806 -222.241)" fill="#f0a622"/>
    </g>
  </g>
</svg>
