<svg xmlns="http://www.w3.org/2000/svg" width="32.369" height="26.332" viewBox="0 0 32.369 26.332">
  <g id="Group_393" data-name="Group 393" transform="translate(-17.175 -9.02)">
    <path id="Union_1" data-name="Union 1" d="M-887.027-1605.412-891-1616.327l26.577-9.673,3.973,10.916a1.514,1.514,0,0,1-.905,1.941l-9.433,3.433,0,.01-10.031,3.631,0,.008-4.271,1.555a1.511,1.511,0,0,1-.518.092A1.516,1.516,0,0,1-887.027-1605.412Zm-.346-6.86.289.8,14.271-5.09-.324-.889Zm17.776-4.32a2.524,2.524,0,0,0-1.509,3.236,2.525,2.525,0,0,0,3.236,1.509,2.5,2.5,0,0,0,1.243-1,2.518,2.518,0,0,0,1.6-.038,2.526,2.526,0,0,0,1.664-2.477,2.525,2.525,0,0,0-1.859-2.334,2.525,2.525,0,0,0-2.786,1.067,2.5,2.5,0,0,0-.747-.114A2.493,2.493,0,0,0-869.6-1616.592Zm-18.813,1.472.346.95,1.9-.691-.346-.949Zm2.848-1.037.346.949,14.237-5.182-.346-.95Z" transform="translate(909.902 1639.766)" fill="#f0a622"/>
    <path id="Path_3221" data-name="Path 3221" d="M28.282,1.515A1.515,1.515,0,0,0,26.767,0H1.515A1.515,1.515,0,0,0,0,1.515V4.04H28.282Z" transform="translate(17.175 18.694) rotate(-20)" fill="#f0a622"/>
  </g>
</svg>
