<svg xmlns="http://www.w3.org/2000/svg" xmlns:xlink="http://www.w3.org/1999/xlink" width="204" height="142" viewBox="0 0 204 142">
  <defs>
    <clipPath id="clip-path">
      <circle id="Ellipse_594" data-name="Ellipse 594" cx="67.321" cy="67.321" r="67.321"/>
    </clipPath>
    <clipPath id="clip-path-2">
      <ellipse id="Ellipse_583" data-name="Ellipse 583" cx="39.175" cy="32.799" rx="39.175" ry="32.799" transform="matrix(0.031, -0.999, 0.999, 0.031, 0, 78.31)"/>
    </clipPath>
  </defs>
  <g id="Group_361" data-name="Group 361" transform="translate(33.984 -6.821)">
    <circle id="Ellipse_581" data-name="Ellipse 581" cx="67.321" cy="67.321" r="67.321" transform="translate(0 8.7)" fill="#eaeaea"/>
    <line id="Line_75" data-name="Line 75" x2="39.634" y2="2.757" transform="translate(90.518 83.448)" fill="none" stroke="#231f20" stroke-linecap="round" stroke-miterlimit="10" stroke-width="3.757"/>
    <g id="Group_352" data-name="Group 352" transform="translate(96.307 53.561)">
      <g id="Group_351" data-name="Group 351">
        <path id="Path_3602" data-name="Path 3602" d="M213.062,162.335a1.835,1.835,0,0,1-1.379-.632l-3.791-4.423-5.17,2.757a2.407,2.407,0,0,1-.862.23,1.835,1.835,0,0,1-1.379-.632l-3.791-4.423-5.17,2.757a2.407,2.407,0,0,1-.862.23,1.835,1.835,0,0,1-1.379-.632l-3.791-4.423-5.17,2.757a2.407,2.407,0,0,1-.862.23,1.805,1.805,0,0,1-1.493-.8l-2.642-4.078-5,2.642a2.408,2.408,0,0,1-.862.23,1.776,1.776,0,0,1-1.608-.977,2.145,2.145,0,0,1-.172-1.206L178.6,93.808a8.624,8.624,0,0,1,8.5-7.008,7.656,7.656,0,0,1,1.608.172L233.4,95.359a9.775,9.775,0,0,1,7.812,11.373l-1.493,7.812a1.839,1.839,0,0,1-1.781,1.493.729.729,0,0,1-.345-.057,2,2,0,0,1-.862-.4l-4.136-3.676-5.227,1.953a2.443,2.443,0,0,1-.632.115,1.87,1.87,0,0,1-1.321-.574l-1.379-1.551-9.191,49a1.867,1.867,0,0,1-1.321,1.436c-.172,0-.345.057-.46.057Zm-4.768-9.133a1.835,1.835,0,0,1,1.379.632l2.3,2.7,10.052-53.305A9.725,9.725,0,0,1,225.3,97.6l-37.222-7.008a4.862,4.862,0,0,0-5.859,3.963l-10.282,54.4,3.1-1.666a2.408,2.408,0,0,1,.862-.23,1.805,1.805,0,0,1,1.493.8l2.7,3.963,5-2.642a2.407,2.407,0,0,1,.862-.23,1.835,1.835,0,0,1,1.379.632l3.791,4.423,5.17-2.757a2.407,2.407,0,0,1,.862-.23,1.835,1.835,0,0,1,1.379.632l3.791,4.423,5.17-2.757A3.389,3.389,0,0,1,208.295,153.2Zm24.7-45.091a1.854,1.854,0,0,1,1.206.46l2.585,2.3.862-4.71a6.167,6.167,0,0,0-.977-4.6,6.024,6.024,0,0,0-3.963-2.585,7.784,7.784,0,0,0-1.149-.115,6.155,6.155,0,0,0-6.031,5l-.689,3.561,2.413,2.642,5.055-1.9A2.8,2.8,0,0,1,232.994,108.111Z" transform="translate(-167.663 -86.8)"/>
        <path id="Path_3603" data-name="Path 3603" d="M214.621,161.306l9.478-50.261,2.3,2.527a1.067,1.067,0,0,0,1.206.287l5.572-2.068,4.423,3.963a2.328,2.328,0,0,0,.517.287,1.121,1.121,0,0,0,1.321-.919l1.493-7.812a9.087,9.087,0,0,0-7.238-10.627L189,88.3a7.963,7.963,0,0,0-9.305,6.376L168.783,152.8a1.148,1.148,0,0,0,.115.747,1.131,1.131,0,0,0,1.551.46l5.514-2.929,3.044,4.48a1.166,1.166,0,0,0,1.493.345l5.629-2.987,4.136,4.825a1.15,1.15,0,0,0,1.379.287l5.629-2.987,4.136,4.825a1.15,1.15,0,0,0,1.379.287l5.629-2.987,4.136,4.825a1.1,1.1,0,0,0,1.149.345A1.579,1.579,0,0,0,214.621,161.306Zm12.809-63.53a9.19,9.19,0,0,0-4.308,6.146L212.84,158.606l-3.217-3.734a1.15,1.15,0,0,0-1.379-.287l-5.629,2.987-4.136-4.825a1.15,1.15,0,0,0-1.379-.287l-5.629,2.987-4.136-4.825a1.15,1.15,0,0,0-1.379-.287l-5.514,2.929-3.044-4.48a1.166,1.166,0,0,0-1.493-.345l-4.365,2.3,10.512-55.775a5.692,5.692,0,0,1,6.663-4.538Zm-2.815,10.454.747-3.906a6.838,6.838,0,0,1,13.441,2.527l-1.091,5.859-3.446-3.044a1.175,1.175,0,0,0-1.149-.23l-5.514,2.01Z" transform="translate(-168.13 -87.379)"/>
        <path id="Path_3604" data-name="Path 3604" d="M264.662,111.117l-.862,4.48,3.849,4.193,6.2-2.3,4.94,4.423,1.493-7.812a7.953,7.953,0,0,0-15.624-2.987Z" transform="translate(-208.578 -94.402)" fill="#ccc"/>
        <path id="Path_3605" data-name="Path 3605" d="M181.714,95.51,170.8,153.64l6.433-3.446,3.619,5.285,6.433-3.446,4.768,5.514,6.433-3.446,4.768,5.514,6.433-3.446,4.768,5.514L225.2,104.7a8.006,8.006,0,0,1,9.305-6.376l-44.689-8.386A7.11,7.11,0,0,0,181.714,95.51Z" transform="translate(-168.998 -88.1)" fill="#f2f2f2"/>
        <path id="Path_3606" data-name="Path 3606" d="M196.588,186.053,183.2,183.526a1.121,1.121,0,0,1-.919-1.321h0a1.121,1.121,0,0,1,1.321-.919l13.384,2.527a1.121,1.121,0,0,1,.919,1.321h0A1.15,1.15,0,0,1,196.588,186.053Z" transform="translate(-173.878 -127.004)" fill="#39b54a"/>
        <path id="Path_3607" data-name="Path 3607" d="M197.988,178.253,184.6,175.726a1.121,1.121,0,0,1-.919-1.321h0a1.121,1.121,0,0,1,1.321-.919l13.384,2.527a1.121,1.121,0,0,1,.919,1.321h0A1.121,1.121,0,0,1,197.988,178.253Z" transform="translate(-174.473 -123.684)" fill="#39b54a"/>
        <path id="Path_3608" data-name="Path 3608" d="M240.358,113.647,219.1,109.626a1.121,1.121,0,0,1-.919-1.321h0a1.121,1.121,0,0,1,1.321-.919l21.253,4.021a1.121,1.121,0,0,1,.919,1.321h0A1.121,1.121,0,0,1,240.358,113.647Z" transform="translate(-189.156 -95.553)"/>
        <path id="Path_3609" data-name="Path 3609" d="M238.958,121.447,217.7,117.426a1.121,1.121,0,0,1-.919-1.321h0a1.121,1.121,0,0,1,1.321-.919l21.253,4.021a1.121,1.121,0,0,1,.919,1.321h0A1.15,1.15,0,0,1,238.958,121.447Z" transform="translate(-188.561 -98.872)"/>
        <path id="Path_3610" data-name="Path 3610" d="M244.906,130.651l-11.2-2.125a1.121,1.121,0,0,1-.919-1.321h0a1.121,1.121,0,0,1,1.321-.919l11.2,2.125a1.121,1.121,0,0,1,.919,1.321h0A1.121,1.121,0,0,1,244.906,130.651Z" transform="translate(-195.37 -103.596)"/>
        <path id="Path_3611" data-name="Path 3611" d="M195.145,121.328l-2.24-.4a1.121,1.121,0,0,1-.919-1.321h0a1.121,1.121,0,0,1,1.321-.919l2.24.4a1.121,1.121,0,0,1,.919,1.321h0A1.121,1.121,0,0,1,195.145,121.328Z" transform="translate(-178.006 -100.362)"/>
        <path id="Path_3612" data-name="Path 3612" d="M198.045,105.728l-2.24-.4a1.121,1.121,0,0,1-.919-1.321h0a1.121,1.121,0,0,1,1.321-.919l2.24.4a1.121,1.121,0,0,1,.919,1.321h0A1.121,1.121,0,0,1,198.045,105.728Z" transform="translate(-179.24 -93.723)"/>
        <path id="Path_3613" data-name="Path 3613" d="M196.545,113.528l-2.24-.4a1.121,1.121,0,0,1-.919-1.321h0a1.121,1.121,0,0,1,1.321-.919l2.24.4a1.121,1.121,0,0,1,.919,1.321h0A1.094,1.094,0,0,1,196.545,113.528Z" transform="translate(-178.602 -97.042)"/>
        <path id="Path_3614" data-name="Path 3614" d="M234.558,144.847,213.3,140.826a1.121,1.121,0,0,1-.919-1.321h0a1.121,1.121,0,0,1,1.321-.919l21.253,4.021a1.121,1.121,0,0,1,.919,1.321h0A1.15,1.15,0,0,1,234.558,144.847Z" transform="translate(-186.688 -108.831)"/>
        <path id="Path_3615" data-name="Path 3615" d="M233.058,152.647,211.8,148.626a1.121,1.121,0,0,1-.919-1.321h0a1.121,1.121,0,0,1,1.321-.919l21.253,4.021a1.121,1.121,0,0,1,.919,1.321h0A1.164,1.164,0,0,1,233.058,152.647Z" transform="translate(-186.05 -112.151)"/>
        <path id="Path_3616" data-name="Path 3616" d="M231.558,160.347,210.3,156.326a1.121,1.121,0,0,1-.919-1.321h0a1.121,1.121,0,0,1,1.321-.919l21.253,4.021a1.121,1.121,0,0,1,.919,1.321h0A1.121,1.121,0,0,1,231.558,160.347Z" transform="translate(-185.411 -115.428)"/>
        <path id="Path_3617" data-name="Path 3617" d="M240.117,170.019l-7.812-1.493a1.121,1.121,0,0,1-.919-1.321h0a1.121,1.121,0,0,1,1.321-.919l7.812,1.493a1.121,1.121,0,0,1,.919,1.321h0A1.121,1.121,0,0,1,240.117,170.019Z" transform="translate(-194.774 -120.62)"/>
        <path id="Path_3618" data-name="Path 3618" d="M192.245,136.928l-2.24-.4a1.121,1.121,0,0,1-.919-1.321h0a1.121,1.121,0,0,1,1.321-.919l2.24.4a1.121,1.121,0,0,1,.919,1.321h0A1.2,1.2,0,0,1,192.245,136.928Z" transform="translate(-176.772 -107.001)"/>
        <path id="Path_3619" data-name="Path 3619" d="M190.745,144.628l-2.24-.4a1.121,1.121,0,0,1-.919-1.321h0a1.121,1.121,0,0,1,1.321-.919l2.24.4a1.121,1.121,0,0,1,.919,1.321h0A1.121,1.121,0,0,1,190.745,144.628Z" transform="translate(-176.133 -110.278)"/>
        <path id="Path_3620" data-name="Path 3620" d="M189.245,152.428l-2.24-.4a1.121,1.121,0,0,1-.919-1.321h0a1.121,1.121,0,0,1,1.321-.919l2.24.4a1.121,1.121,0,0,1,.919,1.321h0A1.121,1.121,0,0,1,189.245,152.428Z" transform="translate(-175.495 -113.598)"/>
      </g>
      <path id="Path_3621" data-name="Path 3621" d="M223.606,186.527l-.23,1.493-1.436-.23.172-1.379a5.876,5.876,0,0,1-2.413-.976l.689-1.666a5.217,5.217,0,0,0,2.355.977c.862.115,1.436-.115,1.551-.689.057-.574-.345-.977-1.379-1.493-1.493-.747-2.47-1.608-2.24-3.044a2.675,2.675,0,0,1,2.815-2.24l.172-1.379,1.436.23-.172,1.264a4.689,4.689,0,0,1,2.068.8l-.689,1.608a4.2,4.2,0,0,0-2.01-.8c-.919-.115-1.321.23-1.379.632-.057.46.4.862,1.608,1.493,1.666.862,2.24,1.781,2.01,3.1C226.421,185.493,225.329,186.469,223.606,186.527Z" transform="translate(-189.809 -124.72)" fill="#39b54a"/>
    </g>
    <g id="Group_360" data-name="Group 360" transform="translate(0 8.7)">
      <g id="Group_359" data-name="Group 359" clip-path="url(#clip-path)">
        <g id="Group_358" data-name="Group 358" transform="translate(4.505 30.903)">
          <g id="Group_357" data-name="Group 357">
            <g id="Group_356" data-name="Group 356">
              <path id="Path_3622" data-name="Path 3622" d="M35.62,118.5S1.27,146.416,8.967,166.291s32.856,3.619,32.856,3.619Z" transform="translate(-7.843 -86.333)" fill="#dddddc"/>
              <g id="Group_355" data-name="Group 355" transform="translate(21.179 13.248)">
                <ellipse id="Ellipse_582" data-name="Ellipse 582" cx="39.175" cy="32.799" rx="39.175" ry="32.799" transform="matrix(0.031, -0.999, 0.999, 0.031, 0, 78.31)" fill="#efa521"/>
                <g id="Group_353" data-name="Group 353" transform="translate(0)" clip-path="url(#clip-path-2)">
                  <path id="Path_3623" data-name="Path 3623" d="M46.974,134.4s30.788,16.026,65.6,2.01L112,156s-40.783,5.629-65.6-2.987Z" transform="translate(-45.432 -106.348)" fill="#231f20" stroke="#231f20" stroke-miterlimit="10" stroke-width="0.277"/>
                </g>
                <g id="Group_354" data-name="Group 354" transform="translate(0)" clip-path="url(#clip-path-2)">
                  <path id="Path_3624" data-name="Path 3624" d="M45.674,174.9s30.788,15.8,65.6,2.01l-.574,19.358s-40.783,5.514-65.6-2.987Z" transform="translate(-44.878 -123.584)" fill="#231f20" stroke="#231f20" stroke-miterlimit="10" stroke-width="0.277"/>
                </g>
                <ellipse id="Ellipse_585" data-name="Ellipse 585" cx="39.175" cy="32.799" rx="39.175" ry="32.799" transform="matrix(0.031, -0.999, 0.999, 0.031, 0, 78.31)" fill="none" stroke="#231f20" stroke-miterlimit="10" stroke-width="2.217"/>
              </g>
              <circle id="Ellipse_586" data-name="Ellipse 586" cx="17.347" cy="17.347" r="17.347" transform="translate(19.448)" fill="#efa521" stroke="#231f20" stroke-miterlimit="10" stroke-width="2.586"/>
              <circle id="Ellipse_587" data-name="Ellipse 587" cx="17.347" cy="17.347" r="17.347" transform="translate(54.085 1.034)" fill="#efa521" stroke="#231f20" stroke-miterlimit="10" stroke-width="2.586"/>
              <path id="Path_3625" data-name="Path 3625" d="M95,227.6s6.721,1.9,8.674.287c0,0-5.227,5.17-5.055,6.663Z" transform="translate(-44.936 -132.765)"/>
            </g>
            <circle id="Ellipse_588" data-name="Ellipse 588" cx="11.258" cy="11.258" r="11.258" transform="translate(25.479 7.41)" fill="#fff"/>
            <circle id="Ellipse_589" data-name="Ellipse 589" cx="11.258" cy="11.258" r="11.258" transform="translate(60.173 7.123)" fill="#fff"/>
            <circle id="Ellipse_590" data-name="Ellipse 590" cx="5.859" cy="5.859" r="5.859" transform="translate(30.95 15.452)" fill="#231f20"/>
            <circle id="Ellipse_591" data-name="Ellipse 591" cx="5.859" cy="5.859" r="5.859" transform="translate(65.642 15.739)" fill="#231f20"/>
            <line id="Line_76" data-name="Line 76" x1="14.82" y2="25.848" transform="translate(9.108 40.323)" fill="none" stroke="#231f20" stroke-linecap="round" stroke-miterlimit="10" stroke-width="2.754"/>
            <circle id="Ellipse_592" data-name="Ellipse 592" cx="1.321" cy="1.321" r="1.321" transform="translate(35.253 22.388)" fill="#fff"/>
            <circle id="Ellipse_593" data-name="Ellipse 593" cx="1.321" cy="1.321" r="1.321" transform="translate(69.775 22.39)" fill="#fff"/>
            <path id="Path_3626" data-name="Path 3626" d="M91.4,127.3l6.987.16s-.769,3.4-3.558,3.43S91.4,127.3,91.4,127.3Z" transform="translate(-40.637 -88.657)" fill="#231f20"/>
          </g>
        </g>
        <path id="Path_3627" data-name="Path 3627" d="M146.432,19.987a3.1,3.1,0,0,1-3.963,1.953,3.159,3.159,0,0,1-1.9-1.838,1.065,1.065,0,0,1-.4-.115,24.1,24.1,0,0,0-30.616,14.935,2.125,2.125,0,0,1-4.021-1.379,28.321,28.321,0,0,1,36.015-17.519,1.155,1.155,0,0,1,.46.23,3.211,3.211,0,0,1,2.527-.23,3.166,3.166,0,0,1,1.9,3.963ZM100.594,36.357a2.1,2.1,0,0,1-2.47-1.666A28.337,28.337,0,0,1,120.583,1.548a1.59,1.59,0,0,1,.517-.057A3.353,3.353,0,0,1,123.168.055a3.132,3.132,0,1,1-1.379,5.514.83.83,0,0,1-.4.115,24.092,24.092,0,0,0-19.07,28.2,2.18,2.18,0,0,1-1.723,2.47Z" transform="translate(-41.545 -4.995)" fill="#231f20"/>
      </g>
    </g>
    <rect id="Rectangle_1230" data-name="Rectangle 1230" width="203" height="142" transform="translate(-33.984 6.821)" fill="none"/>
  </g>
</svg>
