<svg xmlns="http://www.w3.org/2000/svg" xmlns:xlink="http://www.w3.org/1999/xlink" width="106.911" height="134.945" viewBox="0 0 106.911 134.945"><defs><style>.a,.c,.g{fill:#fff;}.a,.f,.g{stroke:#bcbec0;}.a,.f,.g,.h{stroke-miterlimit:10;}.a{stroke-width:5px;}.b{fill:#f2f4f6;}.d{clip-path:url(#a);}.e{fill:#bcbec0;}.f,.h{fill:none;}.f,.g,.h{stroke-width:2px;}.h{stroke:#d1d3d4;stroke-linecap:round;}</style><clipPath id="a"><ellipse class="a" cx="38.981" cy="32.645" rx="38.981" ry="32.645" transform="translate(0 77.517) rotate(-83.88)"/></clipPath></defs><g transform="translate(-214.755 -155.412)"><g transform="translate(214.755 155.412)"><g transform="translate(0 0)"><path class="b" d="M245.492,485S209.3,510.066,215.46,530.413s32.249,6.1,32.249,6.1Z" transform="translate(-214.755 -421.066)"/><path class="b" d="M598.712,502.18s30.046,32.166,19.716,50.742-32.808-.885-32.808-.885Z" transform="translate(-513.679 -434.913)"/><ellipse class="c" cx="38.981" cy="32.645" rx="38.981" ry="32.645" transform="translate(19.654 122.384) rotate(-83.88)"/><g class="d" transform="translate(19.654 44.867)"><path class="e" d="M336.444,534.68s29.594,15.429,64.916,6.966l-1.69,15.747s-40.715,1.208-64.831-7.773Z" transform="translate(-331.2 -505.976)"/><path class="e" d="M323.69,653.29s29.594,15.429,64.91,6.966L386.911,676s-40.713,1.212-64.831-7.773Z" transform="translate(-320.915 -601.578)"/></g><ellipse class="f" cx="38.981" cy="32.645" rx="38.981" ry="32.645" transform="translate(19.654 122.384) rotate(-83.88)"/><circle class="g" cx="17.251" cy="17.251" r="17.251" transform="translate(23.531 32.668)"/><circle class="g" cx="17.251" cy="17.251" r="17.251" transform="translate(57.837 36.348)"/><path class="e" d="M462.76,814.13s6.524,2.369,8.576.919c0,0-5.577,4.741-5.54,6.246Z" transform="translate(-414.652 -686.351)"/><path class="e" d="M549.079,176.947a3.127,3.127,0,0,1-5.868-.37,2.2,2.2,0,0,1-.388-.124,23.98,23.98,0,0,0-31.493,12.485,2.1,2.1,0,1,1-3.862-1.668A28.2,28.2,0,0,1,544.5,172.6a2.089,2.089,0,0,1,.444.26,3.127,3.127,0,0,1,4.138,4.095Zm-46.672,12.774a2.1,2.1,0,0,1-2.328-1.849,28.184,28.184,0,0,1,24.766-31.183,2.084,2.084,0,0,1,.516,0,3.119,3.119,0,1,1,.353,4.087,2.224,2.224,0,0,1-.388.085,23.976,23.976,0,0,0-21.064,26.531,2.1,2.1,0,0,1-1.854,2.328Z" transform="translate(-444.582 -155.412)"/><line class="h" x1="11.701" y1="24.529" transform="translate(77.175 58.588)"/><line class="h" y1="24.05" x2="18.164" transform="translate(25.238 54.333)"/><path class="e" d="M487.692,531.792l-7.922-.776s1.177-3.8,4.351-3.6S487.692,531.792,487.692,531.792Z" transform="translate(-428.362 -455.249)"/><path class="f" d="M346.016,368.42l31.132,11.67-31.578,4.694" transform="translate(-320.194 -327.1)"/><path class="f" d="M555.823,403.19l-31.933,4.659,29.863,11.286" transform="translate(-463.923 -355.125)"/></g></g></g></svg>