<svg xmlns="http://www.w3.org/2000/svg" xmlns:xlink="http://www.w3.org/1999/xlink" viewBox="0 0 644.44 655.63"><defs><style>.cls-1,.cls-3,.cls-7{fill:#f0a622;}.cls-1,.cls-10,.cls-5,.cls-6,.cls-7,.cls-9{stroke:#231f20;stroke-miterlimit:10;}.cls-1,.cls-6,.cls-9{stroke-width:6px;}.cls-2{fill:#ddd;}.cls-4{clip-path:url(#clip-path);}.cls-22,.cls-5,.cls-8{fill:#231f20;}.cls-5{stroke-width:0.75px;}.cls-10,.cls-6,.cls-9{fill:none;}.cls-10,.cls-7{stroke-width:7px;}.cls-9{stroke-linecap:round;}.cls-11,.cls-14{font-size:39.04px;}.cls-11,.cls-15{fill:#dcdbdb;}.cls-11,.cls-12,.cls-13,.cls-14,.cls-15,.cls-16,.cls-17,.cls-18,.cls-19,.cls-20,.cls-21,.cls-22{font-family:MyriadPro-Bold, Myriad Pro;font-weight:700;}.cls-12,.cls-15{font-size:72.94px;}.cls-12,.cls-13,.cls-14,.cls-16,.cls-17,.cls-18,.cls-19,.cls-20,.cls-21{fill:#e6e7e8;}.cls-13{font-size:127.78px;}.cls-16{font-size:46.39px;}.cls-17{font-size:17.21px;}.cls-18{font-size:23.78px;}.cls-19{font-size:26.89px;}.cls-20{font-size:13.72px;}.cls-21{font-size:131.37px;}.cls-22{font-size:97.04px;}</style><clipPath id="clip-path"><ellipse class="cls-1" cx="292.1" cy="429.06" rx="184.65" ry="154.64" transform="translate(-165.68 673.72) rotate(-83.88)"/></clipPath></defs><title>Bee-ForgotPassword</title><g id="Layer_2" data-name="Layer 2"><g id="MrsBeez"><path class="cls-2" d="M171.13,319.3S-.3,438,28.87,534.37s152.76,28.88,152.76,28.88Z"/><path class="cls-2" d="M428.32,335S570.66,487.4,521.71,575.4s-155.41-4.19-155.41-4.19Z"/><ellipse class="cls-3" cx="292.1" cy="429.06" rx="184.65" ry="154.64" transform="translate(-165.68 673.72) rotate(-83.88)"/><g class="cls-4"><path class="cls-5" d="M143.46,364.91S283.65,438,451,397.91l-8,74.59s-192.85,5.75-307.09-36.82Z"/><path class="cls-5" d="M131.77,473.89S272,547,439.27,506.89l-8,74.59s-192.86,5.75-307.1-36.82Z"/></g><ellipse class="cls-6" cx="292.1" cy="429.06" rx="184.65" ry="154.64" transform="translate(-165.68 673.72) rotate(-83.88)"/><circle class="cls-7" cx="218.7" cy="252.87" r="81.72"/><circle class="cls-7" cx="381.2" cy="270.3" r="81.72"/><path d="M253.41,621.68S284.31,632.9,294,626c0,0-26.43,22.45-26.25,29.59Z"/><path class="cls-8" d="M529.35,119.54a14.81,14.81,0,0,1-27.8-1.76,10,10,0,0,1-1.81-.58,113.59,113.59,0,0,0-149.18,59.14,10,10,0,0,1-18.3-7.91c29.19-67.51,107.87-98.69,175.39-69.5a10.23,10.23,0,0,1,2.11,1.23,14.81,14.81,0,0,1,19.59,19.4ZM308.27,180a9.94,9.94,0,0,1-11-8.75C288.84,98.23,341.47,31.94,414.55,23.55a9.48,9.48,0,0,1,2.44,0A14.77,14.77,0,1,1,418.69,43a10.34,10.34,0,0,1-1.87.39A113.59,113.59,0,0,0,317.05,169a10,10,0,0,1-8.78,11Z"/><line class="cls-9" x1="446.02" y1="420.2" x2="416" y2="295.02"/><line class="cls-9" x1="145.73" y1="377.04" x2="240.24" y2="273.26"/><path class="cls-8" d="M306.56,379,269,375.34s5.59-18,20.62-17S306.56,379,306.56,379Z"/><polyline class="cls-10" points="147.84 212.13 295.31 267.42 145.73 289.65"/><polyline class="cls-10" points="460.84 244.09 309.58 266.16 451.04 319.62"/><text class="cls-11" transform="matrix(0.99, 0.1, -0.1, 0.99, 36.48, 367.45)">?</text><text class="cls-12" transform="matrix(1, 0.06, -0.06, 1, 1.01, 134.34)">?</text><text class="cls-13" transform="translate(36.48 244.09) rotate(13.6)">?</text><text class="cls-14" transform="matrix(0.99, 0.1, -0.1, 0.99, 145.73, 150.81)">?</text><text class="cls-15" transform="translate(85.39 69.11) rotate(-29.66)">?</text><text class="cls-16" transform="matrix(0.92, -0.39, 0.39, 0.92, 98.32, 318.78)">?</text><text class="cls-17" transform="translate(277.2 154.06) rotate(-22.95)">?</text><text class="cls-18" transform="matrix(0.88, 0.47, -0.47, 0.88, 492.74, 306.8)">?</text><text class="cls-15" transform="matrix(0.98, 0.19, -0.19, 0.98, 477.18, 230.14)">?</text><text class="cls-12" transform="translate(549.61 359.64) rotate(13.6)">?</text><text class="cls-11" transform="matrix(0.99, 0.1, -0.1, 0.99, 597.53, 88.55)">?</text><text class="cls-19" transform="translate(520.14 38.93) rotate(-29.66)">?</text><text class="cls-20" transform="translate(468.89 352.8) rotate(-29.66)">?</text><text class="cls-20" transform="translate(435.17 182.35) rotate(-29.66)">?</text><text class="cls-21" transform="translate(561.77 230.14) rotate(13.6)">?</text><text class="cls-22" transform="matrix(0.98, -0.19, 0.19, 0.98, 218.7, 132.7)">?</text></g></g></svg>