<svg xmlns="http://www.w3.org/2000/svg" xmlns:xlink="http://www.w3.org/1999/xlink" viewBox="0 0 866.18 918.45"><defs><style>.cls-1,.cls-11{fill:#fff;}.cls-1,.cls-10,.cls-13,.cls-15{stroke:#bcbec0;}.cls-1,.cls-10,.cls-13,.cls-14,.cls-15,.cls-8{stroke-miterlimit:10;}.cls-1,.cls-10,.cls-13{stroke-width:5px;}.cls-2{isolation:isolate;}.cls-3{opacity:0.44;}.cls-10,.cls-4{fill:#f2f4f6;}.cls-5{fill:#bcbec0;}.cls-6{fill:#969fb7;opacity:0.3;mix-blend-mode:screen;}.cls-7{fill:#d1d3d4;}.cls-13,.cls-14,.cls-15,.cls-8{fill:none;}.cls-8{stroke:#e6e7e8;stroke-width:2px;}.cls-9{fill:#e6e7e8;}.cls-12{clip-path:url(#clip-path);}.cls-14{stroke:#d1d3d4;stroke-linecap:round;}.cls-14,.cls-15{stroke-width:6px;}.cls-16{fill:url(#linear-gradient);}.cls-17{fill:url(#linear-gradient-2);}.cls-18{fill:url(#linear-gradient-3);}.cls-19{fill:url(#linear-gradient-4);}.cls-20{fill:url(#linear-gradient-5);}.cls-21{fill:url(#linear-gradient-6);}.cls-22{fill:url(#linear-gradient-7);}.cls-23{fill:url(#linear-gradient-8);}.cls-24{fill:url(#linear-gradient-9);}.cls-25{fill:url(#linear-gradient-10);}.cls-26{fill:url(#linear-gradient-11);}.cls-27{fill:url(#linear-gradient-12);}.cls-28{fill:url(#linear-gradient-13);}.cls-29{fill:url(#linear-gradient-14);}.cls-30{fill:url(#linear-gradient-15);}.cls-31{fill:url(#linear-gradient-16);}.cls-32{fill:url(#linear-gradient-17);}.cls-33{fill:url(#linear-gradient-18);}.cls-34{fill:url(#linear-gradient-19);}.cls-35{fill:url(#linear-gradient-20);}.cls-36{fill:url(#linear-gradient-21);}.cls-37{fill:url(#linear-gradient-22);}.cls-38{fill:url(#linear-gradient-23);}.cls-39{fill:url(#linear-gradient-24);}.cls-40{fill:url(#linear-gradient-25);}.cls-41{fill:url(#linear-gradient-26);}.cls-42{fill:url(#linear-gradient-27);}.cls-43{fill:url(#linear-gradient-28);}.cls-44{fill:url(#linear-gradient-29);}.cls-45{fill:url(#linear-gradient-30);}.cls-46{fill:url(#linear-gradient-31);}.cls-47{fill:url(#linear-gradient-32);}.cls-48{fill:url(#linear-gradient-33);}.cls-49{fill:url(#linear-gradient-34);}</style><clipPath id="clip-path"><ellipse class="cls-1" cx="504.87" cy="604.5" rx="200.95" ry="168.29" transform="translate(-150.05 1042) rotate(-83.88)"/></clipPath><linearGradient id="linear-gradient" x1="73.43" y1="766.79" x2="73.43" y2="600.38" gradientTransform="translate(-129 -172.59) rotate(-14.53)" gradientUnits="userSpaceOnUse"><stop offset="0" stop-color="#fff" stop-opacity="0.58"/><stop offset="0.4" stop-color="#949494" stop-opacity="0"/></linearGradient><linearGradient id="linear-gradient-2" x1="179.19" y1="564.49" x2="179.19" y2="398.07" xlink:href="#linear-gradient"/><linearGradient id="linear-gradient-3" x1="310.58" y1="1033.78" x2="310.58" y2="867.36" xlink:href="#linear-gradient"/><linearGradient id="linear-gradient-4" x1="196.01" y1="1087.35" x2="196.01" y2="920.93" xlink:href="#linear-gradient"/><linearGradient id="linear-gradient-5" x1="605.65" y1="525.96" x2="605.65" y2="359.54" xlink:href="#linear-gradient"/><linearGradient id="linear-gradient-6" x1="371.89" y1="441.2" x2="371.89" y2="274.78" xlink:href="#linear-gradient"/><linearGradient id="linear-gradient-7" x1="452.3" y1="1052.53" x2="452.3" y2="886.11" xlink:href="#linear-gradient"/><linearGradient id="linear-gradient-8" x1="316.98" y1="474.44" x2="316.98" y2="308.03" xlink:href="#linear-gradient"/><linearGradient id="linear-gradient-9" x1="382.61" y1="593.96" x2="382.61" y2="427.54" xlink:href="#linear-gradient"/><linearGradient id="linear-gradient-10" x1="64.06" y1="1030.66" x2="64.06" y2="864.24" xlink:href="#linear-gradient"/><linearGradient id="linear-gradient-11" x1="267.75" y1="688.98" x2="267.75" y2="522.56" xlink:href="#linear-gradient"/><linearGradient id="linear-gradient-12" x1="656.97" y1="944" x2="656.97" y2="777.58" xlink:href="#linear-gradient"/><linearGradient id="linear-gradient-13" x1="579.27" y1="1028.78" x2="579.27" y2="862.36" xlink:href="#linear-gradient"/><linearGradient id="linear-gradient-14" x1="259.47" y1="1189.24" x2="259.47" y2="1022.83" xlink:href="#linear-gradient"/><linearGradient id="linear-gradient-15" x1="488.11" y1="644.56" x2="488.11" y2="478.14" xlink:href="#linear-gradient"/><linearGradient id="linear-gradient-16" x1="554.04" y1="1156.2" x2="554.04" y2="989.78" xlink:href="#linear-gradient"/><linearGradient id="linear-gradient-17" x1="429.75" y1="1138.67" x2="429.75" y2="972.25" xlink:href="#linear-gradient"/><linearGradient id="linear-gradient-18" x1="635.38" y1="1238.26" x2="635.38" y2="1071.84" xlink:href="#linear-gradient"/><linearGradient id="linear-gradient-19" x1="243.06" y1="938.25" x2="243.06" y2="771.83" xlink:href="#linear-gradient"/><linearGradient id="linear-gradient-20" x1="669.83" y1="625.86" x2="669.83" y2="459.44" xlink:href="#linear-gradient"/><linearGradient id="linear-gradient-21" x1="224.37" y1="446.85" x2="224.37" y2="280.43" xlink:href="#linear-gradient"/><linearGradient id="linear-gradient-22" x1="578.42" y1="850.49" x2="578.42" y2="684.07" xlink:href="#linear-gradient"/><linearGradient id="linear-gradient-23" x1="739.99" y1="594.11" x2="739.99" y2="427.7" xlink:href="#linear-gradient"/><linearGradient id="linear-gradient-24" x1="785.47" y1="889.83" x2="785.47" y2="723.41" xlink:href="#linear-gradient"/><linearGradient id="linear-gradient-25" x1="768.56" y1="702.03" x2="768.56" y2="535.62" xlink:href="#linear-gradient"/><linearGradient id="linear-gradient-26" x1="143.28" y1="868.16" x2="143.28" y2="701.75" xlink:href="#linear-gradient"/><linearGradient id="linear-gradient-27" x1="112.75" y1="581.03" x2="112.75" y2="414.61" xlink:href="#linear-gradient"/><linearGradient id="linear-gradient-28" x1="719.3" y1="842.28" x2="719.3" y2="675.86" xlink:href="#linear-gradient"/><linearGradient id="linear-gradient-29" x1="823.36" y1="785.99" x2="823.36" y2="619.57" xlink:href="#linear-gradient"/><linearGradient id="linear-gradient-30" x1="615.04" y1="788.77" x2="615.04" y2="622.35" xlink:href="#linear-gradient"/><linearGradient id="linear-gradient-31" x1="746.19" y1="1071.11" x2="746.19" y2="904.69" xlink:href="#linear-gradient"/><linearGradient id="linear-gradient-32" x1="636.3" y1="1122.8" x2="636.3" y2="956.38" xlink:href="#linear-gradient"/><linearGradient id="linear-gradient-33" x1="379.88" y1="833.12" x2="379.88" y2="666.7" xlink:href="#linear-gradient"/><linearGradient id="linear-gradient-34" x1="179.44" y1="840.95" x2="179.44" y2="674.53" xlink:href="#linear-gradient"/></defs><title>Bee-NoResults</title><g class="cls-2"><g id="Layer_2" data-name="Layer 2"><g id="MrsBeez"><g class="cls-3"><polygon class="cls-4" points="627.34 44.41 627.34 412.08 627.34 456.83 627.34 824.49 820.55 824.49 820.55 456.83 820.55 412.08 820.55 44.41 627.34 44.41"/><path class="cls-5" d="M689.17,483.32H655.9V451a16.64,16.64,0,0,1,16.63-16.64h0A16.64,16.64,0,0,1,689.17,451Z"/><path class="cls-5" d="M743.78,483.32H710.51V451a16.64,16.64,0,0,1,16.64-16.64h0A16.64,16.64,0,0,1,743.78,451Z"/><path class="cls-5" d="M798.39,483.32H765.12V451a16.64,16.64,0,0,1,16.64-16.64h0A16.63,16.63,0,0,1,798.39,451Z"/><path class="cls-5" d="M689.17,115.66H655.9V83.33a16.64,16.64,0,0,1,16.63-16.64h0a16.64,16.64,0,0,1,16.64,16.64Z"/><path class="cls-5" d="M743.78,115.66H710.51V83.33a16.64,16.64,0,0,1,16.64-16.64h0a16.64,16.64,0,0,1,16.63,16.64Z"/><path class="cls-5" d="M798.39,115.66H765.12V83.33a16.64,16.64,0,0,1,16.64-16.64h0a16.63,16.63,0,0,1,16.63,16.64Z"/><path class="cls-5" d="M689.17,188.47H655.9V156.14a16.64,16.64,0,0,1,16.63-16.63h0a16.64,16.64,0,0,1,16.64,16.63Z"/><path class="cls-5" d="M743.78,188.47H710.51V156.14a16.64,16.64,0,0,1,16.64-16.63h0a16.64,16.64,0,0,1,16.63,16.63Z"/><path class="cls-5" d="M798.39,188.47H765.12V156.14a16.64,16.64,0,0,1,16.64-16.63h0a16.63,16.63,0,0,1,16.63,16.63Z"/><path class="cls-5" d="M689.17,261.29H655.9V229a16.63,16.63,0,0,1,16.63-16.63h0A16.63,16.63,0,0,1,689.17,229Z"/><path class="cls-5" d="M743.78,261.29H710.51V229a16.63,16.63,0,0,1,16.64-16.63h0A16.63,16.63,0,0,1,743.78,229Z"/><path class="cls-5" d="M798.39,261.29H765.12V229a16.63,16.63,0,0,1,16.64-16.63h0A16.62,16.62,0,0,1,798.39,229Z"/><path class="cls-5" d="M689.17,334.11H655.9V301.78a16.64,16.64,0,0,1,16.63-16.64h0a16.64,16.64,0,0,1,16.64,16.64Z"/><path class="cls-5" d="M743.78,334.11H710.51V301.78a16.64,16.64,0,0,1,16.64-16.64h0a16.64,16.64,0,0,1,16.63,16.64Z"/><path class="cls-5" d="M798.39,334.11H765.12V301.78a16.64,16.64,0,0,1,16.64-16.64h0a16.63,16.63,0,0,1,16.63,16.64Z"/><path class="cls-5" d="M689.17,406.92H655.9V374.59A16.64,16.64,0,0,1,672.53,358h0a16.64,16.64,0,0,1,16.64,16.63Z"/><path class="cls-5" d="M743.78,406.92H710.51V374.59A16.64,16.64,0,0,1,727.15,358h0a16.64,16.64,0,0,1,16.63,16.63Z"/><path class="cls-5" d="M798.39,406.92H765.12V374.59A16.64,16.64,0,0,1,781.76,358h0a16.63,16.63,0,0,1,16.63,16.63Z"/><path class="cls-5" d="M689.17,556.14H655.9V523.81a16.63,16.63,0,0,1,16.63-16.63h0a16.63,16.63,0,0,1,16.64,16.63Z"/><path class="cls-5" d="M743.78,556.14H710.51V523.81a16.63,16.63,0,0,1,16.64-16.63h0a16.63,16.63,0,0,1,16.63,16.63Z"/><path class="cls-5" d="M798.39,556.14H765.12V523.81a16.63,16.63,0,0,1,16.64-16.63h0a16.62,16.62,0,0,1,16.63,16.63Z"/><path class="cls-5" d="M689.17,629H655.9V596.63A16.64,16.64,0,0,1,672.53,580h0a16.64,16.64,0,0,1,16.64,16.64Z"/><path class="cls-5" d="M743.78,629H710.51V596.63A16.64,16.64,0,0,1,727.15,580h0a16.64,16.64,0,0,1,16.63,16.64Z"/><path class="cls-5" d="M798.39,629H765.12V596.63A16.64,16.64,0,0,1,781.76,580h0a16.63,16.63,0,0,1,16.63,16.64Z"/><path class="cls-5" d="M689.17,701.77H655.9V669.44a16.64,16.64,0,0,1,16.63-16.63h0a16.64,16.64,0,0,1,16.64,16.63Z"/><path class="cls-5" d="M743.78,701.77H710.51V669.44a16.64,16.64,0,0,1,16.64-16.63h0a16.64,16.64,0,0,1,16.63,16.63Z"/><path class="cls-5" d="M798.39,701.77H765.12V669.44a16.64,16.64,0,0,1,16.64-16.63h0a16.63,16.63,0,0,1,16.63,16.63Z"/><path class="cls-5" d="M689.17,774.59H655.9V742.26a16.63,16.63,0,0,1,16.63-16.63h0a16.63,16.63,0,0,1,16.64,16.63Z"/><path class="cls-5" d="M743.78,774.59H710.51V742.26a16.63,16.63,0,0,1,16.64-16.63h0a16.63,16.63,0,0,1,16.63,16.63Z"/><path class="cls-5" d="M798.39,774.59H765.12V742.26a16.63,16.63,0,0,1,16.64-16.63h0a16.62,16.62,0,0,1,16.63,16.63Z"/><path class="cls-4" d="M475.34,42.09s24.4-15.23,56.25-12.4,46.32,35.76,96.34,31.69,128.06-6.57,134,13,29.16,12.07,34.58,38.82-90.19,48.34-136.22,36.5-128.15,3.93-184.77-5.77S336.06,149.85,353.33,105,379.25,36.94,475.34,42.09Z"/><path class="cls-6" d="M202,165.29a57,57,0,0,1,32.74-4.78c18.13,3,25.06,22.42,53.89,22.16s73.65,1.54,76.23,13,16.21,8.13,18.21,23.68-53.68,24-79.56,15.27-73.6-3.06-105.64-11-80.15-2.38-68.4-27.38S147.12,158.36,202,165.29Z"/><polygon class="cls-7" points="354.53 369.01 354.53 142.35 282.68 80.92 219.38 142.35 219.38 369.01 175.97 369.01 175.97 820.47 390.5 820.47 390.5 369.01 354.53 369.01"/><polygon class="cls-4" points="547.73 817.8 547.73 194.9 722.11 375.88 722.11 817.8 547.73 817.8"/><rect class="cls-5" x="569.52" y="289.72" width="29.43" height="29.43"/><rect class="cls-5" x="569.52" y="336.59" width="29.43" height="29.43"/><rect class="cls-5" x="569.52" y="383.46" width="29.43" height="29.43"/><rect class="cls-5" x="569.52" y="430.32" width="29.43" height="29.43"/><rect class="cls-5" x="569.52" y="477.19" width="29.43" height="29.43"/><rect class="cls-5" x="569.52" y="524.06" width="29.43" height="29.43"/><rect class="cls-5" x="569.52" y="570.93" width="29.43" height="29.43"/><rect class="cls-5" x="569.52" y="617.79" width="29.43" height="29.43"/><rect class="cls-5" x="569.52" y="664.66" width="29.43" height="29.43"/><rect class="cls-5" x="569.52" y="711.53" width="29.43" height="29.43"/><rect class="cls-5" x="569.52" y="758.39" width="29.43" height="29.43"/><rect class="cls-5" x="617.56" y="336.59" width="29.43" height="29.43"/><rect class="cls-5" x="617.56" y="383.46" width="29.43" height="29.43"/><rect class="cls-5" x="617.56" y="430.32" width="29.43" height="29.43"/><rect class="cls-5" x="617.56" y="477.19" width="29.43" height="29.43"/><rect class="cls-5" x="617.56" y="524.06" width="29.43" height="29.43"/><rect class="cls-5" x="617.56" y="570.93" width="29.43" height="29.43"/><rect class="cls-5" x="617.56" y="617.79" width="29.43" height="29.43"/><rect class="cls-5" x="617.56" y="664.66" width="29.43" height="29.43"/><rect class="cls-5" x="617.56" y="711.53" width="29.43" height="29.43"/><rect class="cls-5" x="617.56" y="758.39" width="29.43" height="29.43"/><rect class="cls-5" x="665.44" y="383.46" width="29.43" height="29.43"/><rect class="cls-5" x="665.44" y="430.32" width="29.43" height="29.43"/><rect class="cls-5" x="665.44" y="477.19" width="29.43" height="29.43"/><rect class="cls-5" x="665.44" y="524.06" width="29.43" height="29.43"/><rect class="cls-5" x="665.44" y="570.93" width="29.43" height="29.43"/><rect class="cls-5" x="665.44" y="617.79" width="29.43" height="29.43"/><rect class="cls-5" x="665.44" y="664.66" width="29.43" height="29.43"/><rect class="cls-5" x="665.44" y="711.53" width="29.43" height="29.43"/><rect class="cls-5" x="665.44" y="758.39" width="29.43" height="29.43"/><polygon class="cls-4" points="446.56 608.88 446.56 556.03 219.61 556.03 219.61 608.88 119.84 608.88 119.84 836.25 546.33 836.25 546.33 608.88 446.56 608.88"/><rect class="cls-5" x="144.59" y="638.8" width="28.42" height="28.42"/><rect class="cls-5" x="199.98" y="638.8" width="28.42" height="28.42"/><rect class="cls-5" x="255.37" y="638.8" width="28.42" height="28.42"/><rect class="cls-5" x="144.59" y="681.93" width="28.42" height="28.42"/><rect class="cls-5" x="199.98" y="681.93" width="28.42" height="28.42"/><rect class="cls-5" x="255.37" y="681.93" width="28.42" height="28.42"/><rect class="cls-5" x="144.59" y="725.06" width="28.42" height="28.42"/><rect class="cls-5" x="199.98" y="725.06" width="28.42" height="28.42"/><rect class="cls-5" x="255.37" y="725.06" width="28.42" height="28.42"/><rect class="cls-5" x="144.59" y="768.19" width="28.42" height="28.42"/><rect class="cls-5" x="199.98" y="768.19" width="28.42" height="28.42"/><rect class="cls-5" x="255.37" y="768.19" width="28.42" height="28.42"/><rect class="cls-5" x="375.3" y="638.8" width="28.42" height="28.42"/><rect class="cls-5" x="430.7" y="638.8" width="28.42" height="28.42"/><rect class="cls-5" x="486.09" y="638.8" width="28.42" height="28.42"/><rect class="cls-5" x="375.3" y="681.93" width="28.42" height="28.42"/><rect class="cls-5" x="430.7" y="681.93" width="28.42" height="28.42"/><rect class="cls-5" x="486.09" y="681.93" width="28.42" height="28.42"/><rect class="cls-5" x="375.3" y="725.06" width="28.42" height="28.42"/><rect class="cls-5" x="430.7" y="725.06" width="28.42" height="28.42"/><rect class="cls-5" x="486.09" y="725.06" width="28.42" height="28.42"/><rect class="cls-5" x="375.3" y="768.19" width="28.42" height="28.42"/><rect class="cls-5" x="430.7" y="768.19" width="28.42" height="28.42"/><rect class="cls-5" x="486.09" y="768.19" width="28.42" height="28.42"/></g><ellipse class="cls-5" cx="496.9" cy="889.15" rx="278.76" ry="29.3"/><path class="cls-7" d="M206.59,853.07s106.09-6.94,112.63,0-24,13.09-14.54,15.83S405,882.54,375.17,888.36s-199.1,22.37-186,10.46,52.32-7.62,32.7-16.31S152.09,862.12,206.59,853.07Z"/><ellipse class="cls-8" cx="229.84" cy="860.71" rx="22.89" ry="3.05"/><ellipse class="cls-8" cx="252.73" cy="882.51" rx="22.89" ry="3.05"/><path class="cls-8" d="M297.56,868.9c0,.92-5.59,1.67-12.5,1.67s-12.49-.75-12.49-1.67,5.59-1.66,12.49-1.66S297.56,868,297.56,868.9Z"/><path class="cls-7" d="M702.55,868.16s96.38-10.23,97.84,1.43S788,887.05,807.65,890s45.78,16,21.08,19.62-174.8,9.28-191.11,5,64-4.77,49.41-20.14S622.14,876.15,702.55,868.16Z"/><path class="cls-8" d="M739.35,882.84c0,1.68-10.25,3-22.89,3s-22.89-1.37-22.89-3,10.25-3.05,22.89-3.05S739.35,881.15,739.35,882.84Z"/><path class="cls-8" d="M789.85,902.06c0,.91-5.59,1.66-12.5,1.66s-12.49-.75-12.49-1.66,5.59-1.67,12.49-1.67S789.85,901.14,789.85,902.06Z"/><path class="cls-9" d="M700.11,874.88c-.81,0-13.08-10-17.44-10.87s6-7.38,16.63,10.87"/><path class="cls-9" d="M730.12,873.42c.71,0,11.37-8.72,15.16-9.45s-5.21-6.41-14.45,9.45"/><path class="cls-9" d="M787,897.62c.71,0,11.37-8.72,15.15-9.45s-5.2-6.41-14.44,9.45"/><path class="cls-10" d="M373.21,485S186.65,614.22,218.39,719.11s166.25,31.43,166.25,31.43Z"/><path class="cls-10" d="M653.11,502.18S808,668,754.75,763.76s-169.13-4.56-169.13-4.56Z"/><ellipse class="cls-11" cx="504.87" cy="604.5" rx="200.95" ry="168.29" transform="translate(-150.05 1042) rotate(-83.88)"/><g class="cls-12"><path class="cls-5" d="M343.11,534.68s152.56,79.54,334.65,35.91l-8.71,81.18S459.16,658,334.84,611.7Z"/><path class="cls-5" d="M330.38,653.29S482.94,732.83,665,689.2l-8.71,81.18s-209.88,6.25-334.21-40.07Z"/></g><ellipse class="cls-13" cx="504.87" cy="604.5" rx="200.95" ry="168.29" transform="translate(-150.05 1042) rotate(-83.88)"/><circle class="cls-1" cx="424.99" cy="412.75" r="88.93"/><circle class="cls-1" cx="601.84" cy="431.72" r="88.93"/><path class="cls-5" d="M462.76,814.13s33.63,12.21,44.21,4.74c0,0-28.75,24.44-28.56,32.2Z"/><path class="cls-5" d="M753.45,266.43a16.12,16.12,0,0,1-30.25-1.91,11.31,11.31,0,0,1-2-.64,123.62,123.62,0,0,0-162.35,64.36,10.84,10.84,0,0,1-19.91-8.6C570.73,246.16,656.36,212.23,729.84,244a10.76,10.76,0,0,1,2.29,1.34,16.12,16.12,0,0,1,21.33,21.11Zm-240.6,65.85a10.84,10.84,0,0,1-12-9.53C491.72,243.23,549,171.09,628.52,162a10.75,10.75,0,0,1,2.66,0A16.08,16.08,0,1,1,633,183.07a11.46,11.46,0,0,1-2,.44A123.6,123.6,0,0,0,522.41,320.28a10.82,10.82,0,0,1-9.56,12Z"/><line class="cls-14" x1="672.92" y1="583.89" x2="612.6" y2="457.44"/><line class="cls-14" x1="344.86" y1="559.49" x2="307.76" y2="411.3"/><path class="cls-5" d="M520.61,550l-40.84-4s6.07-19.6,22.43-18.55S520.61,550,520.61,550Z"/><polyline class="cls-15" points="347.87 368.42 508.36 428.58 345.57 452.78"/><polyline class="cls-15" points="688.51 403.19 523.89 427.21 677.84 485.39"/><path class="cls-16" d="M134.46,551.25h0c-1.56.4-4.84-7-5.24-8.52l-38.61-149a3,3,0,0,1,2.11-3.59h0a3,3,0,0,1,3.59,2.12l38.61,149C135.32,542.82,136,550.84,134.46,551.25Z"/><path class="cls-17" d="M186.08,328.88h0c-1.56.41-4.84-6.95-5.24-8.51l-38.62-149a3,3,0,0,1,2.11-3.59h0a2.94,2.94,0,0,1,3.59,2.11l38.61,149C186.94,320.46,187.65,328.47,186.08,328.88Z"/><path class="cls-18" d="M431,750.19h0c-1.57.4-4.84-7-5.25-8.52l-38.61-149a2.94,2.94,0,0,1,2.11-3.58h0a3,3,0,0,1,3.59,2.11l38.61,149C431.87,741.76,432.58,749.78,431,750.19Z"/><path class="cls-19" d="M333.54,830.79h0c-1.57.41-4.84-6.95-5.25-8.51l-38.61-149a3,3,0,0,1,2.11-3.59h0a2.94,2.94,0,0,1,3.59,2.11L334,820.8C334.4,822.37,335.11,830.38,333.54,830.79Z"/><path class="cls-20" d="M589.22,184.59h0c-1.57.4-4.84-7-5.25-8.52l-38.61-149a3,3,0,0,1,2.11-3.59h0a3,3,0,0,1,3.59,2.11l38.61,149C590.08,176.16,590.79,184.18,589.22,184.59Z"/><path class="cls-21" d="M341.68,161.19h0c-1.57.4-4.84-6.95-5.25-8.52l-38.61-149A3,3,0,0,1,299.93.09h0a3,3,0,0,1,3.59,2.12l38.61,149C342.54,152.76,343.24,160.78,341.68,161.19Z"/><path class="cls-22" d="M572.9,732.78h0c-1.57.41-4.85-6.95-5.25-8.52L529,575.27a2.94,2.94,0,0,1,2.11-3.58h0a3,3,0,0,1,3.59,2.11l38.61,149C573.75,724.35,574.46,732.37,572.9,732.78Z"/><path class="cls-23" d="M296.87,207.15h0c-1.57.4-4.84-7-5.25-8.52L253,49.64a3,3,0,0,1,2.11-3.59h0a3,3,0,0,1,3.59,2.11l38.61,149C297.73,198.72,298.44,206.74,296.87,207.15Z"/><path class="cls-24" d="M390.38,306.37h0c-1.57.4-4.84-6.95-5.25-8.52l-38.61-149a3,3,0,0,1,2.11-3.58h0a2.94,2.94,0,0,1,3.59,2.11l38.61,149C391.24,297.94,392,306,390.38,306.37Z"/><path class="cls-25" d="M191.6,809h0c-1.57.41-4.84-6.95-5.25-8.51l-38.61-149a2.94,2.94,0,0,1,2.11-3.59h0a3,3,0,0,1,3.59,2.11l38.61,149C192.46,800.6,193.17,808.61,191.6,809Z"/><path class="cls-26" d="M303,427.17h0c-1.56.4-4.84-6.95-5.24-8.52l-38.62-149a3,3,0,0,1,2.12-3.59h0a3,3,0,0,1,3.58,2.12l38.62,149C303.9,418.74,304.61,426.76,303,427.17Z"/><path class="cls-27" d="M743.79,576.37h0c-1.57.41-4.84-7-5.25-8.51l-38.61-149a3,3,0,0,1,2.11-3.59h0a2.94,2.94,0,0,1,3.59,2.11l38.61,149C744.65,568,745.36,576,743.79,576.37Z"/><path class="cls-28" d="M689.84,677.93h0c-1.56.41-4.84-6.95-5.25-8.51L646,520.43a3,3,0,0,1,2.11-3.59h0a2.94,2.94,0,0,1,3.59,2.11l38.61,149C690.7,669.51,691.41,677.53,689.84,677.93Z"/><path class="cls-29" d="M420.54,913.5h0c-1.57.41-4.84-7-5.25-8.51L376.68,756a2.94,2.94,0,0,1,2.11-3.59h0a3,3,0,0,1,3.59,2.11l38.61,149C421.4,905.08,422.11,913.09,420.54,913.5Z"/><path class="cls-30" d="M505.2,328.88h0c-1.57.41-4.84-6.95-5.25-8.51l-38.61-149a2.94,2.94,0,0,1,2.11-3.59h0A3,3,0,0,1,467,169.9l38.61,149C506.06,320.46,506.77,328.47,505.2,328.88Z"/><path class="cls-31" d="M697.4,807.61h0c-1.57.4-4.85-7-5.25-8.52l-38.61-149a2.94,2.94,0,0,1,2.11-3.58h0a3,3,0,0,1,3.59,2.11l38.61,149C698.25,799.18,699,807.2,697.4,807.61Z"/><path class="cls-32" d="M572.68,821.82h0c-1.57.4-4.84-7-5.25-8.52l-38.61-149a2.94,2.94,0,0,1,2.11-3.58h0a3,3,0,0,1,3.59,2.11l38.61,149C573.54,813.39,574.25,821.41,572.68,821.82Z"/><path class="cls-33" d="M796.72,866.63h0c-1.57.41-4.84-6.94-5.25-8.51l-38.61-149a3,3,0,0,1,2.11-3.59h0a2.94,2.94,0,0,1,3.59,2.11l38.61,149C797.58,858.21,798.29,866.23,796.72,866.63Z"/><path class="cls-34" d="M341.68,674.66h0c-1.57.4-4.84-6.95-5.25-8.52l-38.61-149a3,3,0,0,1,2.11-3.59h0a3,3,0,0,1,3.59,2.11l38.61,149C342.54,666.23,343.24,674.25,341.68,674.66Z"/><path class="cls-35" d="M676.42,265.19h0c-1.57.4-4.85-6.95-5.25-8.52l-38.61-149a3,3,0,0,1,2.11-3.59h0a3,3,0,0,1,3.59,2.12l38.61,149C677.27,256.76,678,264.78,676.42,265.19Z"/><path class="cls-36" d="M200.29,203.67h0c-1.56.41-4.84-6.95-5.24-8.51l-38.62-149a3,3,0,0,1,2.11-3.59h0a2.94,2.94,0,0,1,3.59,2.11l38.62,149C201.15,195.25,201.86,203.26,200.29,203.67Z"/><path class="cls-37" d="M644.29,505.56h0c-1.57.41-4.84-6.94-5.25-8.51l-38.61-149a3,3,0,0,1,2.11-3.59h0a3,3,0,0,1,3.59,2.11l38.61,149C645.15,497.14,645.86,505.16,644.29,505.56Z"/><path class="cls-38" d="M736.36,216.85h0c-1.57.41-4.84-6.94-5.25-8.51l-38.61-149a3,3,0,0,1,2.11-3.59h0a2.94,2.94,0,0,1,3.59,2.11l38.61,149C737.22,208.43,737.93,216.45,736.36,216.85Z"/><path class="cls-39" d="M854.59,491.7h0c-1.57.4-4.85-6.95-5.25-8.52l-38.61-149a3,3,0,0,1,2.11-3.59h0a3,3,0,0,1,3.59,2.11L855,481.7C855.44,483.27,856.15,491.29,854.59,491.7Z"/><path class="cls-40" d="M791.1,314.15h0c-1.56.41-4.84-6.95-5.24-8.51l-38.62-149a3,3,0,0,1,2.12-3.59h0a2.94,2.94,0,0,1,3.58,2.11l38.62,149C792,305.73,792.67,313.74,791.1,314.15Z"/><path class="cls-41" d="M227.51,631.85h0c-1.56.4-4.84-7-5.25-8.52l-38.61-149a3,3,0,0,1,2.11-3.58h0a2.94,2.94,0,0,1,3.59,2.11l38.61,149C228.37,623.42,229.08,631.44,227.51,631.85Z"/><path class="cls-42" d="M125.92,361.56h0c-1.57.41-4.84-6.95-5.25-8.51l-38.61-149a2.94,2.94,0,0,1,2.11-3.59h0a3,3,0,0,1,3.59,2.11l38.61,149C126.78,353.14,127.49,361.15,125.92,361.56Z"/><path class="cls-43" d="M778.6,462.27h0c-1.57.4-4.84-6.95-5.25-8.52l-38.61-149a3,3,0,0,1,2.11-3.59h0a3,3,0,0,1,3.59,2.12l38.61,149C779.46,453.84,780.17,461.86,778.6,462.27Z"/><path class="cls-44" d="M865.21,381.67h0c-1.57.4-4.84-6.95-5.25-8.52l-38.61-149a3,3,0,0,1,2.11-3.59h0a3,3,0,0,1,3.59,2.11l38.61,149C866.07,373.24,866.78,381.26,865.21,381.67Z"/><path class="cls-45" d="M664.25,436.63h0c-1.57.41-4.84-6.95-5.25-8.51l-38.61-149a2.94,2.94,0,0,1,2.11-3.59h0a3,3,0,0,1,3.59,2.11l38.61,149C665.11,428.21,665.82,436.22,664.25,436.63Z"/><path class="cls-46" d="M862.05,677h0c-1.57.4-4.84-6.95-5.25-8.52l-38.61-149a2.94,2.94,0,0,1,2.11-3.58h0a3,3,0,0,1,3.59,2.11L862.5,667C862.91,668.6,863.61,676.62,862.05,677Z"/><path class="cls-47" d="M768.64,754.63h0c-1.56.41-4.84-6.94-5.25-8.51l-38.61-149a3,3,0,0,1,2.11-3.59h0a3,3,0,0,1,3.59,2.11l38.61,149C769.5,746.21,770.21,754.23,768.64,754.63Z"/><path class="cls-48" d="M447.75,538.56h0c-1.57.41-4.85-6.94-5.25-8.51l-38.61-149a3,3,0,0,1,2.11-3.59h0a3,3,0,0,1,3.59,2.11l38.61,149C448.6,530.14,449.31,538.16,447.75,538.56Z"/><path class="cls-49" d="M255.69,596.43h0c-1.57.4-4.84-6.95-5.25-8.52l-38.61-149a3,3,0,0,1,2.11-3.59h0a3,3,0,0,1,3.59,2.12l38.61,149C256.55,588,257.25,596,255.69,596.43Z"/><path class="cls-15" d="M309.67,212.41l13.05,357.75a25.4,25.4,0,0,1-24.38,26.22h0A25.38,25.38,0,0,1,272.12,572l-.42-11.43"/><path class="cls-5" d="M623.2,283.81c-.56-15.24-24.16-26.75-52.71-25.71s-51.25,14.24-50.7,29.48c-.55-15.24-24.15-26.75-52.7-25.71s-51.25,14.24-50.7,29.48c-.55-15.24-24.15-26.75-52.7-25.71s-51.25,14.24-50.7,29.48c-.55-15.24-24.15-26.75-52.7-25.71s-51.25,14.24-50.7,29.48c-.55-15.24-24.15-26.75-52.71-25.71s-51.25,14.24-50.69,29.48C105.63,287.42,82,275.91,53.48,277S2.23,291.19,2.79,306.43H2.6s-14.21-45.51,23.8-81.77c66.42-63.35,203.89-47,241-68.49s38.07-59.41,38.07-59.41,3.72,37.8,42.29,56.48S522.23,145.66,593.09,204c40.55,33.39,29.69,79.82,29.69,79.82"/></g></g></g></svg>