<svg xmlns="http://www.w3.org/2000/svg" xmlns:xlink="http://www.w3.org/1999/xlink" width="219.925" height="144.588" viewBox="0 0 219.925 144.588"><defs><style>.a,.h{fill:#fff;}.a{stroke:#707070;}.b{clip-path:url(#a);}.c{fill:#dcdcdb;}.d,.f{fill:none;stroke-linecap:round;}.d{stroke:#231f20;}.d,.e,.f,.j{stroke-miterlimit:10;}.d,.e,.f{stroke-width:2px;}.e{fill:#eea522;}.e,.f,.j{stroke:#221f1f;}.g,.j{fill:#221f1f;}.i{fill:#ee3e3d;}.j{stroke-width:0.298px;}.k{fill:#f1c11a;}.l{fill:#010101;}.m{fill:#e5e5e4;}.n{fill:#efa522;}.o{fill:#efa521;}</style><clipPath id="a"><rect class="a" width="219.925" height="144.588" transform="translate(836 402)"/></clipPath></defs><g class="b" transform="translate(-836 -402)"><g transform="translate(805.782 398.747)"><g transform="translate(125.774 -19)"><path class="c" d="M276.3,236.2s46.887,24.826,42.383,50.061c-4.453,25.235-37.725,11.875-37.725,11.875Z" transform="translate(-189.692 -160.781)"/><line class="d" x1="25.081" y1="25.009" transform="translate(105.362 90.334)"/><path class="c" d="M20.44,0S-10.937,42.792,4.06,63.523,43.218,57.79,43.218,57.79Z" transform="matrix(0.966, -0.259, 0.259, 0.966, 13.888, 96.257)"/><path class="e" d="M247.507,251.454a54.683,54.683,0,0,1,1.126,6.859,52.63,52.63,0,0,1,.1,9.828A48.041,48.041,0,0,1,241.621,290a34.488,34.488,0,0,1-48.627,11.21,48.089,48.089,0,0,1-16.021-16.636,52.061,52.061,0,0,1-4.5-9.828,50.48,50.48,0,0,1-1.638-5.784,54.756,54.756,0,0,1-1.433-11.722c-.256-20.731,11.415-38.748,29.279-42.843s36.24,7.064,44.993,25.8A59.576,59.576,0,0,1,247.507,251.454Z" transform="translate(-137.507 -149.725)"/><path d="M260.1,399.4s8.343.154,10.135-2.3c0,0-4.5,7.576-3.839,9.316Z" transform="translate(-181.784 -239.322)"/><line class="f" x1="31.941" y1="13.79" transform="translate(0 93.928)"/><path class="g" d="M222.1,263.818l12.234-2.918s.2,6.3-4.658,7.627C224.813,269.806,222.1,263.818,222.1,263.818Z" transform="translate(-163.235 -172.838)"/><circle class="e" cx="20.782" cy="20.782" r="20.782" transform="translate(18.581 53.46)"/><path class="h" d="M182.683,222.13c.051.256.1.563.154.819a13.493,13.493,0,1,1-25.184-4.2,13.137,13.137,0,0,1,3.993-4.556c.154-.051.358-.1.512-.154a72.1,72.1,0,0,1,11.21-1.843,13.576,13.576,0,0,1,6.961,4.812A14.233,14.233,0,0,1,182.683,222.13Z" transform="translate(-130.985 -149.066)"/><g transform="translate(32.401 69.225)"><circle class="g" cx="7.064" cy="7.064" r="7.064" transform="translate(0 0)"/><circle class="h" cx="1.536" cy="1.536" r="1.536" transform="translate(5.528 5.528)"/></g><circle class="e" cx="20.782" cy="20.782" r="20.782" transform="translate(59.121 44.144)"/><path class="h" d="M251.033,191.438a13.545,13.545,0,0,1,14.486,10.442,13.487,13.487,0,0,1-10.135,16.175,12.8,12.8,0,0,1-5.016.2h-.051a13.411,13.411,0,0,1-11.056-10.34,11.537,11.537,0,0,1-.307-1.843,13.014,13.014,0,0,1,.2-3.737,13.673,13.673,0,0,1,5.682-8.651Z" transform="translate(-171.438 -138.9)"/><g transform="translate(73.709 58.732)"><circle class="g" cx="7.064" cy="7.064" r="7.064"/><circle class="h" cx="1.536" cy="1.536" r="1.536" transform="translate(5.528 5.528)"/></g><path class="g" d="M207.905,138.173A2.545,2.545,0,0,1,204.527,137,33.929,33.929,0,0,1,220.5,91.747a2.887,2.887,0,0,1,.614-.2,3.828,3.828,0,0,1,2-2.3,3.766,3.766,0,1,1,0,6.808c-.154.1-.256.154-.41.256a28.834,28.834,0,0,0-13.564,38.492,2.582,2.582,0,0,1-1.228,3.378Z" transform="translate(-153.033 -88.859)"/><path class="g" d="M267.049,117.078a3.747,3.747,0,0,1-4.044,3.481,3.955,3.955,0,0,1-2.815-1.587h-.461a28.85,28.85,0,0,0-30.968,26.617,2.54,2.54,0,0,1-5.068-.358,33.98,33.98,0,0,1,36.445-31.275,2.569,2.569,0,0,1,.614.1,3.783,3.783,0,0,1,2.866-.973,3.665,3.665,0,0,1,3.43,3.993Z" transform="translate(-164.01 -100.677)"/><path class="i" d="M222.091,186.548c-.154-.307-2.559-.409-2.918-.461-.973-.1-1.945-.2-2.969-.256-1.28-.051-2.611-.1-3.89-.051a61.925,61.925,0,0,0-13,2c-3.378.87-13.206,4.095-16.994,7.524h0c-2.866,2.355-5.067,3.583-7.269,4.146a19.311,19.311,0,0,1-8.395-.1h0a25.857,25.857,0,0,0-7.32-.2,80.213,80.213,0,0,0-11.21,1.843c-.154.051-.358.1-.512.154a59.621,59.621,0,0,0-11.824,4.4c-1.177.614-2.3,1.228-3.378,1.894-.819.512-1.638,1.075-2.457,1.638-.307.2-2.355,1.484-2.355,1.843a15.874,15.874,0,0,0,.665,2.969c-.051-.154,1.689-.051,1.843-.051a3.443,3.443,0,0,1,1.536.819c1.126,1.024,1.331,2.61,1.894,3.941.614,1.484,1.024,3.02,1.74,4.453a20.936,20.936,0,0,0,5.784,7.064c2.3,1.689,5.733,1.638,8.446,1.689a26.4,26.4,0,0,0,10.237-2.3c3.327-1.331,6.654-3.071,8.906-5.886a19.563,19.563,0,0,0,3.583-8.7,25.88,25.88,0,0,0,.461-3.481h0c0-.256.051-.512.051-.819a9.441,9.441,0,0,1,.87-3.276,4.484,4.484,0,0,1,2.866-2.252,4.322,4.322,0,0,1,3.583.614,9.139,9.139,0,0,1,2.406,2.457c.154.2.256.461.41.665h0a28.721,28.721,0,0,0,2.1,2.815,19.715,19.715,0,0,0,7.32,5.835c3.327,1.382,7.064,1.28,10.647.819a27.673,27.673,0,0,0,10.084-2.969c2.355-1.331,5.375-2.969,6.6-5.579a20.058,20.058,0,0,0,1.638-8.958,47.359,47.359,0,0,0-.614-4.709c-.154-1.433-.768-2.969-.256-4.351a3.576,3.576,0,0,1,.973-1.484,7.318,7.318,0,0,1,1.638-.87C222.654,188.288,222.449,187.418,222.091,186.548Zm-91.368,25.389c-.819.2-1.536.2-1.587-.051s.563-.614,1.331-.819c.819-.2,1.536-.2,1.587.051C132.156,211.373,131.541,211.732,130.722,211.936Zm38.083-2.611c0,.2.051.41.051.614a23.754,23.754,0,0,1-.2,5.375c-.614,3.788-2.3,7.32-5.784,9.265-2.866,1.638-11.261,4.5-17.148,3.583s-8.6-10.033-9.572-13.155c-.768-2.559-.051-6.194,7.473-9.316a41.339,41.339,0,0,1,6.142-2,35.464,35.464,0,0,1,7.627-1.28,16.253,16.253,0,0,1,7.524.87A5.877,5.877,0,0,1,166.3,204a6.388,6.388,0,0,1,.614.461,4.167,4.167,0,0,1,1.177,1.689A8.668,8.668,0,0,1,168.805,209.326Zm47.757-15.049c.665,3.174,2.713,12.49-2,16.124-4.658,3.634-13.411,5.221-16.738,5.17-6.142-.051-10.34-5.323-12.592-10.493a9.357,9.357,0,0,1-.973-3.071,3.853,3.853,0,0,1,.256-2.047,8.15,8.15,0,0,1,1.177-2,17.327,17.327,0,0,1,6.194-4.4A39.982,39.982,0,0,1,199.21,191C212.365,187.571,215.9,191.1,216.563,194.277Zm3.225-5.375c-.819.2-1.536.2-1.587-.051s.563-.614,1.331-.819c.819-.2,1.536-.2,1.587.051C221.221,188.339,220.606,188.7,219.787,188.9Z" transform="translate(-117.107 -136.159)"/><path class="j" d="M247.511,276.91l1.536,6.705s-.154.051-.409.154c-4.556,1.689-46.887,17.045-76.166,16.482h-.307l-1.331-5.784a54.755,54.755,0,0,1-1.433-11.722c7.064.768,41.615,3.225,74.272-17.045A57.87,57.87,0,0,1,247.511,276.91Z" transform="translate(-137.511 -175.181)"/><path class="j" d="M255.915,320.2a48.04,48.04,0,0,1-7.115,21.857c-12.387,3.941-31.275,9.265-48.679,11.21A48.09,48.09,0,0,1,184.1,336.631C193.365,337.5,225.305,338.678,255.915,320.2Z" transform="translate(-144.686 -201.784)"/><path class="k" d="M254.153,330.687l-.1,6.347-.154,7.729a1.421,1.421,0,0,1-1.433,1.382l-3.685-.051-6.3-.1a1.421,1.421,0,0,1-1.382-1.433v-.2l.256-13.872a1.421,1.421,0,0,1,1.433-1.382l9.93.2h.051A1.345,1.345,0,0,1,254.153,330.687Z" transform="translate(-172.51 -206.129)"/><g transform="translate(71.252 134.488)"><g transform="translate(0)"><path class="l" d="M246.3,354.978V351.6h1.484a1.081,1.081,0,0,1,.819.307,1.113,1.113,0,0,1,0,1.536,1.081,1.081,0,0,1-.819.307h-.921v1.28Zm1.433-2.866h-.819v1.126h.819a.626.626,0,0,0,.461-.154.623.623,0,0,0,0-.819A.626.626,0,0,0,247.733,352.112Z" transform="translate(-246.3 -351.6)"/><path class="l" d="M252.67,355.957a.816.816,0,0,1-.614-.2.71.71,0,0,1-.256-.512.63.63,0,0,1,.256-.512.944.944,0,0,1,.665-.2.65.65,0,0,1,.307.051.728.728,0,0,1,.307.1v-.256a.465.465,0,0,0-.154-.358.551.551,0,0,0-.41-.1.649.649,0,0,0-.307.051c-.1.051-.256.1-.358.153l-.2-.409a3.534,3.534,0,0,1,.512-.2,1.418,1.418,0,0,1,.461-.051,1,1,0,0,1,.717.2.884.884,0,0,1,.256.665v1.587h-.563V355.7a.826.826,0,0,1-.358.2A1.04,1.04,0,0,1,252.67,355.957Zm-.358-.768a.281.281,0,0,0,.154.256.74.74,0,0,0,.358.1.649.649,0,0,0,.307-.051,1.115,1.115,0,0,0,.256-.154v-.409c-.1-.051-.154-.051-.256-.1-.1,0-.2-.051-.307-.051a.74.74,0,0,0-.358.1A.442.442,0,0,0,252.312,355.189Z" transform="translate(-248.985 -352.528)"/><path class="l" d="M257.319,356.162l.1-.256L256.5,353.5h.614l.614,1.792.665-1.792h.614l-1.126,2.815a1.478,1.478,0,0,1-.307.512.864.864,0,0,1-.512.154h-.154a.188.188,0,0,1-.153-.051v-.461h.2a.461.461,0,0,0,.256-.051C257.268,356.315,257.319,356.264,257.319,356.162Z" transform="translate(-251.279 -352.528)"/></g></g><g transform="translate(70.324 124.302)"><g transform="translate(0)"><path class="l" d="M245.415,331.7l8.395.358a.5.5,0,0,1,.512.563l-.358,8.395a.5.5,0,0,1-.563.512l-8.395-.358a.5.5,0,0,1-.512-.563l.358-8.395A.561.561,0,0,1,245.415,331.7Z" transform="translate(-244.487 -331.7)"/><path class="m" d="M256.6,336.182a.31.31,0,0,1-.307.153q-.077,0-.154-.153h-.051a1.75,1.75,0,0,0-2.2,1.024c0,.1-.1.1-.2.1s-.1-.1-.1-.2h0a2.039,2.039,0,0,1,2.559-1.228h.051a.246.246,0,0,1,.307.1c.1.1.1.154.1.2Zm-3.276,1.177c-.1,0-.154-.051-.154-.1h0A2.023,2.023,0,0,1,254.8,334.9h.051c.051-.051.1-.1.154-.1.1,0,.256.051.256.2,0,.1-.051.256-.2.256a.308.308,0,0,1-.2-.051H254.8a1.735,1.735,0,0,0-1.382,2c.051.051-.051.1-.1.154Z" transform="translate(-248.707 -333.213)"/><path class="n" d="M249.2,341.84l.256-5.938,1.28-.1-.1,2.457.461-.154a1.416,1.416,0,0,1,.461-.051,1.456,1.456,0,0,1,1.177.563,2.024,2.024,0,0,1,.409,1.382,1.786,1.786,0,0,1-.614,1.433,1.974,1.974,0,0,1-1.433.512h-.256c-.1,0-.2-.051-.307-.051l-.461-.1Zm1.28-.972c.051,0,.154.051.2.051h.154a.848.848,0,0,0,.614-.256,1.257,1.257,0,0,0,.256-.768.944.944,0,0,0-.2-.665.63.63,0,0,0-.512-.256.308.308,0,0,0-.2.051l-.307.154v1.689Z" transform="translate(-246.788 -333.701)"/></g></g><g transform="translate(30.955 84.633)"><path class="h" d="M168.3,288.839l-.2-.051a.4.4,0,0,0-.256.768l.2.051a.156.156,0,0,0,.2,0c.154-.051.256-.1.307-.256A.353.353,0,0,0,168.3,288.839Z" transform="translate(-167.575 -271.077)"/><path class="h" d="M174.058,290.841l-.358-.154a.4.4,0,0,0-.256.768l.358.154a.156.156,0,0,0,.2,0c.154-.051.256-.1.307-.256A.422.422,0,0,0,174.058,290.841Z" transform="translate(-170.308 -272.004)"/><path class="h" d="M171.158,289.741l-.358-.154a.4.4,0,1,0-.256.768l.358.154a.156.156,0,0,0,.2,0c.154-.051.256-.1.307-.256A.422.422,0,0,0,171.158,289.741Z" transform="translate(-168.893 -271.467)"/><path class="h" d="M185.733,295.116l-.358-.154a.4.4,0,1,0-.256.768l.358.154a.232.232,0,0,0,.256,0c.1-.051.256-.1.307-.256A.563.563,0,0,0,185.733,295.116Z" transform="translate(-175.994 -274.078)"/><path class="h" d="M214.532,307.015l-.358-.154a.39.39,0,1,0-.307.717l.358.154a.232.232,0,0,0,.256,0,.421.421,0,0,0,.256-.256C214.839,307.322,214.737,307.118,214.532,307.015Z" transform="translate(-190.052 -279.886)"/><path class="h" d="M211.732,305.715l-.358-.154a.39.39,0,1,0-.307.717l.358.154a.232.232,0,0,0,.256,0,.42.42,0,0,0,.256-.256C212.039,306.074,211.937,305.818,211.732,305.715Z" transform="translate(-188.685 -279.252)"/><path class="h" d="M197.332,299.715l-.358-.154a.39.39,0,1,0-.307.717l.358.154a.233.233,0,0,0,.256,0c.1-.051.256-.1.307-.256A.389.389,0,0,0,197.332,299.715Z" transform="translate(-181.656 -276.323)"/><path class="h" d="M208.832,304.515l-.358-.154a.39.39,0,1,0-.307.717l.358.154a.232.232,0,0,0,.256,0c.1-.051.256-.1.307-.256A.389.389,0,0,0,208.832,304.515Z" transform="translate(-187.269 -278.666)"/><path class="h" d="M194.432,298.515l-.358-.154a.39.39,0,1,0-.307.717l.358.154a.233.233,0,0,0,.256,0c.1-.051.256-.1.307-.256A.415.415,0,0,0,194.432,298.515Z" transform="translate(-180.24 -275.737)"/><path class="h" d="M191.533,297.415l-.358-.154a.36.36,0,0,0-.512.2.353.353,0,0,0,.256.512l.358.153a.233.233,0,0,0,.256,0c.1-.051.256-.1.307-.256A.492.492,0,0,0,191.533,297.415Z" transform="translate(-178.825 -275.2)"/><path class="h" d="M228.225,313.462a.424.424,0,1,0-.358.768l.358.154a.556.556,0,0,0,.256.051.511.511,0,0,0,.256-.2.43.43,0,0,0-.2-.563Z" transform="translate(-196.885 -283.108)"/><path class="h" d="M225.783,312.315l-.358-.154a.424.424,0,0,0-.358.768l.358.154a.557.557,0,0,0,.256.051.511.511,0,0,0,.256-.2C226.09,312.622,225.988,312.366,225.783,312.315Z" transform="translate(-195.519 -282.473)"/><path class="h" d="M200.232,300.815l-.358-.154a.39.39,0,1,0-.307.717l.358.154a.232.232,0,0,0,.256,0c.1-.051.256-.1.307-.256C200.539,301.174,200.437,300.918,200.232,300.815Z" transform="translate(-183.071 -276.86)"/><path class="h" d="M220.183,309.615l-.358-.154a.424.424,0,1,0-.358.768l.358.154a.462.462,0,0,0,.256.051.51.51,0,0,0,.256-.2C220.49,309.922,220.388,309.718,220.183,309.615Z" transform="translate(-192.785 -281.156)"/><path class="h" d="M222.983,310.915l-.358-.154a.424.424,0,0,0-.358.768l.358.154a.556.556,0,0,0,.256.051.512.512,0,0,0,.256-.2A.418.418,0,0,0,222.983,310.915Z" transform="translate(-194.152 -281.79)"/><path class="h" d="M217.432,308.315l-.358-.154a.36.36,0,0,0-.512.2.43.43,0,0,0,.2.563l.358.154a.461.461,0,0,0,.256.051.511.511,0,0,0,.256-.2C217.688,308.622,217.637,308.366,217.432,308.315Z" transform="translate(-191.467 -280.521)"/><path class="h" d="M203.132,302.015l-.358-.154a.39.39,0,1,0-.307.717l.358.154a.232.232,0,0,0,.256,0c.1-.051.256-.1.307-.256C203.439,302.374,203.337,302.118,203.132,302.015Z" transform="translate(-184.487 -277.446)"/><path class="h" d="M205.932,303.315l-.358-.154a.39.39,0,0,0-.307.717l.358.153a.232.232,0,0,0,.256,0,.682.682,0,0,0,.307-.256A.349.349,0,0,0,205.932,303.315Z" transform="translate(-185.854 -278.08)"/><path class="h" d="M188.865,296.254l-.358-.154-.154.358-.154.358.358.154a.233.233,0,0,0,.256,0c.154-.051.256-.1.307-.256C189.173,296.612,189.07,296.356,188.865,296.254Z" transform="translate(-177.643 -274.653)"/><path class="h" d="M244.51,323.519a.339.339,0,0,0,.307.051.435.435,0,0,0,.256-.154.453.453,0,0,0-.1-.563,2.228,2.228,0,0,0-.358-.2.4.4,0,0,0-.461.665A.825.825,0,0,1,244.51,323.519Z" transform="translate(-204.878 -287.586)"/><path class="h" d="M239.163,320.173a.649.649,0,0,0,.307.051.34.34,0,0,0,.256-.2.412.412,0,0,0-.154-.563c-.1-.051-.256-.153-.358-.2a.413.413,0,0,0-.409.717A2.929,2.929,0,0,0,239.163,320.173Z" transform="translate(-202.244 -285.929)"/><path class="h" d="M182.839,294.022l-.358-.154a.4.4,0,0,0-.256.768l.358.154a.232.232,0,0,0,.256,0c.154-.051.256-.1.307-.256A.563.563,0,0,0,182.839,294.022Z" transform="translate(-174.585 -273.548)"/><path class="h" d="M247.124,325.136a.338.338,0,0,0,.307.051.282.282,0,0,0,.256-.154.364.364,0,0,0-.1-.563c-.1-.1-.2-.154-.307-.256a.4.4,0,1,0-.461.665A.752.752,0,0,0,247.124,325.136Z" transform="translate(-206.162 -288.333)"/><path class="h" d="M249.263,326.78c.1.1.2.154.307.256a.3.3,0,0,0,.358.051c.1,0,.154-.051.2-.154a.405.405,0,0,0-.051-.563c-.1-.1-.2-.154-.307-.256a.374.374,0,0,0-.563.1A.405.405,0,0,0,249.263,326.78Z" transform="translate(-207.379 -289.26)"/><path class="h" d="M241.863,321.773a.649.649,0,0,0,.307.051.34.34,0,0,0,.256-.2.412.412,0,0,0-.154-.563,2.223,2.223,0,0,0-.358-.2.413.413,0,0,0-.409.717A2.929,2.929,0,0,0,241.863,321.773Z" transform="translate(-203.562 -286.71)"/><path class="h" d="M176.958,291.823l-.358-.154a.382.382,0,0,0-.512.256.422.422,0,0,0,.256.512l.358.154c.1.051.154.051.2,0,.154-.051.256-.1.307-.256C177.316,292.13,177.214,291.925,176.958,291.823Z" transform="translate(-171.724 -272.474)"/><path class="h" d="M179.939,292.923l-.358-.154a.4.4,0,0,0-.256.768l.358.154a.233.233,0,0,0,.256,0c.154-.051.256-.1.307-.256A.563.563,0,0,0,179.939,292.923Z" transform="translate(-173.169 -273.011)"/><path class="h" d="M231.024,315.782a.556.556,0,0,0,.256.051.511.511,0,0,0,.256-.2.465.465,0,0,0-.154-.563l-.358-.2a.413.413,0,1,0-.409.717Z" transform="translate(-198.251 -283.79)"/><path class="h" d="M233.763,317.173a.649.649,0,0,0,.307.051.34.34,0,0,0,.256-.2.412.412,0,0,0-.154-.563l-.358-.2a.413.413,0,0,0-.409.717Z" transform="translate(-199.609 -284.464)"/><path class="h" d="M236.563,318.673a.649.649,0,0,0,.307.051.34.34,0,0,0,.256-.2.412.412,0,0,0-.154-.563l-.358-.2a.413.413,0,0,0-.409.717Z" transform="translate(-200.975 -285.197)"/><path class="h" d="M256.77,325c.051,0,.1-.051.2-.1.1-.1.2-.154.307-.256a.4.4,0,1,0-.512-.614,1.357,1.357,0,0,1-.307.256.406.406,0,0,0-.051.563A.381.381,0,0,0,256.77,325Z" transform="translate(-210.894 -288.252)"/><path class="h" d="M254.421,326.984c.051,0,.1-.051.154-.1.1-.1.2-.154.307-.256a.4.4,0,0,0-.512-.614c-.1.1-.2.154-.307.256a.405.405,0,0,0-.051.563A.343.343,0,0,0,254.421,326.984Z" transform="translate(-209.722 -289.208)"/><path class="h" d="M261.348,320.712a.388.388,0,0,0,.2-.1l.307-.256a.4.4,0,0,0-.563-.563l-.307.256a.4.4,0,0,0,0,.563A.432.432,0,0,0,261.348,320.712Z" transform="translate(-213.118 -286.161)"/><path class="h" d="M259.049,322.912a.388.388,0,0,0,.2-.1l.307-.256a.4.4,0,1,0-.563-.563l-.307.256a.4.4,0,0,0,0,.563A.95.95,0,0,0,259.049,322.912Z" transform="translate(-211.995 -287.234)"/><path class="h" d="M301.556,267.8l-.2.358a.412.412,0,0,0,.154.563.65.65,0,0,0,.307.051.34.34,0,0,0,.256-.2l.2-.358a.413.413,0,0,0-.717-.41Z" transform="translate(-232.85 -260.741)"/><path class="h" d="M291.441,283.652l-.2.307c-.1.2-.1.461.1.563a.338.338,0,0,0,.307.051.435.435,0,0,0,.256-.154l.2-.307a.364.364,0,0,0-.1-.563A.453.453,0,0,0,291.441,283.652Z" transform="translate(-227.905 -268.5)"/><path class="h" d="M296.654,275.817l-.2.358a.453.453,0,0,0,.1.563.338.338,0,0,0,.307.051.435.435,0,0,0,.256-.154l.2-.358a.453.453,0,0,0-.1-.563A.364.364,0,0,0,296.654,275.817Z" transform="translate(-230.456 -264.659)"/><path class="h" d="M285.871,291.317l-.256.307a.374.374,0,0,0,.1.563.421.421,0,0,0,.358.051c.1,0,.154-.051.256-.154l.256-.307a.37.37,0,0,0-.1-.563A.425.425,0,0,0,285.871,291.317Z" transform="translate(-225.15 -272.225)"/><path class="h" d="M293.154,281.035l-.2.307a.453.453,0,0,0,.1.563.338.338,0,0,0,.307.051.435.435,0,0,0,.256-.154l.2-.358a.453.453,0,0,0-.1-.563A.609.609,0,0,0,293.154,281.035Z" transform="translate(-228.748 -267.215)"/><path class="h" d="M287.771,288.752l-.256.307a.364.364,0,0,0,.1.563.338.338,0,0,0,.307.051c.1,0,.154-.051.256-.154l.256-.307a.363.363,0,0,0-.1-.563A.453.453,0,0,0,287.771,288.752Z" transform="translate(-226.078 -270.99)"/><path class="h" d="M289.571,286.217l-.256.307a.364.364,0,0,0,.1.563.339.339,0,0,0,.307.051.281.281,0,0,0,.256-.154l.256-.307a.4.4,0,1,0-.665-.461Z" transform="translate(-226.956 -269.735)"/><path class="h" d="M294.954,278.452l-.2.358a.453.453,0,0,0,.1.563.338.338,0,0,0,.307.051.435.435,0,0,0,.256-.154l.2-.358a.4.4,0,1,0-.665-.461Z" transform="translate(-229.627 -265.962)"/><path class="h" d="M306.156,259.683l-.2.358a.412.412,0,0,0,.154.563.649.649,0,0,0,.307.051.34.34,0,0,0,.256-.2l.2-.358a.412.412,0,0,0-.154-.563A.375.375,0,0,0,306.156,259.683Z" transform="translate(-235.096 -256.765)"/><path class="h" d="M307.656,256.9l-.2.358a.412.412,0,0,0,.154.563.649.649,0,0,0,.307.051.34.34,0,0,0,.256-.2l.2-.358a.413.413,0,1,0-.716-.41Z" transform="translate(-235.828 -255.42)"/><path class="h" d="M303.156,265.1l-.2.358a.412.412,0,0,0,.154.563.649.649,0,0,0,.307.051.34.34,0,0,0,.256-.2l.2-.358a.413.413,0,0,0-.717-.41Z" transform="translate(-233.631 -259.423)"/><path class="h" d="M299.956,270.5l-.2.358a.412.412,0,0,0,.154.563.649.649,0,0,0,.307.051.34.34,0,0,0,.256-.2l.2-.358a.413.413,0,0,0-.717-.41Z" transform="translate(-232.069 -262.059)"/><path class="h" d="M304.656,262.4l-.2.358a.412.412,0,0,0,.154.563.648.648,0,0,0,.307.051.34.34,0,0,0,.256-.2l.2-.358a.413.413,0,1,0-.717-.409Z" transform="translate(-234.363 -258.105)"/><path class="h" d="M298.256,273.217l-.2.358a.412.412,0,0,0,.154.563.649.649,0,0,0,.307.051.435.435,0,0,0,.256-.154l.2-.358a.412.412,0,0,0-.154-.563A.374.374,0,0,0,298.256,273.217Z" transform="translate(-231.24 -263.389)"/><path class="h" d="M272.052,308.354l-.256.307a.365.365,0,0,0,.051.563.487.487,0,0,0,.358.1.266.266,0,0,0,.2-.1l.256-.307a.365.365,0,0,0-.051-.563A.335.335,0,0,0,272.052,308.354Z" transform="translate(-218.395 -280.559)"/><path class="h" d="M267.846,312.99a1.356,1.356,0,0,0-.256.307.4.4,0,0,0,0,.563.339.339,0,0,0,.358.1.266.266,0,0,0,.2-.1,1.357,1.357,0,0,0,.256-.307.4.4,0,0,0-.563-.563Z" transform="translate(-216.339 -282.841)"/><path class="h" d="M269.946,310.671l-.256.307a.4.4,0,0,0,0,.563.487.487,0,0,0,.358.1.266.266,0,0,0,.2-.1l.256-.307a.365.365,0,0,0-.051-.563C270.356,310.467,270.1,310.518,269.946,310.671Z" transform="translate(-217.364 -281.7)"/><path class="h" d="M265.646,315.254l-.256.307a.4.4,0,0,0,0,.563.339.339,0,0,0,.358.1.387.387,0,0,0,.2-.1l.307-.307a.4.4,0,0,0,0-.563A.384.384,0,0,0,265.646,315.254Z" transform="translate(-215.265 -283.927)"/><path class="h" d="M263.5,317.49l-.307.307a.4.4,0,0,0,0,.563.339.339,0,0,0,.358.1.388.388,0,0,0,.2-.1l.307-.307a.4.4,0,0,0-.563-.563Z" transform="translate(-214.191 -285.038)"/><path class="h" d="M282.068,296.252l-.256.307a.405.405,0,0,0,.051.563.3.3,0,0,0,.358.051c.1,0,.154-.051.2-.154l.256-.307a.405.405,0,0,0-.051-.563A.48.48,0,0,0,282.068,296.252Z" transform="translate(-223.292 -274.651)"/><path class="h" d="M283.968,293.817l-.256.307a.405.405,0,0,0,.051.563.3.3,0,0,0,.358.051c.1,0,.154-.051.256-.154l.256-.307a.4.4,0,1,0-.665-.461Z" transform="translate(-224.22 -273.445)"/><path class="h" d="M280.168,298.763l-.256.307a.405.405,0,0,0,.051.563.432.432,0,0,0,.358.1c.1,0,.154-.051.2-.154l.256-.307a.405.405,0,0,0-.051-.563A.4.4,0,0,0,280.168,298.763Z" transform="translate(-222.365 -275.882)"/><path class="h" d="M278.168,301.163l-.256.307a.405.405,0,0,0,.051.563.487.487,0,0,0,.358.1c.1,0,.154-.051.2-.154l.256-.307a.4.4,0,0,0-.614-.512Z" transform="translate(-221.388 -277.054)"/><path class="h" d="M276.168,303.583l-.256.307a.405.405,0,0,0,.051.563.488.488,0,0,0,.358.1c.1,0,.154-.051.2-.153l.256-.307a.405.405,0,0,0-.051-.563A.466.466,0,0,0,276.168,303.583Z" transform="translate(-220.412 -278.246)"/><path class="h" d="M274.152,305.963l-.256.307a.365.365,0,0,0,.051.563.487.487,0,0,0,.358.1c.1,0,.154-.051.2-.154l.256-.307a.4.4,0,0,0-.614-.512Z" transform="translate(-219.42 -279.397)"/><path class="h" d="M309.617,254.251a.412.412,0,0,0-.563.154l-.1.2a.412.412,0,0,0,.154.563.557.557,0,0,0,.256.051.511.511,0,0,0,.256-.2l.1-.2A.363.363,0,0,0,309.617,254.251Z" transform="translate(-236.56 -254.2)"/><path class="h" d="M252.378,328.4l-5.272-.1a.4.4,0,0,0-.461-.307.524.524,0,0,0-.307.256L242.4,328.2a1.715,1.715,0,0,0-1.74,1.689L240.4,343.91a1.835,1.835,0,0,0,.461,1.229,1.666,1.666,0,0,0,1.177.512l9.981.2a1,1,0,0,0,.409-.051,1.773,1.773,0,0,0,.819-.409,1.666,1.666,0,0,0,.512-1.177l.256-14.025a1.834,1.834,0,0,0-.461-1.229A1.53,1.53,0,0,0,252.378,328.4Zm1.075,1.74-.256,14.025a1.093,1.093,0,0,1-1.126,1.075l-9.981-.2a.921.921,0,0,1-.768-.358,1.129,1.129,0,0,1-.307-.768l.256-14.025a1.093,1.093,0,0,1,1.126-1.075l9.981.2a.921.921,0,0,1,.768.358A.966.966,0,0,1,253.453,330.14Z" transform="translate(-203.123 -290.215)"/></g></g><g transform="matrix(0.996, -0.087, 0.087, 0.996, 68.773, 43.408)"><path class="o" d="M41.788,20.142A18.767,18.767,0,0,1,23.035,1.388c0-.486,0-.958,0-1.388H1.394A1.388,1.388,0,0,0,.006,1.388a1.541,1.541,0,0,0,0,.264L4.337,24.736a1.388,1.388,0,0,0,1.388,1.18h39.6A7.2,7.2,0,0,0,52.477,19.6l.4-3.138A18.684,18.684,0,0,1,41.788,20.142Z" transform="translate(11.641 14.478)"/><ellipse class="o" cx="7.218" cy="7.218" rx="7.218" ry="7.218" transform="translate(46.211 54.817)"/><ellipse class="o" cx="7.218" cy="7.218" rx="7.218" ry="7.218" transform="translate(17.365 54.817)"/><path class="o" d="M59.2,46.155H25.889a10.119,10.119,0,0,1-9.9-8.107L8.967,2.887H1.444A1.444,1.444,0,1,1,1.444,0h8.7a1.388,1.388,0,0,1,1.388,1.152l7.274,36.327a7.218,7.218,0,0,0,7.066,5.788H59.19a1.444,1.444,0,1,1,0,2.887Z" transform="translate(0 5.774)"/><path class="o" d="M15.866,0A15.866,15.866,0,1,0,31.732,15.866,15.866,15.866,0,0,0,15.866,0Zm5.775,17.31H17.31v4.331a1.444,1.444,0,0,1-2.887,0V17.31H10.092a1.444,1.444,0,0,1,0-2.887h4.331V10.092a1.444,1.444,0,0,1,2.887,0v4.331h4.331a1.444,1.444,0,0,1,0,2.887Z" transform="translate(37.563 0)"/></g></g></g></svg>