<svg xmlns="http://www.w3.org/2000/svg" xmlns:xlink="http://www.w3.org/1999/xlink" viewBox="0 0 1211.63 856.58"><defs><style>.cls-1,.cls-3,.cls-7{fill:#f0a622;}.cls-1,.cls-10,.cls-5,.cls-6,.cls-7{stroke:#231f20;stroke-miterlimit:10;}.cls-1,.cls-10,.cls-6{stroke-width:6px;}.cls-2{fill:#ddd;}.cls-4{clip-path:url(#clip-path);}.cls-5,.cls-8{fill:#231f20;}.cls-5{stroke-width:0.75px;}.cls-10,.cls-6{fill:none;}.cls-7{stroke-width:7px;}.cls-9{fill:#fff;}.cls-10{stroke-linecap:round;}.cls-11{fill:#ededed;}.cls-12{fill:#dcdbdb;}</style><clipPath id="clip-path"><ellipse class="cls-1" cx="622.47" cy="564.33" rx="201.16" ry="240.2" transform="translate(-85.52 111.91) rotate(-9.62)"/></clipPath></defs><title>Bee-Rating-Illustration</title><g id="Layer_2" data-name="Layer 2"><g id="MrsBeez"><path class="cls-2" d="M432.27,469.59S259.51,678.7,330.05,789.08,531.5,771.33,531.5,771.33Z"/><path class="cls-2" d="M759.84,398.54s232,140.54,201.76,268-196.06,49.6-196.06,49.6Z"/><ellipse class="cls-3" cx="622.47" cy="564.33" rx="201.16" ry="240.2" transform="translate(-85.52 111.91) rotate(-9.62)"/><g class="cls-4"><path class="cls-5" d="M413.73,536.46s201.31,42,396.66-67.2l16.3,96.22s-239.44,75.25-397.5,62.27Z"/><path class="cls-5" d="M437.54,677s201.31,42,396.67-67.2l16.3,96.22S611.07,781.32,453,768.33Z"/></g><ellipse class="cls-6" cx="622.47" cy="564.33" rx="201.16" ry="240.2" transform="translate(-85.52 111.91) rotate(-9.62)"/><circle class="cls-7" cx="468.39" cy="369.62" r="106.3"/><circle class="cls-7" cx="678.01" cy="334.11" r="106.3"/><path d="M642,819.16s42.65,3.14,52.41-8.88c0,0-25.16,37.44-22.42,46.3Z"/><path class="cls-8" d="M810.29,93.06a19.26,19.26,0,0,1-35.42,7.61,13,13,0,0,1-2.48-.09c-80.67-10.81-155.09,46-165.9,126.69a13,13,0,0,1-25.71-3.44C593.5,129,681,62.19,775.85,74.91a13.41,13.41,0,0,1,3.08.81,19.26,19.26,0,0,1,31.38,17.36ZM554.84,246.84a12.94,12.94,0,0,1-16.91-7.07c-36.29-88.52,6.21-190.09,94.75-226.39a12.61,12.61,0,0,1,3.07-.83,19.21,19.21,0,1,1,9,23.66,13.42,13.42,0,0,1-2.19,1.16c-75.31,30.87-111.46,117.24-80.58,192.56a13,13,0,0,1-7.1,16.92Z"/><circle class="cls-9" cx="469.76" cy="377.7" r="69"/><circle class="cls-9" cx="678.01" cy="334.11" r="69"/><circle class="cls-8" cx="469.76" cy="377.7" r="35.99"/><circle class="cls-8" cx="678.05" cy="334.35" r="35.99"/><line class="cls-10" x1="800.44" y1="461.88" x2="918.82" y2="580.33"/><line class="cls-10" x1="427.09" y1="549.99" x2="293.5" y2="425.51"/><circle class="cls-9" cx="469.76" cy="377.7" r="7.95"/><circle class="cls-9" cx="678.05" cy="334.35" r="7.95"/><path class="cls-8" d="M572.53,478.72l55-9.82s-.72,27.92-22.54,32.58S572.53,478.72,572.53,478.72Z"/><polygon class="cls-3" points="231.59 307.31 267.62 365.62 336.08 369 291.76 421.28 309.7 487.43 246.28 461.44 188.91 498.94 194.03 430.59 140.63 387.62 207.22 371.37 231.59 307.31"/><polygon class="cls-11" points="283.66 127.43 306.19 173.07 356.57 180.4 320.12 215.93 328.72 266.1 283.66 242.41 238.61 266.1 247.21 215.93 210.76 180.4 261.14 173.07 283.66 127.43"/><polygon class="cls-11" points="72.9 510.99 95.43 556.64 145.81 563.96 109.36 599.49 117.96 649.66 72.9 625.98 27.85 649.66 36.45 599.49 0 563.96 50.38 556.64 72.9 510.99"/><polygon class="cls-11" points="461.81 154.06 468.04 166.68 481.96 168.7 471.89 178.52 474.27 192.39 461.81 185.84 449.36 192.39 451.74 178.52 441.66 168.7 455.59 166.68 461.81 154.06"/><polygon class="cls-12" points="366.2 223.45 372.43 236.07 386.35 238.09 376.28 247.91 378.66 261.78 366.2 255.23 353.75 261.78 356.13 247.91 346.05 238.09 359.98 236.07 366.2 223.45"/><polygon class="cls-11" points="558.93 244.14 565.15 256.76 579.08 258.78 569 268.6 571.38 282.47 558.93 275.92 546.47 282.47 548.85 268.6 538.78 258.78 552.7 256.76 558.93 244.14"/><polygon class="cls-11" points="810.48 386.69 814.33 394.49 822.93 395.74 816.71 401.81 818.18 410.38 810.48 406.33 802.78 410.38 804.25 401.81 798.03 395.74 806.63 394.49 810.48 386.69"/><polygon class="cls-11" points="360.29 516.36 364.14 524.16 372.74 525.41 366.52 531.48 367.99 540.05 360.29 536 352.59 540.05 354.06 531.48 347.84 525.41 356.44 524.16 360.29 516.36"/><polygon class="cls-11" points="538.78 804.34 542.63 812.13 551.23 813.38 545 819.45 546.47 828.02 538.78 823.98 531.08 828.02 532.55 819.45 526.32 813.38 534.93 812.13 538.78 804.34"/><polygon class="cls-12" points="72.9 307.24 79.13 319.85 93.05 321.88 82.98 331.7 85.36 345.56 72.9 339.02 60.45 345.56 62.83 331.7 52.75 321.88 66.68 319.85 72.9 307.24"/><polygon class="cls-11" points="146.84 31.63 144.12 65.82 170.75 87.44 137.39 95.42 125.05 127.43 107.15 98.17 72.9 96.33 95.2 70.26 86.37 37.12 118.05 50.27 146.84 31.63"/><polygon class="cls-11" points="1097.4 502.36 1119.92 548.01 1170.3 555.33 1133.85 590.86 1142.45 641.03 1097.4 617.35 1052.34 641.03 1060.94 590.86 1024.49 555.33 1074.87 548.01 1097.4 502.36"/><polygon class="cls-11" points="1119.89 383.96 1126.12 396.58 1140.05 398.6 1129.97 408.42 1132.35 422.29 1119.89 415.74 1107.44 422.29 1109.82 408.42 1099.74 398.6 1113.67 396.58 1119.89 383.96"/><polygon class="cls-12" points="283.66 659.52 289.89 672.14 303.81 674.16 293.74 683.99 296.12 697.85 283.66 691.3 271.21 697.85 273.59 683.99 263.51 674.16 277.44 672.14 283.66 659.52"/><polygon class="cls-12" points="940.41 388.34 937.69 422.53 964.32 444.15 930.96 452.14 918.62 484.14 900.72 454.88 866.47 453.04 888.77 426.97 879.94 393.83 911.62 406.98 940.41 388.34"/><polygon class="cls-12" points="1119.89 103.89 1148.24 161.33 1211.63 170.54 1165.76 215.25 1176.59 278.39 1119.89 248.58 1063.2 278.39 1074.03 215.25 1028.15 170.54 1091.55 161.33 1119.89 103.89"/><polygon class="cls-11" points="911.79 215.32 914.43 220.67 920.34 221.53 916.07 225.7 917.08 231.58 911.79 228.8 906.51 231.58 907.52 225.7 903.25 221.53 909.15 220.67 911.79 215.32"/><polygon class="cls-11" points="930.95 84.91 929.8 99.42 941.09 108.59 926.94 111.97 921.71 125.55 914.12 113.14 899.59 112.35 909.05 101.3 905.3 87.24 918.74 92.82 930.95 84.91"/><polygon class="cls-11" points="866.33 235.7 863.91 266.17 887.63 285.44 857.91 292.55 846.91 321.07 830.96 295 800.44 293.36 820.31 270.13 812.44 240.59 840.67 252.31 866.33 235.7"/></g></g></svg>