<svg xmlns="http://www.w3.org/2000/svg" xmlns:xlink="http://www.w3.org/1999/xlink" viewBox="0 0 908.29 658.57"><defs><style>.cls-1,.cls-3,.cls-7{fill:#f0a622;}.cls-1,.cls-10,.cls-14,.cls-15,.cls-5,.cls-6,.cls-7,.cls-9{stroke:#231f20;stroke-miterlimit:10;}.cls-1,.cls-14,.cls-15,.cls-6,.cls-9{stroke-width:6px;}.cls-2{fill:#ddd;}.cls-4{clip-path:url(#clip-path);}.cls-5,.cls-8{fill:#231f20;}.cls-5{stroke-width:0.75px;}.cls-10,.cls-6,.cls-9{fill:none;}.cls-10,.cls-7{stroke-width:7px;}.cls-9{stroke-linecap:round;}.cls-11{fill:#be1e2d;}.cls-12{clip-path:url(#clip-path-2);}.cls-13{fill:#fff;}.cls-14{fill:#6e8d62;}.cls-15{fill:#e9e8d3;}</style><clipPath id="clip-path"><ellipse class="cls-1" cx="571.1" cy="428.52" rx="184.65" ry="154.64" transform="translate(84.1 950.64) rotate(-83.88)"/></clipPath><clipPath id="clip-path-2"><ellipse class="cls-1" cx="238.81" cy="433.61" rx="154.64" ry="184.65" transform="translate(-65.91 43.49) rotate(-9.15)"/></clipPath></defs><title>Bee-InviteAndEarn</title><g id="Layer_2" data-name="Layer 2"><g id="MrsBeez"><path class="cls-2" d="M326.61,311.82s157.79,136.31,118.5,229-155,12.42-155,12.42Z"/><path class="cls-2" d="M450.13,318.75S278.7,437.45,307.87,533.83s152.75,28.88,152.75,28.88Z"/><path class="cls-2" d="M707.32,334.5s142.34,152.36,93.39,240.36-155.41-4.19-155.41-4.19Z"/><ellipse class="cls-3" cx="571.1" cy="428.52" rx="184.65" ry="154.64" transform="translate(84.1 950.64) rotate(-83.88)"/><g class="cls-4"><path class="cls-5" d="M422.46,364.37s140.18,73.08,307.51,33L722,472S529.1,477.7,414.87,435.14Z"/><path class="cls-5" d="M410.77,473.35s140.18,73.08,307.5,33l-8,74.59s-192.86,5.75-307.1-36.82Z"/></g><ellipse class="cls-6" cx="571.1" cy="428.52" rx="184.65" ry="154.64" transform="translate(84.1 950.64) rotate(-83.88)"/><circle class="cls-7" cx="497.7" cy="252.32" r="81.72"/><circle class="cls-7" cx="660.2" cy="269.76" r="81.72"/><path d="M532.41,621.14s30.9,11.22,40.62,4.36c0,0-26.42,22.45-26.24,29.58Z"/><path class="cls-8" d="M808.35,119a14.82,14.82,0,0,1-27.8-1.76,10,10,0,0,1-1.81-.58A113.59,113.59,0,0,0,629.56,175.8a10,10,0,0,1-18.3-7.91c29.19-67.51,107.87-98.7,175.39-69.51a10.37,10.37,0,0,1,2.1,1.24A14.81,14.81,0,0,1,808.35,119ZM587.27,179.5a10,10,0,0,1-11-8.75C567.84,97.68,620.47,31.4,693.55,23A10,10,0,0,1,696,23a14.78,14.78,0,1,1,1.7,19.38,10.35,10.35,0,0,1-1.87.4A113.6,113.6,0,0,0,596,168.48a9.94,9.94,0,0,1-8.77,11Z"/><line class="cls-9" x1="715.22" y1="430.84" x2="803.46" y2="337.11"/><line class="cls-9" x1="430.09" y1="355.88" x2="291.47" y2="333.77"/><path class="cls-8" d="M534.21,346l70.51,6.92s-10.49,33.85-38.74,32S534.21,346,534.21,346Z"/><polyline class="cls-10" points="426.84 211.59 574.3 266.87 424.73 289.1"/><polyline class="cls-10" points="739.84 243.54 588.58 265.62 730.04 319.08"/><path class="cls-11" d="M547.59,371.9s7.47-7.07,16.39-4.44a21.31,21.31,0,0,0,7.47.57c3.68-.49,10.21,3.68,12,7.72S559.9,387,547.59,371.9Z"/><path class="cls-2" d="M93.19,359.58s-134.1,159.67-80.57,245,155-12.38,155-12.38Z"/><ellipse class="cls-3" cx="238.81" cy="433.61" rx="154.64" ry="184.65" transform="translate(-65.91 43.49) rotate(-9.15)"/><g class="cls-12"><path class="cls-5" d="M77.82,406.49s156.59,46.67,305.33-49.17l14.67,91.08S214.25,510.71,91.73,492.91Z"/><path class="cls-5" d="M95.24,514.71S251.7,560.5,400.58,465.53l14.49,90S231.43,617.4,109,600.05Z"/></g><ellipse class="cls-6" cx="238.81" cy="433.61" rx="154.64" ry="184.65" transform="translate(-65.91 43.49) rotate(-9.15)"/><circle class="cls-7" cx="121.59" cy="282.97" r="81.72"/><circle class="cls-7" cx="282.94" cy="256.98" r="81.72"/><path d="M252.23,629.61s32.76,2.69,40.34-6.49c0,0-19.58,28.62-17.53,35.45Z"/><path class="cls-8" d="M386.14,72.52a14.82,14.82,0,0,1-27.28,5.63,10.16,10.16,0,0,1-1.9-.09,113.59,113.59,0,0,0-128.33,96.35,10,10,0,0,1-19.73-2.81C219.26,98.78,287,48,359.78,58.35a9.92,9.92,0,0,1,2.35.64,14.81,14.81,0,0,1,24,13.54ZM188.81,189.12a10,10,0,0,1-13-5.53c-27.34-68.28,6-146.08,74.26-173.43a9.48,9.48,0,0,1,2.36-.63,14.78,14.78,0,1,1,6.74,18.25,10,10,0,0,1-1.69.87,113.6,113.6,0,0,0-63.15,147.53,9.94,9.94,0,0,1-5.56,12.95Z"/><circle class="cls-13" cx="122.59" cy="289.18" r="53.05"/><circle class="cls-13" cx="282.94" cy="256.98" r="53.05"/><circle class="cls-8" cx="137.37" cy="286.8" r="27.67"/><circle class="cls-8" cx="300.01" cy="254.23" r="27.67"/><line class="cls-9" x1="82.75" y1="400.82" x2="37.23" y2="533.6"/><circle class="cls-13" cx="127.62" cy="282" r="6.11"/><circle class="cls-13" cx="293.01" cy="249.17" r="6.11"/><path class="cls-8" d="M191.24,365.06l58.17-9.91s-1,29.5-24.1,34.24S191.24,365.06,191.24,365.06Z"/><line class="cls-9" x1="311.97" y1="399.42" x2="432.09" y2="353.12"/><rect class="cls-14" x="762.14" y="231.46" width="94.87" height="166.02" transform="translate(59.75 752.72) rotate(-51.53)"/><path class="cls-15" d="M846.83,301.26a38.46,38.46,0,0,1-40.57,51.06L829.75,371c.27-.41.55-.82.86-1.21a16.3,16.3,0,0,1,22.91-2.62c.4.31.76.64,1.12,1l18.53-23.33q-.61-.4-1.2-.87A16.31,16.31,0,0,1,869.34,321c.31-.39.64-.76,1-1.11Z"/><path class="cls-15" d="M749.07,284.17a16.3,16.3,0,0,1,2.62,22.91c-.31.39-.64.76-1,1.11l23.49,18.66a38.46,38.46,0,0,1,40.57-51.06l-23.48-18.66q-.4.62-.87,1.2A16.31,16.31,0,0,1,767.51,261c-.39-.32-.76-.65-1.11-1L747.86,283.3c.41.27.82.56,1.21.87"/><path class="cls-15" d="M848,374.12a7.41,7.41,0,1,1-10.41,1.19A7.41,7.41,0,0,1,848,374.12"/><path class="cls-15" d="M743.54,291.13a7.41,7.41,0,1,1-10.42,1.19,7.42,7.42,0,0,1,10.42-1.19"/><path class="cls-15" d="M886.72,325.37a7.41,7.41,0,1,1-10.41,1.2,7.42,7.42,0,0,1,10.41-1.2"/><path class="cls-15" d="M782.27,242.39a7.41,7.41,0,1,1-10.42,1.19,7.42,7.42,0,0,1,10.42-1.19"/><path class="cls-13" d="M836.72,288.35c-2.68-7.93-11.05-11.34-16-12.69,5-3.5,11.68-9.77,13.7-19.09,4,10.27,9.8,14.85,14.11,16.89C842.55,276.31,838.82,283.07,836.72,288.35Z"/><path class="cls-8" d="M834.75,260.91c3.25,6.54,7.27,10.35,10.81,12.57-4,2.78-6.89,7.15-8.86,11.23-2.86-4.87-7.88-7.94-12.63-9.66a34.41,34.41,0,0,0,10.68-14.14m-2-16.39c.19,1.06.39,2.08.6,3.07a18,18,0,0,0-.6-3.07Zm.6,3.07c.71,5.91.1,19.14-16.48,28.77,0,0,20.84,2.55,19.07,19.4,0,0,4.65-21.83,18.4-22.17,0,0-15.48-.65-21-26Z"/><path class="cls-13" d="M810.14,378.84a12.48,12.48,0,0,0-6.8-5.23,17.16,17.16,0,0,0,5.74-7.73,16,16,0,0,0,5.87,6.87A15,15,0,0,0,810.14,378.84Z"/><path class="cls-8" d="M809.23,369.15a17.42,17.42,0,0,0,3.28,3.67,16.77,16.77,0,0,0-2.55,3.24,13.69,13.69,0,0,0-3.44-2.64l-.43-.23a18.67,18.67,0,0,0,3.14-4m-1.16-11.67c.1.56.2,1.1.32,1.62a9.2,9.2,0,0,0-.32-1.62Zm.32,1.62c.37,3.12.05,10.09-8.69,15.17,0,0,11,1.34,10,10.22,0,0,2.45-11.5,9.7-11.69,0,0-8.16-.34-11.06-13.7Z"/><path class="cls-13" d="M822.65,217.73a10.7,10.7,0,0,0-5.25-4,14.68,14.68,0,0,0,4.41-5.87,13.57,13.57,0,0,0,4.51,5.22A13.05,13.05,0,0,0,822.65,217.73Z"/><path class="cls-8" d="M821.94,210.9a14.34,14.34,0,0,0,2.06,2.26,13.42,13.42,0,0,0-1.56,2,12.37,12.37,0,0,0-2.41-1.79,16.36,16.36,0,0,0,1.91-2.43m-1-10.71c.08.48.17.93.26,1.37a8.2,8.2,0,0,0-.26-1.37Zm.26,1.37c.32,2.63,0,8.51-7.33,12.8,0,0,9.27,1.13,8.48,8.62,0,0,2.07-9.7,8.19-9.86,0,0-6.89-.28-9.34-11.56Z"/><path class="cls-13" d="M857.58,253.62a7.43,7.43,0,0,0-2.16-1.61,9.76,9.76,0,0,0,1.75-2.27A9,9,0,0,0,859,251.8,8.56,8.56,0,0,0,857.58,253.62Z"/><path class="cls-8" d="M856.57,243.76c0,.3.11.58.17.85a5.59,5.59,0,0,0-.17-.85Zm.17.85c.19,1.64,0,5.29-4.56,7.95,0,0,5.76.71,5.27,5.36,0,0,1.29-6,5.09-6.12,0,0-4.28-.18-5.8-7.19Z"/></g></g></svg>