<svg xmlns="http://www.w3.org/2000/svg" xmlns:xlink="http://www.w3.org/1999/xlink" width="219.925" height="144.588" viewBox="0 0 219.925 144.588"><defs><style>.a,.h,.k,.n,.p{fill:#fff;}.a{stroke:#707070;}.b{clip-path:url(#a);}.c{fill:#dcdcdb;}.d,.f{fill:none;stroke-linecap:round;}.d{stroke:#231f20;}.d,.e,.f,.i{stroke-miterlimit:10;}.d,.e,.f{stroke-width:2px;}.e{fill:#eea522;}.e,.f,.i{stroke:#221f1f;}.g,.i{fill:#221f1f;}.i{stroke-width:0.298px;}.j{fill:#efa521;}.k{font-size:5px;}.k,.n,.o,.p{font-family:Montserrat-Bold, Montserrat;font-weight:700;}.l{fill:#ff3c42;}.m{fill:#c5151c;}.n{font-size:19px;}.o{fill:#a40000;font-size:8px;}.p{font-size:9px;}</style><clipPath id="a"><rect class="a" width="219.925" height="144.588" transform="translate(836 402)"/></clipPath></defs><g class="b" transform="translate(-836 -402)"><g transform="translate(800.876 397.802)"><g transform="translate(129.253 -19.744)"><path class="c" d="M276.3,236.2s47.29,25.039,42.747,50.491C314.555,312.142,281,298.668,281,298.668Z" transform="translate(-188.948 -160.133)"/><line class="d" x1="25.297" y1="25.224" transform="translate(106.267 91.11)"/><path class="c" d="M20.616,0S-11.031,43.16,4.1,64.068s39.494-5.782,39.494-5.782Z" transform="matrix(0.966, -0.259, 0.259, 0.966, 14.007, 97.083)"/><path class="e" d="M248.178,251.78a55.141,55.141,0,0,1,1.136,6.918,53.077,53.077,0,0,1,.1,9.912,48.453,48.453,0,0,1-7.176,22.044A34.784,34.784,0,0,1,193.2,301.961a48.5,48.5,0,0,1-16.159-16.779,52.509,52.509,0,0,1-4.543-9.912,50.9,50.9,0,0,1-1.652-5.834,55.223,55.223,0,0,1-1.446-11.822c-.258-20.909,11.513-39.081,29.53-43.211s36.552,7.124,45.38,26.02A60.087,60.087,0,0,1,248.178,251.78Z" transform="translate(-137.233 -149.177)"/><path d="M260.1,399.423s8.415.155,10.222-2.323c0,0-4.543,7.641-3.872,9.4Z" transform="translate(-181.112 -237.966)"/><line class="f" x1="27.843" y1="2.201" transform="translate(4.372 106.442)"/><path class="g" d="M222.1,263.843l12.339-2.943s.206,6.35-4.7,7.692C224.836,269.883,222.1,263.843,222.1,263.843Z" transform="translate(-162.73 -172.082)"/><circle class="e" cx="20.96" cy="20.96" r="20.96" transform="translate(18.74 53.919)"/><ellipse class="h" cx="14.5" cy="14" rx="14.5" ry="14" transform="translate(24.872 60.942)"/><g transform="translate(32.582 68.811)"><circle class="g" cx="7.124" cy="7.124" r="7.124" transform="translate(0 0)"/><circle class="h" cx="1.549" cy="1.549" r="1.549" transform="translate(5.576 5.576)"/></g><circle class="e" cx="20.96" cy="20.96" r="20.96" transform="translate(59.629 44.523)"/><circle class="h" cx="14" cy="14" r="14" transform="translate(66.872 50.942)"/><g transform="translate(74.245 58.228)"><circle class="g" cx="7.124" cy="7.124" r="7.124"/><circle class="h" cx="1.549" cy="1.549" r="1.549" transform="translate(5.576 5.576)"/></g><path class="g" d="M207.963,138.6a2.567,2.567,0,0,1-3.407-1.187,34.221,34.221,0,0,1,16.107-45.638,2.912,2.912,0,0,1,.62-.206,3.861,3.861,0,0,1,2.013-2.323,3.8,3.8,0,1,1,0,6.866c-.155.1-.258.155-.413.258A29.082,29.082,0,0,0,209.2,135.189a2.6,2.6,0,0,1-1.239,3.407Z" transform="translate(-152.619 -88.859)"/><path class="g" d="M267.421,117.112a3.779,3.779,0,0,1-4.078,3.511,3.989,3.989,0,0,1-2.839-1.6h-.465A29.1,29.1,0,0,0,228.8,145.868a2.562,2.562,0,0,1-5.111-.361,34.272,34.272,0,0,1,36.758-31.544,2.592,2.592,0,0,1,.62.1,3.815,3.815,0,0,1,2.891-.981,3.7,3.7,0,0,1,3.459,4.027Z" transform="translate(-163.497 -100.571)"/><path class="i" d="M248.182,277.006l1.549,6.763s-.155.052-.413.155c-4.595,1.7-47.29,17.192-76.82,16.624h-.31l-1.342-5.834a55.224,55.224,0,0,1-1.445-11.822c7.124.774,41.972,3.252,74.91-17.192A58.372,58.372,0,0,1,248.182,277.006Z" transform="translate(-137.237 -174.403)"/><path class="i" d="M256.532,320.2a48.455,48.455,0,0,1-7.176,22.045c-12.494,3.975-31.544,9.344-49.1,11.306A48.5,48.5,0,0,1,184.1,336.772C193.444,337.65,225.659,338.837,256.532,320.2Z" transform="translate(-144.348 -200.767)"/></g><g transform="translate(-8.382 57.789) rotate(-10)"><g transform="translate(98.436 46.46) rotate(-7)"><path class="j" d="M16.348,32.68a1.493,1.493,0,0,1-1.054-.441l-1.905-1.92-1.928,1.913a1.5,1.5,0,0,1-1.054.426H2.988A2.989,2.989,0,0,1,0,29.669L.1,2.988A2.988,2.988,0,0,1,3.086,0H10.5a1.494,1.494,0,0,1,1.054.463L13.449,2.4,15.391.478A1.5,1.5,0,0,1,16.437.052l28.2.112a2.988,2.988,0,0,1,3,2.929l-.1,26.711a2.989,2.989,0,0,1-2.988,2.988Zm-4.483-5.917h2.988V23.774H11.865Zm0-5.94h2.988V17.834H11.865Zm0-5.933h2.988V11.9H11.865Zm.089-5.924h2.988V5.977H11.955Z" transform="translate(0 0)"/></g><text class="k" transform="matrix(0.995, -0.105, 0.105, 0.995, 117.276, 60.195)"><tspan x="0" y="0">VOUCHER</tspan></text><text class="k" transform="matrix(0.995, -0.105, 0.105, 0.995, 129.978, 64.971)"><tspan x="0" y="0">eMAG</tspan></text></g></g><rect class="l" width="54.717" height="44.295" transform="translate(878.938 417.619) rotate(11)"/><path class="m" d="M18.665,51.768,10.952,25.083,6.025,29.437,1.083.515.253,45.16l10.917-11.97Z" transform="translate(931.702 427.288) rotate(11)"/><g transform="translate(885.629 420.227) rotate(11)"><text class="n" transform="translate(0.811 17.948)"><tspan x="0" y="0">1.5%</tspan></text><text class="o" transform="translate(1.547 26.974)"><tspan x="0" y="0">cashback</tspan></text><text class="p" transform="translate(1.394 37.811)"><tspan x="0" y="0">INSTANT</tspan></text></g></g></svg>