<svg xmlns="http://www.w3.org/2000/svg" xmlns:xlink="http://www.w3.org/1999/xlink" width="123.311" height="132.151" viewBox="0 0 123.311 132.151"><defs><style>.a{fill:#f0930e;stroke-width:6px;}.a,.e,.f,.g,.k{stroke:#1a1818;stroke-miterlimit:10;}.b{fill:#d6d5d5;}.c,.g{fill:#f0a622;}.d{clip-path:url(#a);}.e,.i{fill:#1a1818;}.e{stroke-width:0.75px;}.f,.k{fill:none;}.f,.g,.k{stroke-width:2px;}.h{fill:#030504;}.j{fill:#fff;}.k{stroke-linecap:round;}.l{fill:#d63c3b;}</style><clipPath id="a"><ellipse class="a" cx="31.354" cy="37.439" rx="31.354" ry="37.439"/></clipPath></defs><g transform="translate(-4209.858 35.7)"><g transform="translate(4209.858 -35.7)"><g transform="translate(20.518)"><g transform="translate(0 35.447)"><path class="b" d="M4360.731,370.913s-31.993,27.638-24.026,46.437,31.421,2.518,31.421,2.518Z" transform="translate(-4335.431 -339.923)"/><path class="b" d="M4771.839,356.287s31.994,27.638,24.028,46.437-31.421,2.518-31.421,2.518Z" transform="translate(-4694.348 -327.687)"/><g transform="translate(20.71 13.064)"><ellipse class="c" cx="31.354" cy="37.439" rx="31.354" ry="37.439"/><g class="d"><path class="e" d="M4462.183,430.857s29.842,11.7,62.708,0v15.211s-38.757,5.331-62.708-.78Z" transform="translate(-4462.183 -403.136)"/><path class="e" d="M4462.183,566.875s29.842,11.7,62.708,0v15.211s-38.757,5.331-62.708-.78Z" transform="translate(-4462.183 -516.93)"/></g><ellipse class="f" cx="31.354" cy="37.439" rx="31.354" ry="37.439"/></g><circle class="g" cx="16.569" cy="16.569" r="16.569" transform="translate(16.887)"/><circle class="g" cx="16.569" cy="16.569" r="16.569" transform="translate(50.024)"/><path class="h" d="M4631.84,733.12s6.472,1.593,8.285,0c0,0-4.842,5.1-4.651,6.532Z" transform="translate(-4583.409 -642.948)"/></g><path class="i" d="M4668.563-17.283a2.992,2.992,0,0,1-3.754,1.97,3,3,0,0,1-1.888-1.723,2.084,2.084,0,0,1-.379-.078,23.031,23.031,0,0,0-28.794,15.15,2.015,2.015,0,0,1-2.529,1.329,2.019,2.019,0,0,1-1.331-2.528,27.079,27.079,0,0,1,33.855-17.806,2.052,2.052,0,0,1,.451.2,3.007,3.007,0,0,1,2.394-.266,2.994,2.994,0,0,1,1.977,3.752ZM4625.3-.3a2.018,2.018,0,0,1-2.415-1.526,27.082,27.082,0,0,1,20.456-32.324,1.981,1.981,0,0,1,.493-.049,3,3,0,0,1,1.942-1.425,2.992,2.992,0,0,1,3.583,2.264,2.994,2.994,0,0,1-2.27,3.582,3,3,0,0,1-2.495-.55,2.092,2.092,0,0,1-.367.12,23.032,23.032,0,0,0-17.4,27.495A2.016,2.016,0,0,1,4625.3-.3Z" transform="translate(-4575.366 35.7)"/><circle class="j" cx="10.755" cy="10.755" r="10.755" transform="translate(22.7 42.537)"/><circle class="j" cx="10.755" cy="10.755" r="10.755" transform="translate(55.838 41.261)"/><circle class="i" cx="5.61" cy="5.61" r="5.61" transform="translate(27.846 50.234)"/><line class="k" x2="15.898" y2="23.607" transform="translate(5.818 55.551)"/><circle class="j" cx="1.239" cy="1.239" r="1.239" transform="translate(32.217 57.622)"/><circle class="i" cx="5.61" cy="5.61" r="5.61" transform="translate(60.983 49.581)"/><circle class="j" cx="1.239" cy="1.239" r="1.239" transform="translate(65.354 56.969)"/><path class="i" d="M4620.747,401.453l8.7-.079s-.838,4.273-4.313,4.421S4620.747,401.453,4620.747,401.453Z" transform="translate(-4574.128 -329.959)"/></g><g transform="translate(0 31.894)"><circle class="c" cx="16.617" cy="16.617" r="16.617"/></g><line class="k" x2="7.897" y2="24.879" transform="translate(102.851 75.412)"/><path class="j" d="M6.112-7.072l.7-14.5H1.76l.7,14.5ZM4.288.352A2.755,2.755,0,0,0,7.136-2.56,2.756,2.756,0,0,0,4.288-5.472,2.763,2.763,0,0,0,1.408-2.56,2.766,2.766,0,0,0,4.224.352Z" transform="translate(12.021 58.787)"/></g><path class="l" d="M228.553,378.337c-.057-.263-1.871-.762-2.155-.865q-1.091-.392-2.2-.71-1.462-.416-2.95-.7a47.8,47.8,0,0,0-10.243-.74c-2.738.071-10.774.825-14.218,2.762v0a12.4,12.4,0,0,1-12.615.353v0a19.844,19.844,0,0,0-5.52-1.427,59.032,59.032,0,0,0-8.83-.534l-.41.014a47.223,47.223,0,0,0-9.776,1.3c-.982.247-1.949.535-2.906.867q-1.093.38-2.16.833c-.279.117-2.061.718-2.1.982a13.1,13.1,0,0,0-.017,2.373,4.886,4.886,0,0,1,1.394.293,2.659,2.659,0,0,1,1.027.887c.662.959.566,2.237.746,3.338.2,1.218.255,2.459.559,3.673a15.576,15.576,0,0,0,3.181,6.376c1.467,1.676,4.07,2.255,6.141,2.747a21.286,21.286,0,0,0,8.183.04,16.357,16.357,0,0,0,7.786-2.914A15.67,15.67,0,0,0,185.7,391.3a21.311,21.311,0,0,0,.966-2.549.006.006,0,0,1,0,0c.06-.2.12-.4.174-.6a6.9,6.9,0,0,1,1.252-2.351,3.479,3.479,0,0,1,5.182-.146,6.927,6.927,0,0,1,1.383,2.28c.065.2.135.393.206.588a.035.035,0,0,1,0,.008,21.389,21.389,0,0,0,1.106,2.492,15.673,15.673,0,0,0,4.563,5.732,16.356,16.356,0,0,0,7.936,2.473,21.268,21.268,0,0,0,8.167-.5c2.042-.607,4.609-1.331,5.978-3.086a15.547,15.547,0,0,0,2.82-6.543c.238-1.228.222-2.47.353-3.7.119-1.109-.049-2.381.558-3.375a2.661,2.661,0,0,1,.978-.944c.109-.06,1.372-.483,1.375-.369A13.275,13.275,0,0,0,228.553,378.337Zm-73.873,3.378c-.65.017-1.182-.124-1.187-.317s.518-.364,1.168-.382,1.18.124,1.187.315S155.332,381.7,154.681,381.715Zm29.4,4.653c-.021.155-.043.312-.068.467a18.584,18.584,0,0,1-1.088,4.064c-1.112,2.766-3,5.152-6.008,6.055-2.48.746-9.367,1.458-13.659-.252s-4.793-9.118-4.978-11.65c-.152-2.068,1.054-4.721,7.293-5.786a35.85,35.85,0,0,1,5.013-.455,30.507,30.507,0,0,1,6.022.344,13.288,13.288,0,0,1,5.58,1.966,7.147,7.147,0,0,1,.93.768,3.918,3.918,0,0,1,.4.464,3.489,3.489,0,0,1,.618,1.488A8.041,8.041,0,0,1,184.077,386.368Zm38.931-3.128c-.044,2.538-.13,9.964-4.319,11.911s-11.106,1.621-13.622,1.014c-4.661-1.12-6.924-5.84-7.748-10.169a8.118,8.118,0,0,1-.2-2.518,3.516,3.516,0,0,1,.536-1.521,5.6,5.6,0,0,1,1.26-1.306,13.282,13.282,0,0,1,5.46-2.275,30.6,30.6,0,0,1,5.994-.68C221.013,377.4,223.051,380.7,223.008,383.24Zm3.4-3.535c-.651.019-1.182-.124-1.188-.315s.518-.364,1.168-.383,1.182.124,1.188.317S227.059,379.688,226.41,379.706Z" transform="translate(4089.416 -369.196)"/></g></svg>