<svg xmlns="http://www.w3.org/2000/svg" xmlns:xlink="http://www.w3.org/1999/xlink" width="133.081" height="139.864" viewBox="0 0 133.081 139.864">
  <defs>
    <clipPath id="clip-path">
      <ellipse id="Ellipse_5" data-name="Ellipse 5" cx="31.581" cy="37.711" rx="31.581" ry="37.711" transform="translate(0 10.555) rotate(-9.62)" fill="#f0a622" stroke="#231f20" stroke-miterlimit="10" stroke-width="6"/>
    </clipPath>
  </defs>
  <g id="Group_544" data-name="Group 544" transform="translate(-119.244 -149.825)">
    <g id="bee" transform="translate(150.758 113.561) rotate(30)">
      <g id="Bee-2" data-name="Bee" transform="translate(36.134 0.032)">
        <path id="Path_16" data-name="Path 16" d="M331.83,469.59s-27.123,32.83-16.048,50.159,31.627-2.787,31.627-2.787Z" transform="translate(-310.044 -395.871)" fill="#ddd"/>
        <path id="Path_17" data-name="Path 17" d="M759.84,398.54s36.423,22.064,31.676,42.075-30.781,7.787-30.781,7.787Z" transform="translate(-686.626 -335.976)" fill="#ddd"/>
        <ellipse id="Ellipse_4" data-name="Ellipse 4" cx="31.581" cy="37.711" rx="31.581" ry="37.711" transform="translate(14.213 56.683) rotate(-9.62)" fill="#f0a622"/>
        <g id="Group_9" data-name="Group 9" transform="translate(14.213 46.128)" clip-path="url(#clip-path)">
          <path id="Path_18" data-name="Path 18" d="M413.73,479.81s31.6,6.594,62.274-10.55l2.559,15.106s-37.591,11.814-62.406,9.776Z" transform="translate(-409.068 -441.721)" fill="#231f20" stroke="#231f20" stroke-miterlimit="10" stroke-width="0.75"/>
          <path id="Path_19" data-name="Path 19" d="M437.54,620.35s31.6,6.594,62.276-10.55l2.559,15.106s-37.591,11.822-62.408,9.783Z" transform="translate(-429.139 -560.196)" fill="#231f20" stroke="#231f20" stroke-miterlimit="10" stroke-width="0.75"/>
        </g>
        <ellipse id="Ellipse_6" data-name="Ellipse 6" cx="31.581" cy="37.711" rx="31.581" ry="37.711" transform="translate(14.213 56.683) rotate(-9.62)" fill="none" stroke="#231f20" stroke-miterlimit="10" stroke-width="1"/>
        <circle id="Ellipse_7" data-name="Ellipse 7" cx="16.689" cy="16.689" r="16.689" transform="translate(10.768 41.335)" fill="#f0a622" stroke="#231f20" stroke-miterlimit="10" stroke-width="1"/>
        <circle id="Ellipse_8" data-name="Ellipse 8" cx="16.689" cy="16.689" r="16.689" transform="translate(43.678 35.76)" fill="#f0a622" stroke="#231f20" stroke-miterlimit="10" stroke-width="1"/>
        <path id="Path_20" data-name="Path 20" d="M642,811.674s6.7.493,8.228-1.394c0,0-3.95,5.878-3.52,7.269Z" transform="translate(-587.287 -683.074)"/>
        <path id="Path_21" data-name="Path 21" d="M569.758,14.637a3.024,3.024,0,0,1-5.561,1.195,2.041,2.041,0,0,1-.389-.014,23.2,23.2,0,0,0-26.046,19.89,2.041,2.041,0,0,1-4.036-.54,27.275,27.275,0,0,1,30.625-23.38,2.106,2.106,0,0,1,.484.127,3.024,3.024,0,0,1,4.926,2.725Zm-40.1,24.143A2.032,2.032,0,0,1,527,37.67,27.277,27.277,0,0,1,541.874,2.128a1.981,1.981,0,0,1,.482-.13,3.016,3.016,0,1,1,1.413,3.715,2.113,2.113,0,0,1-.344.182,23.2,23.2,0,0,0-12.651,30.231,2.041,2.041,0,0,1-1.115,2.656Z" transform="translate(-488.623 -0.032)" fill="#231f20"/>
        <circle id="Ellipse_9" data-name="Ellipse 9" cx="10.833" cy="10.833" r="10.833" transform="translate(16.839 48.46)" fill="#fff"/>
        <circle id="Ellipse_10" data-name="Ellipse 10" cx="10.833" cy="10.833" r="10.833" transform="translate(49.534 41.616)" fill="#fff"/>
        <circle id="Ellipse_11" data-name="Ellipse 11" cx="5.65" cy="5.65" r="5.65" transform="translate(22.022 53.642)" fill="#231f20"/>
        <circle id="Ellipse_12" data-name="Ellipse 12" cx="5.65" cy="5.65" r="5.65" transform="translate(54.723 46.836)" fill="#231f20"/>
        <line id="Line_5" data-name="Line 5" x2="18.585" y2="18.596" transform="translate(79.588 72.509)" fill="none" stroke="#231f20" stroke-linecap="round" stroke-miterlimit="10" stroke-width="1"/>
        <line id="Line_6" data-name="Line 6" x1="20.973" y1="19.543" transform="translate(0 66.799)" fill="none" stroke="#231f20" stroke-linecap="round" stroke-miterlimit="10" stroke-width="1"/>
        <circle id="Ellipse_13" data-name="Ellipse 13" cx="1.248" cy="1.248" r="1.248" transform="translate(26.424 58.044)" fill="#fff"/>
        <circle id="Ellipse_14" data-name="Ellipse 14" cx="1.248" cy="1.248" r="1.248" transform="translate(59.125 51.239)" fill="#fff"/>
        <path id="Path_22" data-name="Path 22" d="M572.53,470.442l8.635-1.542s-.113,4.383-3.539,5.115S572.53,470.442,572.53,470.442Z" transform="translate(-528.723 -395.289)" fill="#231f20"/>
      </g>
    </g>
  </g>
</svg>
