<svg xmlns="http://www.w3.org/2000/svg" xmlns:xlink="http://www.w3.org/1999/xlink" width="219.925" height="144.588" viewBox="0 0 219.925 144.588"><defs><style>.a,.d,.h,.k{fill:#f0a622;}.a,.f,.g,.h,.j{stroke:#231f20;stroke-miterlimit:10;}.a{stroke-width:6px;}.b{fill:#fff;}.c{fill:#ddd;}.e{clip-path:url(#a);}.f,.i{fill:#231f20;}.f{stroke-width:0.75px;}.g,.j{fill:none;}.g,.h,.j{stroke-width:2px;}.j{stroke-linecap:round;}.k{font-size:36px;font-family:Helvetica-Bold, Helvetica;font-weight:700;}</style><clipPath id="a"><ellipse class="a" cx="33.564" cy="40.078" rx="33.564" ry="40.078" transform="translate(0 11.218) rotate(-9.62)"/></clipPath></defs><g transform="translate(-162.501 -56.876)"><path class="b" d="M18.894,0,216.343,2.142,211.521,58.9,18.894,56.954C8.459,56.954,0,49.6,0,40.525v-24.1C0,7.355,8.459,0,18.894,0Z" transform="matrix(0.998, -0.07, 0.07, 0.998, 162.501, 97.787)"/><g transform="translate(224.798 65.381) rotate(-4)"><g transform="translate(36.134 0.032)"><path class="c" d="M333,469.59s-28.826,34.891-17.056,53.308,33.613-2.962,33.613-2.962Z" transform="translate(-309.85 -391.243)"/><path class="c" d="M759.84,398.54s38.71,23.45,33.664,44.717-32.713,8.276-32.713,8.276Z" transform="translate(-682.03 -332.047)"/><ellipse class="d" cx="33.564" cy="40.078" rx="33.564" ry="40.078" transform="translate(15.106 60.242) rotate(-9.62)"/><g class="e" transform="translate(15.106 49.024)"><path class="f" d="M413.73,480.473s33.589,7.008,66.184-11.213l2.72,16.055S442.682,497.87,416.31,495.7Z" transform="translate(-408.775 -439.991)"/><path class="f" d="M437.54,621.013s33.589,7.008,66.186-11.213l2.72,16.055s-39.951,12.564-66.326,10.4Z" transform="translate(-428.612 -557.082)"/></g><ellipse class="g" cx="33.564" cy="40.078" rx="33.564" ry="40.078" transform="translate(15.106 60.242) rotate(-9.62)"/><circle class="h" cx="17.737" cy="17.737" r="17.737" transform="translate(11.445 43.931)"/><circle class="h" cx="17.737" cy="17.737" r="17.737" transform="translate(46.42 38.006)"/><path d="M642,811.762s7.116.524,8.745-1.482c0,0-4.2,6.247-3.741,7.725Z" transform="translate(-583.852 -675.087)"/><path class="i" d="M572.57,15.554a3.214,3.214,0,0,1-5.91,1.27,2.17,2.17,0,0,1-.414-.015,24.653,24.653,0,0,0-27.681,21.139,2.169,2.169,0,0,1-4.29-.574,28.988,28.988,0,0,1,32.548-24.848,2.237,2.237,0,0,1,.514.135,3.214,3.214,0,0,1,5.236,2.9ZM529.947,41.213a2.159,2.159,0,0,1-2.822-1.18,28.99,28.99,0,0,1,15.81-37.774,2.1,2.1,0,0,1,.512-.138,3.205,3.205,0,1,1,1.5,3.948,2.241,2.241,0,0,1-.365.194,24.653,24.653,0,0,0-13.445,32.129,2.169,2.169,0,0,1-1.185,2.823Z" transform="translate(-486.342 -0.032)"/><circle class="b" cx="11.513" cy="11.513" r="11.513" transform="translate(17.897 51.502)"/><circle class="b" cx="11.513" cy="11.513" r="11.513" transform="translate(52.644 44.229)"/><circle class="i" cx="6.005" cy="6.005" r="6.005" transform="translate(23.405 57.01)"/><circle class="i" cx="6.005" cy="6.005" r="6.005" transform="translate(58.159 49.777)"/><line class="j" x2="19.752" y2="19.764" transform="translate(84.585 77.061)"/><line class="j" x1="22.29" y1="20.77" transform="translate(0 70.993)"/><circle class="b" cx="1.326" cy="1.326" r="1.326" transform="translate(28.083 61.689)"/><circle class="b" cx="1.326" cy="1.326" r="1.326" transform="translate(62.837 54.456)"/><path class="i" d="M572.53,470.539l9.177-1.639s-.12,4.659-3.761,5.436S572.53,470.539,572.53,470.539Z" transform="translate(-525.973 -390.668)"/></g></g><text class="k" transform="translate(230 137) rotate(-3)"><tspan x="-41.027" y="0">1,5%</tspan></text></g></svg>