<svg xmlns="http://www.w3.org/2000/svg" width="118.189" height="113.153" viewBox="0 0 118.189 113.153">
  <g id="Group_4544" data-name="Group 4544" transform="translate(-7225.391 -9632.396)">
    <g id="Group_4520" data-name="Group 4520" transform="translate(7225.391 9632.396)">
      <path id="Path_3896" data-name="Path 3896" d="M7285.365,9632.4l17.5,37.376,40.712,6.77-30.138,28.2,6.143,40.812-36.129-19.949-36.916,18.453,7.809-40.526-28.958-29.406,40.955-5.1Z" transform="translate(-7225.391 -9632.396)" fill="#edeced"/>
    </g>
    <g id="Group_4539" data-name="Group 4539" transform="translate(7246.811 9636.051)">
      <g id="Group_4538" data-name="Group 4538" transform="translate(0 0)">
        <g id="Group_4527" data-name="Group 4527" transform="translate(2.547 25.24)">
          <g id="Group_4521" data-name="Group 4521" transform="translate(0 27.606)">
            <path id="Path_3897" data-name="Path 3897" d="M7434.643,10094.109s-19.441,23.532-11.5,35.954,22.672-2,22.672-2Z" transform="translate(-7421.234 -10094.109)" fill="#dddddc"/>
          </g>
          <g id="Group_4522" data-name="Group 4522" transform="translate(50.273 19.61)">
            <path id="Path_3898" data-name="Path 3898" d="M7832.047,10028.771s26.108,15.816,22.705,30.159-22.064,5.582-22.064,5.582Z" transform="translate(-7832.047 -10028.771)" fill="#dddddc"/>
          </g>
          <g id="Group_4523" data-name="Group 4523" transform="translate(7.753 7.835)">
            <ellipse id="Ellipse_668" data-name="Ellipse 668" cx="22.638" cy="27.031" rx="22.638" ry="27.031" transform="translate(0 7.563) rotate(-9.616)" fill="#f0a622"/>
            <path id="Path_3899" data-name="Path 3899" d="M7561.183,9985.895c-.02-.414-.046-.827-.081-1.244v0c-.077-.916-.193-1.838-.35-2.76s-.349-1.823-.578-2.713h0a32.012,32.012,0,0,0-1.25-3.846,28.853,28.853,0,0,0-8.017-11.379c-5.147-4.385-11.319-6.234-17.381-5.208s-11.281,4.807-14.7,10.643a28.823,28.823,0,0,0-3.815,13.241q-.021.442-.028.887v0a32.535,32.535,0,0,0,.458,6.048,32.08,32.08,0,0,0,2.916,9,28.355,28.355,0,0,0,6.928,8.94c.528.45,1.069.876,1.619,1.272a21.256,21.256,0,0,0,12.476,4.213,19.734,19.734,0,0,0,3.286-.276,20.76,20.76,0,0,0,13.554-8.863q.6-.855,1.141-1.78a28.3,28.3,0,0,0,3.575-10.561,31.126,31.126,0,0,0,.275-4.147Q7561.216,9986.629,7561.183,9985.895Zm-.99,6a26.987,26.987,0,0,1-5.011,12.218,19.454,19.454,0,0,1-27.149,4.6,26.979,26.979,0,0,1-8.834-10.025,30.783,30.783,0,0,1-2.308-5.8,32.179,32.179,0,0,1-1.2-10.146,28.152,28.152,0,0,1,3.727-13.017c3.312-5.661,8.364-9.325,14.225-10.319a18.916,18.916,0,0,1,3.14-.264c9.125,0,17.643,6.646,21.541,16.512a31.939,31.939,0,0,1,2.191,10.443A30.6,30.6,0,0,1,7560.192,9991.9Z" transform="translate(-7511.264 -9955.295)" fill="#231f20"/>
          </g>
          <g id="Group_4524" data-name="Group 4524" transform="translate(4.889 3.997)">
            <circle id="Ellipse_669" data-name="Ellipse 669" cx="11.963" cy="11.963" r="11.963" transform="translate(0.397 0.397)" fill="#f0a622"/>
            <path id="Path_3900" data-name="Path 3900" d="M7473.518,9925.9a12.382,12.382,0,1,1,2.09-.176A12.626,12.626,0,0,1,7473.518,9925.9Zm.051-23.931a11.655,11.655,0,0,0-1.958.165,11.524,11.524,0,1,0,1.958-.165Z" transform="translate(-7461.184 -9901.182)" fill="#231f20"/>
          </g>
          <g id="Group_4525" data-name="Group 4525" transform="translate(28.478)">
            <circle id="Ellipse_670" data-name="Ellipse 670" cx="11.963" cy="11.963" r="11.963" transform="translate(0.397 0.397)" fill="#f0a622"/>
            <path id="Path_3901" data-name="Path 3901" d="M7666.283,9893.241a12.382,12.382,0,1,1,2.091-.176A12.524,12.524,0,0,1,7666.283,9893.241Zm.051-23.931a11.645,11.645,0,0,0-1.957.165,11.569,11.569,0,1,0,13.339,9.474h0a11.576,11.576,0,0,0-11.382-9.639Z" transform="translate(-7653.95 -9868.521)" fill="#231f20"/>
          </g>
          <g id="Group_4526" data-name="Group 4526" transform="translate(37.012 65.947)">
            <path id="Path_3902" data-name="Path 3902" d="M7723.678,10408.417s4.8.354,5.9-1c0,0-2.832,4.214-2.523,5.211Z" transform="translate(-7723.678 -10407.418)"/>
          </g>
          <path id="Path_3903" data-name="Path 3903" d="M7515.029,10104.462v0l.376,2.217,1.208,7.131.318.025c15.974,1.2,39.073-5.425,43.622-6.79l.335-.1.335-.1.124-.038-.2-1.205v0l-.928-5.472v0a32,32,0,0,0-1.249-3.845c-.1.055-.2.11-.3.162s-.2.111-.3.163c-19.1,10.163-38.4,7.781-42.632,7.089-.124-.021-.234-.04-.332-.058-.141-.023-.254-.043-.339-.061" transform="translate(-7503.551 -10068.407)" fill="#231f20" stroke="#231f20" stroke-miterlimit="10" stroke-width="0.69"/>
          <path id="Path_3904" data-name="Path 3904" d="M7585.178,10228.478a28.3,28.3,0,0,1-3.575,10.561q-.541.926-1.141,1.78c-.167.044-.339.086-.511.131l-.532.135a155.429,155.429,0,0,1-27.149,4.6l-.573.031h0l-.55.027q-.825-.6-1.619-1.273a28.344,28.344,0,0,1-6.928-8.94c.126.021.265.045.418.066h0c.13.021.27.042.418.063,5.44.776,23.209,2.342,40.994-6.795.125-.062.25-.127.375-.193S7585.053,10228.544,7585.178,10228.478Z" transform="translate(-7527.748 -10184.429)" fill="#231f20" stroke="#231f20" stroke-miterlimit="10" stroke-width="0.69"/>
        </g>
        <g id="Group_4528" data-name="Group 4528" transform="translate(26.387)">
          <path id="Path_3905" data-name="Path 3905" d="M7648.155,9672.74a2.169,2.169,0,0,1-3.986.857,1.679,1.679,0,0,1-.279-.011,16.629,16.629,0,0,0-18.671,14.258,1.459,1.459,0,0,1-2.892-.389,19.549,19.549,0,0,1,21.953-16.758,1.481,1.481,0,0,1,.346.091,2.167,2.167,0,0,1,3.532,1.953Zm-28.749,17.3a1.454,1.454,0,0,1-1.9-.795,19.552,19.552,0,0,1,10.663-25.477,1.412,1.412,0,0,1,.345-.094,2.163,2.163,0,1,1,1.009,2.663,1.5,1.5,0,0,1-.247.13,16.63,16.63,0,0,0-9.068,21.672,1.455,1.455,0,0,1-.8,1.9Z" transform="translate(-7616.045 -9662.268)" fill="#231f20"/>
        </g>
        <g id="Group_4529" data-name="Group 4529" transform="translate(12.409 34.74)">
          <circle id="Ellipse_671" data-name="Ellipse 671" cx="7.766" cy="7.766" r="7.766" fill="#fff"/>
        </g>
        <g id="Group_4530" data-name="Group 4530" transform="translate(35.844 29.835)">
          <circle id="Ellipse_672" data-name="Ellipse 672" cx="7.766" cy="7.766" r="7.766" fill="#fff"/>
        </g>
        <g id="Group_4531" data-name="Group 4531" transform="translate(16.124 38.455)">
          <circle id="Ellipse_673" data-name="Ellipse 673" cx="4.05" cy="4.05" r="4.05" fill="#231f20"/>
        </g>
        <g id="Group_4532" data-name="Group 4532" transform="translate(39.564 33.577)">
          <circle id="Ellipse_674" data-name="Ellipse 674" cx="4.05" cy="4.05" r="4.05" fill="#231f20"/>
        </g>
        <g id="Group_4533" data-name="Group 4533" transform="translate(57.05 51.641)">
          <path id="Path_3906" data-name="Path 3906" d="M7880.279,10098.265a.338.338,0,0,1-.239-.1l-13.323-13.331a.337.337,0,0,1,.478-.477l13.323,13.33a.337.337,0,0,1-.239.576Z" transform="translate(-7866.619 -10084.259)" fill="#231f20"/>
        </g>
        <g id="Group_4534" data-name="Group 4534" transform="translate(0 47.548)">
          <path id="Path_3907" data-name="Path 3907" d="M7415.8,10065.5a.339.339,0,0,1-.23-.092l-15.034-14.008a.338.338,0,1,1,.461-.494l15.034,14.008a.339.339,0,0,1-.23.586Z" transform="translate(-7400.424 -10050.815)" fill="#231f20"/>
        </g>
        <g id="Group_4535" data-name="Group 4535" transform="translate(19.28 41.611)">
          <circle id="Ellipse_675" data-name="Ellipse 675" cx="0.894" cy="0.894" r="0.894" fill="#fff"/>
        </g>
        <g id="Group_4536" data-name="Group 4536" transform="translate(42.72 36.733)">
          <circle id="Ellipse_676" data-name="Ellipse 676" cx="0.894" cy="0.894" r="0.894" fill="#fff"/>
        </g>
        <g id="Group_4537" data-name="Group 4537" transform="translate(31.74 52.769)">
          <path id="Path_3908" data-name="Path 3908" d="M7659.791,10094.579l6.187-1.105s-.081,3.142-2.537,3.667S7659.791,10094.579,7659.791,10094.579Z" transform="translate(-7659.791 -10093.474)" fill="#231f20"/>
        </g>
      </g>
    </g>
    <g id="Group_4540" data-name="Group 4540" transform="translate(7229.257 9700.528)">
      <path id="Path_3909" data-name="Path 3909" d="M7264.691,10189.148l1.046,4.6,4.378,1.743-4.047,2.415-.3,4.7-3.548-3.1-4.567,1.163,1.854-4.333-2.518-3.983,4.693.425Z" transform="translate(-7256.986 -10189.148)" fill="#d69328"/>
    </g>
    <g id="Group_4541" data-name="Group 4541" transform="translate(7304.625 9647.612)">
      <path id="Path_3910" data-name="Path 3910" d="M7877.073,9756.741l.571,2.511,2.393.952-2.211,1.319-.167,2.569-1.938-1.7-2.495.636,1.013-2.367-1.375-2.176,2.564.231Z" transform="translate(-7872.864 -9756.741)" fill="#d69328"/>
    </g>
    <g id="Group_4542" data-name="Group 4542" transform="translate(7330.921 9706.392)">
      <path id="Path_3911" data-name="Path 3911" d="M8089.8,10237.067l.28,1.229,1.17.466-1.082.646-.082,1.257-.948-.829-1.221.311.5-1.158-.673-1.064,1.254.113Z" transform="translate(-8087.741 -10237.067)" fill="#d69328"/>
    </g>
    <g id="Group_4543" data-name="Group 4543" transform="translate(7240.777 9670.324)">
      <path id="Path_3912" data-name="Path 3912" d="M7353.18,9942.334l.279,1.229,1.171.466-1.082.646-.082,1.257-.948-.829-1.221.311.5-1.158-.673-1.064,1.255.112Z" transform="translate(-7351.12 -9942.334)" fill="#d69328"/>
    </g>
  </g>
</svg>
