<svg xmlns="http://www.w3.org/2000/svg" xmlns:xlink="http://www.w3.org/1999/xlink" width="91.103" height="95.746" viewBox="0 0 91.103 95.746"><defs><style>.a,.c,.g{fill:#f0a622;}.a,.e,.f,.g,.j{stroke:#231f20;stroke-miterlimit:10;}.a{stroke-width:6px;}.b{fill:#ddd;}.d{clip-path:url(#a);}.e,.h{fill:#231f20;}.e{stroke-width:0.75px;}.f,.j{fill:none;}.i{fill:#fff;}.j{stroke-linecap:round;}</style><clipPath id="a"><ellipse class="a" cx="21.62" cy="25.815" rx="21.62" ry="25.815" transform="translate(0 7.226) rotate(-9.62)"/></clipPath></defs><g transform="translate(11.708 -30.533) rotate(30)"><g transform="translate(36.134 0.032)"><path class="b" d="M325.93,469.59s-18.567,22.474-10.986,34.337,21.651-1.908,21.651-1.908Z" transform="translate(-311.015 -419.124)"/><path class="b" d="M759.84,398.54s24.934,15.1,21.684,28.8-21.072,5.331-21.072,5.331Z" transform="translate(-709.72 -355.711)"/><ellipse class="c" cx="21.62" cy="25.815" rx="21.62" ry="25.815" transform="translate(9.73 38.803) rotate(-9.62)"/><g class="d" transform="translate(9.73 31.578)"><path class="e" d="M413.73,476.482s21.636,4.514,42.631-7.222l1.752,10.341s-25.734,8.087-42.721,6.692Z" transform="translate(-410.538 -450.407)"/><path class="e" d="M437.54,617.022s21.636,4.514,42.632-7.222l1.752,10.341s-25.734,8.093-42.722,6.7Z" transform="translate(-431.789 -575.843)"/></g><ellipse class="f" cx="21.62" cy="25.815" rx="21.62" ry="25.815" transform="translate(9.73 38.803) rotate(-9.62)"/><circle class="g" cx="11.425" cy="11.425" r="11.425" transform="translate(7.372 28.297)"/><circle class="g" cx="11.425" cy="11.425" r="11.425" transform="translate(29.901 24.48)"/><path d="M642,811.234s4.584.338,5.633-.954c0,0-2.7,4.024-2.41,4.976Z" transform="translate(-604.545 -723.199)"/><path class="h" d="M555.628,10.03a2.07,2.07,0,0,1-3.807.818,1.4,1.4,0,0,1-.266-.01,15.88,15.88,0,0,0-17.83,13.616,1.4,1.4,0,0,1-2.763-.37A18.672,18.672,0,0,1,551.926,8.08a1.442,1.442,0,0,1,.331.087,2.07,2.07,0,0,1,3.372,1.866ZM528.173,26.558a1.391,1.391,0,0,1-1.818-.76A18.673,18.673,0,0,1,536.539,1.467a1.356,1.356,0,0,1,.33-.089,2.065,2.065,0,1,1,.967,2.543,1.445,1.445,0,0,1-.235.125,15.88,15.88,0,0,0-8.66,20.7,1.4,1.4,0,0,1-.763,1.818Z" transform="translate(-500.086 -0.032)"/><circle class="i" cx="7.416" cy="7.416" r="7.416" transform="translate(11.528 33.174)"/><circle class="i" cx="7.416" cy="7.416" r="7.416" transform="translate(33.909 28.489)"/><circle class="h" cx="3.868" cy="3.868" r="3.868" transform="translate(15.075 36.722)"/><circle class="h" cx="3.868" cy="3.868" r="3.868" transform="translate(37.461 32.063)"/><line class="j" x2="12.723" y2="12.73" transform="translate(54.483 49.637)"/><line class="j" x1="14.358" y1="13.378" transform="translate(0 45.728)"/><circle class="i" cx="0.854" cy="0.854" r="0.854" transform="translate(18.089 39.735)"/><circle class="i" cx="0.854" cy="0.854" r="0.854" transform="translate(40.475 35.076)"/><path class="h" d="M572.53,469.955l5.911-1.055s-.077,3-2.422,3.5S572.53,469.955,572.53,469.955Z" transform="translate(-542.541 -418.509)"/></g></g></svg>