<svg xmlns="http://www.w3.org/2000/svg" xmlns:xlink="http://www.w3.org/1999/xlink" width="142" height="144" viewBox="0 0 142 144">
  <defs>
    <clipPath id="clip-path">
      <rect id="Rectangle_1374" data-name="Rectangle 1374" width="142" height="144" rx="15" transform="translate(117 88)" fill="#fff" stroke="#707070" stroke-width="1"/>
    </clipPath>
    <clipPath id="clip-path-2">
      <ellipse id="Ellipse_622" data-name="Ellipse 622" cx="49.363" cy="41.338" rx="49.363" ry="41.338" transform="translate(0 98.727) rotate(-89.453)"/>
    </clipPath>
  </defs>
  <g id="Mask_Group_46" data-name="Mask Group 46" transform="translate(-117 -88)" clip-path="url(#clip-path)">
    <g id="Bee-Beez-magnifying_glass" data-name="Bee-Beez-magnifying glass" transform="translate(-411.87 -128.365) rotate(14)">
      <g id="Group_628" data-name="Group 628" transform="translate(587.453 152.002)">
        <path id="Path_3731" data-name="Path 3731" d="M624.76,540.3s-42.532,36.031-32.266,60.915,41.393,3.71,41.393,3.71Z" transform="translate(-590.263 -539.106)" fill="#cecece"/>
        <path id="Path_3732" data-name="Path 3732" d="M607,608.616A20.9,20.9,0,0,1,601,607.79c-5.362-1.6-9.366-5.528-11.9-11.661-2.406-5.822-2.167-12.708.7-20.458,2.277-6.134,6.189-12.855,11.661-19.944a155.5,155.5,0,0,1,20.072-21.211l.845-.716,9.329,66.112-.312.22a61.09,61.09,0,0,1-10.192,5.326A37.571,37.571,0,0,1,607,608.616Zm14.508-72.411a157.7,157.7,0,0,0-19.062,20.311c-5.381,6.979-9.255,13.571-11.478,19.613-2.755,7.456-2.993,14.03-.716,19.558,2.387,5.766,6.115,9.458,11.11,10.945A19.352,19.352,0,0,0,607,607.4c10.376,0,21.431-6.795,23.433-8.08Z" transform="translate(-587.453 -533.8)" fill="#636363"/>
      </g>
      <g id="Group_629" data-name="Group 629" transform="translate(679.76 149.504)">
        <path id="Path_3733" data-name="Path 3733" d="M1104.158,526.7s41.834,36.839,31.091,61.521-41.448,2.92-41.448,2.92Z" transform="translate(-1093.12 -525.506)" fill="#cecece"/>
        <path id="Path_3734" data-name="Path 3734" d="M1115.149,595.292a37.078,37.078,0,0,1-14.655-3.453,62.7,62.7,0,0,1-10.082-5.509l-.312-.22,10.6-65.91.826.734a158.138,158.138,0,0,1,19.668,21.6c5.326,7.18,9.127,13.975,11.276,20.146,2.718,7.8,2.828,14.691.312,20.476-2.645,6.079-6.721,9.935-12.121,11.423A19.571,19.571,0,0,1,1115.149,595.292Zm-23.708-9.752c2.332,1.561,17.226,11.11,28.906,7.86,5.013-1.4,8.833-5.013,11.313-10.743,2.387-5.473,2.277-12.065-.331-19.576-2.112-6.06-5.84-12.726-11.092-19.815a158.175,158.175,0,0,0-18.658-20.678Z" transform="translate(-1090.1 -520.2)" fill="#636363"/>
      </g>
      <g id="Group_636" data-name="Group 636" transform="translate(615.042 129.265)">
        <g id="Group_630" data-name="Group 630" transform="translate(0.152 0.225)">
          <ellipse id="SVGID_1_" cx="49.363" cy="41.338" rx="49.363" ry="41.338" transform="translate(0 98.727) rotate(-89.453)" fill="#cecece"/>
        </g>
        <g id="Group_632" data-name="Group 632" transform="translate(0.152 0.225)">
          <g id="Group_631" data-name="Group 631" transform="translate(0)" clip-path="url(#clip-path-2)">
            <path id="Path_3735" data-name="Path 3735" d="M740.965,610.3s39.19,15.793,82.676.79l-.184,20.054s-51.163,6.538-82.658-1.818Z" transform="translate(-740.38 -573.739)" fill="#636363"/>
          </g>
        </g>
        <g id="Group_634" data-name="Group 634" transform="translate(0.152 0.225)">
          <g id="Group_633" data-name="Group 633" transform="translate(0)" clip-path="url(#clip-path-2)">
            <path id="Path_3736" data-name="Path 3736" d="M739.465,769.8s39.19,15.793,82.676.79l-.184,20.054s-51.163,6.538-82.658-1.818Z" transform="translate(-739.155 -703.948)" fill="#636363"/>
          </g>
        </g>
        <g id="Group_635" data-name="Group 635" transform="translate(0)">
          <g id="SVGID_2_">
            <path id="Path_3737" data-name="Path 3737" d="M779.5,509.949h-.349c-11.221-.11-21.725-5.417-29.567-14.967-7.8-9.494-12.029-22.074-11.9-35.406s4.591-25.82,12.58-35.186c8.025-9.384,18.6-14.508,29.842-14.4,11.221.11,21.725,5.417,29.567,14.967,7.8,9.513,12.047,22.092,11.918,35.425S817,486.2,809.014,495.57C801.063,504.844,790.595,509.949,779.5,509.949Zm-41.21-50.373h.606c-.129,13.039,4,25.343,11.643,34.617,7.6,9.256,17.758,14.416,28.63,14.508h.331c22.313,0,40.6-21.615,40.861-48.353.129-13.039-4-25.343-11.643-34.617-7.6-9.256-17.758-14.416-28.63-14.508h-.331c-22.313,0-40.6,21.615-40.861,48.353Z" transform="translate(-737.684 -409.991)" fill="#636363"/>
          </g>
        </g>
      </g>
      <path id="Path_3738" data-name="Path 3738" d="M937.3,966.7s8.5,2.185,10.927.11c0,0-6.446,6.666-6.207,8.558Z" transform="translate(-285.6 -735.199)" fill="#636363"/>
      <path id="Path_3739" data-name="Path 3739" d="M981.016,90.665a3.956,3.956,0,0,1-7.437.257,2.4,2.4,0,0,1-.5-.11,30.365,30.365,0,0,0-38.143,19.613,2.66,2.66,0,0,1-5.069-1.616,35.714,35.714,0,0,1,44.864-23.047,2.882,2.882,0,0,1,.588.275,3.943,3.943,0,0,1,5.693,4.628Zm-57.242,21.854a2.661,2.661,0,0,1-3.159-2.038,35.686,35.686,0,0,1,27.363-42.367,1.948,1.948,0,0,1,.643-.055,3.95,3.95,0,1,1,.955,5.124,2.063,2.063,0,0,1-.477.147,30.374,30.374,0,0,0-23.286,36.031,2.661,2.661,0,0,1-2.038,3.159Z" transform="translate(-271.322)" fill="#636363"/>
      <g id="Group_637" data-name="Group 637" transform="translate(593.002 168.377)">
        <path id="Path_3740" data-name="Path 3740" d="M618.41,657.446a.714.714,0,0,1-.422-.129.739.739,0,0,1-.184-1.028l23.157-33a.739.739,0,1,1,1.212.845l-23.157,33A.74.74,0,0,1,618.41,657.446Z" transform="translate(-617.67 -622.97)" fill="#636363"/>
      </g>
      <path id="Path_3741" data-name="Path 3741" d="M938.182,572H928.1s1.01,4.94,5.05,5.069C937.172,577.2,938.182,572,938.182,572Z" transform="translate(-278.09 -412.983)" fill="#636363"/>
      <g id="Group_638" data-name="Group 638" transform="translate(654.895 111.545)">
        <circle id="Ellipse_624" data-name="Ellipse 624" cx="21.743" cy="21.743" r="21.743" transform="translate(0.606 0.606)" fill="#cecece"/>
        <path id="Path_3742" data-name="Path 3742" d="M977.049,358.2A22.349,22.349,0,1,1,999.4,335.849,22.376,22.376,0,0,1,977.049,358.2Zm0-43.487a21.137,21.137,0,1,0,21.137,21.137A21.165,21.165,0,0,0,977.049,314.712Z" transform="translate(-954.7 -313.5)" fill="#636363"/>
      </g>
      <circle id="Ellipse_625" data-name="Ellipse 625" cx="14.122" cy="14.122" r="14.122" transform="translate(663.122 119.772)" fill="#fff"/>
      <circle id="Ellipse_626" data-name="Ellipse 626" cx="7.364" cy="7.364" r="7.364" transform="translate(669.881 126.53)" fill="#636363"/>
      <circle id="Ellipse_627" data-name="Ellipse 627" cx="1.634" cy="1.634" r="1.634" transform="translate(675.61 132.26)" fill="#fff"/>
      <g id="Group_639" data-name="Group 639" transform="translate(609.701 109.507)">
        <circle id="Ellipse_628" data-name="Ellipse 628" cx="23.415" cy="23.415" r="23.415" transform="translate(0.606 0.606)" fill="#cecece"/>
        <path id="Path_3743" data-name="Path 3743" d="M732.621,350.441a24.021,24.021,0,1,1,24.021-24.021A24.053,24.053,0,0,1,732.621,350.441Zm0-46.829a22.809,22.809,0,1,0,22.809,22.809A22.831,22.831,0,0,0,732.621,303.612Z" transform="translate(-708.6 -302.4)" fill="#636363"/>
      </g>
      <circle id="Ellipse_629" data-name="Ellipse 629" cx="15.206" cy="15.206" r="15.206" transform="translate(618.515 118.322)" fill="#fff"/>
      <ellipse id="Ellipse_630" data-name="Ellipse 630" cx="8.65" cy="8.539" rx="8.65" ry="8.539" transform="translate(625.072 124.988)" fill="#636363"/>
      <ellipse id="Ellipse_631" data-name="Ellipse 631" cx="1.91" cy="1.892" rx="1.91" ry="1.892" transform="translate(631.811 131.636)" fill="#fff"/>
      <g id="Group_641" data-name="Group 641" transform="translate(594.911 94.76)">
        <g id="Group_640" data-name="Group 640" transform="translate(0)">
          <path id="Path_3744" data-name="Path 3744" d="M714.316,346.758a3.9,3.9,0,0,1-3.306-1.818l-3.379-5.326-19.393-30.8a3.921,3.921,0,0,1,1.212-5.4l1.139-.716-.22-.349-2.645-4.114h.018l-.22-.349a38.207,38.207,0,0,1-17.593,4.316,38.953,38.953,0,0,1-8.356-.918,38.255,38.255,0,0,1,8.3-75.588,38.956,38.956,0,0,1,8.356.918,38.254,38.254,0,0,1,15.683,67.1l3.122,4.922,1.745-1.1a3.923,3.923,0,0,1,4-.11.4.4,0,0,1,.092.055l.037.018a2.388,2.388,0,0,1,.275.184,4.19,4.19,0,0,1,.771.735c.073.11.165.22.239.331L723.663,329.7l3.269,5.124a3.9,3.9,0,0,1-1.212,5.4l-9.329,5.932a3.8,3.8,0,0,1-2.075.606ZM669.856,234.35a29.584,29.584,0,0,0-24.939,45.433A29.611,29.611,0,0,0,669.892,293.5a29.576,29.576,0,0,0-.037-59.152Z" transform="translate(-630.991 -225.039)" fill="#cecece"/>
          <path id="Path_3745" data-name="Path 3745" d="M666.915,223.33a37.169,37.169,0,0,1,8.227.918,37.637,37.637,0,0,1,15,66.369l3.746,5.895,2.259-1.432a3.273,3.273,0,0,1,1.763-.514,3.2,3.2,0,0,1,1.6.422.386.386,0,0,1,.11.073c.073.055.147.092.22.147a2.956,2.956,0,0,1,.643.624c.073.092.129.184.2.275l19.521,31,2.24,3.526,1.028,1.616a3.316,3.316,0,0,1-1.01,4.554l-.826.514-8.5,5.4a3.273,3.273,0,0,1-1.763.514,3.319,3.319,0,0,1-2.791-1.524l-3.379-5.326L685.83,305.548a3.316,3.316,0,0,1,1.01-4.554l1.653-1.047-.551-.881h0l-2.3-3.6h.018l-.863-1.359a37.634,37.634,0,1,1-17.887-70.776m.073,67.838a30.222,30.222,0,1,0-6.593-.735,30.177,30.177,0,0,0,6.593.735m-.073-69.068a39.076,39.076,0,0,0-24.112,8.411,38.579,38.579,0,0,0-8.668,9.6,39.1,39.1,0,0,0-5.124,12.4A38.845,38.845,0,0,0,658.486,298.9a38.79,38.79,0,0,0,25.857-3.177l.257.4,2.185,3.434-.606.386a4.52,4.52,0,0,0-1.4,6.244l19.393,30.8,3.4,5.344a4.465,4.465,0,0,0,3.82,2.094,4.538,4.538,0,0,0,2.424-.7l8.5-5.4.826-.514a4.52,4.52,0,0,0,1.4-6.244l-1.028-1.616-2.24-3.526-19.5-31-.275-.386a4.466,4.466,0,0,0-.9-.863c-.092-.073-.2-.129-.312-.2h-.018a.459.459,0,0,0-.129-.073,4.632,4.632,0,0,0-2.2-.569,4.539,4.539,0,0,0-2.424.7l-1.23.771-2.5-3.93a38.854,38.854,0,0,0-16.381-67.82,37.681,37.681,0,0,0-8.484-.955Zm.073,67.838a29.63,29.63,0,0,1-6.336-.7A28.969,28.969,0,0,1,666.915,232a29.634,29.634,0,0,1,6.336.7,28.969,28.969,0,0,1-6.262,57.242Z" transform="translate(-628.069 -222.1)" fill="#636363"/>
        </g>
        <rect id="Rectangle_1375" data-name="Rectangle 1375" width="6.409" height="14.949" transform="matrix(0.844, -0.536, 0.536, 0.844, 53.278, 66.61)" fill="#636363"/>
        <path id="Path_3746" data-name="Path 3746" d="M949.295,606.6,947,603l-5.4,3.434,2.3,3.6Z" transform="translate(-884.022 -533.05)" fill="#ccc"/>
        <path id="Path_3747" data-name="Path 3747" d="M940.326,627.612a3.316,3.316,0,0,1,1.01-4.554l9.329-5.932a3.316,3.316,0,0,1,4.554,1.01l19.521,31-15.022,9.256Z" transform="translate(-882.565 -544.165)" fill="#cecece"/>
        <path id="Path_3748" data-name="Path 3748" d="M1051.579,808.481l-3.379-5.326,15.022-9.255,3.269,5.142a3.316,3.316,0,0,1-1.01,4.554l-9.329,5.932A3.374,3.374,0,0,1,1051.579,808.481Z" transform="translate(-971.045 -688.893)" fill="#797a7a"/>
        <path id="Path_3749" data-name="Path 3749" d="M980.287,617.17l-4.187,2.663,21.266,33.662,7-4.316-19.521-31A3.283,3.283,0,0,0,980.287,617.17Z" transform="translate(-912.186 -544.19)" fill="#fff"/>
        <path id="Path_3750" data-name="Path 3750" d="M1096.787,806.141l4.169-2.644a3.3,3.3,0,0,0,1.01-4.554L1098.7,793.8l-7,4.316Z" transform="translate(-1006.557 -688.811)" fill="#cecece"/>
        <circle id="Ellipse_632" data-name="Ellipse 632" cx="30.173" cy="30.173" r="30.173" transform="translate(8.71 8.705)" fill="#f2f2f2" opacity="0.34"/>
        <path id="Path_3751" data-name="Path 3751" d="M635.76,258.273a37.631,37.631,0,1,0,44.919-28.538A37.623,37.623,0,0,0,635.76,258.273Zm66.185,14.765a30.181,30.181,0,1,1-22.882-36.031A30.149,30.149,0,0,1,701.945,273.038Z" transform="translate(-633.605 -227.586)" fill="#cecece" stroke="#636363" stroke-miterlimit="10" stroke-width="1"/>
        <path id="Path_3752" data-name="Path 3752" d="M795.537,324.4c1.175,23.874-16.693,41.522-37.537,46.278A30.178,30.178,0,0,0,795.537,324.4Z" transform="translate(-734.139 -305.613)" fill="#fff" opacity="0.25"/>
        <path id="Path_3753" data-name="Path 3753" d="M754.8,300.288a29.617,29.617,0,0,1-1.983,5.932A30.25,30.25,0,0,1,710.306,319.9a51.238,51.238,0,0,1-10.706,1.286A37.631,37.631,0,1,0,745.878,262.2a50.276,50.276,0,0,1,1.947,11.441A29.965,29.965,0,0,1,754.8,300.288Z" transform="translate(-686.464 -254.836)" fill="#797a7a"/>
        <path id="Path_3754" data-name="Path 3754" d="M662.487,281.093a32.71,32.71,0,1,0,39.043-24.81A32.713,32.713,0,0,0,662.487,281.093Zm61.392,13.681A30.181,30.181,0,1,1,701,258.744,30.177,30.177,0,0,1,723.879,294.775Z" transform="translate(-655.521 -249.36)" fill="#fff"/>
      </g>
      <g id="Group_642" data-name="Group 642" transform="translate(681.903 169.282)">
        <path id="Path_3755" data-name="Path 3755" d="M1102.508,657.668a.737.737,0,0,1-.294-1.414l18.181-7.842-4.279-19.613a.742.742,0,0,1,1.451-.312l4.536,20.788-19.283,8.319A.7.7,0,0,1,1102.508,657.668Z" transform="translate(-1101.767 -627.899)" fill="#636363"/>
      </g>
    </g>
  </g>
</svg>
