<svg xmlns="http://www.w3.org/2000/svg" xmlns:xlink="http://www.w3.org/1999/xlink" width="283.891" height="178.559" viewBox="0 0 283.891 178.559"><defs><style>.a{fill:#f0a622;stroke:#231f20;stroke-width:6px;}.a,.m,.n,.o{stroke-miterlimit:10;}.b{opacity:0.44;}.c{fill:#eff1f3;}.d{fill:#aeb0b3;}.e{fill:#808eaa;opacity:0.3;}.f{fill:#c7c9cb;}.g{opacity:0.422;}.h{fill:#ddd;}.i,.m{fill:#e6e6e6;}.j{clip-path:url(#a);}.k{fill:#b9b9b9;}.l,.n,.o{fill:none;}.l,.m,.n,.o{stroke:#b9b9b9;stroke-width:2px;}.n{stroke-linecap:round;}</style><clipPath id="a"><ellipse class="a" cx="50.229" cy="42.066" rx="50.229" ry="42.066" transform="translate(0 99.885) rotate(-83.88)"/></clipPath></defs><g transform="translate(-45.738 -223.425)"><g class="b" transform="translate(89.511 223.425)"><g transform="translate(85.271 18)"><path class="c" d="M-978.246-1302.655V-1175h31.619v-127.66Z" transform="translate(978.246 1302.655)"/><g transform="translate(4.674 3.647)"><g transform="translate(0 60.168)"><path class="d" d="M-944.24-904.691h-5.444v-5.29a2.722,2.722,0,0,1,2.722-2.722h0a2.722,2.722,0,0,1,2.722,2.722Z" transform="translate(949.684 912.704)"/><path class="d" d="M-889.628-904.691h-5.444v-5.29a2.722,2.722,0,0,1,2.722-2.722h0a2.722,2.722,0,0,1,2.722,2.722Z" transform="translate(904.009 912.704)"/><path class="d" d="M-835.016-904.691h-5.445v-5.29a2.722,2.722,0,0,1,2.722-2.722h0a2.722,2.722,0,0,1,2.722,2.722Z" transform="translate(858.334 912.704)"/></g><path class="d" d="M-944.24-1272.358h-5.444v-5.29a2.722,2.722,0,0,1,2.722-2.722h0a2.722,2.722,0,0,1,2.722,2.722Z" transform="translate(949.684 1280.371)"/><path class="d" d="M-889.628-1272.358h-5.444v-5.29a2.722,2.722,0,0,1,2.722-2.722h0a2.722,2.722,0,0,1,2.722,2.722Z" transform="translate(904.009 1280.371)"/><path class="d" d="M-835.016-1272.358h-5.445v-5.29a2.722,2.722,0,0,1,2.722-2.722h0a2.722,2.722,0,0,1,2.722,2.722Z" transform="translate(858.334 1280.371)"/><g transform="translate(0 11.916)"><path class="d" d="M-944.24-1199.542h-5.444v-5.291a2.722,2.722,0,0,1,2.722-2.722h0a2.722,2.722,0,0,1,2.722,2.722Z" transform="translate(949.684 1207.555)"/><path class="d" d="M-889.628-1199.542h-5.444v-5.291a2.722,2.722,0,0,1,2.722-2.722h0a2.722,2.722,0,0,1,2.722,2.722Z" transform="translate(904.009 1207.555)"/><path class="d" d="M-835.016-1199.542h-5.445v-5.291a2.722,2.722,0,0,1,2.722-2.722h0a2.722,2.722,0,0,1,2.722,2.722Z" transform="translate(858.334 1207.555)"/></g><g transform="translate(0 23.833)"><path class="d" d="M-944.24-1126.725h-5.444v-5.29a2.722,2.722,0,0,1,2.722-2.722h0a2.722,2.722,0,0,1,2.722,2.722Z" transform="translate(949.684 1134.738)"/><path class="d" d="M-889.628-1126.725h-5.444v-5.29a2.722,2.722,0,0,1,2.722-2.722h0a2.722,2.722,0,0,1,2.722,2.722Z" transform="translate(904.009 1134.738)"/><path class="d" d="M-835.016-1126.725h-5.445v-5.29a2.722,2.722,0,0,1,2.722-2.722h0a2.722,2.722,0,0,1,2.722,2.722Z" transform="translate(858.334 1134.738)"/></g><g transform="translate(0 35.749)"><path class="d" d="M-944.24-1053.909h-5.444v-5.291a2.722,2.722,0,0,1,2.722-2.722h0a2.722,2.722,0,0,1,2.722,2.722Z" transform="translate(949.684 1061.922)"/><path class="d" d="M-889.628-1053.909h-5.444v-5.291a2.722,2.722,0,0,1,2.722-2.722h0a2.722,2.722,0,0,1,2.722,2.722Z" transform="translate(904.009 1061.922)"/><path class="d" d="M-835.016-1053.909h-5.445v-5.291a2.722,2.722,0,0,1,2.722-2.722h0a2.722,2.722,0,0,1,2.722,2.722Z" transform="translate(858.334 1061.922)"/></g><g transform="translate(0 47.665)"><path class="d" d="M-944.24-981.092h-5.444v-5.29a2.722,2.722,0,0,1,2.722-2.722h0a2.722,2.722,0,0,1,2.722,2.722Z" transform="translate(949.684 989.105)"/><path class="d" d="M-889.628-981.092h-5.444v-5.29a2.722,2.722,0,0,1,2.722-2.722h0a2.722,2.722,0,0,1,2.722,2.722Z" transform="translate(904.009 989.105)"/><path class="d" d="M-835.016-981.092h-5.445v-5.29a2.722,2.722,0,0,1,2.722-2.722h0a2.722,2.722,0,0,1,2.722,2.722Z" transform="translate(858.334 989.105)"/></g><g transform="translate(0 72.084)"><path class="d" d="M-944.24-831.875h-5.444v-5.29a2.722,2.722,0,0,1,2.722-2.722h0a2.722,2.722,0,0,1,2.722,2.722Z" transform="translate(949.684 839.888)"/><path class="d" d="M-889.628-831.875h-5.444v-5.29a2.722,2.722,0,0,1,2.722-2.722h0a2.722,2.722,0,0,1,2.722,2.722Z" transform="translate(904.009 839.888)"/><path class="d" d="M-835.016-831.875h-5.445v-5.29a2.722,2.722,0,0,1,2.722-2.722h0a2.722,2.722,0,0,1,2.722,2.722Z" transform="translate(858.334 839.888)"/></g><g transform="translate(0 84.001)"><path class="d" d="M-944.24-759.058h-5.444v-5.29a2.722,2.722,0,0,1,2.722-2.722h0a2.722,2.722,0,0,1,2.722,2.722Z" transform="translate(949.684 767.071)"/><path class="d" d="M-889.628-759.058h-5.444v-5.29a2.722,2.722,0,0,1,2.722-2.722h0a2.722,2.722,0,0,1,2.722,2.722Z" transform="translate(904.009 767.071)"/><path class="d" d="M-835.016-759.058h-5.445v-5.29a2.722,2.722,0,0,1,2.722-2.722h0a2.722,2.722,0,0,1,2.722,2.722Z" transform="translate(858.334 767.071)"/></g><g transform="translate(0 95.917)"><path class="d" d="M-944.24-686.242h-5.444v-5.29a2.722,2.722,0,0,1,2.722-2.722h0a2.722,2.722,0,0,1,2.722,2.722Z" transform="translate(949.684 694.255)"/><path class="d" d="M-889.628-686.242h-5.444v-5.29a2.722,2.722,0,0,1,2.722-2.722h0a2.722,2.722,0,0,1,2.722,2.722Z" transform="translate(904.009 694.255)"/><path class="d" d="M-835.016-686.242h-5.445v-5.29a2.722,2.722,0,0,1,2.722-2.722h0a2.722,2.722,0,0,1,2.722,2.722Z" transform="translate(858.334 694.255)"/></g><g transform="translate(0 107.833)"><path class="d" d="M-944.24-613.425h-5.444v-5.29a2.722,2.722,0,0,1,2.722-2.722h0a2.722,2.722,0,0,1,2.722,2.722Z" transform="translate(949.684 621.438)"/><path class="d" d="M-889.628-613.425h-5.444v-5.29a2.722,2.722,0,0,1,2.722-2.722h0a2.722,2.722,0,0,1,2.722,2.722Z" transform="translate(904.009 621.438)"/><path class="d" d="M-835.016-613.425h-5.445v-5.29a2.722,2.722,0,0,1,2.722-2.722h0a2.722,2.722,0,0,1,2.722,2.722Z" transform="translate(858.334 621.438)"/></g></g></g><path class="c" d="M-1234.23-1315.641a16.248,16.248,0,0,1,9.2-2.029c5.211.463,7.58,5.852,15.766,5.187s20.957-1.075,21.927,2.126,4.772,1.976,5.66,6.352-14.761,7.911-22.292,5.974-20.972.644-30.239-.944-22.82.971-19.994-6.372S-1249.956-1316.483-1234.23-1315.641Z" transform="translate(1267.258 1317.728)"/><path class="e" d="M-1465.777-1186.327a9.334,9.334,0,0,1,5.358-.781c2.967.481,4.1,3.668,8.819,3.625s12.053.253,12.476,2.127,2.652,1.33,2.98,3.874-8.786,3.922-13.021,2.5-12.044-.5-17.288-1.794-13.116-.389-11.193-4.48S-1474.753-1187.461-1465.777-1186.327Z" transform="translate(1479.218 1221.89)"/><path class="f" d="M-1400.4-1219v-37.093l-11.757-10.052-10.359,10.052V-1219h-7.1v73.88h35.107V-1219Z" transform="translate(1438.802 1287.9)"/><path class="f" d="M-1415.542-1243.436V-1261.3l-5.663-4.842-4.99,4.842v17.866h-3.422v35.585h16.91v-35.585Z" transform="translate(1603.975 1335.539)"/><g transform="translate(70.023 43.367)"><path class="c" d="M-1057.859-1050.23v-101.936l28.539,29.617v72.319Z" transform="translate(1057.859 1152.167)"/><rect class="d" width="4.816" height="4.816" transform="translate(3.567 15.518)"/><rect class="d" width="4.816" height="4.816" transform="translate(3.567 23.188)"/><rect class="d" width="4.816" height="4.816" transform="translate(3.567 30.857)"/><rect class="d" width="4.816" height="4.816" transform="translate(3.567 38.527)"/><rect class="d" width="4.816" height="4.816" transform="translate(3.567 46.197)"/><rect class="d" width="4.816" height="4.816" transform="translate(3.567 53.867)"/><rect class="d" width="4.816" height="4.816" transform="translate(3.567 61.536)"/><rect class="d" width="4.816" height="4.816" transform="translate(3.567 69.206)"/><rect class="d" width="4.816" height="4.816" transform="translate(3.567 76.876)"/><rect class="d" width="4.816" height="4.816" transform="translate(3.567 84.546)"/><rect class="d" width="4.816" height="4.816" transform="translate(3.567 92.215)"/><rect class="d" width="4.816" height="4.816" transform="translate(11.429 23.188)"/><rect class="d" width="4.816" height="4.816" transform="translate(11.429 30.857)"/><rect class="d" width="4.816" height="4.816" transform="translate(11.429 38.527)"/><rect class="d" width="4.816" height="4.816" transform="translate(11.429 46.197)"/><rect class="d" width="4.816" height="4.816" transform="translate(11.429 53.867)"/><rect class="d" width="4.816" height="4.816" transform="translate(11.429 61.536)"/><rect class="d" width="4.816" height="4.816" transform="translate(11.429 69.206)"/><rect class="d" width="4.816" height="4.816" transform="translate(11.429 76.876)"/><rect class="d" width="4.816" height="4.816" transform="translate(11.429 84.546)"/><rect class="d" width="4.816" height="4.816" transform="translate(11.429 92.215)"/><rect class="d" width="4.816" height="4.816" transform="translate(19.264 30.857)"/><rect class="d" width="4.816" height="4.816" transform="translate(19.264 38.527)"/><rect class="d" width="4.816" height="4.816" transform="translate(19.264 46.197)"/><rect class="d" width="4.816" height="4.816" transform="translate(19.264 53.867)"/><rect class="d" width="4.816" height="4.816" transform="translate(19.264 61.536)"/><rect class="d" width="4.816" height="4.816" transform="translate(19.264 69.206)"/><rect class="d" width="4.816" height="4.816" transform="translate(19.264 76.876)"/><rect class="d" width="4.816" height="4.816" transform="translate(19.264 84.546)"/><rect class="d" width="4.816" height="4.816" transform="translate(19.264 92.215)"/></g><g transform="translate(0 99.508)"><path class="c" d="M-1432.278-782.382v-8.649h-37.14v8.649h-16.327v37.208h69.794v-37.208Z" transform="translate(1485.745 791.031)"/><g transform="translate(4.05 13.545)"><rect class="d" width="4.651" height="4.651"/><rect class="d" width="4.651" height="4.651" transform="translate(9.065)"/><rect class="d" width="4.651" height="4.651" transform="translate(18.13)"/><rect class="d" width="4.651" height="4.651" transform="translate(0 7.058)"/><rect class="d" width="4.651" height="4.651" transform="translate(9.065 7.058)"/><rect class="d" width="4.651" height="4.651" transform="translate(18.13 7.058)"/><rect class="d" width="4.651" height="4.651" transform="translate(0 14.116)"/><rect class="d" width="4.651" height="4.651" transform="translate(9.065 14.116)"/><rect class="d" width="4.651" height="4.651" transform="translate(18.13 14.116)"/><rect class="d" width="4.651" height="4.651" transform="translate(0 21.174)"/><rect class="d" width="4.651" height="4.651" transform="translate(9.065 21.174)"/><rect class="d" width="4.651" height="4.651" transform="translate(18.13 21.174)"/></g><g transform="translate(41.806 13.545)"><rect class="d" width="4.651" height="4.651"/><rect class="d" width="4.651" height="4.651" transform="translate(9.065)"/><rect class="d" width="4.651" height="4.651" transform="translate(18.13)"/><rect class="d" width="4.651" height="4.651" transform="translate(0 7.058)"/><rect class="d" width="4.651" height="4.651" transform="translate(9.065 7.058)"/><rect class="d" width="4.651" height="4.651" transform="translate(18.13 7.058)"/><rect class="d" width="4.651" height="4.651" transform="translate(0 14.116)"/><rect class="d" width="4.651" height="4.651" transform="translate(9.065 14.116)"/><rect class="d" width="4.651" height="4.651" transform="translate(18.13 14.116)"/><rect class="d" width="4.651" height="4.651" transform="translate(0 21.174)"/><rect class="d" width="4.651" height="4.651" transform="translate(9.065 21.174)"/><rect class="d" width="4.651" height="4.651" transform="translate(18.13 21.174)"/></g></g><g transform="translate(127.227 99.508)"><path class="c" d="M-1432.278-782.382v-8.649h-37.14v8.649h-16.327v37.208h69.794v-37.208Z" transform="translate(1485.745 791.031)"/><g transform="translate(4.05 13.545)"><rect class="d" width="4.651" height="4.651"/><rect class="d" width="4.651" height="4.651" transform="translate(9.065)"/><rect class="d" width="4.651" height="4.651" transform="translate(18.13)"/><rect class="d" width="4.651" height="4.651" transform="translate(0 7.058)"/><rect class="d" width="4.651" height="4.651" transform="translate(9.065 7.058)"/><rect class="d" width="4.651" height="4.651" transform="translate(18.13 7.058)"/><rect class="d" width="4.651" height="4.651" transform="translate(0 14.116)"/><rect class="d" width="4.651" height="4.651" transform="translate(9.065 14.116)"/><rect class="d" width="4.651" height="4.651" transform="translate(18.13 14.116)"/><rect class="d" width="4.651" height="4.651" transform="translate(0 21.174)"/><rect class="d" width="4.651" height="4.651" transform="translate(9.065 21.174)"/><rect class="d" width="4.651" height="4.651" transform="translate(18.13 21.174)"/></g><g transform="translate(41.806 13.545)"><rect class="d" width="4.651" height="4.651"/><rect class="d" width="4.651" height="4.651" transform="translate(9.065)"/><rect class="d" width="4.651" height="4.651" transform="translate(18.13)"/><rect class="d" width="4.651" height="4.651" transform="translate(0 7.058)"/><rect class="d" width="4.651" height="4.651" transform="translate(9.065 7.058)"/><rect class="d" width="4.651" height="4.651" transform="translate(18.13 7.058)"/><rect class="d" width="4.651" height="4.651" transform="translate(0 14.116)"/><rect class="d" width="4.651" height="4.651" transform="translate(9.065 14.116)"/><rect class="d" width="4.651" height="4.651" transform="translate(18.13 14.116)"/><rect class="d" width="4.651" height="4.651" transform="translate(0 21.174)"/><rect class="d" width="4.651" height="4.651" transform="translate(9.065 21.174)"/><rect class="d" width="4.651" height="4.651" transform="translate(18.13 21.174)"/></g></g><g class="g" transform="translate(197.227 117.508)"><path class="c" d="M-1452.887-785.716v-5.315h-22.824v5.315h-10.034v22.866h42.891v-22.866Z" transform="translate(1485.745 791.031)"/><g transform="translate(2.489 8.324)"><rect class="d" width="2.858" height="2.858"/><rect class="d" width="2.858" height="2.858" transform="translate(5.571)"/><rect class="d" width="2.858" height="2.858" transform="translate(11.142)"/><rect class="d" width="2.858" height="2.858" transform="translate(0 4.337)"/><rect class="d" width="2.858" height="2.858" transform="translate(5.571 4.337)"/><rect class="d" width="2.858" height="2.858" transform="translate(11.142 4.337)"/><rect class="d" width="2.858" height="2.858" transform="translate(0 8.675)"/><rect class="d" width="2.858" height="2.858" transform="translate(5.571 8.675)"/><rect class="d" width="2.858" height="2.858" transform="translate(11.142 8.675)"/><rect class="d" width="2.858" height="2.858" transform="translate(0 13.012)"/><rect class="d" width="2.858" height="2.858" transform="translate(5.571 13.012)"/><rect class="d" width="2.858" height="2.858" transform="translate(11.142 13.012)"/></g><g transform="translate(25.692 8.324)"><rect class="d" width="2.858" height="2.858"/><rect class="d" width="2.858" height="2.858" transform="translate(5.571)"/><rect class="d" width="2.858" height="2.858" transform="translate(11.142)"/><rect class="d" width="2.858" height="2.858" transform="translate(0 4.337)"/><rect class="d" width="2.858" height="2.858" transform="translate(5.571 4.337)"/><rect class="d" width="2.858" height="2.858" transform="translate(11.142 4.337)"/><rect class="d" width="2.858" height="2.858" transform="translate(0 8.675)"/><rect class="d" width="2.858" height="2.858" transform="translate(5.571 8.675)"/><rect class="d" width="2.858" height="2.858" transform="translate(11.142 8.675)"/><rect class="d" width="2.858" height="2.858" transform="translate(0 13.012)"/><rect class="d" width="2.858" height="2.858" transform="translate(5.571 13.012)"/><rect class="d" width="2.858" height="2.858" transform="translate(11.142 13.012)"/></g></g><g class="g" transform="translate(-43.773 117.508)"><path class="c" d="M-1452.887-785.716v-5.315h-22.824v5.315h-10.034v22.866h42.891v-22.866Z" transform="translate(1485.745 791.031)"/><g transform="translate(2.489 8.324)"><rect class="d" width="2.858" height="2.858"/><rect class="d" width="2.858" height="2.858" transform="translate(5.571)"/><rect class="d" width="2.858" height="2.858" transform="translate(11.142)"/><rect class="d" width="2.858" height="2.858" transform="translate(0 4.337)"/><rect class="d" width="2.858" height="2.858" transform="translate(5.571 4.337)"/><rect class="d" width="2.858" height="2.858" transform="translate(11.142 4.337)"/><rect class="d" width="2.858" height="2.858" transform="translate(0 8.675)"/><rect class="d" width="2.858" height="2.858" transform="translate(5.571 8.675)"/><rect class="d" width="2.858" height="2.858" transform="translate(11.142 8.675)"/><rect class="d" width="2.858" height="2.858" transform="translate(0 13.012)"/><rect class="d" width="2.858" height="2.858" transform="translate(5.571 13.012)"/><rect class="d" width="2.858" height="2.858" transform="translate(11.142 13.012)"/></g><g transform="translate(25.692 8.324)"><rect class="d" width="2.858" height="2.858"/><rect class="d" width="2.858" height="2.858" transform="translate(5.571)"/><rect class="d" width="2.858" height="2.858" transform="translate(11.142)"/><rect class="d" width="2.858" height="2.858" transform="translate(0 4.337)"/><rect class="d" width="2.858" height="2.858" transform="translate(5.571 4.337)"/><rect class="d" width="2.858" height="2.858" transform="translate(11.142 4.337)"/><rect class="d" width="2.858" height="2.858" transform="translate(0 8.675)"/><rect class="d" width="2.858" height="2.858" transform="translate(5.571 8.675)"/><rect class="d" width="2.858" height="2.858" transform="translate(11.142 8.675)"/><rect class="d" width="2.858" height="2.858" transform="translate(0 13.012)"/><rect class="d" width="2.858" height="2.858" transform="translate(5.571 13.012)"/><rect class="d" width="2.858" height="2.858" transform="translate(11.142 13.012)"/></g></g></g><g transform="translate(118.149 223.749) rotate(4)"><g transform="translate(0 0)"><path class="h" d="M39.607,0S-7.026,32.289.909,58.5,42.463,66.36,42.463,66.36Z" transform="translate(0 82.086)"/><path class="h" d="M16.871,0s38.72,41.456,25.4,65.394S0,64.255,0,64.255Z" transform="translate(92.698 86.357)"/><ellipse class="i" cx="50.229" cy="42.066" rx="50.229" ry="42.066" transform="translate(25.326 157.392) rotate(-83.88)"/><g class="j" transform="translate(25.326 57.507)"><path class="k" d="M2.054,0S40.189,19.882,85.712,8.977l-2.176,20.29S31.076,30.831,0,19.251Z" transform="translate(4.7 36.986)"/><path class="k" d="M2.067,0S40.213,19.888,85.714,8.977l-2.176,20.29S31.076,30.831,0,19.251Z" transform="translate(1.507 66.631)"/></g><path class="l" d="M50.229,0c27.741,0,50.229,18.833,50.229,42.066S77.97,84.131,50.229,84.131,0,65.3,0,42.066,22.488,0,50.229,0Z" transform="translate(25.326 157.392) rotate(-83.88)"/><ellipse class="m" cx="22.23" cy="22.23" rx="22.23" ry="22.23" transform="translate(30.317 41.786)"/><ellipse class="m" cx="22.23" cy="22.23" rx="22.23" ry="22.23" transform="translate(74.521 46.527)"/><path class="k" d="M0,0S8.406,3.052,11.041,1.175c0,0-7.19,6.107-7.141,8.049Z" transform="translate(61.989 164.34)"/><path class="k" d="M63.372,27.747a4.029,4.029,0,0,1-7.562-.479,2.719,2.719,0,0,1-.492-.158A30.9,30.9,0,0,0,14.737,43.2a2.72,2.72,0,0,1-4.978-2.152A36.331,36.331,0,0,1,57.469,22.14a2.781,2.781,0,0,1,.574.335,4.029,4.029,0,0,1,5.329,5.277ZM3.233,44.193a2.7,2.7,0,0,1-2.992-2.38,36.311,36.311,0,0,1,31.9-40.178,2.579,2.579,0,0,1,.664,0,4.018,4.018,0,1,1,.462,5.291,2.813,2.813,0,0,1-.509.106A30.9,30.9,0,0,0,5.622,41.2,2.72,2.72,0,0,1,3.233,44.193Z" transform="translate(73.679 0)"/><line class="n" x1="8.166" y1="34.052" transform="translate(106.217 75.481)"/><line class="n" y1="28.231" x2="25.709" transform="translate(32.697 69.562)"/><path class="k" d="M10.217,5.631,0,4.635S1.521-.261,5.609.011,10.217,5.631,10.217,5.631Z" transform="translate(66.23 92.695)"/><path class="o" d="M.574,0,40.689,15.04,0,21.087" transform="translate(32.697 52.933)"/><path class="o" d="M41.146,0,0,6,38.48,20.546" transform="translate(77.268 61.627)"/></g></g></g></svg>