<svg xmlns="http://www.w3.org/2000/svg" width="137.4" height="108.714" viewBox="0 0 137.4 108.714">
  <g id="InitiatingProductState-animation-albina_3s" transform="translate(-11.9 -17.342)">
    <g id="el_0plMgDbgIh" transform="translate(37.457 17.342)">
      <g id="el_riVxndClpk" transform="translate(0 51.692)">
        <path id="el_6fnx7cErn_" d="M59.608,74S34.7,95.531,40.9,110.129c6.2,14.689,24.451,2.007,24.451,2.007Z" transform="translate(-39.912 -74)" fill="#dddddc"/>
      </g>
      <g id="el_wC5zu2keSY" transform="translate(54.639 49.867)">
        <path id="el_dFEPy4QcIX" d="M105.548,72s24.907,21.531,18.7,36.129S99.8,110.136,99.8,110.136Z" transform="translate(-99.8 -72)" fill="#dddddc"/>
      </g>
      <g id="el_y-HgAtoujK" transform="translate(15.681 37.277)">
        <path id="el_lezzBR4nsf" d="M106.4,87.886a32.777,32.777,0,0,1-.274,4.288,37.756,37.756,0,0,1-1.277,5.93,29.574,29.574,0,0,1-7.39,12.225,21.492,21.492,0,0,1-31.02.091A29.915,29.915,0,0,1,59.051,98.1a38.113,38.113,0,0,1-1.369-6.569c-.091-1.186-.182-2.463-.182-3.741a38.073,38.073,0,0,1,.73-7.3h0c2.737-12.59,12.317-21.9,23.63-21.9,11.4,0,20.893,9.306,23.63,21.9A28.285,28.285,0,0,1,106.4,87.886Z" transform="translate(-57.135 -58.235)" fill="#efa521"/>
        <path id="el_nB3a7xwf-7" d="M82.007,117.5a22.737,22.737,0,0,1-15.875-6.751,30.374,30.374,0,0,1-7.481-12.5,33.213,33.213,0,0,1-1.369-6.66c-.091-1.277-.182-2.555-.182-3.741a38.823,38.823,0,0,1,.73-7.3v-.091C60.658,67.323,70.6,58.2,82.007,58.2s21.258,9.123,24.086,22.261a33.361,33.361,0,0,1,.821,7.39,35.273,35.273,0,0,1-.274,4.379,41.375,41.375,0,0,1-1.277,6.022,30.976,30.976,0,0,1-7.481,12.5A23.136,23.136,0,0,1,82.007,117.5ZM58.833,80.553h0a32.222,32.222,0,0,0-.73,7.208c0,1.186.091,2.463.182,3.649a38.938,38.938,0,0,0,1.369,6.478,29.76,29.76,0,0,0,7.208,12.043,20.944,20.944,0,0,0,30.29,0,28.785,28.785,0,0,0,7.208-12.043,31.742,31.742,0,0,0,1.277-5.839,32.78,32.78,0,0,0,.274-4.288,37.866,37.866,0,0,0-.73-7.208c-2.737-12.682-12.225-21.44-23.174-21.44S61.571,67.962,58.833,80.553Z" transform="translate(-57.1 -58.2)" fill="#231f20"/>
      </g>
      <g id="el_YI-nsEPuRK" transform="translate(12.579 26.967)">
        <circle id="el_67Bjr1fXGb" cx="12.864" cy="12.864" r="12.864" transform="translate(0.639 0.639)" fill="#efa521"/>
        <path id="el_mSt6zqaI41" d="M67.2,73.906a13.5,13.5,0,1,1,13.5-13.5A13.531,13.531,0,0,1,67.2,73.906Zm0-25.819A12.317,12.317,0,1,0,79.519,60.4,12.323,12.323,0,0,0,67.2,48.086Z" transform="translate(-53.7 -46.9)" fill="#231f20"/>
      </g>
      <g id="el_8yxJNUh2eX" transform="translate(38.399 26.967)">
        <circle id="el_SVAzBBFyer" cx="12.864" cy="12.864" r="12.864" transform="translate(0.639 0.639)" fill="#efa521"/>
        <path id="el_iCw5gSeEn4" d="M95.5,73.906a13.5,13.5,0,1,1,13.5-13.5A13.531,13.531,0,0,1,95.5,73.906Zm0-25.819A12.317,12.317,0,1,0,107.819,60.4,12.323,12.323,0,0,0,95.5,48.086Z" transform="translate(-82 -46.9)" fill="#231f20"/>
      </g>
      <g id="el__1-hT2wXm5F" transform="translate(37.76 97.765)">
        <path id="el_2U0ttgimxm2" d="M81.3,124.5s5.018,1.277,6.478,0c0,0-3.741,4.014-3.649,5.109Z" transform="translate(-81.3 -124.5)"/>
      </g>
      <g id="el_kSYsr70L1IU" transform="translate(36.42)">
        <path id="el_24zv7T7nR4x" d="M116.023,31.628a2.329,2.329,0,0,1-2.92,1.551,2.191,2.191,0,0,1-1.46-1.369.335.335,0,0,1-.274-.091A17.993,17.993,0,0,0,88.926,43.488a1.587,1.587,0,0,1-3.011-1,21.035,21.035,0,0,1,26.367-13.868.692.692,0,0,1,.365.182,2.507,2.507,0,0,1,1.825-.182,2.467,2.467,0,0,1,1.551,3.011ZM82.266,44.857a1.646,1.646,0,0,1-1.916-1.186A21.072,21.072,0,0,1,96.316,18.49h.365a2.006,2.006,0,0,1,1.551-1.095,2.4,2.4,0,0,1,2.828,1.733,2.454,2.454,0,0,1-1.733,2.828,2.073,2.073,0,0,1-1.916-.456c-.091,0-.182.091-.274.091a18.019,18.019,0,0,0-13.594,21.44,1.545,1.545,0,0,1-1.277,1.825Z" transform="translate(-79.831 -17.342)" fill="#231f20"/>
      </g>
      <g id="el_LWbXtlbz-17" transform="translate(17.689 32.076)">
        <circle id="el_zMTFjC4XLix" cx="8.394" cy="8.394" r="8.394" fill="#fff"/>
      </g>
      <g id="el_0NKozemcH_W" transform="translate(43.508 32.076)">
        <circle id="el_5x_kRRYe47t" cx="8.394" cy="8.394" r="8.394" fill="#fff"/>
      </g>
      <g id="el_nVlgcDW41Wj" transform="translate(64.31 61.613)">
        <path id="el_6o1tkv3usHg" d="M110.4,85.171c.091-.091.182-.274.365-.274a.519.519,0,0,1,.639.365l4.927,19.707a.52.52,0,0,1-1,.274L110.4,85.536Z" transform="translate(-110.4 -84.874)" fill="#231f20"/>
      </g>
      <g id="el_iY0UOk5VDYO" transform="translate(9.261 60.872)">
        <path id="el_O5-fNsEk3Te" d="M50.644,105.811H50.37a.471.471,0,0,1-.274-.639l7.572-20.8a.491.491,0,0,1,.912.365l-7.572,20.8C50.918,105.628,50.735,105.811,50.644,105.811Z" transform="translate(-50.063 -84.063)" fill="#231f20"/>
      </g>
      <g id="el_JCONV73DvbR_an_zvThNWQbj" transform="translate(21.703 40.47)">
        <g id="el_JCONV73DvbR">
          <g id="el_drMoJEv8HXL">
            <circle id="el_3KIvkgC1eHr" cx="4.379" cy="4.379" r="4.379" fill="#231f20"/>
          </g>
          <g id="el_YlAMLd1yCNh" transform="translate(3.376 3.376)">
            <circle id="el_DPNwZ6RFrMg" cx="1.004" cy="1.004" r="1.004" fill="#fff"/>
          </g>
        </g>
      </g>
      <g id="el_IIYZHdg7yIl_an_T1h-_M21Q" transform="translate(47.522 40.47)">
        <g id="el_IIYZHdg7yIl">
          <g id="el_3kwjOdfIg64">
            <circle id="el_kEihOOWPDDe" cx="4.379" cy="4.379" r="4.379" fill="#231f20"/>
          </g>
          <g id="el_Fr-n0fZYKVT" transform="translate(3.376 3.376)">
            <circle id="el_eV12LvoDRe8" cx="1.004" cy="1.004" r="1.004" fill="#fff"/>
          </g>
        </g>
      </g>
      <g id="el_PiQKrMBQj_B" transform="translate(36.301 55.524)">
        <path id="el_7CJmmHpTjZJ" d="M79.7,78.291l6.751-.091s-.639,3.284-3.376,3.467S79.7,78.291,79.7,78.291Z" transform="translate(-79.7 -78.2)" fill="#231f20"/>
      </g>
      <g id="el_4dQlNzqooCq" transform="translate(16.046 59.538)">
        <path id="el_jf6YTDO7pD0" d="M106.411,89.99v4.288h-.274c-3.011.365-30.746,3.832-48.355-.639-.091,0-.091,0-.182-.091V89.9a38.074,38.074,0,0,1,.73-7.3c4.2,1.46,24.725,7.755,47.351,0A39.033,39.033,0,0,1,106.411,89.99Z" transform="translate(-57.509 -82.6)" fill="#231f20"/>
        <path id="el_4GX2OapoOcF" d="M80.582,96.012c-7.755,0-16.057-.547-22.809-2.281-.091,0-.091,0-.182-.091H57.5V89.99a38.823,38.823,0,0,1,.73-7.3V82.6h.091c3.923,1.369,24.633,7.755,47.26,0h.091v.091a32.553,32.553,0,0,1,.821,7.3v4.288h-.365A200.005,200.005,0,0,1,80.582,96.012Zm-22.9-2.463h.182c17.608,4.379,45.253,1,48.355.639h.182v-4.2a37.126,37.126,0,0,0-.73-7.208c-22.444,7.664-43.154,1.46-47.26,0a37.866,37.866,0,0,0-.73,7.208S57.682,93.548,57.682,93.548Z" transform="translate(-57.5 -82.6)" fill="#231f20"/>
      </g>
      <g id="el_xKSh_05DWLz" transform="translate(17.597 77.055)">
        <path id="el_nTR3ZZWq-1j" d="M105,101.891a29.574,29.574,0,0,1-7.39,12.225c-8.029.639-20.254,1.277-31.02,0A29.915,29.915,0,0,1,59.2,101.8C64.765,103.716,83.925,108.825,105,101.891Z" transform="translate(-59.2 -101.8)" fill="#231f20"/>
        <path id="el_ULx8jVx9BLH" d="M80.74,114.938a119.76,119.76,0,0,1-14.05-.73h0a29.539,29.539,0,0,1-7.39-12.317V101.8h.091c5.383,1.733,24.633,6.934,45.709,0h.091v.091a29.171,29.171,0,0,1-7.39,12.317h0C92.966,114.664,87.035,114.938,80.74,114.938Zm-14.05-.821c10.674,1.186,22.717.639,30.929,0a29.665,29.665,0,0,0,7.3-12.134c-20.893,6.843-39.961,1.825-45.526,0A29.665,29.665,0,0,0,66.69,114.117Z" transform="translate(-59.209 -101.8)" fill="#231f20"/>
      </g>
    </g>
    <g id="el_uf21xLotaXc" transform="translate(110.89 53.706)" opacity="0">
      <g id="el_ZLEtJfY4EaE">
        <path id="el_1wtWhWPtRNt" d="M120.4,57.2h1.825v4.106h-.912V57.656H120.4Z" transform="translate(-120.4 -57.2)" fill="#00aeef"/>
        <path id="el__2E6K_IoFJx" d="M122.9,57.2h1.825v4.106h-.912V57.656H122.9Z" transform="translate(-120.619 -57.2)" fill="#00aeef"/>
        <path id="el_jbJLH6X488C" d="M125.865,57.2h3.649v.456h.456v3.193h-.365v.456h-3.649v-.456H125.5V57.656h.456V57.2Zm2.828.456h-2.281v2.281h.456v-.456h.456v-.456h.456v-.456h.456v-.456h.456Zm-1.825,3.193h2.281V58.569h-.456v.456h-.456v.456h-.456v.456h-.456v.456h-.456Z" transform="translate(-120.847 -57.2)" fill="#00aeef"/>
        <path id="el_c1Ma9BK8_CZ" d="M131,57.2h1.825v4.106h-.912V57.656H131Z" transform="translate(-121.329 -57.2)" fill="#00aeef"/>
        <path id="el_PaKT-wWsW4Y" d="M133.5,57.2h1.825v4.106h-.912V57.656H133.5Z" transform="translate(-121.548 -57.2)" fill="#00aeef"/>
        <path id="el_mwGtBzFBuju" d="M136.456,57.2h3.649v.456h.456v3.193h-.456v.456h-3.649v-.456H136V57.656h.456Zm2.737.456h-2.281v2.281h.456v-.456h.456v-.456h.456v-.456h.456v-.456h.456Zm-1.825,3.193h2.281V58.569h-.456v.456h-.456v.456h-.456v.456h-.456v.456h-.456Z" transform="translate(-121.767 -57.2)" fill="#00aeef"/>
        <path id="el_LwXnGcRVs77" d="M141.956,57.2h3.649v.456h.456v3.193h-.456v.456h-3.649v-.456H141.5V57.656h.456Zm2.737.456h-2.281v2.281h.456v-.456h.456v-.456h.456v-.456h.456v-.456h.456Zm-1.825,3.193h2.281V58.569h-.456v.456h-.456v.456h-.456v.456h-.456v.456h-.456Z" transform="translate(-122.249 -57.2)" fill="#00aeef"/>
        <path id="el_AABizO7EAtx" d="M147,57.2h1.825v4.106h-.912V57.656H147Z" transform="translate(-122.732 -57.2)" fill="#00aeef"/>
        <path id="el_Y6lX5ZQ-f_x" d="M149.956,57.2h3.649v.456h.456v3.193h-.456v.456h-3.649v-.456H149.5V57.656h.456Zm2.737.456h-2.281v2.281h.456v-.456h.456v-.456h.456v-.456h.456v-.456h.456Zm-1.825,3.193h2.281V58.569h-.456v.456h-.456v.456h-.456v.456h-.456v.456h-.456Z" transform="translate(-122.951 -57.2)" fill="#00aeef"/>
        <path id="el_kQrtAh6evof" d="M155.456,57.2h3.649v.456h.456v3.193h-.456v.456h-3.649v-.456H155V57.656h.456Zm2.737.456h-2.281v2.281h.456v-.456h.456v-.456h.456v-.456h.456v-.456h.456Zm-1.825,3.193h2.281V58.569h-.456v.456h-.456v.456h-.456v.456h-.456v.456h-.456Z" transform="translate(-123.433 -57.2)" fill="#00aeef"/>
        <path id="el_hBv0RxfO7yr" d="M160.5,57.2h1.825v4.106h-.912V57.656H160.5Z" transform="translate(-123.915 -57.2)" fill="#00aeef"/>
      </g>
    </g>
    <g id="el_YuXMMlMaTrq" transform="translate(18.286 67.209)" opacity="0">
      <g id="el_c3q7RUIQeK1">
        <path id="el_TF8mEAki1ms" d="M19.356,72h3.649v.456h.456v3.193h-.456v.456H19.356v-.456H18.9V72.456h.456Zm2.737.456H19.812v2.281h.456v-.456h.456v-.456h.456v-.456h.456v-.456h.456Zm-1.825,3.193h2.281V73.369h-.456v.456h-.456v.456h-.456v.456h-.456v.456h-.456Z" transform="translate(-18.9 -72)" fill="#00aeef"/>
        <path id="el_4Hnw7NcKUYv" d="M24.4,72h1.825v4.106h-.912V72.456H24.4Z" transform="translate(-19.382 -72)" fill="#00aeef"/>
        <path id="el_t0geeU_qRyh" d="M27.356,72h3.649v.456h.456v3.193h-.456v.456H27.356v-.456H26.9V72.456h.456Zm2.737.456H27.812v2.281h.456v-.456h.456v-.456h.456v-.456h.456v-.456h.456Zm-1.825,3.193h2.281V73.369h-.456v.456h-.456v.456h-.456v.456h-.456v.456h-.456Z" transform="translate(-19.601 -72)" fill="#00aeef"/>
        <path id="el_v0-fJeYbaUU" d="M32.4,72h1.825v4.106h-.912V72.456H32.4Z" transform="translate(-20.083 -72)" fill="#00aeef"/>
        <path id="el_sIX8F1_AjzL" d="M34.9,72h1.825v4.106h-.912V72.456H34.9Z" transform="translate(-20.302 -72)" fill="#00aeef"/>
        <path id="el_54ceSWDwmvk" d="M37.4,72h1.825v4.106h-.912V72.456H37.4Z" transform="translate(-20.522 -72)" fill="#00aeef"/>
        <path id="el_cdJmD1twe2L" d="M40.356,72h3.649v.456h.456v3.193h-.456v.456H40.356v-.456H39.9V72.456h.456Zm2.737.456H40.812v2.281h.456v-.456h.456v-.456h.456v-.456h.456v-.456h.456Zm-1.825,3.193h2.281V73.369h-.456v.456h-.456v.456h-.456v.456h-.456v.456h-.456Z" transform="translate(-20.741 -72)" fill="#00aeef"/>
      </g>
    </g>
    <g id="el_uMkzBs_WHAa" transform="translate(41.095 83.358)">
      <g id="el_9N7z22jQHz5">
        <path id="el_0e_RL-qDc7N" d="M119.078,122.8v3.649l-3.1,8.85H47.641L43.9,126.267V122.8" transform="translate(-43.9 -92.601)" fill="#0095b7"/>
        <path id="el_klqc2-qtLoj" d="M115.428,132.653H47.549L43.9,122.8h75.178Z" transform="translate(-43.9 -92.601)" fill="#0a7799"/>
        <path id="el_GiA7v1gTVF4" d="M115.524,129.752H47.645L45,91.616A1.8,1.8,0,0,1,46.824,89.7h69.521a1.911,1.911,0,0,1,1.825,1.916Z" transform="translate(-43.996 -89.7)" fill="#00aeef"/>
      </g>
      <g id="el_Oj_ZbSV6SN1" transform="translate(30.653 14.05)">
        <path id="el_rqvy99dBKJZ" d="M77.5,110.939a5.931,5.931,0,1,0,6.022-5.839A6.038,6.038,0,0,0,77.5,110.939Zm9.032-1.825a3.579,3.579,0,0,1-1.277,4.927,3.622,3.622,0,0,1-3.741-6.2A3.686,3.686,0,0,1,86.532,109.114Z" transform="translate(-77.497 -105.1)" fill="#9ce2f7"/>
      </g>
      <g id="el_qG9baF_4r1E" transform="translate(66.875 1.08)">
        <path id="el_ywyxk0CjYSv" d="M117.2,91.081c1-.091,2.007-.182,3.011-.182a3.041,3.041,0,0,1,1.551.182,2.353,2.353,0,0,1,1.186,2.737c-.091.456-.091,1-.182,1.46a27.936,27.936,0,0,1-.456,2.92c0-1,0-2.007.091-3.011,0-.456.091-1,.091-1.46a2.3,2.3,0,0,0-.091-1.369,1.945,1.945,0,0,0-.912-1,2.182,2.182,0,0,0-1.369-.274A10.426,10.426,0,0,1,117.2,91.081Z" transform="translate(-117.2 -90.884)" fill="#9ce2f7"/>
      </g>
      <g id="el_XuIN4SyDbIO" transform="translate(2.403 1.209)">
        <path id="el_nR48yrAosq-" d="M52.433,91.093c-1,.091-2.007.182-3.011.182a2.182,2.182,0,0,0-1.369.274,1.978,1.978,0,0,0-.912,1,2.3,2.3,0,0,0-.091,1.369c0,.456.091,1,.091,1.46.091,1,.091,2.007.091,3.011-.182-1-.274-2.007-.456-2.92-.091-.456-.091-1-.182-1.46a3,3,0,0,1,.091-1.551,2.29,2.29,0,0,1,2.646-1.369A17.6,17.6,0,0,1,52.433,91.093Z" transform="translate(-46.534 -91.025)" fill="#9ce2f7"/>
      </g>
      <path id="el_xlx_zA0TtnI" d="M104.665,135.916h0c-.274,0-.365-.091-.365-.274v-1.369a.242.242,0,0,1,.274-.274h.091a.242.242,0,0,1,.274.274v1.369C105.03,135.733,104.847,135.916,104.665,135.916Z" transform="translate(-49.194 -93.583)" fill="#0a7799"/>
      <path id="el_UMBeewfCXT7" d="M103.665,135.916h0c-.274,0-.365-.091-.365-.274v-1.369a.242.242,0,0,1,.274-.274h.091a.242.242,0,0,1,.274.274v1.369A.291.291,0,0,1,103.665,135.916Z" transform="translate(-49.106 -93.583)" fill="#0a7799"/>
      <path id="el_NT5GQ5A2aGr" d="M102.665,135.916h0c-.274,0-.365-.091-.365-.274v-1.369a.242.242,0,0,1,.274-.274h.091a.242.242,0,0,1,.274.274v1.369A.411.411,0,0,1,102.665,135.916Z" transform="translate(-49.019 -93.583)" fill="#0a7799"/>
      <path id="el_SLOHSx3bfL8" d="M101.565,135.916h0c-.274,0-.365-.091-.365-.274v-1.369a.242.242,0,0,1,.274-.274h.091a.242.242,0,0,1,.274.274v1.369A.291.291,0,0,1,101.565,135.916Z" transform="translate(-48.922 -93.583)" fill="#0a7799"/>
      <path id="el_-Ilo6Z1kafV" d="M100.565,135.916h0c-.274,0-.365-.091-.365-.274v-1.369a.242.242,0,0,1,.274-.274h.091a.242.242,0,0,1,.274.274v1.369A.411.411,0,0,1,100.565,135.916Z" transform="translate(-48.835 -93.583)" fill="#0a7799"/>
      <g id="el_bJkZ1CD57tW" transform="translate(16.787 40.417)">
        <path id="el_pnEwR7DxUSC" d="M66.865,135.916h0c-.274,0-.365-.091-.365-.274v-1.369a.242.242,0,0,1,.274-.274h.091a.242.242,0,0,1,.274.274v1.369A.291.291,0,0,1,66.865,135.916Z" transform="translate(-62.668 -134)" fill="#0a7799"/>
        <path id="el_YXFrgCfBukp" d="M65.765,135.916h0c-.274,0-.365-.091-.365-.274v-1.369a.242.242,0,0,1,.274-.274h.091a.242.242,0,0,1,.274.274v1.369C66.13,135.733,65.947,135.916,65.765,135.916Z" transform="translate(-62.572 -134)" fill="#0a7799"/>
        <path id="el_0hQjoxNlVrT" d="M64.765,135.916h0c-.274,0-.365-.091-.365-.274v-1.369a.242.242,0,0,1,.274-.274h.091a.242.242,0,0,1,.274.274v1.369A.291.291,0,0,1,64.765,135.916Z" transform="translate(-62.484 -134)" fill="#0a7799"/>
        <path id="el_LfoBp8f8mw8" d="M63.765,135.916h0c-.274,0-.365-.091-.365-.274v-1.369a.242.242,0,0,1,.274-.274h.091a.242.242,0,0,1,.274.274v1.369A.411.411,0,0,1,63.765,135.916Z" transform="translate(-62.396 -134)" fill="#0a7799"/>
        <path id="el_z2lALpUseUz" d="M62.665,135.916h0c-.274,0-.365-.091-.365-.274v-1.369a.242.242,0,0,1,.274-.274h.091a.242.242,0,0,1,.274.274v1.369A.291.291,0,0,1,62.665,135.916Z" transform="translate(-62.3 -134)" fill="#0a7799"/>
      </g>
      <circle id="el_J4bK_djByev" cx="0.365" cy="0.365" r="0.365" transform="translate(57.204 40.964)" fill="#0a7799"/>
    </g>
    <g id="el_HFG7PZdmFNh" transform="translate(11.9 29.255)">
      <g id="el_WZEexfoujNi" opacity="0">
        <path id="el_TcWcCJuie1H" d="M12.356,30.4h3.649v.456h.456v3.193h-.456v.456H12.356v-.456H11.9V30.856h.456Zm2.737.456H12.812v2.281h.456v-.456h.456v-.456h.456v-.456h.456v-.456h.456Zm-1.825,3.193h2.281V31.769h-.456v.456h-.456v.456h-.456v.456h-.456v.456h-.456Z" transform="translate(-11.9 -30.4)" fill="#00aeef"/>
        <path id="el_gWTYQmHntdT" d="M17.4,30.4h1.825v4.106h-.912V30.856H17.4Z" transform="translate(-12.382 -30.4)" fill="#00aeef"/>
        <path id="el_W3Py5PbD-qj" d="M20.356,30.4h3.649v.456h.456v3.193h-.456v.456H20.356v-.456H19.9V30.856h.456Zm2.737.456H20.812v2.281h.456v-.456h.456v-.456h.456v-.456h.456v-.456h.456Zm-1.825,3.193h2.281V31.769h-.456v.456h-.456v.456h-.456v.456h-.456v.456h-.456Z" transform="translate(-12.601 -30.4)" fill="#00aeef"/>
        <path id="el_RMTsuvsV76i" d="M25.956,30.4h3.649v.456h.456v3.193h-.456v.456H25.956v-.456H25.5V30.856h.456Zm2.737.456H26.412v2.281h.456v-.456h.456v-.456h.456v-.456h.456v-.456h.456Zm-1.825,3.193h2.281V31.769h-.456v.456h-.456v.456h-.456v.456h-.456v.456h-.456Z" transform="translate(-13.092 -30.4)" fill="#00aeef"/>
        <path id="el_3UwkVOPv4bD" d="M31,30.4h1.825v4.106h-.912V30.856H31Z" transform="translate(-13.574 -30.4)" fill="#00aeef"/>
        <path id="el_u5L8ldIW_EZ" d="M33.5,30.4h1.825v4.106h-.912V30.856H33.5Z" transform="translate(-13.793 -30.4)" fill="#00aeef"/>
        <path id="el__ldynNeMY41" d="M36.456,30.4h3.649v.456h.456v3.193h-.456v.456H36.456v-.456H36V30.856h.456Zm2.737.456H36.912v2.281h.456v-.456h.456v-.456h.456v-.456h.456v-.456h.456Zm-1.825,3.193h2.281V31.769h-.456v.456h-.456v.456h-.456v.456h-.456v.456h-.456Z" transform="translate(-14.012 -30.4)" fill="#00aeef"/>
        <path id="el_gnpKWfuID7G" d="M41.956,30.4h3.649v.456h.456v3.193h-.456v.456H41.956v-.456H41.5V30.856h.456Zm2.737.456H42.412v2.281h.456v-.456h.456v-.456h.456v-.456h.456v-.456h.456Zm-1.825,3.193h2.281V31.769h-.456v.456h-.456v.456h-.456v.456h-.456v.456h-.456Z" transform="translate(-14.494 -30.4)" fill="#00aeef"/>
        <path id="el_ehHVY14H1Ew" d="M47.456,30.4h3.649v.456h.456v3.193h-.456v.456H47.456v-.456H47V30.856h.456Zm2.737.456H47.912v2.281h.456v-.456h.456v-.456h.456v-.456h.456v-.456h.456Zm-1.825,3.193h2.281V31.769h-.456v.456h-.456v.456h-.456v.456h-.456v.456h-.456Z" transform="translate(-14.977 -30.4)" fill="#00aeef"/>
        <path id="el_o6ULvzwTMcX" d="M52.5,30.4h1.825v4.106h-.912V30.856H52.5Z" transform="translate(-15.459 -30.4)" fill="#00aeef"/>
        <path id="el_e9Y_1ag7J9q" d="M55,30.4h1.825v4.106h-.912V30.856H55Z" transform="translate(-15.678 -30.4)" fill="#00aeef"/>
        <path id="el_fV4zeDcwe9B" d="M57.956,30.4h3.649v.456h.456v3.193h-.456v.456H57.956v-.456H57.5V30.856h.456Zm2.737.456H58.412v2.281h.456v-.456h.456v-.456h.456v-.456h.456v-.456h.456Zm-1.825,3.193h2.281V31.769h-.456v.456h-.456v.456h-.456v.456h-.456v.456h-.456Z" transform="translate(-15.897 -30.4)" fill="#00aeef"/>
        <path id="el_JAvfErkzLHv" d="M63,30.4h1.825v4.106h-.912V30.856H63Z" transform="translate(-16.379 -30.4)" fill="#00aeef"/>
        <path id="el_x5YYRTUOlZe" d="M65.5,30.4h1.825v4.106h-.912V30.856H65.5Z" transform="translate(-16.598 -30.4)" fill="#00aeef"/>
      </g>
    </g>
  </g>
</svg>
