<svg id="icons" xmlns="http://www.w3.org/2000/svg" width="40.9" height="40.9" viewBox="0 0 40.9 40.9">
  <path id="Path_3882" data-name="Path 3882" d="M31.74,11,27.53,9.34,20.19,6.41a3.3,3.3,0,0,0-2.47,0l-4.26,1.7L25.82,13.4Z" fill="#cecece"/>
  <path id="Path_3883" data-name="Path 3883" d="M6.24,28.4l12,6.33V17.35l-13-5.21V26.73a1.88,1.88,0,0,0,1,1.67Z" fill="#cecece"/>
  <path id="Path_3884" data-name="Path 3884" d="M11.67,8.82,6.16,11.03l12.79,5.11,5.07-2.02Z" fill="#cecece"/>
  <path id="Path_3885" data-name="Path 3885" d="M27.67,29l-1.48-1.4A1.43,1.43,0,0,1,27,25.17l2.05-.3L29.94,23a1.42,1.42,0,0,1,2.55,0l.18.36V12.14L26.5,14.61v5a.69.69,0,1,1-1.37,0V15.17l-5.49,2.18V34.73l7.78-4.23Z" fill="#cecece"/>
  <path id="Path_3886" data-name="Path 3886" d="M31.6,23.46l1,2.13a.43.43,0,0,0,.31.23l2.35.34a.42.42,0,0,1,.23.72L33.8,28.54a.42.42,0,0,0-.13.37l.41,2.34a.43.43,0,0,1-.62.44l-2.1-1.1a.39.39,0,0,0-.39,0l-2.1,1.1a.42.42,0,0,1-.61-.44l.4-2.34a.41.41,0,0,0-.12-.37l-1.7-1.66a.42.42,0,0,1,.23-.72l2.35-.34a.43.43,0,0,0,.32-.23l1.05-2.13a.43.43,0,0,1,.81,0Z" fill="#cecece"/>
  <rect id="Rectangle_2278" data-name="Rectangle 2278" width="40.9" height="40.9" fill="none"/>
</svg>
