<svg id="icons" xmlns="http://www.w3.org/2000/svg" width="40.9" height="40.9" viewBox="0 0 40.9 40.9">
  <path id="Path_3887" data-name="Path 3887" d="M37.77,11,33.56,9.34,26.22,6.41a3.32,3.32,0,0,0-2.48,0l-4.25,1.7L31.84,13.4Z" fill="#f0a622"/>
  <path id="Path_3888" data-name="Path 3888" d="M38.71,12.14l-6.18,2.47v5a.71.71,0,0,1-.69.69.7.7,0,0,1-.68-.69V15.17l-5.49,2.18V34.73l12.08-6.57a1.83,1.83,0,0,0,1-1.59Z" fill="#f0a622"/>
  <path id="Path_3889" data-name="Path 3889" d="M17.7,8.82l-5.51,2.21,12.79,5.11,5.07-2.02Z" fill="#f0a622"/>
  <rect id="Rectangle_2279" data-name="Rectangle 2279" width="13.37" height="1.86" rx="0.9" transform="translate(2.2 19.57)" fill="#f0a622"/>
  <rect id="Rectangle_2280" data-name="Rectangle 2280" width="11.51" height="1.86" rx="0.93" transform="translate(6.54 22.72)" fill="#f0a622"/>
  <rect id="Rectangle_2281" data-name="Rectangle 2281" width="11.43" height="1.86" rx="0.93" transform="translate(4.14 25.94)" fill="#f0a622"/>
  <path id="Path_3890" data-name="Path 3890" d="M11.26,12.14v6.44h3.38a1.93,1.93,0,0,1,1.93,1.92,1.87,1.87,0,0,1-.45,1.22h1a1.93,1.93,0,0,1,0,3.86H16.06a1.92,1.92,0,0,1-1.42,3.23H13l11.3,5.92V17.35Z" fill="#f0a622"/>
  <rect id="Rectangle_2282" data-name="Rectangle 2282" width="40.9" height="40.9" fill="none"/>
</svg>
