<svg id="icons" xmlns="http://www.w3.org/2000/svg" width="40.9" height="40.9" viewBox="0 0 40.9 40.9">
  <path id="Path_3891" data-name="Path 3891" d="M32.07,11,27.86,9.34,20.52,6.41a3.3,3.3,0,0,0-2.47,0l-4.26,1.7L26.15,13.4Z" fill="#cecece"/>
  <path id="Path_3892" data-name="Path 3892" d="M6.57,28.4l12,6.33V17.35l-13-5.21V26.73a1.88,1.88,0,0,0,1,1.67Z" fill="#cecece"/>
  <path id="Path_3893" data-name="Path 3893" d="M31,24.16a4.4,4.4,0,1,0,4.39,4.4A4.4,4.4,0,0,0,31,24.16Zm2.2,5H31a.63.63,0,0,1-.63-.62V26.05a.63.63,0,0,1,1.26,0v1.88H33.2a.63.63,0,0,1,0,1.25Z" fill="#cecece"/>
  <path id="Path_3894" data-name="Path 3894" d="M31,23.07a5.631,5.631,0,0,1,2.061.39V12.14l-6.18,2.47v5a.69.69,0,1,1-1.37,0V15.17L20,17.35V34.73l6.3-3.31A5.48,5.48,0,0,1,31,23.07Z" fill="#cecece"/>
  <path id="Path_3895" data-name="Path 3895" d="M12,8.82,6.49,11.03l12.79,5.11,5.08-2.02Z" fill="#cecece"/>
  <rect id="Rectangle_2283" data-name="Rectangle 2283" width="40.9" height="40.9" fill="none"/>
</svg>
